<svg xmlns="http://www.w3.org/2000/svg" width="504" height="504" viewBox="0 0 504 504">
  <g fill="none" stroke="#BB9F53" transform="translate(13 13)">
    <circle cx="239" cy="239" r="245.5" stroke-width="13"/>
    <path fill="#FFF5DA" stroke-linejoin="round" stroke-width="15" d="M299.32,184.41 L257.75,147.41 C257.75,147.41 221.1,203.54 129.22,193.74 L110.3,285.27 L91.36,376.81 L180.1,347.44 L268.84,318.07 C248.54,228 299.32,184.41 299.32,184.41 Z M173.48,285.41 C168.042348,280.568378 166.056881,272.927801 168.449511,266.051415 C170.842141,259.175029 177.141622,254.41719 184.410222,253.996692 C191.678822,253.576195 198.484935,257.575859 201.654565,264.130462 C204.824194,270.685064 203.733057,278.503626 198.89,283.94 C192.264209,291.34654 180.889765,291.982184 173.48,285.36 L173.48,285.41 Z"/>
    <polygon fill="#FFF5DA" stroke-linejoin="round" stroke-width="15" points="397.47 135.34 296.66 45.56 234.79 145.8 304.51 207.88"/>
    <path fill="#FFF" stroke-linejoin="round" stroke-width="15" d="M173.78 284.28L91.31 376.88M92 376.5L397.5 376.88"/>
  </g>
</svg>
