<svg xmlns="http://www.w3.org/2000/svg" width="50" height="48" viewBox="0 0 50 48">
  <path fill="#5E4915" fill-rule="evenodd" d="M7.1582,45.0048 L2.2242,26.5418 L42.3072,15.8298 L47.2412,34.2938 L7.1582,45.0048 Z M17.1352,7.3478 C17.2852,7.3658 17.4352,7.3858 17.5902,7.3858 C17.9112,7.3858 18.2322,7.3438 18.5462,7.2598 C19.0132,7.1348 19.4412,6.9218 19.8162,6.6378 L32.6102,16.3518 L10.8882,22.1568 L17.1352,7.3478 Z M16.1272,2.8458 C16.3522,2.4538 16.7182,2.1748 17.1542,2.0578 C17.2992,2.0198 17.4462,1.9998 17.5932,1.9998 C18.3562,1.9998 19.0272,2.5168 19.2252,3.2578 C19.3432,3.6928 19.2822,4.1498 19.0552,4.5398 C18.8372,4.9188 18.4872,5.1888 18.0702,5.3128 L18.0132,5.2688 L17.9842,5.3348 C17.1042,5.5398 16.1882,4.9978 15.9562,4.1308 C15.8402,3.6928 15.9002,3.2368 16.1272,2.8458 Z M49.4312,34.7438 C49.5742,35.2768 49.2582,35.8248 48.7232,35.9678 L6.7082,47.1948 C6.6222,47.2188 6.5352,47.2298 6.4492,47.2298 C6.0082,47.2298 5.6032,46.9348 5.4842,46.4868 L0.0342,26.0918 C-0.1088,25.5588 0.2082,25.0108 0.7422,24.8678 L8.4432,22.8098 L15.2912,6.5748 C14.6892,6.0938 14.2332,5.4298 14.0242,4.6468 C13.7692,3.6938 13.9012,2.6988 14.3942,1.8448 C14.8882,0.9908 15.6852,0.3798 16.6382,0.1258 C16.9502,0.0418 17.2712,-0.0002 17.5932,-0.0002 C19.2612,-0.0002 20.7262,1.1268 21.1572,2.7408 C21.3632,3.5118 21.3042,4.3068 21.0162,5.0378 L35.0562,15.6978 L42.7582,13.6398 C43.0122,13.5678 43.2842,13.6068 43.5162,13.7398 C43.7462,13.8718 43.9132,14.0908 43.9812,14.3478 L49.4312,34.7438 Z M13.4034,36.1913 C13.1914,36.2483 12.9774,36.2773 12.7674,36.2773 C11.6614,36.2763 10.7104,35.5003 10.3954,34.3233 C10.0214,32.9243 10.7374,31.6033 12.0604,31.2503 C12.2714,31.1933 12.4854,31.1653 12.6954,31.1653 C13.8014,31.1653 14.7534,31.9423 15.0674,33.1183 C15.4414,34.5163 14.7254,35.8373 13.4034,36.1913 Z M12.7854,29.3763 C12.4004,29.3763 12.0094,29.4283 11.6234,29.5313 C10.4604,29.8413 9.5144,30.5753 8.9614,31.5953 C8.4304,32.5733 8.3004,33.7203 8.6004,34.8453 C9.1164,36.7713 10.7554,38.0653 12.6774,38.0653 C13.0624,38.0653 13.4534,38.0133 13.8404,37.9103 C15.0034,37.5993 15.9494,36.8663 16.5024,35.8463 C17.0334,34.8693 17.1624,33.7213 16.8624,32.5943 C16.3464,30.6693 14.7084,29.3763 12.7854,29.3763 Z M22.3204,29.8105 C22.5354,30.6155 21.8464,31.1065 21.1314,31.2975 L19.8444,31.6415 L19.2604,29.4565 L20.5884,29.1025 C21.5074,28.8535 22.1234,29.0755 22.3204,29.8105 Z M20.1914,27.3725 L17.9094,27.9815 C17.6774,28.0435 17.4824,28.1955 17.3604,28.4075 C17.2364,28.6235 17.2034,28.8735 17.2664,29.1115 L18.9744,35.5035 C19.0834,35.9085 19.4494,36.1915 19.8654,36.1915 C19.9434,36.1915 20.0214,36.1805 20.0944,36.1615 C20.5864,36.0305 20.8804,35.5245 20.7504,35.0305 L20.2994,33.3455 L21.5544,33.0105 C23.5274,32.4825 24.5484,30.9925 24.0914,29.2835 C23.6554,27.6495 22.0814,26.8705 20.1914,27.3725 Z M31.4688,31.2421 L27.8598,32.2071 L27.4478,30.6671 L30.5448,29.8401 C30.7738,29.7781 30.9638,29.6331 31.0818,29.4291 C31.1988,29.2251 31.2308,28.9881 31.1698,28.7611 C31.0678,28.3761 30.7158,28.1071 30.3158,28.1071 C30.2718,28.1071 30.1328,28.1261 30.0908,28.1371 L26.9918,28.9651 L26.5978,27.4851 L30.1558,26.5351 C30.6248,26.4091 30.9058,25.9261 30.7808,25.4561 C30.6568,24.9971 30.1698,24.7141 29.7008,24.8311 L25.2488,26.0201 C24.7648,26.1511 24.4768,26.6571 24.6068,27.1491 L26.3028,33.4931 C26.4108,33.8971 26.7768,34.1801 27.1918,34.1801 C27.2698,34.1801 27.3478,34.1691 27.4218,34.1491 L31.9248,32.9461 C32.3938,32.8201 32.6728,32.3361 32.5478,31.8671 C32.4248,31.4071 31.9338,31.1261 31.4688,31.2421 Z M38.9747,23.2441 C38.8467,22.7681 38.3287,22.4731 37.8687,22.5951 C37.6327,22.6571 37.4357,22.8071 37.3127,23.0171 C37.1907,23.2291 37.1577,23.4761 37.2197,23.7131 L38.2897,27.7171 L33.6177,24.2031 C33.4387,24.0681 33.0797,23.8921 32.7187,23.9931 L32.6027,24.0221 C32.1257,24.1501 31.8297,24.6621 31.9557,25.1411 L33.6787,31.5861 C33.7867,31.9861 34.1467,32.2651 34.5577,32.2651 C34.6347,32.2651 34.7117,32.2551 34.7857,32.2351 C35.0217,32.1731 35.2187,32.0221 35.3407,31.8101 C35.4637,31.5981 35.4957,31.3511 35.4327,31.1171 L34.3257,26.9741 L39.1417,30.6041 C39.3017,30.7151 39.5207,30.8421 39.8007,30.8421 C39.8817,30.8421 39.9617,30.8311 40.0797,30.8001 C40.5577,30.6721 40.8307,30.1931 40.7027,29.7091 L38.9747,23.2441 Z"/>
</svg>
