<svg xmlns="http://www.w3.org/2000/svg" width="504" height="504" viewBox="0 0 504 504">
  <g fill="none" fill-rule="evenodd" transform="translate(13 13)">
    <circle cx="239" cy="239" r="245.5" stroke="#BB9F53" stroke-width="13"/>
    <path fill="#FFF5DA" fill-rule="nonzero" d="M336,124 C336,124 224,77 167,138 C160.51,144.94 138.23,219.93 169,216 C216,210 197.33,170.14 225,167 C265,171 372,283 372,283 L406,237 L361,165 L336,124 Z"/>
    <path stroke="#BB9F53" stroke-width="15" d="M335.5 123.5C335.5 123.5 152.57 59.28 150 190.38 150 190.38 149.53 218.5 169.1 216.38 193.28 213.82 210.78 201.62 210.78 179.91 210.78 158.2 247.25 173.83 247.25 173.83L371.37 282.42 404.5 228.5M82.24 239C82.24 239 225.5 394.42 250.68 390.08 275.86 385.74 270.68 366.64 270.68 366.64L220.29 325"/>
    <path stroke="#BB9F53" stroke-width="15" d="M316.14,234.15 C316.14,234.15 383.52,281.55 380.05,298.92 C376.58,316.29 354,320.62 341,311.07 C328,301.52 260.25,252.07 260.25,252.07"/>
    <path stroke="#BB9F53" stroke-width="15" d="M241.13,292 C241.13,292 317.53,352.78 332.29,347.57 C348.99,341.68 351.1,321.93 338.09,312.35 C325.08,302.77 260.23,252 260.23,252"/>
    <path stroke="#BB9F53" stroke-width="15" d="M241.13,292 C241.13,292 314.65,341.37 314.48,357 C314.29,374.71 296.28,383.08 283.02,373.86 C269.76,364.64 220.29,325 220.29,325"/>
    <rect width="51.23" height="171.91" x="367.037" y="81" stroke="#BB9F53" stroke-width="15" transform="rotate(-31.81 392.652 166.955)"/>
    <rect width="51.23" height="171.91" x="65.732" y="80.98" fill="#FFF" fill-rule="nonzero" stroke="#BB9F53" stroke-width="15" transform="rotate(-148.19 91.347 166.935)"/>
    <rect width="49.33" height="73.48" x="80.055" y="262.248" fill="#FFF5DA" fill-rule="nonzero" stroke="#BB9F53" stroke-width="15" rx="24.66" transform="rotate(38.9 104.72 298.988)"/>
    <rect width="42.43" height="65.81" x="118.614" y="295.331" fill="#FFF5DA" fill-rule="nonzero" stroke="#BB9F53" stroke-width="15" rx="21.215" transform="rotate(38.9 139.83 328.236)"/>
    <rect width="42.43" height="65.81" x="152.489" y="326.58" fill="#FFF5DA" fill-rule="nonzero" stroke="#BB9F53" stroke-width="15" rx="21.215" transform="rotate(38.9 173.704 359.485)"/>
    <rect width="35.88" height="55.65" x="190.521" y="351.231" fill="#FFF5DA" fill-rule="nonzero" stroke="#BB9F53" stroke-width="15" rx="17.94" transform="rotate(38.9 208.46 379.056)"/>
    <path stroke="#BB9F53" stroke-width="15" d="M155,122 L173.69,129.73"/>
  </g>
</svg>
