<svg xmlns="http://www.w3.org/2000/svg" width="30" height="50" viewBox="0 0 30 50">
  <path fill="#5E4915" fill-rule="evenodd" d="M2,6.8223 L2,5.2313 C2,3.4493 3.45,2.0003 5.233,2.0003 L23.85,2.0003 C25.633,2.0003 27.083,3.4493 27.083,5.2313 L27.083,6.8223 L2,6.8223 Z M27.083,44.7593 C27.083,46.5413 25.633,47.9903 23.85,47.9903 L5.233,47.9903 C3.45,47.9903 2,46.5413 2,44.7593 L2,40.3823 L27.083,40.3823 L27.083,44.7593 Z M2,38.3823 L27.083,38.3823 L27.083,8.8223 L2,8.8223 L2,38.3823 Z M23.85,0.0003 C26.735,0.0003 29.083,2.3463 29.083,5.2313 L29.083,6.8223 L29.083,40.3823 L29.083,44.7593 C29.083,47.6433 26.735,49.9903 23.85,49.9903 L5.233,49.9903 C2.348,49.9903 0,47.6433 0,44.7593 L0,40.3823 L0,6.8223 L0,5.2313 C0,2.3463 2.348,0.0003 5.233,0.0003 L23.85,0.0003 Z M14.5415,43.5195 C14.8395,43.5205 15.0815,43.7625 15.0815,44.0605 C15.0815,44.3575 14.8385,44.5985 14.5425,44.5985 C14.2445,44.5985 14.0015,44.3575 14.0015,44.0605 C14.0015,43.7625 14.2435,43.5205 14.5415,43.5195 Z M14.5415,46.5985 C15.9465,46.5985 17.0815,45.4625 17.0815,44.0605 C17.0815,42.6585 15.9465,41.5205 14.5415,41.5195 C13.1365,41.5205 12.0015,42.6585 12.0015,44.0605 C12.0015,45.4625 13.1365,46.5985 14.5415,46.5985 Z"/>
</svg>
