<svg xmlns="http://www.w3.org/2000/svg" width="42" height="49" viewBox="0 0 42 49">
  <path fill="#5E4915" fill-rule="evenodd" d="M21.5797,47.7285 C20.0967,47.7285 18.8897,46.5215 18.8897,45.0385 C18.8897,43.5545 20.0967,42.3475 21.5797,42.3475 C23.0627,42.3475 24.2697,43.5545 24.2697,45.0385 C24.2697,46.5215 23.0627,47.7285 21.5797,47.7285 M12.3537,24.9655 C12.3537,22.6975 14.1987,20.8525 16.4677,20.8525 C18.7347,20.8525 20.5797,22.6975 20.5797,24.9655 C20.5797,27.2335 18.7347,29.0785 16.4677,29.0785 C14.1987,29.0785 12.3537,27.2335 12.3537,24.9655 M34.8357,2.9995 C36.3187,2.9995 37.5257,4.2075 37.5257,5.6915 C37.5257,7.1745 36.3187,8.3815 34.8357,8.3815 C33.3507,8.3815 32.1437,7.1745 32.1437,5.6915 C32.1437,4.2075 33.3507,2.9995 34.8357,2.9995 M21.5797,40.3475 C24.1657,40.3475 26.2697,42.4525 26.2697,45.0385 C26.2697,47.6245 24.1657,49.7285 21.5797,49.7285 C18.9937,49.7285 16.8897,47.6245 16.8897,45.0385 C16.8897,43.2085 17.9527,41.6365 19.4847,40.8645 L16.9847,31.0515 C16.8137,31.0665 16.6427,31.0785 16.4677,31.0785 C14.5407,31.0785 12.8227,30.1805 11.7017,28.7845 L9.4727,30.0345 C9.3167,30.1215 9.1487,30.1625 8.9837,30.1625 C8.6337,30.1625 8.2947,29.9785 8.1107,29.6515 C7.8407,29.1695 8.0127,28.5595 8.4937,28.2905 L10.7247,27.0395 C10.4887,26.3905 10.3537,25.6945 10.3537,24.9655 C10.3537,22.9995 11.2917,21.2515 12.7377,20.1325 L12.1537,19.0425 C11.8917,18.5565 12.0757,17.9505 12.5617,17.6895 C13.0487,17.4275 13.6557,17.6115 13.9157,18.0975 L14.4987,19.1835 C15.1167,18.9725 15.7777,18.8525 16.4677,18.8525 C17.7397,18.8525 18.9217,19.2445 19.9017,19.9125 L30.9507,8.3175 C30.4417,7.5675 30.1437,6.6645 30.1437,5.6915 C30.1437,3.1045 32.2487,0.9995 34.8357,0.9995 C37.4217,0.9995 39.5257,3.1045 39.5257,5.6915 C39.5257,8.2775 37.4217,10.3815 34.8357,10.3815 C33.9447,10.3815 33.1197,10.1185 32.4087,9.6855 L21.3447,21.2955 C22.1157,22.3195 22.5797,23.5875 22.5797,24.9655 C22.5797,25.7105 22.4387,26.4225 22.1937,27.0835 L25.3307,28.8745 C25.8097,29.1485 25.9767,29.7595 25.7027,30.2395 C25.5177,30.5625 25.1817,30.7435 24.8337,30.7435 C24.6657,30.7435 24.4947,30.7015 24.3387,30.6115 L21.2047,28.8225 C20.5967,29.5685 19.8147,30.1665 18.9237,30.5595 L21.4207,40.3645 C21.4747,40.3615 21.5247,40.3475 21.5797,40.3475 Z M38.7301,35.1465 C40.1261,35.1465 41.2591,36.2785 41.2591,37.6745 C41.2591,39.0725 40.1261,40.2045 38.7301,40.2045 C37.3341,40.2045 36.2021,39.0725 36.2021,37.6745 C36.2021,37.5805 36.2191,37.4905 36.2291,37.3985 L34.7601,36.5595 C34.2811,36.2865 34.1141,35.6745 34.3881,35.1955 C34.6621,34.7145 35.2721,34.5465 35.7521,34.8235 L37.2171,35.6605 C37.6401,35.3415 38.1611,35.1465 38.7301,35.1465 Z M8.2418,7.5234 C8.5038,8.0094 8.3208,8.6164 7.8338,8.8774 C7.6828,8.9584 7.5208,8.9964 7.3618,8.9964 C7.0058,8.9964 6.6598,8.8044 6.4798,8.4684 L5.6808,6.9794 C5.6098,6.9854 5.5418,7.0014 5.4698,7.0014 C4.0718,7.0014 2.9398,5.8694 2.9398,4.4724 C2.9398,3.0744 4.0718,1.9434 5.4698,1.9434 C6.8648,1.9434 7.9978,3.0744 7.9978,4.4724 C7.9978,5.0654 7.7848,5.6034 7.4428,6.0354 L8.2418,7.5234 Z M8.3707,11.9932 C8.1087,11.5072 8.2927,10.9002 8.7787,10.6392 C9.2667,10.3772 9.8717,10.5622 10.1327,11.0482 L12.0237,14.5732 C12.2857,15.0592 12.1017,15.6662 11.6157,15.9272 C11.4657,16.0082 11.3037,16.0462 11.1437,16.0462 C10.7877,16.0462 10.4417,15.8542 10.2627,15.5182 L8.3707,11.9932 Z M32.2789,32.8408 C32.7579,33.1138 32.9249,33.7248 32.6509,34.2048 C32.4659,34.5278 32.1299,34.7088 31.7819,34.7088 C31.6139,34.7088 31.4439,34.6668 31.2869,34.5768 L27.8119,32.5938 C27.3329,32.3198 27.1659,31.7098 27.4399,31.2298 C27.7139,30.7488 28.3209,30.5808 28.8039,30.8578 L32.2789,32.8408 Z M5.0045,30.2461 C5.4885,29.9741 6.0965,30.1481 6.3655,30.6291 C6.6365,31.1111 6.4645,31.7211 5.9835,31.9901 L4.9985,32.5421 C5.0355,32.7141 5.0575,32.8921 5.0575,33.0741 C5.0575,34.4701 3.9255,35.6021 2.5285,35.6021 C1.1315,35.6021 -0.0005,34.4701 -0.0005,33.0741 C-0.0005,31.6781 1.1315,30.5451 2.5285,30.5451 C3.0025,30.5451 3.4415,30.6831 3.8195,30.9101 L5.0045,30.2461 Z" transform="translate(0 -1)"/>
</svg>
