<svg xmlns="http://www.w3.org/2000/svg" width="48" height="48" viewBox="0 0 48 48">
  <g fill="#5E4915" fill-rule="evenodd">
    <path d="M15.51648 35.9674979C13.06464 35.9674979 11.07072 33.9726179 11.07072 31.5217379 11.07072 29.0708579 13.06464 27.0759779 15.51648 27.0759779 17.96736 27.0759779 19.96128 29.0708579 19.96128 31.5217379 19.96128 33.9726179 17.96736 35.9674979 15.51648 35.9674979M30.068448 28.5653219C30.493728 28.6210019 30.828768 28.9541219 30.887328 29.3784419 30.987168 30.1013219 31.038048 30.8222819 31.038048 31.5221219 31.038048 32.2210019 30.987168 32.9429219 30.887328 33.6648419 30.828768 34.0891619 30.493728 34.4222819 30.068448 34.4779619L26.750688 34.9128419C26.526048 35.6578019 26.227488 36.3768419 25.858848 37.0642019L27.899808 39.7195619C28.160928 40.0584419 28.162848 40.5307619 27.904608 40.8725219 27.039648 42.0168419 26.019168 43.0373219 24.873888 43.9051619 24.533088 44.1634019 24.059808 44.1624419 23.719968 43.9003619L21.065568 41.8603619C20.378208 42.2299619 19.658208 42.5294819 18.911328 42.7541219L18.477408 46.0738019C18.421728 46.4981219 18.089568 46.8331619 17.664288 46.8917219 16.942368 46.9925219 16.218528 47.0434019 15.516768 47.0434019 14.818848 47.0434019 14.099808 46.9925219 13.378848 46.8936419 12.954528 46.8350819 12.622368 46.5000419 12.565728 46.0747619L12.131808 42.7589219C11.384928 42.5333219 10.663008 42.2338019 9.973728 41.8642019L7.318368 43.9051619C6.978528 44.1653219 6.506208 44.1672419 6.164448 43.9090019 5.643168 43.5144419 5.138208 43.0786019 4.663968 42.6139619L4.430688 42.3826019C3.960288 41.9016419 3.526368 41.3986019 3.133728 40.8802019 2.875488 40.5384419 2.877408 40.0661219 3.138528 39.7262819L5.178528 37.0718819C4.807008 36.3826019 4.506528 35.6597219 4.281888 34.9109219L.963168 34.4770019C.538848 34.4213219.203808 34.0882019.144288 33.6638819.057888 33.0341219.008928 32.3890019.000288 31.7486819L.000288 31.3090019C.008928 30.6542819.057888 30.0101219.144288 29.3794019.203808 28.9550819.538848 28.6219619.963168 28.5672419L4.281888 28.1323619C4.507488 27.3835619 4.807008 26.6606819 5.177568 25.9714019L3.138528 23.3170019C2.877408 22.9771619 2.875488 22.5048419 3.133728 22.1640419 3.526368 21.6456419 3.960288 21.1426019 4.423008 20.6693219L4.656288 20.4360419C5.141088 19.9618019 5.646048 19.5259619 6.164448 19.1342819 6.506208 18.8760419 6.978528 18.8770019 7.318368 19.1390819L9.972768 21.1790819C10.662048 20.8094819 11.383968 20.5099619 12.131808 20.2853219L12.565728 16.9685219C12.622368 16.5432419 12.954528 16.2082019 13.378848 16.1496419 14.823648 15.9490019 16.222368 15.9509219 17.664288 16.1506019 18.089568 16.2101219 18.421728 16.5461219 18.477408 16.9694819L18.911328 20.2882019C19.658208 20.5147619 20.378208 20.8133219 21.065568 21.1829219L23.719968 19.1429219C24.059808 18.8827619 24.533088 18.8798819 24.873888 19.1390819 26.019168 20.0069219 27.039648 21.0264419 27.904608 22.1707619 28.162848 22.5125219 28.160928 22.9848419 27.899808 23.3246819L25.858848 25.9800419C26.227488 26.6664419 26.526048 27.3864419 26.750688 28.1304419L30.068448 28.5653219zM29.083488 32.6885219C29.119008 32.2939619 29.135328 31.9042019 29.135328 31.5221219 29.135328 31.1390819 29.119008 30.7493219 29.083488 30.3547619L25.875168 29.9352419C25.484448 29.8843619 25.165728 29.5973219 25.074528 29.2152419 24.835488 28.2206819 24.442848 27.2731619 23.906208 26.3995619 23.700768 26.0635619 23.723808 25.6354019 23.963808 25.3234019L25.937568 22.7554019C25.436448 22.1602019 24.884448 21.6082019 24.288288 21.1061219L21.722208 23.0779619C21.410208 23.3179619 20.981088 23.3410019 20.645088 23.1346019 19.770528 22.5989219 18.823008 22.2053219 17.827488 21.9653219 17.444448 21.8722019 17.158368 21.5534819 17.107488 21.1637219L16.687968 17.9544419C15.900768 17.8862819 15.143328 17.8853219 14.356128 17.9534819L13.936608 21.1608419C13.884768 21.5515619 13.598688 21.8702819 13.215648 21.9624419 12.218208 22.2014819 11.268768 22.5950819 10.393248 23.1317219 10.057248 23.3371619 9.629088 23.3150819 9.317088 23.0741219L6.749088 21.1013219C6.490848 21.3192419 6.238368 21.5486819 5.993568 21.7886819L5.775648 22.0066019C5.543328 22.2446819 5.316768 22.4933219 5.100768 22.7486819L7.073568 25.3147619C7.313568 25.6277219 7.335648 26.0558819 7.130208 26.3918819 6.592608 27.2683619 6.198048 28.2187619 5.958048 29.2162019 5.865888 29.5992419 5.547168 29.8853219 5.157408 29.9362019L1.950048 30.3557219C1.923168 30.6773219 1.906848 31.0008419 1.903008 31.3234019L1.903008 31.7342819C1.906848 32.0482019 1.923168 32.3678819 1.950048 32.6875619L5.157408 33.1061219C5.547168 33.1570019 5.865888 33.4440419 5.958048 33.8270819 6.198048 34.8245219 6.591648 35.7749219 7.130208 36.6514019 7.335648 36.9874019 7.313568 37.4155619 7.073568 37.7285219L5.100768 40.2946019C5.318688 40.5509219 5.546208 40.8014819 5.783328 41.0443619L6.001248 41.2613219C6.240288 41.4955619 6.490848 41.7240419 6.749088 41.9419619L9.317088 39.9691619C9.629088 39.7301219 10.057248 39.7070819 10.393248 39.9115619 11.269728 40.4491619 12.219168 40.8427619 13.215648 41.0818019 13.598688 41.1730019 13.884768 41.4917219 13.936608 41.8824419L14.356128 45.0898019C15.143328 45.1579619 15.900768 45.1570019 16.687968 45.0888419L17.107488 41.8795619C17.158368 41.4888419 17.444448 41.1701219 17.827488 41.0779619 18.822048 40.8389219 19.769568 40.4453219 20.645088 39.9086819 20.981088 39.7032419 21.410208 39.7262819 21.722208 39.9653219L24.288288 41.9381219C24.884448 41.4350819 25.436448 40.8840419 25.937568 40.2878819L23.963808 37.7208419C23.723808 37.4088419 23.700768 36.9797219 23.906208 36.6446819 24.442848 35.7691619 24.835488 34.8226019 25.074528 33.8280419 25.165728 33.4459619 25.484448 33.1589219 25.875168 33.1080419L29.083488 32.6885219zM15.51648 25.1742179C19.01664 25.1742179 21.864 28.0215779 21.864 31.5217379 21.864 35.0218979 19.01664 37.8692579 15.51648 37.8692579 12.01632 37.8692579 9.16896 35.0218979 9.16896 31.5217379 9.16896 28.0215779 12.01632 25.1742179 15.51648 25.1742179zM39.3337985 11.9549138C38.9441901 12.9066579 38.0275202 13.5228269 36.998992 13.5228269 36.6719484 13.5228269 36.3505926 13.4583661 36.044404 13.3341844 35.4206514 13.0782372 34.9334039 12.5957295 34.672717 11.9748208 34.4129781 11.352964 34.4101342 10.6666466 34.6651334 10.0438419 35.0556898 9.09114986 35.9723596 8.47592881 37.0008879 8.47592881 37.3279314 8.47592881 37.6483393 8.53944162 37.9545279 8.66457132 38.5792285 8.91957049 39.065528 9.40302616 39.3262149 10.0239349 39.5859538 10.6457916 39.5897456 11.3311611 39.3337985 11.9549138M47.5253387 12.7517625C47.8931442 12.9612599 48.075151 13.3916303 47.9708763 13.8011457 47.837215 14.3177797 47.6722713 14.8192464 47.478889 15.2894308 47.2855068 15.762459 47.0523105 16.2354872 46.784988 16.695244 46.5726466 17.0611536 46.1413283 17.2393686 45.7337089 17.1313021L43.5884928 16.5644266C43.2927317 16.914221 42.9694799 17.2412646 42.6206335 17.5398695L43.206468 19.6812938C43.3173784 20.0889133 43.1429552 20.5211795 42.7789415 20.7373126 41.8764909 21.2710098 40.9067357 21.6776813 39.8943227 21.9459518 39.4848073 22.0540184 39.0553849 21.8767513 38.8420956 21.5108417L37.7263558 19.5931342C37.2675469 19.6329482 36.8096859 19.6338962 36.349929 19.5997699L35.2503044 21.5269569C35.079673 21.8246139 34.7649528 21.9999851 34.4341174 21.9999851 34.3573333 21.9999851 34.2786533 21.9905056 34.2018691 21.9705986 33.6852351 21.8378853 33.1828204 21.6729416 32.7088442 21.4786113 32.237712 21.286177 31.7665797 21.0539287 31.3077708 20.7875541 30.9418612 20.5752128 30.7636461 20.1438945 30.8717127 19.7353271L31.4376402 17.5920069C31.0868979 17.2952978 30.7589064 16.9701502 30.4584055 16.6194078L28.3169812 17.2052424C27.9074659 17.3161528 27.4761476 17.1407816 27.2609624 16.7767679 27.0182866 16.3653566 26.7974137 15.9321424 26.6059273 15.4885007L26.513976 15.2704717C26.3272294 14.8116628 26.1736611 14.3528539 26.0532712 13.8959409 25.9442566 13.4873734 26.1224717 13.0560551 26.4883813 12.8427659L28.4051408 11.727026C28.3662748 11.2672692 28.3643789 10.8056164 28.3994531 10.3449116L26.473214 9.24623485C26.1063565 9.03578944 25.9243496 8.60636705 26.0295723 8.19590371 26.1461705 7.74467841 26.2912072 7.29534902 26.4618386 6.86213482L26.5803326 6.57111346C26.7699231 6.12652383 26.9803685 5.70468506 27.2126168 5.30464919 27.4259061 4.9387396 27.8572244 4.76052457 28.2648439 4.86764318L30.4100599 5.43451866C30.7077169 5.0818804 31.0319166 4.75483686 31.382659 4.45338803L30.7987204 2.31385968C30.6878099 1.9062402 30.8622332 1.47397395 31.2262469 1.25878878 31.6348143 1.01706094 32.0661326.797136005 32.5088263.605649641L32.7287512.513698267C33.1875602.326951664 33.6492129.172435439 34.1099177.0510975451 34.5165893-.0560210648 34.9488555.122193968 35.1611968.486207651L36.2778847 2.40486311C36.7366936 2.36599706 37.1973984 2.3631532 37.6581032 2.39917539L38.755832.473884271C38.9662774.106078778 39.3956998-.0759280631 39.8061631.0302425945 40.3218492.162955916 40.8204721.326951664 41.2897085.519385981 41.7646326.714664155 42.2386087.947860421 42.6983656 1.21518297 43.0642752 1.42752428 43.2434382 1.85884258 43.1344236 2.26741002L42.5675482 4.41262608C42.9182905 4.70933515 43.2453341 5.03353483 43.543939 5.38238128L45.6844153 4.79749471C46.0920348 4.68658429 46.525249 4.86195547 46.7394862 5.2250212 47.2741313 6.12747179 47.6798549 7.09722699 47.9481254 8.10964005 48.056192 8.51820749 47.877977 8.94952578 47.5130153 9.1618671L45.5943599 10.277607C45.6332259 10.7354679 45.6351218 11.1952248 45.6000476 11.6521378L47.5253387 12.7517625zM45.7403445 14.5784665C45.8152327 14.3955117 45.8853812 14.2078172 45.949842 14.0153829L44.1316695 12.9773751C43.7932505 12.7839928 43.6093477 12.402916 43.6681208 12.0189953 43.7752394 11.3260422 43.7714476 10.6226616 43.6595892 9.92781256 43.5970244 9.54389188 43.7780833 9.16091915 44.1136584 8.96658893L45.9251952 7.91246597C45.7943778 7.53328505 45.6398616 7.1645316 45.4616465 6.80525768L43.4415602 7.35791387C43.067119 7.45839682 42.6661352 7.32189169 42.4367308 7.00717152 42.0205797 6.43934809 41.5210088 5.94262109 40.9512895 5.53215774 40.6365693 5.30370124 40.4934285 4.90556127 40.5929635 4.53017216L41.1285566 2.50534605C40.9456018 2.41529058 40.761699 2.33281873 40.5777963 2.2579305 40.3967374 2.18399022 40.2109388 2.1147897 40.0194524 2.05032895L38.9823926 3.86850146C38.7890103 4.20692043 38.4098294 4.39177113 38.0230648 4.33110218 37.3320076 4.22493152 36.6191475 4.22777538 35.9271423 4.33963375 35.5470134 4.39935474 35.1602489 4.22113971 34.9649707 3.88461665L33.9117957 2.07402775C33.7553836 2.12900899 33.5999194 2.18778203 33.4454032 2.25034688L33.2453853 2.33376668C33.0984526 2.39727949 32.952468 2.46553205 32.8064833 2.53757643L33.3591395 4.55671483C33.4615184 4.93210394 33.3221694 5.33213981 33.0074492 5.56154426 32.4386778 5.97864328 31.9410029 6.47916209 31.5295916 7.05077733 31.303031 7.36549749 30.9020472 7.50863829 30.528554 7.4091033L28.5046758 6.8744582C28.4383191 7.01285924 28.3748063 7.15315618 28.3141374 7.29440107L28.2041749 7.56172362C28.1510896 7.6991767 28.0999002 7.83947364 28.0506066 7.98261444L29.8678312 9.01967425C30.2062502 9.21305652 30.3901529 9.59413335 30.3313799 9.97805403 30.2242613 10.674799 30.2271051 11.3800755 30.3399115 12.0758725 30.4034243 12.4607411 30.2223654 12.8427659 29.8858423 13.038992L28.0762014 14.092167C28.1302346 14.2466832 28.1890077 14.4011995 28.2506246 14.5538198L28.3340444 14.7528898C28.3985051 14.9017183 28.4667577 15.0495988 28.53975 15.1965314L30.5598364 14.6448232C30.9371214 14.5452882 31.3352614 14.6817933 31.5646658 14.9946176 31.9827128 15.5643369 32.4832316 16.0610639 33.0529509 16.4705793 33.3686191 16.6980879 33.5117598 17.0971758 33.4122249 17.4725649L32.8775798 19.4964431C33.0586386 19.5855506 33.2396975 19.6661265 33.4207564 19.7410148 33.6046592 19.815903 33.7933017 19.8860515 33.986684 19.9505122L35.0246917 18.1313918C35.218074 17.7939207 35.5982029 17.610018 35.9830715 17.668791 36.6750767 17.7740137 37.384145 17.7702219 38.0761502 17.6593115 38.4543831 17.5929549 38.8430436 17.7759096 39.0383218 18.1133807L40.0924447 19.9230216C40.4697297 19.7922042 40.8394311 19.63674 41.1977571 19.458525L40.6451009 17.4384386C40.54367 17.0630495 40.683019 16.6630136 40.9967912 16.4336092 41.5636667 16.0174581 42.0594457 15.5178873 42.4689611 14.9491159 42.6964697 14.6334478 43.0955576 14.490307 43.4699988 14.589842L45.4948249 15.125435C45.5839324 14.9434282 45.6664042 14.7604734 45.7403445 14.5784665zM38.6664401 6.92697476C39.7546893 7.37156439 40.6040546 8.21429398 41.0581237 9.29875141 41.5131408 10.3832088 41.5178806 11.5795246 41.0713951 12.6668259 40.3926612 14.3276384 38.7934657 15.4007204 36.998992 15.4007204 36.4264288 15.4007204 35.865241 15.2907579 35.3324918 15.0717809 34.2442426 14.6262433 33.3948773 13.7844617 32.9408082 12.7000043 32.486739 11.6164948 32.4810513 10.419231 32.9265889 9.33192974 33.6072186 7.67111731 35.2064142 6.59803531 37.0008879 6.59803531 37.5734511 6.59803531 38.1336909 6.70799778 38.6664401 6.92697476z"/>
  </g>
</svg>
