<svg xmlns="http://www.w3.org/2000/svg" width="41" height="50" viewBox="0 0 41 50">
  <path fill="#5E4915" fill-rule="evenodd" d="M39.7492,6.7825 C40.2182,7.2455 40.4862,7.8865 40.4862,8.5415 L40.4862,41.7825 C40.4862,43.1445 39.3772,44.2525 38.0142,44.2525 L7.4692,44.2525 C6.1082,44.2525 5.0002,43.1445 5.0002,41.7825 L5.0002,2.4695 C5.0002,1.1075 6.1082,0.0005 7.4692,0.0005 L31.8552,0.0005 C32.5082,0.0005 33.1232,0.2525 33.5882,0.7095 L39.7492,6.7825 Z M38.0142,42.2525 C38.2742,42.2525 38.4862,42.0415 38.4862,41.7825 L38.4862,9.5415 L31.8632,9.5415 C31.3112,9.5415 30.8632,9.0945 30.8632,8.5425 L30.8562,2.0005 L7.4692,2.0005 C7.2102,2.0005 7.0002,2.2105 7.0002,2.4695 L7.0002,41.7825 C7.0002,42.0415 7.2102,42.2525 7.4692,42.2525 L38.0142,42.2525 Z M31.8555,32.5288 C32.4075,32.5288 32.8555,32.9768 32.8555,33.5288 C32.8555,34.0808 32.4075,34.5288 31.8555,34.5288 L12.9375,34.5288 C12.3845,34.5288 11.9375,34.0808 11.9375,33.5288 C11.9375,32.9768 12.3845,32.5288 12.9375,32.5288 L31.8555,32.5288 Z M31.8555,26.3409 C32.4075,26.3409 32.8555,26.7889 32.8555,27.3409 C32.8555,27.8929 32.4075,28.3409 31.8555,28.3409 L12.9375,28.3409 C12.3845,28.3409 11.9375,27.8929 11.9375,27.3409 C11.9375,26.7889 12.3845,26.3409 12.9375,26.3409 L31.8555,26.3409 Z M31.8555,20.1529 C32.4075,20.1529 32.8555,20.6009 32.8555,21.1529 C32.8555,21.7049 32.4075,22.1529 31.8555,22.1529 L12.9375,22.1529 C12.3845,22.1529 11.9375,21.7049 11.9375,21.1529 C11.9375,20.6009 12.3845,20.1529 12.9375,20.1529 L31.8555,20.1529 Z M12.9371,15.9649 C12.3851,15.9649 11.9371,15.5169 11.9371,14.9649 C11.9371,14.4129 12.3851,13.9649 12.9371,13.9649 L21.4741,13.9649 C22.0261,13.9649 22.4741,14.4129 22.4741,14.9649 C22.4741,15.5169 22.0261,15.9649 21.4741,15.9649 L12.9371,15.9649 Z M37.6702,7.5415 L32.8572,2.7975 L32.8622,7.5415 L37.6702,7.5415 Z M34.4297,45.773 C34.9817,45.773 35.4297,46.221 35.4297,46.773 C35.4297,48.158 34.3037,49.285 32.9187,49.285 L2.5127,49.285 C1.1267,49.285 -0.0003,48.158 -0.0003,46.773 L-0.0003,7.281 C-0.0003,5.897 1.1267,4.771 2.5127,4.771 C3.0647,4.771 3.5127,5.219 3.5127,5.771 C3.5127,6.323 3.0647,6.771 2.5127,6.771 C2.2297,6.771 1.9997,7 1.9997,7.281 L1.9997,46.773 C1.9997,47.055 2.2297,47.285 2.5127,47.285 L32.9187,47.285 C33.2007,47.285 33.4297,47.055 33.4297,46.773 C33.4297,46.221 33.8777,45.773 34.4297,45.773 Z"/>
</svg>
