<svg xmlns="http://www.w3.org/2000/svg" width="48" height="48" viewBox="0 0 48 48">
  <path fill="#BA9E59" fill-rule="evenodd" d="M0,0 L48,0 L48,48 L0,48 L0,0 Z M33.660446,14.234993 C33.322828,13.9401468 32.7774452,13.9133426 31.8425032,14.2081888 C31.1932379,14.4226223 25.4277621,16.6741748 20.3375223,18.8453147 C15.7666947,20.802021 12.0528973,22.5174895 11.6113969,22.7319231 C11.1179553,22.8927482 10.0531602,23.3752238 10.001219,24.1257412 C9.97524835,24.6082168 10.3648075,25.0370839 11.1179553,25.3855384 C11.9230442,25.8144056 15.481018,27.0473986 16.2341657,27.2886364 C16.4938718,28.199979 18.0261379,33.534014 18.1040497,33.8556643 C18.2079322,34.3381399 18.5195795,34.6061818 18.6754032,34.7133986 C18.7013738,34.7402028 18.753315,34.7938112 18.8052562,34.8206154 C18.8831681,34.8742238 18.9870505,34.901028 19.1169036,34.901028 C19.2986978,34.901028 19.5064627,34.8206154 19.688257,34.6865944 C20.6491696,33.8824685 22.3112888,32.0865874 22.7787598,31.5773077 C24.8304381,33.2391678 27.0639107,35.0886573 27.2716755,35.3030909 C27.2716755,35.3030909 27.2976462,35.3298951 27.2976462,35.3298951 C27.7910878,35.7587622 28.3105,36 28.777971,36 C28.9337947,36 29.0896183,35.9731958 29.245442,35.9195874 C29.7908249,35.731958 30.180384,35.1958741 30.3102371,34.4721608 C30.3102371,34.4453566 30.3362077,34.3381399 30.3881489,34.1505105 C31.2711497,30.1834895 31.9723562,26.698944 32.5437097,23.7772867 C33.0890925,20.9092377 33.5305929,18.0947972 33.790299,16.5937622 C33.8422402,16.2185035 33.8941815,15.9236573 33.9201521,15.7360279 C33.9980639,15.199944 34.0500051,14.5834475 33.660446,14.234993 Z M17,27.6041469 L29.3879816,19.134021 C29.4139523,19.1072168 29.4658935,19.0804126 29.4918641,19.0536084 C29.5178347,19.0536084 29.5178347,19.0268042 29.5438053,19.0268042 C29.5697759,19.0268042 29.5697759,19.0268042 29.5957465,19 C29.5697759,19.0268042 29.5438053,19.1072168 29.4918641,19.1608252 L26.3494201,22.1896993 C24.1678887,24.2536224 21.3111215,26.9608462 19.4152669,28.7299231 C19.4152669,28.7299231 19.4152669,28.7299231 19.4152669,28.7567273 C19.4152669,28.7567273 19.3892962,28.7835315 19.3892962,28.7835315 C19.3892962,28.7835315 19.3892962,28.8103357 19.3633256,28.8103357 C19.3633256,28.8371399 19.3633256,28.8371399 19.337355,28.8639441 C19.337355,28.8639441 19.337355,28.8907483 19.337355,28.8907483 C19.337355,28.8907483 19.337355,28.8907483 19.337355,28.9175525 C19.207502,30.4185874 18.9737665,32.9917902 18.869884,34.1443707 C18.869884,34.1443707 18.869884,34.1443707 18.869884,34.1175665 C18.7660016,33.7959161 17.3116473,28.6763147 17,27.6041469 Z"/>
</svg>
