<svg xmlns="http://www.w3.org/2000/svg" width="48" height="48" viewBox="0 0 48 48">
  <path fill="#BA9E59" fill-rule="evenodd" d="M0,0 L48,0 L48,48 L0,48 L0,0 Z M37.6538462,35 L35.6552308,32.7619231 C35.5426923,32.6603846 35.5384615,32.4234615 35.5384615,32.0257692 L35.5384615,16.2627692 C35.5384615,15.8337692 35.5164615,15.6027692 35.7923077,15.3269231 L37.6538462,13 L30.6646154,13 L25.2576923,26.7923077 L19.0342308,13 L11.8461538,13 L14.2196154,16.5699231 C14.465,16.8753846 14.3846154,16.9371538 14.3846154,17.4592308 L14.3846154,29.6023846 C14.3846154,30.0931538 14.4176154,30.1549231 14.08,30.6143846 L11,35 L18.6153846,35 L15.5387692,30.6135385 C15.2011538,30.1540769 15.2307692,30.0923077 15.2307692,29.6015385 L15.2307692,17.8882308 C15.3839231,18.3180769 15.5387692,18.8384615 15.7223846,19.2378462 L22.9595385,35 L29.6153846,18.0769231 L29.6153846,32.0249231 C29.6153846,32.4234615 29.5933846,32.69 29.5223077,32.7610769 L27.5,35 L37.6538462,35 Z"/>
</svg>
