<svg xmlns="http://www.w3.org/2000/svg" width="48" height="48" viewBox="0 0 48 48">
  <path fill="#BA9E59" fill-rule="evenodd" d="M0,0 L48,0 L48,48 L0,48 L0,0 Z M33.9149414,18.8501443 C32.8116404,17.7674447 31.5274705,16.9752254 30.1619095,16.4646841 C30.9577332,14.1672483 33.7792897,13.3310168 33.7792897,13.3310168 C33.7792897,13.3310168 27.1956579,9.97728866 19.9247238,11.315259 C17.5010791,11.6937637 15.1769124,13.1549681 13.4767438,15.0827017 C9.78701605,19.2638589 10.2753624,25.5576007 14.5710013,29.1489947 C15.2311731,29.7035482 16.7052555,30.5661868 16.7323859,30.610199 C15.7647367,33.0220665 12.6718767,33.6822493 12.6718767,33.6822493 C12.6718767,33.6822493 16.7595162,36.1909436 22.2488905,36.8423239 C23.704886,37.0183726 25.2513161,37.0623848 26.8520067,36.8951385 C29.3932163,36.6926825 31.9253824,35.372317 33.8516372,33.515003 C38.0206678,29.4834873 38.0568416,22.9168698 33.9149414,18.8501443 Z M32.0339037,31.9129596 C30.4784303,33.4093738 28.1542636,34.3600369 26.3636604,34.4920734 C25.0975774,34.6153075 23.7410598,34.6329124 22.438803,34.4744685 C20.5215916,34.2456052 19.1379437,33.7262614 17.7814261,33.2245226 C18.4687283,32.5731423 19.1560305,31.6752938 19.4363775,30.9006794 C19.6172465,30.4429528 19.5991596,29.9324115 19.3821168,29.4834873 C17.9261213,26.5434736 18.5591628,23.0224991 20.9556772,20.7338657 C22.6920196,19.0702052 25.0794905,18.2867884 27.5031352,18.5772688 C29.2846949,18.7885273 30.9034725,19.5543392 32.1695555,20.7954827 C35.2443286,23.8235208 35.1358072,28.9465386 32.0339037,31.9129596 Z"/>
</svg>
