<svg xmlns="http://www.w3.org/2000/svg" width="213" height="222" viewBox="0 0 213 222">
  <g fill="none" fill-rule="evenodd" transform="translate(1)">
    <path fill="#FFF5D9" d="M211.9946,210.9848 C211.9946,212.5628 211.7196,213.9018 211.1816,215.0258 C210.6436,216.1488 209.9206,217.1418 209.0356,218.0138 C208.5276,218.4678 207.9896,218.9108 207.4036,219.3528 C206.8236,219.7838 206.1606,220.1598 205.4196,220.4768 C204.6896,220.8118 203.8536,221.0628 202.9216,221.2358 C202.0006,221.4268 200.9606,221.5168 199.8246,221.5168 C197.7326,221.5168 195.8266,221.2838 194.0866,220.8238 C192.3656,220.3698 190.7516,219.6228 189.2336,218.6118 L191.0866,214.3138 C191.7676,214.7388 192.4966,215.1698 193.2626,215.5758 C194.0386,216.0058 194.8466,216.3878 195.7006,216.7348 C196.5496,217.0938 197.4226,217.3808 198.3066,217.6018 C199.2036,217.8108 200.1366,217.9188 201.0926,217.9188 C202.1436,217.9188 203.0286,217.8358 203.7696,217.6788 C204.5166,217.5358 205.1446,217.2728 205.6826,216.9028 C206.1726,216.5558 206.5666,216.0838 206.8906,215.4568 C207.1886,214.8228 207.3446,213.9018 207.3446,212.7068 C207.3446,211.6128 206.9326,210.7458 206.0956,210.0648 C205.2586,209.3828 204.2296,208.7968 202.9806,208.3068 C201.7376,207.8168 200.3746,207.3148 198.9046,206.8248 C197.4336,206.3348 196.0836,205.7188 194.8276,204.9778 C193.5846,204.2308 192.5576,203.2978 191.7206,202.1808 C190.8836,201.0628 190.4706,199.6048 190.4706,197.8238 C190.4706,196.4968 190.7516,195.3548 191.3076,194.4228 C191.8636,193.4898 192.5576,192.6048 193.3926,191.8168 C194.4326,190.8178 195.6526,190.0478 197.0396,189.4788 C198.4316,188.9058 199.9506,188.6248 201.6306,188.6248 C202.9566,188.6248 204.3436,188.7028 205.8136,188.8758 C207.2846,189.0488 208.6716,189.2408 209.9976,189.4618 L209.0836,194.0278 C208.4686,193.8668 207.7866,193.7118 207.0456,193.5558 C206.3046,193.4008 205.5396,193.2568 204.7506,193.1258 C203.9616,192.9998 203.2086,192.8918 202.4906,192.8148 C201.7666,192.7308 201.1156,192.7008 200.5656,192.7008 C199.3346,192.7008 198.3906,192.7668 197.7096,192.9108 C197.0276,193.0478 196.5016,193.2568 196.1256,193.5378 C195.7966,193.7948 195.5456,194.1408 195.3656,194.5958 C195.1986,195.0388 195.1146,195.6358 195.1146,196.3828 C195.1146,197.3808 195.5206,198.1708 196.3636,198.7798 C197.1826,199.4018 198.2286,199.9518 199.4896,200.4598 C200.7576,200.9498 202.1136,201.4338 203.5546,201.9598 C204.9886,202.4618 206.3516,203.0948 207.6126,203.8368 C208.8746,204.6018 209.9206,205.5468 210.7386,206.6698 C211.5756,207.7938 211.9946,209.2278 211.9946,210.9848 Z M184.7626,194.3568 C184.0686,194.2978 183.2676,194.2138 182.3836,194.1408 C181.4986,194.0578 180.6626,194.0278 179.8676,194.0278 C179.2816,194.0278 178.7976,194.0928 178.3786,194.2138 C177.9606,194.3268 177.5656,194.5358 177.1826,194.7868 C176.8016,195.0498 176.4246,195.3548 176.0596,195.7188 C175.6946,196.0658 175.2706,196.4788 174.7806,196.9388 L174.7806,220.9488 L168.5226,220.9488 L168.5226,189.2888 L173.7646,189.2888 L174.6376,194.2368 L174.6846,194.2368 C175.0196,193.8368 175.3786,193.4008 175.7486,192.9228 C176.1076,192.4498 176.4896,191.9898 176.8666,191.5588 C177.2436,191.1168 177.6556,190.7218 178.0796,190.3458 C178.5106,189.9808 178.9646,189.6818 179.4546,189.4788 C180.2796,189.1148 181.2126,188.8758 182.2526,188.7858 C183.2796,188.6728 184.4336,188.6248 185.6826,188.6248 L184.7626,194.3568 Z M141.9776,193.1908 C141.6316,193.4418 141.3146,193.8368 141.0156,194.3748 C140.7346,194.9128 140.4776,195.5638 140.2566,196.3168 C140.0356,197.0768 139.8616,197.8948 139.7186,198.7798 C139.5756,199.6878 139.5156,200.5848 139.5156,201.5168 L152.7846,200.9668 C152.6296,199.9218 152.4076,198.8638 152.1026,197.7878 C151.8226,196.7298 151.4096,195.7798 150.9076,194.9428 C150.3996,194.1238 149.7546,193.4418 148.9826,192.9228 C148.2066,192.3958 147.2566,192.1328 146.1496,192.1328 C145.4086,192.1328 144.6676,192.2118 143.9386,192.3728 C143.2096,192.5098 142.5636,192.7968 141.9776,193.1908 Z M147.2146,188.6248 C148.6006,188.6248 149.9576,188.8338 151.2846,189.2278 C152.6116,189.6228 153.8246,190.2978 154.9246,191.2308 C156.0126,192.1638 156.9746,193.4128 157.7816,194.9778 C158.5996,196.5198 159.2166,198.4508 159.6106,200.7578 L159.6106,201.1348 C159.3296,201.4688 158.9656,201.7868 158.4746,202.0548 C157.9966,202.3418 157.3696,202.5758 156.5986,202.7968 C155.8336,202.9998 154.8896,203.2028 153.7536,203.3648 C152.6296,203.5378 151.2656,203.6698 149.7066,203.7648 L139.4196,204.4588 L139.4196,206.4428 C139.4196,210.1958 140.0836,212.9098 141.4106,214.6198 C142.7366,216.3048 144.7456,217.1598 147.4296,217.1598 C148.5536,217.1598 149.7066,217.0468 150.8906,216.8308 C152.0736,216.6218 153.2156,216.3528 154.2906,216.0418 C155.3786,215.7188 156.3586,215.4088 157.2436,215.0908 C158.1106,214.7558 158.8096,214.4758 159.3006,214.2248 L160.0886,216.0178 C159.1856,216.6038 158.1876,217.2248 157.0886,217.8708 C155.9646,218.5158 154.7806,219.1018 153.4956,219.6578 C152.2176,220.1898 150.8726,220.6318 149.4676,220.9848 C148.0626,221.3488 146.6286,221.5168 145.1406,221.5168 C143.3886,221.5168 141.7636,221.2358 140.2566,220.6798 C138.7566,220.1308 137.4596,219.2458 136.3536,218.0138 C135.2356,216.7828 134.3626,215.1698 133.7296,213.1788 C133.0966,211.1878 132.7856,208.7858 132.7856,205.9588 C132.7856,202.7848 133.1436,200.0828 133.8906,197.8658 C134.6326,195.6358 135.6606,193.8548 136.9386,192.5098 C138.2366,191.1528 139.7656,190.1608 141.5236,189.5398 C143.2936,188.9288 145.1876,188.6248 147.2146,188.6248 Z M113.2996,192.7008 L109.7016,192.3728 L109.7016,190.5668 L118.1176,183.6938 L119.3726,183.6938 L119.5106,189.2888 L128.1826,189.2888 L127.7756,192.0968 C126.9996,192.1928 126.1326,192.2768 125.2006,192.3538 C124.2496,192.4318 123.3646,192.4918 122.5286,192.5568 C121.5366,192.6528 120.5566,192.7188 119.5636,192.7488 L119.5636,213.3638 C119.5636,214.5058 119.7666,215.4568 120.1906,216.2098 C120.6036,216.9678 121.5006,217.3448 122.9106,217.3448 C123.6516,217.3448 124.5366,217.3328 125.5946,217.3028 C126.6406,217.2728 127.5976,217.2248 128.4696,217.1598 L128.4696,219.3238 C128.0156,219.5328 127.4116,219.7648 126.6886,220.0048 C125.9596,220.2558 125.1706,220.4888 124.2976,220.7158 C123.4316,220.9488 122.5636,221.1398 121.6916,221.3008 C120.8366,221.4448 120.0296,221.5168 119.2886,221.5168 C118.6066,221.5168 117.9136,221.4448 117.2086,221.2658 C116.4916,221.0918 115.8466,220.7758 115.2776,220.3218 C114.7106,219.8608 114.2316,219.1978 113.8556,218.3488 C113.4906,217.5058 113.2996,216.4008 113.2996,215.0378 L113.2996,192.7008 Z M91.8296,192.7008 L88.2286,192.3728 L88.2286,190.5668 L96.6506,183.6938 L97.8966,183.6938 L98.0396,189.2888 L106.7126,189.2888 L106.3036,192.0968 C105.5296,192.1928 104.6596,192.2768 103.7266,192.3538 C102.7796,192.4318 101.8956,192.4918 101.0586,192.5568 C100.0636,192.6528 99.0826,192.7188 98.0876,192.7488 L98.0876,213.3638 C98.0876,214.5058 98.2906,215.4568 98.7186,216.2098 C99.1306,216.9678 100.0306,217.3448 101.4346,217.3448 C102.1796,217.3448 103.0636,217.3328 104.1216,217.3028 C105.1676,217.2728 106.1296,217.2248 106.9966,217.1598 L106.9966,219.3238 C106.5396,219.5328 105.9386,219.7648 105.2126,220.0048 C104.4866,220.2558 103.6976,220.4888 102.8276,220.7158 C101.9576,220.9488 101.0886,221.1398 100.2186,221.3008 C99.3666,221.4448 98.5596,221.5168 97.8186,221.5168 C97.1376,221.5168 96.4446,221.4448 95.7326,221.2658 C95.0216,221.0918 94.3726,220.7758 93.8056,220.3218 C93.2376,219.8608 92.7626,219.1978 92.3826,218.3488 C92.0206,217.5058 91.8296,216.4008 91.8296,215.0378 L91.8296,192.7008 Z M73.6916,215.2648 C73.6916,215.1098 73.6596,214.2248 73.5966,212.5928 C73.5336,210.9668 73.5006,208.6598 73.5006,205.6888 C70.1536,205.6888 67.6106,205.9108 65.9006,206.3348 C64.1796,206.7768 63.1036,207.2078 62.7116,207.6318 C62.3476,208.0448 62.0786,208.6118 61.9056,209.3528 C61.7316,210.0998 61.6506,210.9668 61.6506,211.9648 C61.6506,213.7348 61.9526,215.0908 62.5506,216.0178 C63.1546,216.9678 64.1646,217.4408 65.5696,217.4408 C67.0726,217.4408 68.4616,217.2728 69.7256,216.9378 C70.9726,216.5908 72.2996,216.0418 73.6916,215.2648 Z M82.3496,217.6308 C83.1866,217.6308 84.2776,217.4408 85.6376,217.0818 L85.6376,219.0718 C84.6416,219.5918 83.5666,220.0998 82.3976,220.5848 C81.2296,221.0748 79.9796,221.3318 78.6856,221.3318 C77.9416,221.3318 77.3076,221.2178 76.7876,220.9848 C76.2676,220.7458 75.8406,220.4468 75.4946,220.0468 C75.1626,219.6758 74.8786,219.2458 74.6546,218.7918 C74.4516,218.3248 74.2596,217.8528 74.1046,217.3928 C73.2976,217.9188 72.5386,218.4208 71.7946,218.9288 C71.0536,219.4188 70.2796,219.8608 69.4576,220.2378 C68.6536,220.6318 67.7656,220.9308 66.8506,221.1708 C65.9336,221.4098 64.8906,221.5168 63.7546,221.5168 C61.1616,221.5168 59.1226,220.8118 57.6376,219.3718 C56.1376,217.9298 55.3956,215.7558 55.3956,212.8618 C55.3956,211.3138 55.6176,209.9688 56.0596,208.7968 C56.5166,207.6498 57.2276,206.6698 58.2086,205.8928 C59.2036,205.1038 60.4826,204.5058 62.0456,204.1118 C63.6116,203.6988 65.5386,203.4778 67.8136,203.4188 L73.5006,203.2268 L73.5006,197.6618 C73.5006,195.9108 73.1546,194.6438 72.4426,193.8188 C71.7316,193.0178 70.5446,192.6048 68.8866,192.6048 C67.6876,192.6048 66.2326,192.8268 64.5116,193.2688 C62.7896,193.7118 61.1006,194.2848 59.4396,194.9778 L58.3336,192.0378 C59.3136,191.6258 60.3566,191.2308 61.4476,190.8058 C62.5356,190.3938 63.6596,190.0288 64.7986,189.6948 C65.9336,189.3828 67.0876,189.1318 68.2556,188.9288 C69.4246,188.7138 70.5776,188.6248 71.7316,188.6248 C72.9806,188.6248 74.1196,188.7678 75.1146,189.0368 C76.1246,189.3178 76.9616,189.7908 77.6576,190.4418 C78.3506,191.1048 78.8746,191.9898 79.2216,193.0778 C79.5856,194.1658 79.7586,195.5278 79.7586,197.1248 L79.7586,212.2278 C79.7586,215.8328 80.6286,217.6308 82.3496,217.6308 Z M20.2866,220.9488 L20.2866,198.9118 C20.2866,198.1708 20.2416,197.4408 20.1306,196.7118 C20.0196,195.9828 19.7816,195.3378 19.4346,194.7688 C19.0876,194.1888 18.5796,193.7228 17.9336,193.3528 C17.2856,192.9818 16.4336,192.7968 15.3436,192.7968 C14.6466,192.7968 13.8906,192.8918 13.0836,193.0778 C12.2916,193.2568 11.4846,193.4898 10.6816,193.7708 C9.8896,194.0468 9.0996,194.3748 8.3266,194.7388 C7.5696,195.1218 6.8736,195.4798 6.2576,195.8448 L6.2576,220.9488 L-0.0004,220.9488 L-0.0004,189.2888 L5.2446,189.2888 L6.1616,193.0178 C6.8106,192.6238 7.5696,192.1638 8.4546,191.6548 C9.3386,191.1528 10.2716,190.6628 11.2966,190.2198 C12.3096,189.7778 13.3826,189.3958 14.5066,189.0848 C15.6266,188.7858 16.7476,188.6248 17.8536,188.6248 C19.6706,188.6248 21.2666,189.0188 22.6406,189.8258 C24.0156,190.6278 25.0256,191.8458 25.7076,193.4898 L26.4486,193.0178 C27.0976,192.6238 27.8566,192.1638 28.7406,191.6548 C29.6106,191.1528 30.5576,190.6628 31.5826,190.2198 C32.5966,189.7778 33.6686,189.3958 34.7926,189.0848 C35.9136,188.7858 37.0346,188.6248 38.1426,188.6248 C39.4046,188.6248 40.5756,188.8098 41.6336,189.2108 C42.6916,189.5878 43.6086,190.1728 44.3836,190.9618 C45.1576,191.7508 45.7576,192.7188 46.1846,193.8668 C46.6096,195.0258 46.8306,196.4008 46.8306,197.9618 L46.8306,220.9488 L40.5756,220.9488 L40.5756,198.9118 C40.5756,198.1708 40.5276,197.4408 40.4176,196.7118 C40.3066,195.9828 40.0706,195.3378 39.7216,194.7688 C39.3746,194.1888 38.8666,193.7228 38.2206,193.3528 C37.5726,192.9818 36.7206,192.7968 35.6296,192.7968 C34.9326,192.7968 34.1596,192.8918 33.3556,193.0948 C32.5336,193.3048 31.7266,193.5378 30.9046,193.8368 C30.0826,194.1238 29.2936,194.4528 28.5016,194.8348 C27.7276,195.1938 27.0166,195.5758 26.4006,195.9408 C26.4966,196.5918 26.5446,197.2498 26.5446,197.9308 L26.5446,220.9488 L20.2866,220.9488 Z"/>
    <path fill="#BB9F54" d="M125.7681,97.2128 C124.2141,98.2168 122.2651,99.3438 119.8211,100.7548 C119.7671,100.7878 119.7191,100.8198 119.6711,100.8498 L113.1981,104.5858 C109.0441,107.3378 108.9241,108.9308 108.9211,115.4588 L108.9211,115.6138 L108.9211,116.0318 L108.9211,121.7338 L116.7431,117.2148 C116.7901,117.1918 116.8501,117.1558 116.9041,117.1318 C126.0421,111.8568 126.0421,111.8028 126.0421,102.7628 L126.0421,97.0518 L125.7681,97.2128 Z M98.7931,104.5858 L92.3201,100.8498 C92.2691,100.8198 92.2211,100.7878 92.1701,100.7548 C89.7261,99.3438 87.7771,98.2168 86.2231,97.2128 L85.9451,97.0518 L85.9451,102.7628 C85.9451,111.8028 85.9481,111.8568 95.0841,117.1318 C95.1411,117.1558 95.1951,117.1918 95.2481,117.2148 L103.0671,121.7338 L103.0671,116.0318 L103.0671,115.6138 L103.0671,115.4588 C103.0641,108.9308 102.9471,107.3378 98.7931,104.5858 Z M125.7741,75.7848 C124.1781,76.8098 122.1821,77.9668 119.6601,79.4248 L113.1921,83.1578 C109.0401,85.9068 108.9241,87.5038 108.9211,94.0298 L108.9211,94.1828 L108.9211,94.6038 L108.9211,100.3058 L109.2001,100.1478 C110.7891,99.1228 112.7861,97.9688 115.2961,96.5168 L115.2961,96.5228 L115.3081,96.5168 L121.7751,92.7838 C126.0421,89.9538 126.0421,88.3488 126.0421,81.3378 L126.0421,75.6268 L125.7741,75.7848 Z M126.0421,54.2078 L118.2251,58.7228 C118.1771,58.7528 118.1181,58.7798 118.0641,58.8098 C109.1221,63.9708 108.9271,64.1318 108.9211,72.6048 L108.9211,72.7608 L108.9211,73.1788 L108.9211,78.8868 L109.2001,78.7258 C110.7891,77.7008 112.7861,76.5438 115.3081,75.0918 L121.7751,71.3558 C126.0421,68.5288 126.0421,66.9238 126.0421,59.9128 L126.0421,54.2078 Z M93.7631,58.7228 L85.9451,54.2078 L85.9451,59.9128 C85.9451,66.9238 85.9481,68.5288 90.2101,71.3558 L96.6801,75.0918 C99.2001,76.5438 101.1991,77.7008 102.7891,78.7288 L103.0671,78.8868 L103.0671,73.1788 L103.0671,72.7608 L103.0671,72.6048 C103.0611,64.1318 102.8671,63.9708 93.9251,58.8098 C93.8711,58.7798 93.8171,58.7528 93.7631,58.7228 Z M98.8021,83.1578 L92.3321,79.4248 C89.8101,77.9668 87.8071,76.8098 86.2171,75.7848 L85.9451,75.6268 L85.9451,81.3378 C85.9451,88.3488 85.9481,89.9538 90.2131,92.7838 L96.6801,96.5168 L96.6891,96.5228 L96.6921,96.5168 C99.2061,97.9688 101.2021,99.1228 102.7891,100.1478 L103.0671,100.3058 L103.0671,94.6038 L103.0671,94.1828 L103.0671,94.0298 C103.0641,87.4998 102.9471,85.9068 98.8021,83.1578 Z M85.9451,47.4628 L85.9451,38.3768 C85.9451,36.7598 84.6361,35.4478 83.0171,35.4478 C81.3991,35.4478 80.0871,36.7598 80.0871,38.3768 L80.0871,102.7628 C80.0871,115.1478 80.0941,115.2078 92.1701,122.1758 C92.2211,122.2128 92.2691,122.2488 92.3201,122.2718 L104.3581,129.2238 L104.3821,129.2418 L104.4031,129.2538 L104.4171,129.2648 L104.4241,129.2648 L104.4441,129.2838 L104.4681,129.3008 L104.4771,129.3008 L104.4921,129.3128 L104.5131,129.3258 L104.5371,129.3378 L104.5611,129.3488 L104.5821,129.3608 L104.6001,129.3738 L104.6091,129.3738 L104.6301,129.3848 L104.6541,129.4028 L104.6631,129.4088 L104.7261,129.4328 L104.7491,129.4448 L104.7911,129.4688 L104.7971,129.4688 L104.8481,129.4928 L104.8571,129.4928 L104.9231,129.5158 L104.9881,129.5458 L104.9971,129.5518 L105.0211,129.5578 L105.0481,129.5638 L105.0541,129.5708 L105.0721,129.5768 L105.0991,129.5878 L105.1261,129.5938 L105.1291,129.5938 C105.1711,129.6118 105.2121,129.6248 105.2541,129.6298 L105.2631,129.6358 L105.2811,129.6358 L105.3291,129.6478 L105.3321,129.6478 L105.3351,129.6478 L105.3591,129.6598 L105.3861,129.6598 L105.4041,129.6668 L105.4131,129.6668 L105.4401,129.6718 L105.4671,129.6778 L105.4761,129.6778 L105.4941,129.6838 L105.5501,129.6898 L105.6041,129.6958 L105.6221,129.7018 L105.6311,129.7078 L105.6581,129.7078 L105.6881,129.7078 L105.6941,129.7078 L105.7151,129.7078 L105.7681,129.7198 L105.8431,129.7198 L105.8521,129.7198 L105.8821,129.7198 L105.9121,129.7198 L105.9181,129.7198 L105.9391,129.7198 L105.9961,129.7258 L106.0491,129.7198 L106.0701,129.7198 L106.0821,129.7198 L106.1091,129.7198 L106.1361,129.7198 L106.1451,129.7198 L106.2201,129.7198 L106.2731,129.7078 L106.2941,129.7078 L106.3031,129.7078 L106.3311,129.7078 L106.3571,129.7078 L106.3691,129.7018 L106.3871,129.6958 L106.4411,129.6898 L106.4951,129.6838 L106.5121,129.6778 L106.5221,129.6778 L106.5481,129.6718 L106.5761,129.6668 L106.5841,129.6668 L106.6021,129.6598 L106.6291,129.6598 L106.6561,129.6478 L106.6591,129.6478 L106.7091,129.6358 L106.7251,129.6358 L106.7341,129.6298 C106.7791,129.6248 106.8211,129.6118 106.8591,129.5938 L106.8661,129.5938 L106.8891,129.5878 L106.9161,129.5768 L106.9341,129.5708 L106.9431,129.5638 L106.9671,129.5578 L106.9941,129.5518 L107.0021,129.5458 L107.0691,129.5158 L107.1341,129.4928 L107.1431,129.4928 L107.1911,129.4688 L107.2001,129.4688 L107.2391,129.4448 L107.2631,129.4328 L107.3291,129.4088 L107.3341,129.4028 L107.3591,129.3848 L107.3821,129.3738 L107.3911,129.3738 L107.4061,129.3608 L107.4271,129.3488 L107.4541,129.3378 L107.4751,129.3258 L107.4981,129.3128 L107.5141,129.3008 L107.5201,129.3008 L107.5431,129.2838 L107.5651,129.2648 L107.5741,129.2648 L107.5881,129.2538 L107.6131,129.2418 L107.6301,129.2238 L119.6711,122.2718 C119.7191,122.2488 119.7671,122.2128 119.8211,122.1758 C131.9011,115.2078 131.9011,115.1478 131.9011,102.7628 L131.9011,38.3768 C131.9011,36.7598 130.5851,35.4478 128.9721,35.4478 C127.3581,35.4478 126.0421,36.7598 126.0421,38.3768 L126.0421,47.4628 L115.2961,53.6668 C115.2481,53.6958 115.2011,53.7258 115.1471,53.7588 C112.5581,55.2558 110.5261,56.4338 108.9211,57.4828 L108.9211,22.2268 C108.9211,20.6098 107.6131,19.2978 105.9961,19.2978 C104.3791,19.2978 103.0671,20.6098 103.0671,22.2268 L103.0671,57.4828 C101.4681,56.4338 99.4331,55.2558 96.8421,53.7588 C96.7941,53.7258 96.7431,53.6958 96.6921,53.6668 L85.9451,47.4628 Z M105.9961,162.5578 C104.3791,162.5578 103.0671,161.2548 103.0671,159.6348 L103.0671,142.0208 L86.4561,132.4328 C86.4051,132.3978 86.3541,132.3678 86.3041,132.3378 C79.1671,128.2078 74.7771,125.2368 72.0241,120.9628 C69.2121,116.6118 68.3601,111.3608 68.3601,102.7628 L68.3601,70.5698 C68.3601,68.9528 69.6721,67.6408 71.2891,67.6408 C72.9061,67.6408 74.2181,68.9528 74.2181,70.5698 L74.2181,102.7628 C74.2181,110.1918 74.8511,114.5678 76.9411,117.8068 C79.0471,121.0708 82.8881,123.6238 89.2261,127.2938 C89.2811,127.3168 89.3341,127.3468 89.3851,127.3768 L105.9961,136.9638 L122.6001,127.3768 L122.6121,127.3768 L122.6181,127.3768 C129.0431,123.6648 132.9281,121.0948 135.0501,117.8068 C137.1361,114.5678 137.7701,110.1918 137.7701,102.7628 L137.7701,70.5698 C137.7701,68.9528 139.0851,67.6408 140.6991,67.6408 C142.3131,67.6408 143.6271,68.9528 143.6271,70.5698 L143.6271,102.7628 C143.6271,111.3608 142.7791,116.6118 139.9701,120.9628 C137.1971,125.2668 132.7611,128.2498 125.5291,132.4208 L125.5291,132.4328 L108.9211,142.0208 L108.9211,156.6528 C128.5891,155.8998 146.3181,147.6218 159.3241,134.6148 C172.9751,120.9688 181.4151,102.1108 181.4151,81.2808 C181.4151,60.4568 172.9751,41.5988 159.3241,27.9498 C145.6781,14.3008 126.8201,5.8588 105.9961,5.8588 C85.1681,5.8588 66.3101,14.3008 52.6621,27.9498 C39.0131,41.5988 30.5701,60.4568 30.5701,81.2808 C30.5701,100.0668 37.4321,117.2398 48.7821,130.4368 C60.2891,143.8258 76.4201,153.1268 94.7021,155.8638 C96.3011,156.1028 97.4001,157.5968 97.1621,159.1928 C96.9221,160.7888 95.4311,161.8948 93.8321,161.6558 C74.1401,158.6968 56.7531,148.6678 44.3441,134.2388 C32.1091,120.0128 24.7151,101.5078 24.7151,81.2808 C24.7151,58.8398 33.8121,38.5178 48.5221,23.8078 C63.2291,9.1008 83.5511,0.0008 105.9961,0.0008 C128.4401,0.0008 148.7561,9.1008 163.4721,23.8078 C178.1751,38.5178 187.2731,58.8398 187.2731,81.2808 C187.2731,103.7278 178.1751,124.0468 163.4721,138.7568 C148.7561,153.4618 128.4401,162.5578 105.9961,162.5578 Z"/>
  </g>
</svg>
