<svg xmlns="http://www.w3.org/2000/svg" width="48" height="48" viewBox="0 0 48 48">
  <path fill="#BA9E59" fill-rule="evenodd" d="M0,0 L48,0 L48,48 L0,48 L0,0 Z M15.9649972,17.6737288 C11.5764636,15.4581585 10.5112855,13.4562895 10.5112855,13.4562895 C10.5112855,13.4562895 9.82957151,14.6492889 10.1278214,16.8648593 C10.4260714,19.0804297 12.5222691,21.9310749 12.5222691,21.9310749 L10,20.912536 C10,20.912536 10.1278213,22.3185711 11.1077852,23.7672132 C12.087749,25.2158554 15.538926,27.0479617 15.538926,27.0479617 L12.2581775,27.0905688 C12.2581775,27.0905688 12.5564274,27.7722828 13.7494268,28.9226751 C14.9424262,30.0730674 18.2657819,31.0956384 18.2657819,31.0956384 C18.2657819,31.0956384 15.9284616,32.7324381 14.3033195,33.3538159 C12.6781774,33.9751939 10.1278214,34.1207441 10.1278214,34.1207441 C10.1278214,34.1207441 13.9256388,36.4838228 19.7570312,35.9102432 C25.5884235,35.3366637 29.6027067,32.6113707 32.7095966,28.0705327 C35.816486,23.5296944 35.5216667,17.6317875 35.5216667,17.6317875 C35.5216667,17.6317875 35.8618133,17.2407573 36.6871132,16.4838447 C37.5124131,15.7269321 37.7665765,15.3553148 37.7665765,15.3553148 L35.7044435,15.5739013 L37.0436227,13.183542 C37.0436227,13.183542 36.2262275,13.5550853 35.6614818,13.7631495 C35.096736,13.9712138 34.3387878,14.1792779 34.3387878,14.1792779 C34.3387878,14.1792779 31.3481659,10.5157322 27.0022394,12.6886955 C22.6563125,14.8616584 24.0623478,19.7614779 24.0623478,19.7614779 C24.0623478,19.7614779 20.3535309,19.8892993 15.9649972,17.6737288 Z"/>
</svg>
