<?xml version="1.0" encoding="utf-8"?>
<!-- Generator: Adobe Illustrator 22.1.0, SVG Export Plug-In . SVG Version: 6.00 Build 0)  -->
<svg version="1.1" xmlns="http://www.w3.org/2000/svg" xmlns:xlink="http://www.w3.org/1999/xlink" x="0px" y="0px"
	 viewBox="0 0 4514 3700" style="enable-background:new 0 0 4514 3700;" xml:space="preserve">
<style type="text/css">
	.st0{fill:#BCA054;}
	.st1{fill-rule:evenodd;clip-rule:evenodd;fill:#5E4915;}
	.st2{fill:#5E4915;}
	.st3{fill:#FFF5DA;}
	.st4{fill:#FFFFFF;}
</style>
<g id="Layer_4">
	<g>
		<g>
			<path class="st0" d="M1811,2608.4v381.1c-9-11.8-17-24.2-24-37.1v-344.1c0-2.7-0.3-5.4-0.4-8.1
				c-12.2-369.9-311.4-669.6-682.4-669.6c-374.7,0-682.6,304.8-682.6,679.4c0,358.7,279.8,653.3,632.4,677.8c0.4,0,1,0.1,1.4,0.1
				c15.3,1,30.8,1.6,47.8,1.6v24.1c-17,0-32.8-0.5-48.4-1.7c-0.4,0-0.9-0.1-1.2-0.1c-365.4-24.8-656.4-330.1-656.4-701.8
				c0-387.9,319-703.5,706.9-703.5c372.3,0,682.7,291.4,705.7,658.1C1810.4,2579.2,1811,2593.7,1811,2608.4z"/>
		</g>
		<path class="st0" d="M1101.1,3350.2c27.1,0,49-21.9,49-49c0-27.1-21.9-49-49-49c-27.1,0-49,21.9-49,49
			C1052.1,3328.3,1074,3350.2,1101.1,3350.2z"/>
	</g>
	<g>
		<rect x="2047.3" y="577.3" class="st0" width="24.1" height="1970.5"/>
	</g>
	<g>
		<g>
			<rect x="2285.1" y="1386.4" class="st0" width="24.1" height="1283.6"/>
		</g>
		<path class="st0" d="M2304,1416.7c27.1,0,49-21.9,49-49c0-27-21.9-49-49-49c-27.1,0-49,22-49,49
			C2255,1394.7,2276.9,1416.7,2304,1416.7z"/>
	</g>
	<g>
		<path class="st0" d="M1912,2903.5v116.8c-11-3.5-22-7.7-33-12.3v-104.5c0-125.3-83.7-237.6-207.9-312.7c-3.3-2-6.7-4-10.1-5.9
			c-12.8-7.4-28.7-14.6-42.6-21.2c-43.7-21-92.8-37.8-143.8-49.5c-11.1-2.6-23-8.8-34.2-10.8c-44.8-8.3-92.3-16.5-140.7-16.5H978.4
			c-10.4,0-20.6,3.7-30.7,3.4c-30.5-1.2-60.5-2.1-89.7-6.4c-13.6-2.1-26.9-3.4-40.2-6.2c-28-5.7-55.2-12.4-81.3-20.8
			c-11.2-3.8-22.9-7.4-33.9-11.6C515.9,2374.4,388,2233.6,388,2071.5V708l33-16v1379.5c0,148.2,113.8,277.9,281.5,346.8
			c11,4.5,22.4,8.7,33.8,12.7c26,9,53.3,16.7,81.5,22.8c13.1,2.9,26.7,5.4,40.2,7.6c29.1,4.6,59.2,3.8,89.7,4.9
			c10.2,0.4,20.5-3.2,30.7-3.2h327.3c46.2,0,91,8.3,134.1,15.7c11.4,1.9,22.5,6,33.6,8.4c50.7,10.9,98.4,27.5,142.6,47.1
			c13.7,6.1,32,13.1,45,20c6,3.2,11.8,6.4,17.7,9.8C1818.3,2643.3,1912,2766.3,1912,2903.5z"/>
	</g>
	<g>
		<path class="st0" d="M3764,812v1218.1c0,162.1-128.1,302.8-314.9,373.9c-11,4.2-22.8,7.8-34.1,11.6c-26.1,8.4-53.3,15.1-81.3,20.8
			c-13.3,2.7-26.6,4-40.2,6.1c-29.2,4.3-59.1,4.9-89.7,6.1c-10.1,0.3-20.3-3.6-30.7-3.6h-321.3c-48.3,0-95.8,8.5-140.7,16.7
			c-11.2,2-23.1,8.4-34.2,11c-51,11.6-100.1,28.6-143.8,49.5c-13.9,6.6-29.7,13.8-42.6,21.2c-29.2,16.9-56.2,35.8-80.6,56.4
			c-84.2,71-137,162.5-137,262.2v226.8c-11,6.1-22,11.6-34,16.6v-243.3c0-109.7,60.1-210.3,155.6-286.8c29-23.2,61.2-44.2,96-62.5
			c13-6.9,31.3-13.9,45.1-20c44.1-19.6,91.9-36.2,142.6-47.1c11.1-2.4,22.2-6.8,33.6-8.6c43.1-7.4,87.9-16,134.1-16h327.3
			c10.2,0,20.5,4,30.7,3.5c30.5-1.2,60.6-0.1,89.7-4.7c13.6-2.1,27.1-4.6,40.2-7.5c28.2-6.1,55.5-13.7,81.5-22.7
			c11.4-4,22.5-8.2,33.5-12.7c167.7-68.9,281.2-198.5,281.2-346.8V812H3764z"/>
	</g>
	<g>
		<g>
			<path class="st0" d="M3091,1298v647.7c0,148.7-123.4,261.3-272,261.3h-191.4c-26.7,0-52.5,8.6-76.5,16.8
				c-8.3,2.7-16.2,8.1-24.1,11.7c-39,18.2-72.2,47.8-96.2,83.1c-5.2,7.6-9.3,16.2-13.6,24.5c-17.2,32.8-26.1,70.7-26.1,110.2V2982
				c-12,17.1-25,33.1-40,47.8v-576.3c0-39.1,13.2-76.2,28.4-109.7c3.7-8.3,10.3-16.2,14.9-24c29.5-50.8,76.5-91.1,131.4-113.5
				c7.9-3.2,16.4-7.8,24.7-10.2c24.2-7.3,50.5-13,77.1-13H2819c132.7,0,248-104.6,248-237.3V1298H3091z"/>
		</g>
		<path class="st0" d="M3125,1287.8c0,27.1-21.9,49-49,49c-27.1,0-49-21.9-49-49c0-27.1,21.9-49,49-49
			C3103.1,1238.8,3125,1260.8,3125,1287.8z"/>
	</g>
	<g>
		<g>
			<path class="st0" d="M4038.5,2948.7l-572.2-304.4c-131.2-69.8-288.3-13.6-358.1,117.6l-89.9,169c-12.6,23.6-32.4,42.3-51,59.6
				c-6.3,6-14.8,10.5-21.8,15.7c-34.4,25.9-76.2,41.3-118.6,45.9c-9.2,1-18.7,0.6-28.1,0.5c-37.1-0.2-74.7-10.2-109.5-28.7
				l-466.6-248.3c-20.7,2.6-40.9,6.5-60.9,12.9l508.8,270.7c34.5,18.4,73.5,24.1,110.2,26.4c9,0.6,19.2-1.4,28.2-1.9
				c58.7-2.1,116.3-24.7,162-62.7c6.6-5.4,14.8-10.7,20.8-16.9c17.9-17.9,35.4-38.4,47.9-61.9l89.9-169
				c62.3-117.2,208.5-170,325.6-107.7l572.2,304.4L4038.5,2948.7z"/>
		</g>
		<path class="st0" d="M4063.1,2923.2c-23.9-12.7-53.5-3.7-66.3,20.2c-12.7,23.9-3.7,53.6,20.2,66.3c23.9,12.7,53.6,3.7,66.3-20.2
			C4096,2965.6,4087,2935.9,4063.1,2923.2z"/>
	</g>
	<g>
		<g>
			<path class="st0" d="M1864,1967.4v1079.4c-9-7.3-17-15-24-23V1967.4c0-95.8-56.4-178.6-138.1-216.3c-7.8-3.7-15.5-6.8-23.7-9.5
				c-20.3-6.8-41.9-6.7-64.2-7.6c-3.7-0.2-7.2,4-10.9,4h-191.4c-12.2,0-24.2-5.2-36-6.9c-13.2-1.7-31.5-6.6-44-10.2
				c-112.6-32.3-200.7-138.4-200.7-261.2V828h33v631.7c0,106.8,73.3,197.6,169.8,229c12.4,4.1,27,9.9,40.2,11.9
				c11.7,1.8,25.4,5.5,37.7,5.5h191.4c3.7,0,7.3-2.7,11-2.6c22.2,0.9,43.8,3.2,64.4,9.3c8.2,2.4,16.2,4.4,24,7.7
				c83.5,33.4,143.1,107.6,159.9,198.1C1865.4,1934.5,1864,1950.6,1864,1967.4z"/>
		</g>
		<path class="st0" d="M1106.6,816.8c0,27.1,21.9,49,49,49c27.1,0,49-21.9,49-49c0-27.1-21.9-49-49-49
			C1128.5,767.8,1106.6,789.7,1106.6,816.8z"/>
	</g>
</g>
<g id="Layer_3">
	<path class="st0" d="M2455.1,2779.6c0,76.6-24.1,147.6-65,205.8c-12,17.1-25.5,33.1-40.2,47.8c-23.2,23.1-49.5,43-78.2,59.1
		c-10.9,6.1-22.1,11.6-33.6,16.6c-43.2,18.6-90.9,28.8-141,28.8c-36.9,0-72.4-5.6-105.9-15.9c-11.5-3.5-22.7-7.7-33.6-12.3
		c-34.8-14.7-66.8-34.8-94.9-59.2c-8.4-7.3-16.5-15-24.2-23c-10.3-10.8-20-22.2-28.9-34.2c-8.8-11.8-16.8-24.2-24.1-37.1
		c-29.5-52-46.3-112.2-46.3-176.3c0-30.1,3.7-59.4,10.7-87.4c2.3-9.1,4.9-18.1,7.9-26.9c7.2-21.6,16.5-42.2,27.5-61.7
		c7-12.3,14.7-24.2,23-35.6c9.3-12.7,19.4-24.8,30.3-36.1c7.7-8,15.7-15.7,24.2-23c62.8-54.5,144.8-87.5,234.5-87.5
		c98.7,0,188,39.9,252.8,104.5c14.8,14.7,28.2,30.7,40.2,47.8c1.1,1.6,2.3,3.3,3.4,4.9c5.4,8,10.5,16.2,15.3,24.6
		C2438.2,2655.4,2455.1,2715.5,2455.1,2779.6z"/>
	<path class="st0" d="M771.9,416.2c0,79.5-25,153.2-67.5,213.6c-12.5,17.7-26.4,34.3-41.8,49.6c-24,24-51.3,44.6-81.1,61.3
		c-11.3,6.3-22.9,12.1-34.9,17.2c-44.9,19.3-94.3,29.9-146.3,29.9c-38.3,0-75.2-5.8-109.9-16.5c-11.9-3.7-23.6-7.9-34.9-12.8
		c-36.1-15.3-69.3-36.1-98.5-61.5c-8.7-7.6-17.1-15.5-25.1-23.9c-10.7-11.2-20.8-23.1-30-35.5c-9.1-12.3-17.5-25.1-25.1-38.5
		c-30.6-54-48.1-116.4-48.1-182.9c0-31.3,3.9-61.7,11.1-90.7c2.4-9.4,5.1-18.7,8.2-27.9c7.5-22.4,17.1-43.8,28.6-64
		c7.2-12.8,15.2-25.1,23.9-36.9c9.7-13.2,20.2-25.7,31.4-37.5c8-8.3,16.3-16.3,25.1-23.9c65.2-56.5,150.3-90.8,243.3-90.8
		c102.4,0,195.1,41.4,262.3,108.4c15.3,15.2,29.3,31.8,41.8,49.6c1.2,1.7,2.4,3.4,3.5,5.1c5.6,8.3,10.9,16.8,15.9,25.5
		C754.4,287.2,771.9,349.7,771.9,416.2z"/>
	<path class="st0" d="M4137,714.2c0,79.7-25,153.6-67.7,214.2c-12.5,17.8-26.5,34.4-41.9,49.7c-24.1,24-51.5,44.8-81.4,61.5
		c-11.3,6.3-23,12.1-35,17.2c-45,19.3-94.6,30-146.7,30c-38.4,0-75.4-5.8-110.2-16.6c-11.9-3.7-23.6-8-35-12.8
		c-36.2-15.3-69.5-36.3-98.8-61.7c-8.8-7.6-17.1-15.6-25.1-23.9c-10.8-11.2-20.8-23.1-30.1-35.7c-9.1-12.3-17.5-25.2-25.1-38.6
		c-30.7-54.2-48.2-116.8-48.2-183.5c0-31.4,3.9-61.8,11.2-90.9c2.4-9.5,5.1-18.8,8.2-27.9c7.5-22.4,17.2-43.9,28.6-64.2
		c7.3-12.8,15.2-25.2,23.9-37c9.7-13.2,20.2-25.8,31.5-37.6c8-8.4,16.4-16.4,25.1-23.9c65.4-56.7,150.7-91,244.1-91
		c102.7,0,195.7,41.6,263.1,108.8c15.4,15.3,29.4,31.9,41.9,49.7c1.2,1.7,2.4,3.4,3.5,5.1c5.7,8.3,11,16.8,15.9,25.6
		C4119.4,584.8,4137,647.5,4137,714.2z"/>
	<path class="st0" d="M3366.2,1239.2c0,62-19.5,119.5-52.7,166.6c-9.7,13.8-20.6,26.8-32.6,38.7c-18.7,18.7-40,34.8-63.3,47.8
		c-8.8,4.9-17.9,9.4-27.2,13.4c-35,15-73.6,23.3-114.1,23.3c-29.8,0-58.6-4.5-85.7-12.9c-9.3-2.9-18.4-6.2-27.2-9.9
		c-28.2-11.9-54.1-28.2-76.9-48c-6.8-5.9-13.3-12.1-19.6-18.6c-8.4-8.7-16.2-18-23.4-27.7c-7.1-9.6-13.6-19.6-19.5-30
		c-23.9-42.1-37.5-90.8-37.5-142.7c0-24.4,3-48.1,8.7-70.7c1.8-7.4,4-14.6,6.4-21.7c5.9-17.4,13.3-34.1,22.3-49.9
		c5.6-10,11.9-19.6,18.6-28.8c7.5-10.3,15.7-20,24.5-29.2c6.2-6.5,12.7-12.7,19.6-18.6c50.9-44.1,117.2-70.8,189.8-70.8
		c79.9,0,152.2,32.3,204.6,84.6c11.9,11.9,22.8,24.8,32.6,38.7c0.9,1.3,1.8,2.6,2.7,4c4.4,6.5,8.5,13.1,12.4,19.9
		C3352.5,1138.6,3366.2,1187.3,3366.2,1239.2z"/>
	<path class="st0" d="M4466.9,2955.2c0,80.8-25.4,155.6-68.6,217.1c-12.7,18-26.9,34.9-42.4,50.4c-24.4,24.4-52.2,45.4-82.5,62.3
		c-11.5,6.4-23.3,12.3-35.5,17.5c-45.6,19.6-95.9,30.4-148.7,30.4c-38.9,0-76.4-5.9-111.7-16.8c-12.1-3.7-23.9-8.1-35.5-13
		c-36.7-15.5-70.4-36.7-100.1-62.5c-8.9-7.7-17.4-15.8-25.5-24.3c-10.9-11.4-21.1-23.4-30.5-36.1c-9.3-12.5-17.8-25.5-25.5-39.1
		c-31.1-54.9-48.9-118.3-48.9-185.9c0-31.8,3.9-62.7,11.3-92.1c2.4-9.6,5.2-19,8.3-28.3c7.6-22.7,17.4-44.5,29-65
		c7.4-13,15.5-25.5,24.2-37.5c9.8-13.4,20.5-26.1,32-38.1c8.1-8.5,16.6-16.6,25.5-24.3c66.3-57.5,152.7-92.2,247.3-92.2
		c104.1,0,198.3,42.1,266.6,110.2c15.6,15.5,29.8,32.3,42.4,50.4c1.2,1.7,2.4,3.4,3.6,5.2c5.7,8.4,11.1,17.1,16.1,25.9
		C4449.1,2824.1,4466.9,2887.6,4466.9,2955.2z"/>
	<path class="st0" d="M2494.6,1298.2c0,39.7-12.5,76.4-33.7,106.5c-6.2,8.8-13.2,17.1-20.8,24.7c-12,12-25.6,22.3-40.5,30.6
		c-5.6,3.2-11.4,6-17.4,8.6c-22.4,9.6-47.1,14.9-73,14.9c-19.1,0-37.5-2.9-54.8-8.2c-5.9-1.8-11.8-4-17.4-6.4
		c-18-7.6-34.6-18-49.1-30.7c-4.4-3.8-8.5-7.7-12.5-11.9c-5.4-5.6-10.4-11.5-15-17.7c-4.5-6.1-8.7-12.5-12.5-19.2
		c-15.3-26.9-24-58.1-24-91.2c0-15.6,1.9-30.8,5.6-45.2c1.2-4.7,2.5-9.3,4.1-13.9c3.8-11.2,8.5-21.8,14.2-31.9
		c3.6-6.4,7.6-12.5,11.9-18.4c4.8-6.6,10.1-12.8,15.7-18.7c4-4.2,8.1-8.1,12.5-11.9c32.5-28.2,75-45.3,121.4-45.3
		c51.1,0,97.3,20.7,130.8,54.1c7.6,7.6,14.6,15.9,20.8,24.7c0.6,0.8,1.2,1.7,1.7,2.5c2.8,4.1,5.5,8.4,7.9,12.7
		C2485.9,1233.9,2494.6,1265,2494.6,1298.2z"/>
	<path class="st0" d="M1379.1,812.2c0,49-15.4,94.3-41.6,131.5c-7.7,10.9-16.3,21.1-25.7,30.5c-14.8,14.8-31.6,27.5-50,37.8
		c-6.9,3.9-14.1,7.4-21.5,10.6c-27.6,11.9-58.1,18.4-90.1,18.4c-23.6,0-46.3-3.6-67.7-10.2c-7.3-2.3-14.5-4.9-21.5-7.9
		c-22.2-9.4-42.7-22.3-60.7-37.9c-5.4-4.7-10.5-9.6-15.4-14.7c-6.6-6.9-12.8-14.2-18.5-21.9c-5.6-7.5-10.8-15.5-15.4-23.7
		c-18.9-33.3-29.6-71.7-29.6-112.6c0-19.3,2.4-38,6.9-55.8c1.5-5.8,3.1-11.5,5-17.2c4.6-13.8,10.5-27,17.6-39.4
		c4.5-7.9,9.4-15.5,14.7-22.7c5.9-8.1,12.4-15.8,19.4-23.1c4.9-5.1,10.1-10,15.4-14.7c40.1-34.8,92.5-55.9,149.8-55.9
		c63.1,0,120.1,25.5,161.5,66.8c9.4,9.4,18,19.6,25.7,30.5c0.7,1,1.5,2.1,2.2,3.1c3.5,5.1,6.7,10.3,9.8,15.7
		C1368.3,732.8,1379.1,771.2,1379.1,812.2z"/>
	<path class="st0" d="M1437.1,3301.2c0,70.8-22.2,136.3-60.1,190.1c-11.1,15.8-23.5,30.5-37.2,44.1c-21.4,21.3-45.7,39.7-72.2,54.6
		c-10,5.6-20.4,10.7-31.1,15.3c-40,17.1-84,26.6-130.2,26.6c-34.1,0-66.9-5.1-97.8-14.7c-10.6-3.3-21-7.1-31.1-11.4
		c-32.2-13.6-61.7-32.2-87.7-54.7c-7.8-6.7-15.2-13.8-22.3-21.2c-9.6-10-18.5-20.5-26.7-31.6c-8.1-10.9-15.6-22.3-22.3-34.2
		c-27.3-48.1-42.8-103.7-42.8-162.9c0-27.8,3.4-54.9,9.9-80.7c2.1-8.4,4.5-16.7,7.3-24.8c6.7-19.9,15.2-39,25.4-57
		c6.4-11.4,13.5-22.4,21.2-32.9c8.6-11.7,18-22.9,28-33.4c7.1-7.4,14.5-14.5,22.3-21.2c58-50.3,133.8-80.8,216.6-80.8
		c91.2,0,173.7,36.9,233.5,96.5c13.6,13.6,26.1,28.3,37.2,44.1c1.1,1.5,2.1,3,3.1,4.5c5,7.4,9.7,14.9,14.1,22.7
		C1421.5,3186.4,1437.1,3242,1437.1,3301.2z"/>
	<path class="st0" d="M2330.4,520.2c0,60.6-19,116.7-51.4,162.7c-9.5,13.5-20.1,26.1-31.8,37.8c-18.3,18.3-39.1,34-61.8,46.7
		c-8.6,4.8-17.5,9.2-26.6,13.1c-34.2,14.7-71.9,22.8-111.5,22.8c-29.2,0-57.3-4.4-83.7-12.6c-9.1-2.8-17.9-6-26.6-9.7
		c-27.5-11.7-52.8-27.5-75.1-46.8c-6.7-5.8-13-11.8-19.1-18.2c-8.2-8.5-15.8-17.6-22.9-27.1c-6.9-9.3-13.3-19.1-19.1-29.3
		c-23.3-41.1-36.6-88.7-36.6-139.4c0-23.8,2.9-47,8.5-69.1c1.8-7.2,3.9-14.3,6.2-21.2c5.7-17,13-33.4,21.8-48.8
		c5.5-9.8,11.6-19.2,18.2-28.1c7.4-10,15.4-19.6,24-28.5c6.1-6.4,12.4-12.4,19.1-18.2c49.7-43.1,114.5-69.2,185.4-69.2
		c78,0,148.7,31.6,199.9,82.6c11.7,11.6,22.3,24.3,31.8,37.8c0.9,1.3,1.8,2.6,2.7,3.9c4.3,6.3,8.3,12.8,12.1,19.5
		C2317.1,421.9,2330.4,469.5,2330.4,520.2z"/>
</g>
<g id="Layer_7">
	<path class="st1" d="M2097,3061.7c-5.6,0-10.2-4.5-10.2-10.2v-61.1l-57.6-33.3c-0.2-0.1-0.4-0.2-0.5-0.3
		c-24.8-14.3-40-24.6-49.6-39.5c-9.8-15.1-12.7-33.3-12.7-63.2v-111.7c0-5.6,4.5-10.2,10.2-10.2c5.6,0,10.2,4.6,10.2,10.2v111.7
		c0,25.8,2.2,41,9.4,52.2c7.3,11.3,20.6,20.2,42.6,32.9c0.2,0.1,0.4,0.2,0.5,0.3l57.6,33.3l57.6-33.3l0,0l0,0
		c22.3-12.9,35.8-21.8,43.1-33.2c7.3-11.2,9.5-26.4,9.5-52.2v-111.7c0-5.6,4.5-10.2,10.2-10.2c5.6,0,10.1,4.6,10.1,10.2v111.7
		c0,29.8-2.9,48.1-12.7,63.2c-9.6,14.9-25,25.3-50.1,39.8l0,0l-57.6,33.3v50.8c68.2-2.6,129.8-31.3,174.9-76.5
		c47.4-47.4,76.7-112.8,76.7-185.1c0-72.3-29.3-137.7-76.7-185.1c-47.4-47.4-112.8-76.7-185.1-76.7c-72.3,0-137.7,29.3-185.1,76.7
		c-47.4,47.4-76.7,112.8-76.7,185.1c0,65.2,23.8,124.8,63.2,170.6c39.9,46.4,95.9,78.7,159.4,88.2c5.5,0.8,9.4,6,8.5,11.5
		c-0.8,5.5-6,9.4-11.6,8.5c-68.3-10.3-128.7-45.1-171.7-95.2c-42.5-49.3-68.1-113.6-68.1-183.7c0-77.9,31.6-148.4,82.6-199.4
		c51-51,121.5-82.6,199.4-82.6c77.9,0,148.4,31.6,199.4,82.6c51,51,82.6,121.6,82.6,199.4c0,77.9-31.6,148.4-82.6,199.4
		C2245.4,3030.1,2174.9,3061.7,2097,3061.7L2097,3061.7z M2027.5,2662.3v-31.5c0-5.6-4.5-10.2-10.2-10.2c-5.6,0-10.2,4.6-10.2,10.2
		v223.4c0,43,0,43.2,41.9,67.4c0.2,0.1,0.4,0.2,0.5,0.3l41.8,24.1l0.1,0.1l0.1,0.1l0,0l0,0l0.1,0.1l0.1,0l0,0l0.1,0l0.1,0l0.1,0.1
		l0.1,0.1l0.1,0l0.1,0l0,0l0.1,0l0.1,0.1l0,0l0,0l0.2,0.1l0,0l0.1,0l0.1,0.1l0,0l0.2,0.1l0,0l0.2,0.1l0.2,0.1l0,0l0.1,0l0.1,0l0,0
		l0.1,0l0.1,0l0.1,0l0,0l0,0c0.1,0.1,0.3,0.1,0.4,0.1l0,0l0.1,0l0.2,0l0,0h0l0.1,0l0.1,0l0.1,0h0l0.1,0l0.1,0h0l0.1,0l0.2,0l0.2,0
		l0.1,0l0,0l0.1,0h0.1l0,0h0.1l0.2,0l0.2,0l0,0h0.1h0.1h0h0.1l0.2,0l0.2,0h0.1h0h0.1h0.1l0,0l0.3,0l0.2,0h0.1l0,0h0.1l0.1,0l0,0
		l0.1,0l0.2,0l0.2,0l0.1,0h0l0.1,0l0.1,0h0l0.1,0l0.1,0l0.1,0l0,0l0,0l0.2,0l0,0l0,0c0.1,0,0.3-0.1,0.4-0.1h0l0,0l0.1,0l0.1,0l0.1,0
		l0,0l0.1,0l0.1,0l0,0l0.2-0.1l0.2-0.1l0,0l0.2-0.1l0,0l0.1-0.1l0.1,0l0,0l0.2-0.1l0,0l0,0l0.1-0.1l0.1,0l0,0l0,0l0.1,0l0.1-0.1
		l0.1-0.1l0.1,0l0,0l0,0l0.1,0l0.1-0.1l0,0l0.1,0l0.1-0.1l0.1-0.1l41.8-24.1c0.2-0.1,0.4-0.2,0.5-0.3c41.9-24.2,41.9-24.4,41.9-67.4
		v-223.4c0-5.6-4.5-10.2-10.2-10.2c-5.6,0-10.2,4.6-10.2,10.2v31.5l-37.3,21.5c-0.2,0.1-0.4,0.2-0.5,0.3c-9,5.2-16,9.3-21.6,12.9
		v-122.3c0-5.6-4.5-10.2-10.2-10.2c-5.6,0-10.2,4.6-10.2,10.2V2697c-5.5-3.6-12.6-7.7-21.6-12.9c-0.2-0.1-0.4-0.2-0.5-0.3
		L2027.5,2662.3L2027.5,2662.3z M2072.1,2786.1l-22.5-13c-8.8-5.1-15.7-9.1-21.2-12.6l-0.9-0.6v19.8c0,24.3,0,29.9,14.8,39.7
		l22.4,13l0,0l0,0c8.7,5,15.7,9,21.2,12.6l1,0.5v-19.8v-1.5v-0.5C2086.9,2801.2,2086.4,2795.7,2072.1,2786.1L2072.1,2786.1z
		 M2054.6,2701.3l-27.1-15.7v19.8c0,24.3,0,29.9,14.8,39.7l22.5,13c8.7,5,15.7,9.1,21.2,12.6l1,0.5v-19.8v-1.5v-0.5
		c0-29.4-0.7-30-31.7-47.9C2055,2701.5,2054.8,2701.4,2054.6,2701.3L2054.6,2701.3z M2166.6,2685.7l-27.1,15.7
		c-0.2,0.1-0.4,0.2-0.6,0.3c-31,17.9-31.7,18.5-31.7,47.9v0.5v1.5v19.8l1-0.6c5.5-3.6,12.4-7.6,21.2-12.6l22.5-13
		c14.8-9.8,14.8-15.4,14.8-39.7V2685.7L2166.6,2685.7z M2165.7,2760.5c-5.5,3.6-12.5,7.6-21.2,12.6l-22.4,13
		c-14.4,9.5-14.8,15.1-14.8,37.7v0.5v1.5v19.8l1-0.5c5.5-3.6,12.4-7.6,21.2-12.6v0l0,0l22.4-13c14.8-9.8,14.8-15.4,14.8-39.7V2760
		L2165.7,2760.5L2165.7,2760.5z M2072,2860.5l-22.5-13c-0.2-0.1-0.3-0.2-0.5-0.3c-8.5-4.9-15.2-8.8-20.6-12.3l-1-0.6v19.8
		c0,31.4,0,31.6,31.7,49.9c0.2,0.1,0.4,0.2,0.6,0.3l27.1,15.7v-19.8v-1.5v-0.5C2086.9,2875.6,2086.4,2870,2072,2860.5L2072,2860.5z
		 M2165.6,2834.9c-5.4,3.5-12.1,7.4-20.6,12.3c-0.2,0.1-0.3,0.2-0.5,0.3l-22.5,13c-14.4,9.6-14.8,15.1-14.8,37.7v0.5v1.5v19.8
		l27.1-15.7c0.2-0.1,0.4-0.2,0.6-0.3c31.7-18.3,31.7-18.5,31.7-49.9v-19.8L2165.6,2834.9z"/>
</g>
<g id="Layer_5">
	<path class="st2" d="M3240.9,1122l0,234.3c0,12.4-4.1,23.9-10.9,33.2c-3.5,4.8-7.8,8.9-12.6,12.3c-9.1,6.5-20.2,10.3-32.2,10.2
		l-218.2,0c-12,0-23.1-3.8-32.2-10.2c-4.8-3.4-9.1-7.6-12.6-12.3c-6.9-9.3-10.9-20.7-10.9-33.2l0-234.3c0-12.4,4.1-23.9,10.9-33.2
		c3.5-4.8,7.8-8.9,12.6-12.3c9.1-6.4,20.2-10.3,32.2-10.3l218.2,0c12,0,23.1,3.8,32.2,10.2c4.8,3.4,9.1,7.6,12.6,12.3
		C3236.8,1098.1,3240.9,1109.6,3240.9,1122z"/>
	
		<ellipse transform="matrix(0.7071 -0.7071 0.7071 0.7071 24.7097 2538.0442)" class="st3" cx="3076" cy="1239.2" rx="100.4" ry="100.4"/>
	<polygon class="st2" points="3048.8,1191.9 3130.6,1239.2 3048.8,1286.5 	"/>
	<path class="st2" d="M4344.2,2916.1c2.5,18.6,2.8,37,1.3,54.9c-1.8,21.3-6.4,41.9-13.3,61.6c-11.1,31.4-28.4,60.2-50.6,84.8
		c-0.6,0.6-1.1,1.2-1.7,1.8c-9.4,10.2-19.7,19.7-30.8,28.2c-33.8,26.2-74.8,44.1-120.3,50.1c-43.4,5.8-85.6,0.1-123.7-14.8
		c-1.9-0.7-3.8-1.5-5.7-2.3c-69.9-29.2-124.9-89.4-145.5-165.7c-2.9-10.6-5.1-21.5-6.5-32.6c-2.5-18.5-2.8-36.8-1.3-54.7
		c0.1-0.7,0.1-1.5,0.2-2.2c0.8-8.6,2.1-17.2,3.8-25.6c0.4-2.1,0.9-4.2,1.3-6.3c4.3-18.7,10.7-36.8,19-53.8c2.4-4.9,4.9-9.7,7.6-14.4
		c8.3-14.6,18.1-28.3,29.1-40.9c0.8-0.9,1.5-1.8,2.3-2.6c2.7-3,5.5-6,8.3-8.9c20.3-20.5,44.2-37.6,70.8-50.2
		c0.8-0.4,1.7-0.8,2.5-1.2c22.2-10.2,46.3-17.3,71.8-20.7c5.7-0.8,11.4-1.3,17-1.7c6.6-0.4,13.1-0.6,19.6-0.5
		c23.2,0.3,45.8,3.8,67.3,10.2c1.4,0.4,2.7,0.8,4.1,1.3c67.3,21.2,123.5,70.3,153.1,135.4c4.5,9.8,8.3,20,11.5,30.6
		c0.3,0.9,0.5,1.7,0.8,2.6C4339.8,2890.6,4342.5,2903.2,4344.2,2916.1z"/>
	<g id="map_2_">
		<path class="st3" d="M4325.3,2844.7c-29.7-65.5-86.2-114.8-153.9-136.1c-8.8,0.8-17.1,3.6-24.1,10.4c-10.7,10.5-4.1,26.6-3.1,39.6
			c-15.2,2.8-42.7-1-50,14.1c-2.3,4.7-2.5,8.9-6.1,13.5c-3.7,4.8-6.1,7.7-9.2,13.3c-1.9,3.4-2.5,6-5.9,7.3
			c-1.3,14.9,27.9,4.2,36.5,3.1c8.9-1.2,25.2,1.2,32.5-3.5c4.2-2.7,4-10.7,7.8-12.4c5.5-2.4,8.8,6,11.6,8.9
			c6.2,6.3,11.1,7.8,19.5,7.1c6-0.5,12.1-2.5,18.1-2.4c4.4,0.1,7.5,2.1,11.1,3.1c-3.8,2.5-5.2,8.8-9.8,11c-6.8,3.2-17.7,3.9-25,5.2
			c-9.9,1.7-9.7-3.5-16.7-8c-8.1-5.2-13-4.4-22.6-3.6c-15.2,1.3-43.8,2.3-54.8,13.7c-5.3,5.5-2.3,12.2-7.3,17.6
			c-8.2,8.9-26.3,9.6-31.3,21.2c-4.4,10.2,2.6,29.4,5.2,38.8c3.8,13.9,5.2,26.4,20.6,30.1c14.3,3.4,31.4,2.1,46,2.9
			c8,0.4,17.4-2.3,21.1,5.8c1.8,4,1.2,9.9,2.7,14.2c3.1,9.1,10.2,12.4,17.7,17.8c7.8,5.7,7.7,9.9,9.1,20.2
			c2,15.1,4.5,23.4,12.1,36.3c3.3,5.6,5.6,12.4,6.5,19.2c1.6,11.6-0.5,21.3-8.2,29c-9.4,9.4-18.3,20.1-9.3,31.8
			c9.6,5.2,27.2-2,34.7-8.3c12.8-10.8,22.8-17.5,38.9-23.1c29-10,7.9-36.5,15.7-58.2c2.3-6.4,8.2-10.2,10.5-16.1
			c2.8-7.2,1.9-15.9,0.9-23.4c-1.8-13.2-5.8-25.7-7.6-38.9c-1.7-12.3,1.6-11.6,8.8-18.2c8.4-7.7,5.7-16.9,4.3-28
			c-0.4-3-0.8-6.1-1.3-9.1c-6-1.4-11.7-2.6-17.9-4c-3.6-0.8-12-1.1-14.9-3.2c-8.9-6.4-15.5-30.5-15.9-41
			c18.8-6.9,21.1,30.1,40.3,28.3c21.4-2,21.5-15.1,18.3-32c-14.5,1.2-18,1.9-19.3-14.3c7.1-2.2,14.2,2.1,20.1,5.3
			c4,2.2,9.8,2.6,13.3,4.8c8.8,5.5,6,19,14,26c3.4,0.3,5.9,2.3,7.1,5.4c8,3.1,13.8,16.5,21.3,21.9c-0.4-4.1-0.4-8.2-0.4-12.4
			C4333.7,2864.9,4329.8,2854.6,4325.3,2844.7z"/>
		<path class="st3" d="M4009.2,3145.9c0.3-12-14.5-17.1-17.2-27.3c-3.1-12.2,7.5-20.4,9.8-30.9c1.3-5.8-1.3-13.8-1.2-20
			c7-2.2,9.4-3.6,13.8-9.3c5.3-6.9,9.7-8.1,16.2-13.2c11.5-9,17.6-21,14.1-35.9c-3.6-15.1-11.4-33.9-27.3-38.7
			c-7.8-2.3-9.8,0.8-13.2-6.7c-2.2-4.8-1.9-10.9-3.7-15.8c-8.7-4-18.6-9.1-28-12.6c-9.5-3.5-22.2-9.7-32.9-9.8
			c-5.3,0-9.6,1-13.8,3.4c-1.3,0.8-0.7,3.2-2.5,4.2c-2.1,1.1-6.7,0.7-8.9,0.4c-11.5-1.5-28.6-12.4-32.7-22.9
			c-1.4-3.5-1.1-7.6-3.1-10.9c-1.5-2.4-5-3.7-7.1-6.1c-4.4-5.2-7.7-13.3,0.7-17.9c7.5-4.1,10.5,1.5,17.3,2.8
			c9.5,1.7,18.3-3.5,26.2-7.8c-0.6-7.1,6.2-16.8,10.5-21.9c5.9-6.9,13.9-11.5,20.4-17.6c4.4-4,8.2-8.6,12.9-12
			c7.4-5.3,40.5-15.2,26.5-28.2c-5.2-4.9-13.7-7-18.6-13.6c-1.9-2.5-2.4-5-4-7.7c-6.6-11.2-13.9-8.6-24.7-3.3
			c-9.6,4.7-11.9,14.9-24.4,14.7c-2.1,0-4.1-0.3-6-0.5c-0.8,0.9-1.6,1.8-2.3,2.6c-11.1,12.7-20.9,26.5-29.2,41.2
			c-2.7,4.7-5.2,9.6-7.6,14.5c-8.3,17.1-14.8,35.2-19.1,54.1c-0.5,2.1-0.9,4.2-1.4,6.3c-1.7,8.4-3,17-3.8,25.7
			c-0.1,0.7-0.1,1.5-0.2,2.2c5.3,1.2,8.8-6,15.3-3.7c6.9,2.4,9.7,16.5,16.5,21.1c10.6,7.4,26.8-3.8,35.7,8.9
			c12.3,17.4,0.2,54.1,20.2,66c8.3,4.9,10,2.3,10.6,14.4c0.5,10.5,0.1,21,4.1,30.8c4.2,10.6,12.8,16.8,15.2,28.1
			c2,9.6,3.4,14.4,9.3,22.1c6.4,8.3,12.6,16.2,18.4,24.9C3996.4,3149.6,3997.9,3147.7,4009.2,3145.9z"/>
		<path class="st3" d="M3996.1,2763.2c5.2,6.4,22.4,8.5,29.5,3.3c6.5-4.9,6.8-13.6,17-17.8c7.9-3.2,25.9-1.6,30.7-9.5
			c4.2-6.8-4.4-17.2,0.5-23.2c3.8-4.7,13.9-2.3,18.5-6.6c1.3-1.2,6.6-10,7.1-11.7c0.1-0.3,0.2-0.5,0.2-0.8
			c-6.5-0.1-13.1,0.1-19.7,0.5c-5.7,0.4-11.4,0.9-17.1,1.7c-25.7,3.4-49.9,10.5-72.2,20.8c-0.8,0.4-1.7,0.8-2.5,1.2
			c1.8,2.5,3.6,5,4.8,8.6C3996.3,2740.7,3987.7,2752.9,3996.1,2763.2z"/>
		<path class="st3" d="M4197.8,3137.9c-9.9,2.8-20,3.4-30,3.2c-10.1-0.2-27.5,0.5-36,6.1c-5.5,3.6-4.8,10.6-9.6,14.9
			c-4.3,3.9-13.3,3.6-18.9,6.1c0.2,5.3,4.3,8.6,4.1,14.5c-17,3.2-39.2,7.5-55-0.7c-15.1-7.8-2.2-19-8.4-31c-4.3-8.4-11.6-7.8-18.3-3
			c-7.7,5.7-8.8,14.5-13,21.7c-2.8,4.7-11.3,4.5-13.2,9.7c-0.3,0.8-0.4,1.5-0.5,2.3c1.9,0.8,3.8,1.6,5.7,2.3
			c38.3,14.9,80.8,20.6,124.4,14.8c45.7-6.1,87-24.1,121-50.4c11.1-8.6,21.5-18.1,30.9-28.4c-2.4-1.1-5.4-1-9.3-0.9
			C4245.8,3120.1,4221.7,3131,4197.8,3137.9z"/>
	</g>
	<path class="st2" d="M2412.5,1277h-15.9c-2.2-9-5.7-16.8-10.4-24.3l0.1,0.2l11.3-11.1c2.5-2.5,2.5-6.5,0-9l-19.6-19.5
		c-2.5-2.5-6.6-2.5-9.1,0l-10.6,11.3c-7.8-4.8-16.2-8.1-24.2-10.2v-0.1v-15.9c0-3.5-4.1-6.3-7.6-6.3h-27.7c-3.5,0-5.7,2.8-5.7,6.3
		v15.9c-9,2.2-17.6,5.7-25.1,10.4l-0.2-0.1l-11.3-11.3c-2.5-2.5-6.6-2.5-9.1,0l-19.6,19.6c-2.5,2.5-2.5,6.6,0,9.1l11.2,10.7
		c-4.8,7.8-8.1,16.3-10.2,24.3h-0.1h-15.9c-3.5,0-5.7,3.9-5.7,7.5v27.7c0,3.5,2.2,6.9,5.7,6.9h15.9c2.2,9,5.7,17,10.4,24.5l-0.1-0.1
		l-11.3,11.2c-2.5,2.5-2.5,6.5,0,9l19.6,19.6c2.5,2.5,6.6,2.5,9.1,0l11.5-11.3c7.8,4.8,16.1,8.1,25.1,10.2v0.1v15.9
		c0,3.5,2.3,5.9,5.8,5.9h27.7c3.5,0,7.5-2.3,7.5-5.9v-15.9c9-2.2,16.7-5.7,24.2-10.4l-0.2,0.1l11.1,11.3c2.5,2.5,6.5,2.5,9,0
		l19.5-19.6c2.5-2.5,2.5-6.6,0-9.1l-11.3-11c4.8-7.8,8.1-16.6,10.2-24.6h0.1h15.9c3.5,0,6.5-3.5,6.5-7v-27.7
		C2419,1280.8,2416,1277,2412.5,1277z M2296.6,1334.9c-0.4-0.2-0.8-0.3-1.1-0.5c-1.2-0.6-2.3-1.2-3.4-1.8c-0.5-0.3-1.1-0.7-1.6-1
		c-0.5-0.4-1.1-0.7-1.6-1.1c-0.3-0.2-0.5-0.4-0.8-0.6c-1.5-1.1-2.8-2.4-4.1-3.7s-2.5-2.7-3.6-4.2c-0.4-0.6-0.9-1.2-1.3-1.8
		c-1.2-1.9-2.3-3.8-3.1-5.9c-2.1-4.8-3.2-10.1-3.2-15.7c0-11.7,5-22.2,13.1-29.5c0.7-0.6,1.4-1.3,2.2-1.9c0.3-0.2,0.5-0.4,0.8-0.6
		c0.5-0.4,1-0.8,1.6-1.1c1.6-1.1,3.3-2,5-2.9c0.6-0.3,1.2-0.5,1.8-0.8c4.8-2,10-3.1,15.5-3.1c6.5,0,12.7,1.6,18.1,4.4
		c0.6,0.3,1.1,0.6,1.7,0.9c0.8,0.5,1.6,1,2.4,1.5c0.5,0.4,1.1,0.7,1.6,1.1c0.3,0.2,0.5,0.4,0.8,0.6c0.5,0.4,1,0.8,1.5,1.2
		c0.7,0.6,1.4,1.3,2.1,2c0.5,0.5,0.9,0.9,1.3,1.4c1.1,1.2,2.1,2.4,3,3.7c0.4,0.5,0.7,1.1,1.1,1.6c0.3,0.5,0.7,1.1,1,1.6
		c0.5,0.8,0.9,1.7,1.3,2.6c2.5,5.2,3.9,11.1,3.9,17.3c0,3.4-0.4,6.8-1.3,10c-0.2,0.6-0.3,1.3-0.5,1.9c-0.3,0.9-0.6,1.9-1,2.8
		c-0.2,0.6-0.5,1.2-0.8,1.8c-0.2,0.4-0.4,0.8-0.6,1.2c-0.4,0.8-0.8,1.5-1.2,2.3c-0.3,0.6-0.7,1.1-1,1.6c-0.3,0.4-0.6,0.8-0.9,1.3
		c-0.3,0.4-0.5,0.7-0.8,1.1c-0.2,0.3-0.4,0.5-0.6,0.8c-0.4,0.5-0.8,1-1.2,1.5c-0.2,0.2-0.4,0.5-0.6,0.7c-0.4,0.5-0.9,0.9-1.3,1.4
		c-0.2,0.2-0.5,0.4-0.7,0.7c-0.9,0.9-1.9,1.7-2.9,2.5c-0.3,0.2-0.5,0.4-0.8,0.6c-0.5,0.4-1,0.8-1.6,1.1c-0.5,0.4-1.1,0.7-1.6,1
		c-0.3,0.2-0.5,0.3-0.8,0.5c-0.6,0.3-1.1,0.6-1.7,0.9c-5.4,2.8-11.6,4.4-18.1,4.4c-5.3,0-10.3-1-14.9-2.9
		C2297.4,1335.2,2297,1335,2296.6,1334.9z"/>
	<path class="st2" d="M1150,721.4c59.7,0,108.1,37.9,108.1,84.6c0,25.8-14.7,48.9-38,64.4c0.1,0.3,0.1,0.5,0.2,0.7l4,29.1
		c0.3,2-1.1,3-3,2.3l-39.4-15.6c-10.1,2.4-20.8,3.7-31.9,3.7c-59.7,0-108.1-37.9-108.1-84.6C1041.9,759.2,1090.3,721.4,1150,721.4z"
		/>
	<path class="st2" d="M2191.8,511.8c-2,1.2-4.1,2.3-6.4,2.9c-2.5,0.7-3.1,4.7-1.1,6.6c3.5,3.2,5.4,7.3,6.2,11.9
		c1.5,8.3-1.7,15-7.8,20.5c-2.5,2.2-5.4,4-8.5,5.3c-3.2,1.4-3.9,5.7-1.2,8c6.1,5.2,7.9,12.6,4.7,20.4c-2.6,6.4-6.8,11.5-12.9,14.8
		c-0.8,0.4-1.7,0.8-2.6,1.1c-2.2,0.7-3,1.7-3.2,4c-0.1,1.7,0.4,3.1,1.7,4.2c3.3,2.9,5.7,6.4,6.3,10.9c0.4,3.4-0.3,6.7-1.7,9.8
		c-2.2,4.7-5.6,8.5-9.5,11.8c-1.8,1.6-6.6,4-10.3,5.6c-2,0.9-8.2,2.2-10.1,2.6c-90.3,18.3-153.7-5.4-161.8-8.3
		c-1.7-0.6-7.3-4.3-8.8-4.3c-0.3,0-2.2-0.5-2.2-0.7V503.4c3.4-2.4,6.7-4.7,10.1-7.1c0.3-0.2,0.6-0.5,0.9-0.8
		c0.1-0.1,0.2-0.2,0.3-0.3c17.9-22.5,29.5-46.5,42.8-72c8.9-17,11.2-53.4,11.1-67.2c0-5.5,4.1-14.5,14.9-14.5
		c2.7,0.1,8.4,0.2,11.8,1.5c4.1,1.5,7.5,6.8,11,13.6c4.7,9.2,7.7,19.3,10.5,29.3c1.1,3.8,1.9,7.6,2.5,11.4c0.4,2.8,0.4,5.7,0.2,8.5
		c-0.2,3.3-0.4,6.5-0.7,9.8c-0.6,6.4-1.5,12.7-2.6,19.1c-1.2,6.9-2.5,13.7-3.9,20.5c0,0.1,0,0.2,0,0.2c0,0.5-0.1,1.1-0.2,1.7
		c-2.2,8.8,6.7,13.9,12,16.1c1.4,0.6,7.2,1.3,8.8,1.3c28.9,0,77.3-0.2,83.1-0.1c3.9,0,7.8-0.1,11.7,0.1c6.4,0.3,13.5,4.5,15.5,13
		C2204.7,496.6,2200.3,506.6,2191.8,511.8z"/>
	<path class="st2" d="M1963.1,647.2c0,7-5.6,12.6-12.6,12.6h-46.4c-6.9,0-12.6-5.7-12.6-12.6V492.5c0-7,5.6-12.6,12.6-12.6h46.4
		c6.9,0,12.6,5.7,12.6,12.6V647.2z"/>
	<path class="st2" d="M519.1,590H281.3c66.1-14,78.4-62.6,78.4-62.6l40.5,0.8l40.5-0.8C440.7,527.4,453.1,576,519.1,590z"/>
	<path class="st2" d="M183,484v36.5c0,9.7,8.3,18.5,19,18.5h397c10.7,0,19-8.9,19-18.5V484H183z"/>
	<path class="st2" d="M618,265.7c0-12.6-8.3-22.7-19-22.7H202c-10.7,0-19,10.1-19,22.7V484h435V265.7z"/>
	<path class="st3" d="M600.8,278.1c0-11-8.3-19.5-18.1-19.5H218.2c-9.8,0-18,8.5-18,19.5v190.2h400.7V278.1z"/>
	
		<ellipse transform="matrix(0.7071 -0.7071 0.7071 0.7071 -244.0597 432.7949)" class="st3" cx="400.4" cy="511" rx="16.4" ry="16.4"/>
	<g>
		<path class="st2" d="M1300.1,3470.5H925.9l16.8-100.1c3.1-21.1,9.3-41,18.1-57.8c0.1-0.2,0.2-0.4,0.3-0.6
			c15.5-29.1,39.1-51,69.4-61.7c0,0,0-0.2,0.1-0.2c2.1,2,4.2,3.9,6.5,5.7c0.3,0.2,0.5,0.4,0.8,0.6c0.3,0.2,0.6,0.5,0.9,0.7
			c0.3,0.3,0.7,0.5,1,0.8c0.4,0.3,0.7,0.5,1.1,0.8c0.4,0.3,0.7,0.5,1.1,0.8c7.7,5.6,16.2,10.3,25.3,14c0.1,0,0.2,0.1,0.4,0.1
			c4.3,1.7,8.6,3.2,13,4.4c0.3,0.1,0.7,0.2,1,0.3c0.3,0.1,0.7,0.2,1,0.3c0.2,0,0.4,0.1,0.5,0.1c0.2,0,0.4,0.1,0.5,0.1
			c0.4,0.1,0.8,0.2,1.2,0.3c0.1,0,0.2,0,0.3,0c5.8,1.3,11.6,2.4,17.5,2.7c0,0,0,0,0,0c3.4,0.3,6.9,0.5,10.3,0.5
			c3.5,0,6.9-0.1,10.3-0.4c0,0,0,0,0,0c4.9-0.4,9.8-1.1,14.5-2.1c0,0,0,0,0,0c1.1-0.2,2.2-0.5,3.3-0.7c1.1-0.3,2.2-0.5,3.3-0.8
			c0.6-0.2,1.3-0.3,1.9-0.5c0.2,0,0.3-0.1,0.5-0.1c1.7-0.5,3.5-1,5.2-1.6c1.1-0.4,2.1-0.7,3.2-1.1c1.1-0.4,2.1-0.8,3.2-1.2
			c13.8-5.6,26.3-13.5,36.9-23.6c0,0,0,0,0,0c0,0,0,0,0.1,0c30.4,10.7,54.2,32.6,69.7,62c8.9,16.8,15,37.2,18.1,58.4L1300.1,3470.5z
			"/>
	</g>
	<g>
		<g>
			<path class="st2" d="M1209.3,3168.4c0,28.9-14,54.6-36,71.4c-13.1,10-29.1,16.9-46.5,19.2c-4.5,0.6-9.1,0.9-13.7,0.9
				c-4.7,0-9.3-0.3-13.7-0.9c-17.5-2.4-33.4-9.2-46.5-19.2c-21.9-16.8-36-42.5-36-71.4c0-8.7,1.3-17.2,3.7-25.2
				c11.5-38.3,48.6-66.4,92.6-66.4s81.1,28.1,92.6,66.4C1208,3151.2,1209.3,3159.6,1209.3,3168.4z"/>
		</g>
	</g>
	<path class="st2" d="M3991.2,713.8c0,125.5-101.7,227.2-227.2,227.2c-125.5,0-227.2-101.7-227.2-227.2
		c0-125.5,101.7-227.2,227.2-227.2C3889.5,486.6,3991.2,588.3,3991.2,713.8L3991.2,713.8z"/>
	<path class="st3" d="M3882.2,748.5c-14.8-7.8-28.8-10.2-31.3-5.5c-2.1,3.9,4.3,11.5,14.8,18.4c-9.3,46.2-53.2,76.7-101.3,76.7
		c-48.2,0-91.4-30.6-100.5-77.1c9.5-6.6,15.1-13.6,13.1-17.3c-2.5-4.8-16.5-2.3-31.3,5.5c-14.8,7.8-24.7,18-22.2,22.7
		c2,3.8,11,3,22-1.2c12.8,55.1,61.1,95.3,118.8,95.3c57.8,0,106.1-40.3,118.8-95.6c10.6,4,19.3,4.5,21.2,0.9
		C3906.9,766.5,3897,756.3,3882.2,748.5L3882.2,748.5z"/>
	
		<ellipse transform="matrix(0.7071 -0.7071 0.7071 0.7071 635.9193 2805.7063)" class="st3" cx="3704.7" cy="635.2" rx="27.5" ry="27.5"/>
	
		<ellipse transform="matrix(0.2298 -0.9732 0.9732 0.2298 2331.7485 4216.751)" class="st3" cx="3829.9" cy="635.2" rx="27.5" ry="27.5"/>
</g>
<g id="Layer_6">
	<path class="st2" d="M652.2,1627.3c0,0,38.9-18.2,9.8-40.9c-25.8-20.2-11.9-31.9,2.8-43.6c0,0-67.6,23.5-15.6,55.8
		C670.6,1611.9,652.2,1627.3,652.2,1627.3z"/>
	<path class="st2" d="M712.4,1658.6c0,0,38.9-18.2,9.8-40.9c-25.8-20.2-11.9-31.9,2.8-43.6c0,0-67.6,23.5-15.6,55.8
		C730.8,1643.1,712.4,1658.6,712.4,1658.6z"/>
	<g>
		<path class="st2" d="M817.1,1678H684H551c-6.3,16-10.1,33.1-10.1,51c0,77.1,63.5,140,143,142.5c79.6-2.4,143.1-65.4,143.1-142.5
			C827.1,1711.1,823.4,1694,817.1,1678z"/>
		<g>
			<path class="st2" d="M821.9,1695.4c-25,0-45.3,19.1-45.3,42.6c0,23.5,20.3,42.6,45.3,42.6c25,0,45.3-19.1,45.3-42.6
				C867.2,1714.5,846.9,1695.4,821.9,1695.4z M821.9,1767.8c-17.5,0-31.6-13.3-31.6-29.8c0-16.4,14.2-29.8,31.6-29.8
				c17.5,0,31.6,13.3,31.6,29.8C853.5,1754.5,839.4,1767.8,821.9,1767.8z"/>
		</g>
	</g>
	<path class="st2" d="M1511.4,1273.1c-32.7-20.8-46.7-59.7-51.1-75l-0.2-5.8c-0.1-2.2-1.9-3.9-4-3.8c-2.2,0.1-3.9,1.9-3.8,4.1
		l8.8,261.9c-12.2-15.1-35.9-24.3-62.2-22.2c-36.9,3-65.1,27-63,53.6c2.1,26.6,33.8,45.8,70.7,42.8c29.5-2.4,53.4-18.2,60.7-38
		c0.2-0.1,0.4-0.2,0.6-0.3c1.3-0.7,2.1-2,2-3.6l-6.2-184.1c15,35.2,43.5,23.7,82.4,30.2c39.8,6.7,43.1,75.7,43.1,75.7
		C1595,1365.4,1552.8,1299.5,1511.4,1273.1z"/>
	<path class="st2" d="M850.9,2794H835c-2.2-9-5.7-17-10.4-24.5l0.1,0.1l11.3-11.2c2.5-2.5,2.5-6.5,0-9l-19.6-19.6
		c-2.5-2.5-6.6-2.5-9.1,0l-10.8,11.3c-7.8-4.8-16.5-8.1-24.5-10.2v-0.1v-15.9c0-3.5-3.7-5.9-7.2-5.9h-27.7c-3.5,0-6.1,2.4-6.1,5.9
		v15.9c-9,2.2-17.4,5.7-24.9,10.4l-0.1-0.1l-11.3-11.3c-2.5-2.5-6.6-2.5-9.1,0l-19.6,19.6c-2.5,2.5-2.5,6.6,0,9.1l11.2,10.9
		c-4.8,7.8-8.1,16.5-10.2,24.5H667h-15.9c-3.5,0-6.1,3.5-6.1,7.1v27.7c0,3.5,2.6,7.3,6.1,7.3H667c2.2,9,5.7,16.8,10.4,24.3l-0.1-0.2
		l-11.3,11.1c-2.5,2.5-2.5,6.5,0,9l19.6,19.5c2.5,2.5,6.6,2.5,9.1,0l11.3-11.3c7.8,4.8,15.9,8.1,24.9,10.2v0.1v15.9
		c0,3.5,2.7,6.3,6.3,6.3h27.7c3.5,0,7.1-2.7,7.1-6.3v-15.9c9-2.2,16.9-5.7,24.4-10.4l-0.1,0.1l11.2,11.3c2.5,2.5,6.5,2.5,9,0
		l19.5-19.6c2.5-2.5,2.5-6.6,0-9.1l-11.3-10.7c4.8-7.8,8.1-16.4,10.2-24.4h0.1h15.9c3.5,0,6.1-3.9,6.1-7.4v-27.7
		C857,2797.4,854.5,2794,850.9,2794z M735,2851.4c-0.4-0.2-0.8-0.3-1.1-0.5c-1.2-0.6-2.3-1.2-3.4-1.8c-0.5-0.3-1.1-0.7-1.6-1
		c-0.5-0.4-1.1-0.7-1.6-1.1c-0.3-0.2-0.5-0.4-0.8-0.6c-1.5-1.1-2.8-2.4-4.1-3.7c-1.3-1.3-2.5-2.7-3.6-4.2c-0.4-0.6-0.9-1.2-1.3-1.8
		c-1.2-1.9-2.3-3.8-3.1-5.9c-2.1-4.8-3.2-10.1-3.2-15.7c0-11.7,5-22.2,13.1-29.5c0.7-0.6,1.4-1.3,2.2-1.9c0.3-0.2,0.5-0.4,0.8-0.6
		c0.5-0.4,1-0.8,1.6-1.1c1.6-1.1,3.3-2,5-2.9c0.6-0.3,1.2-0.5,1.8-0.8c4.8-2,10-3.1,15.5-3.1c6.5,0,12.7,1.6,18.1,4.4
		c0.6,0.3,1.1,0.6,1.7,0.9c0.8,0.5,1.6,1,2.4,1.5c0.5,0.4,1.1,0.7,1.6,1.1c0.3,0.2,0.5,0.4,0.8,0.6c0.5,0.4,1,0.8,1.5,1.2
		c0.7,0.6,1.4,1.3,2.1,2c0.5,0.5,0.9,0.9,1.3,1.4c1.1,1.2,2.1,2.4,3,3.7c0.4,0.5,0.7,1.1,1.1,1.6c0.3,0.5,0.7,1.1,1,1.6
		c0.5,0.8,0.9,1.7,1.3,2.6c2.5,5.2,3.9,11.1,3.9,17.3c0,3.4-0.4,6.8-1.3,10c-0.2,0.6-0.3,1.3-0.5,1.9c-0.3,0.9-0.6,1.9-1,2.8
		c-0.2,0.6-0.5,1.2-0.8,1.8c-0.2,0.4-0.4,0.8-0.6,1.2c-0.4,0.8-0.8,1.5-1.2,2.3c-0.3,0.6-0.7,1.1-1,1.6c-0.3,0.4-0.6,0.9-0.9,1.3
		c-0.3,0.4-0.5,0.7-0.8,1.1c-0.2,0.3-0.4,0.5-0.6,0.8c-0.4,0.5-0.8,1-1.2,1.5c-0.2,0.2-0.4,0.5-0.6,0.7c-0.4,0.5-0.9,0.9-1.3,1.4
		c-0.2,0.2-0.5,0.4-0.7,0.7c-0.9,0.9-1.9,1.7-2.9,2.5c-0.3,0.2-0.5,0.4-0.8,0.6c-0.5,0.4-1,0.8-1.6,1.1c-0.5,0.4-1.1,0.7-1.6,1
		c-0.3,0.2-0.6,0.3-0.8,0.5c-0.6,0.3-1.1,0.6-1.7,0.9c-5.4,2.8-11.6,4.4-18.1,4.4c-5.3,0-10.3-1-14.9-2.9
		C735.8,2851.8,735.4,2851.6,735,2851.4z"/>
	<path class="st2" d="M4179,1258h-22.7c-3.1-13-8.1-24.2-14.8-35l0.1,0.1l16-16c3.6-3.6,3.6-9.3,0-12.9l-27.9-27.9
		c-3.6-3.6-9.3-3.6-12.9,0l-15.2,16c-11.1-6.8-23.6-11.6-34.6-14.5v-0.1v-22.7c0-5-5.8-8.2-10.8-8.2h-39.4c-5,0-8.7,3.1-8.7,8.2
		v22.7c-12,3.1-24.7,8.1-35.5,14.8l-0.2-0.1l-16.1-16c-3.6-3.6-9.4-3.6-12.9,0l-27.9,27.9c-3.6,3.6-3.6,9.3,0,12.9l16,15.6
		c-6.8,11.1-11.6,24-14.5,35h-0.1h-22.7c-5,0-8.1,4.9-8.1,10v39.4c0,5,3.1,10.6,8.1,10.6h22.7c3.1,13,8.1,23.8,14.8,34.6l-0.1-0.3
		l-16,15.9c-3.6,3.6-3.6,9.3,0,12.8l27.9,27.8c3.6,3.6,9.3,3.5,12.9,0l16.1-16c11.1,6.8,23.5,11.6,35.5,14.5v0.1v22.7
		c0,5,3.9,9,8.9,9h39.4c5,0,10.6-4,10.6-9v-22.7c13-3.1,23.8-8.1,34.6-14.8l-0.3,0.1l15.9,16c3.6,3.6,9.3,3.6,12.8,0l27.8-27.9
		c3.6-3.6,3.5-9.3,0-12.9l-16-15.2c6.8-11.1,11.6-23.6,14.5-34.6h0.1h22.7c5,0,9-5.8,9-10.8v-39.4C4188,1262.7,4184,1258,4179,1258z
		 M4013.7,1339.8c-0.5-0.2-1.1-0.5-1.6-0.8c-1.7-0.8-3.3-1.7-4.8-2.6c-0.8-0.5-1.5-1-2.3-1.5c-0.8-0.5-1.5-1-2.2-1.6
		c-0.4-0.3-0.7-0.5-1.1-0.8c-2.1-1.6-4-3.4-5.8-5.3c-1.8-1.9-3.5-3.9-5.1-6c-0.6-0.9-1.2-1.7-1.8-2.6c-1.7-2.7-3.2-5.5-4.5-8.4
		c-2.9-6.9-4.6-14.4-4.6-22.3c0-16.7,7.2-31.7,18.6-42c1-0.9,2.1-1.8,3.1-2.6c0.4-0.3,0.7-0.6,1.1-0.8c0.7-0.5,1.5-1.1,2.2-1.6
		c2.3-1.5,4.6-2.9,7.1-4.1c0.8-0.4,1.7-0.8,2.5-1.1c6.8-2.9,14.3-4.5,22.1-4.5c9.3,0,18.1,2.2,25.9,6.2c0.8,0.4,1.6,0.9,2.4,1.3
		c1.2,0.7,2.4,1.4,3.5,2.2c0.8,0.5,1.5,1,2.2,1.6c0.4,0.3,0.7,0.5,1.1,0.8c0.7,0.6,1.4,1.1,2.1,1.7c1,0.9,2,1.8,3,2.8
		c0.6,0.6,1.3,1.3,1.9,2c1.5,1.7,3,3.5,4.3,5.3c0.5,0.7,1,1.5,1.5,2.3c0.5,0.8,1,1.5,1.4,2.3c0.7,1.2,1.3,2.4,1.9,3.6
		c3.6,7.4,5.6,15.8,5.6,24.6c0,4.9-0.6,9.7-1.8,14.2c-0.2,0.9-0.5,1.8-0.8,2.7c-0.4,1.3-0.9,2.6-1.4,3.9c-0.3,0.9-0.7,1.7-1.1,2.5
		c-0.3,0.6-0.5,1.1-0.8,1.7c-0.5,1.1-1.1,2.2-1.7,3.2c-0.5,0.8-0.9,1.6-1.4,2.3c-0.4,0.6-0.8,1.2-1.2,1.8c-0.4,0.5-0.7,1-1.1,1.6
		c-0.3,0.4-0.5,0.7-0.8,1.1c-0.6,0.7-1.1,1.4-1.7,2.1c-0.3,0.3-0.6,0.7-0.9,1c-0.6,0.7-1.2,1.3-1.9,2c-0.3,0.3-0.6,0.6-1,1
		c-1.3,1.3-2.7,2.4-4.1,3.6c-0.4,0.3-0.7,0.6-1.1,0.8c-0.7,0.5-1.5,1.1-2.2,1.6c-0.8,0.5-1.5,1-2.3,1.5c-0.4,0.2-0.8,0.5-1.2,0.7
		c-0.8,0.5-1.6,0.9-2.4,1.3c-7.8,4-16.5,6.2-25.9,6.2c-7.5,0-14.6-1.5-21.2-4.1C4014.9,1340.3,4014.3,1340,4013.7,1339.8z"/>
	<polygon class="st2" points="3471,1912.7 3499.7,2001 3592.5,2001 3517.4,2055.4 3546.1,2143.6 3471,2089.1 3395.9,2143.6 
		3424.6,2055.4 3349.5,2001 3442.3,2001 	"/>
	<polygon class="st2" points="183,880 208.7,959 291.8,959 224.5,1007.7 250.2,1086.6 183,1037.7 115.8,1086.6 141.5,1007.7 
		74.2,959 157.3,959 	"/>
	<polygon class="st2" points="1931,1595.6 1946.7,1644 1997.7,1644 1956.5,1674 1972.2,1722.5 1931,1692.6 1889.8,1722.6 
		1905.5,1674 1864.3,1644 1915.3,1644 	"/>
	<polygon class="st2" points="3283,628.6 3298.7,677 3349.7,677 3308.5,707 3324.2,755.5 3283,725.6 3241.8,755.6 3257.5,707 
		3216.3,677 3267.3,677 	"/>
	<g>
		<path class="st2" d="M3723.7,2402.6c-55.4,0-100.4,44.9-100.4,100.4s44.9,100.4,100.4,100.4c55.4,0,100.4-44.9,100.4-100.4
			S3779.1,2402.6,3723.7,2402.6z M3697.5,2550.3v-94.6l81.9,47.3L3697.5,2550.3z"/>
	</g>
	<g>
		<path class="st2" d="M227.7,2217.4c-55.4,0-100.4,44.9-100.4,100.4c0,55.4,44.9,100.4,100.4,100.4c55.4,0,100.4-44.9,100.4-100.4
			C328.1,2262.3,283.1,2217.4,227.7,2217.4z M201.5,2365v-94.6l81.9,47.3L201.5,2365z"/>
	</g>
	<g>
		<path class="st2" d="M2846.2,1904c0,14.9-12.8,26.9-28.5,26.9h-115.9c-15.8,0-28.5-12-28.5-26.9v-281.6
			c0-14.9,12.8-26.9,28.5-26.9h115.9c15.8,0,28.5,12,28.5,26.9V1904z"/>
		<path class="st4" d="M2780.7,1613.9c0,2.3-1.6,4.1-3.6,4.1h-35.9c-2,0-3.6-1.8-3.6-4.1l0,0c0-2.3,1.6-4.1,3.6-4.1h35.9
			C2779.1,1609.8,2780.7,1611.7,2780.7,1613.9L2780.7,1613.9z"/>
		<path class="st4" d="M2823.5,1613.8c0,2.6-2.2,4.7-4.9,4.7c-2.7,0-4.9-2.1-4.9-4.7c0-2.6,2.2-4.7,4.9-4.7
			C2821.3,1609,2823.5,1611.2,2823.5,1613.8z"/>
		<rect x="2685.6" y="1637.9" class="st4" width="148" height="246"/>
		<path class="st4" d="M2778.1,1918.4h-36.9c-2.8,0-5.2-2.3-5.2-5.2v-4.9c0-2.8,2.3-5.2,5.2-5.2h36.9c2.8,0,5.2,2.3,5.2,5.2v4.9
			C2783.3,1916.1,2780.9,1918.4,2778.1,1918.4z"/>
	</g>
	<path class="st2" d="M2782.7,867.2c-11.9-47.1-45.7-78.3-46.8-76.7c0,0-39.9-36-95.5-35.6c-55.5-0.4-95.5,35.6-95.5,35.6
		c-1-1.6-34.9,29.6-46.8,76.7c-11.9,47.1,10.2,86.5,10.2,86.5c24.6,55.1,54.3,91.2,54.3,91.2c18.3,28.4,77.8,98.8,77.8,98.8
		s59.4-70.4,77.7-98.8c0,0,29.7-36,54.3-91.2C2772.4,953.8,2794.5,914.3,2782.7,867.2z M2640.4,962c-40.5,0-73.3-32.8-73.3-73.3
		c0-40.5,32.8-73.3,73.3-73.3c40.5,0,73.3,32.8,73.3,73.3C2713.7,929.2,2680.9,962,2640.4,962z"/>
	<path class="st2" d="M2910.2,2836.6c-6.4-25.3-24.6-42.1-25.1-41.2c0,0-21.5-19.4-51.3-19.2c-29.9-0.2-51.4,19.2-51.4,19.2
		c-0.5-0.9-18.8,15.9-25.2,41.2s5.5,46.5,5.5,46.5c13.2,29.7,29.2,49,29.2,49c9.8,15.3,41.8,53.1,41.8,53.1s32-37.9,41.8-53.1
		c0,0,16-19.4,29.2-49C2904.7,2883.1,2916.5,2861.9,2910.2,2836.6z M2833.7,2887.6c-21.8,0-39.4-17.6-39.4-39.4s17.6-39.4,39.4-39.4
		c21.8,0,39.4,17.6,39.4,39.4S2855.4,2887.6,2833.7,2887.6z"/>
	<g>
		<g>
			<path class="st2" d="M3901,1875.3l137.3,101.6c4.2,3.1,10.8,3.1,15,0l137.4-101.2L3901,1875.3z"/>
			<path class="st2" d="M3998.8,1959.1l-95.4,89.2c-1.5-2.6-2.5-5.6-2.5-8.7v-152.8L3998.8,1959.1z"/>
			<path class="st2" d="M4084.3,1965.5l96.2,89.7c-2.7,1.3-5.7,1.9-9,1.9h-251.2c-3,0-5.8-0.4-8.3-1.5l96.1-89.7l37.8,28
				L4084.3,1965.5z"/>
			<path class="st2" d="M4190.6,1886.7v152.9c0,2.9-0.7,5.7-2,8.1l-95.2-88.9L4190.6,1886.7z"/>
		</g>
	</g>
	<g>
		<g>
			<path class="st2" d="M841.4,1235.9l92.6,68.5c2.9,2.1,7.3,2.1,10.1,0l92.6-68.3L841.4,1235.9z"/>
			<path class="st2" d="M907.4,1292.4l-64.4,60.1c-1-1.7-1.7-3.8-1.7-5.9v-103.1L907.4,1292.4z"/>
			<path class="st2" d="M965,1296.7l64.9,60.5c-1.8,0.9-3.9,1.3-6.1,1.3H854.4c-2,0-3.9-0.3-5.6-1l64.8-60.5l25.5,18.9L965,1296.7z"
				/>
			<path class="st2" d="M1036.7,1243.6v103.1c0,2-0.4,3.8-1.3,5.5l-64.2-60L1036.7,1243.6z"/>
		</g>
	</g>
	<circle class="st2" cx="888.5" cy="2270.5" r="96.2"/>
	<circle class="st4" cx="853" cy="2241.7" r="14.4"/>
	<circle class="st4" cx="923.8" cy="2241.7" r="14.4"/>
	<g>
		<path class="st4" d="M936.8,2315.1c-25.8,23.9-66.1,23.9-91.9,0c-4.1-3.8-4.6-9.5-1.7-11.7l0,0c3-2.2,7.6-1.2,10.8,1.7
			c20.7,19.1,52.9,19.1,73.5,0c3.2-2.9,7.9-4,10.8-1.7l0,0C941.5,2305.6,941,2311.3,936.8,2315.1z"/>
	</g>
	<path class="st2" d="M1978.6,913.4c-1.6-25.8-22.2-31.6-22.2-31.6c-26.3-7.2-44.5,14-44.5,14s-18.2-21.3-44.5-14
		c0,0-20.5,5.7-22.1,31.6c-1.8,28.2,48.9,76.6,66.6,88.2C1929.7,990,1980.4,941.6,1978.6,913.4z"/>
	<g>
		<path class="st2" d="M702.7,965.8H556.4l6.6-39.2c1.2-8.3,3.6-16,7.1-22.6c0-0.1,0.1-0.1,0.1-0.2c6.1-11.4,15.3-19.9,27.1-24.1
			c0,0,0-0.1,0-0.1c0.8,0.8,1.7,1.5,2.5,2.2c0.1,0.1,0.2,0.2,0.3,0.2c0.1,0.1,0.2,0.2,0.4,0.3c0.1,0.1,0.3,0.2,0.4,0.3
			c0.1,0.1,0.3,0.2,0.4,0.3c0.1,0.1,0.3,0.2,0.4,0.3c3,2.2,6.3,4,9.9,5.5c0,0,0.1,0,0.1,0.1c1.7,0.7,3.4,1.2,5.1,1.7
			c0.1,0,0.3,0.1,0.4,0.1c0.1,0,0.3,0.1,0.4,0.1c0.1,0,0.1,0,0.2,0.1c0.1,0,0.1,0,0.2,0.1c0.2,0,0.3,0.1,0.5,0.1c0,0,0.1,0,0.1,0
			c2.2,0.5,4.5,0.9,6.9,1c0,0,0,0,0,0c1.3,0.1,2.7,0.2,4,0.2c1.4,0,2.7,0,4-0.2c0,0,0,0,0,0c1.9-0.2,3.8-0.4,5.7-0.8c0,0,0,0,0,0
			c0.4-0.1,0.9-0.2,1.3-0.3c0.4-0.1,0.9-0.2,1.3-0.3c0.2-0.1,0.5-0.1,0.7-0.2c0.1,0,0.1,0,0.2-0.1c0.7-0.2,1.4-0.4,2-0.6
			c0.4-0.1,0.8-0.3,1.3-0.4c0.4-0.2,0.8-0.3,1.2-0.5c5.4-2.2,10.3-5.3,14.4-9.2c0,0,0,0,0,0c0,0,0,0,0,0
			c11.9,4.2,21.2,12.7,27.2,24.2c3.5,6.6,5.9,14.6,7.1,22.8L702.7,965.8z"/>
	</g>
	<g>
		<g>
			<path class="st2" d="M667.2,847.6c0,11.3-5.5,21.4-14.1,27.9c-5.1,3.9-11.4,6.6-18.2,7.5c-1.8,0.2-3.5,0.4-5.4,0.4
				s-3.6-0.1-5.4-0.4c-6.8-0.9-13.1-3.6-18.2-7.5c-8.6-6.6-14.1-16.6-14.1-27.9c0-3.4,0.5-6.7,1.4-9.8c4.5-15,19-26,36.2-26
				c17.2,0,31.7,11,36.2,26C666.7,840.9,667.2,844.2,667.2,847.6z"/>
		</g>
	</g>
	<circle class="st2" cx="2432.5" cy="2099.9" r="71.7"/>
	<g>
		<path class="st4" d="M2441.1,2058.6v35.2h33.8v15.2h-33.8v35.6h-15.8v-35.6h-33.8v-15.2h33.8v-35.2H2441.1z"/>
	</g>
	<circle class="st2" cx="1864.3" cy="1296.7" r="114.7"/>
	<g>
		<path class="st4" d="M1878.1,1230.7v56.4h54.1v24.3h-54.1v56.9h-25.4v-56.9h-54.1v-24.3h54.1v-56.4H1878.1z"/>
	</g>
	
		<ellipse transform="matrix(0.2298 -0.9732 0.9732 0.2298 1192.2502 4654.6182)" class="st2" cx="3536.8" cy="1574.1" rx="69.9" ry="69.9"/>
	<g>
		<path class="st4" d="M3545.2,1533.8v34.4h33v14.8h-33v34.7h-15.5V1583h-33v-14.8h33v-34.4H3545.2z"/>
	</g>
	
		<ellipse transform="matrix(0.7071 -0.7071 0.7071 0.7071 -1447.259 1734.1187)" class="st2" cx="1369.6" cy="2614.1" rx="71.7" ry="71.7"/>
	<g>
		<path class="st4" d="M1378.2,2572.8v35.2h33.8v15.2h-33.8v35.6h-15.8v-35.6h-33.8V2608h33.8v-35.2H1378.2z"/>
	</g>
</g>
</svg>
