<?xml version="1.0" encoding="utf-8"?>
<!-- Generator: Adobe Illustrator 22.1.0, SVG Export Plug-In . SVG Version: 6.00 Build 0)  -->
<svg version="1.1" xmlns="http://www.w3.org/2000/svg" xmlns:xlink="http://www.w3.org/1999/xlink" x="0px" y="0px"
	 viewBox="0 0 5000 5000" style="enable-background:new 0 0 5000 5000;" xml:space="preserve">
<style type="text/css">
	.st0{fill:#BA9E59;}
	.st1{opacity:0.34;fill:#020202;}
	.st2{fill:#FFF5DA;}
	.st3{fill:#F9F9E8;}
	.st4{fill:#5E4915;}
	.st5{fill:#FFEDDC;}
	.st6{fill:#282928;}
	.st7{fill:#EBFAFD;}
</style>
<g id="Layer_5">
	<path class="st0" d="M2471.2,3505.4h-0.3v-6h0.3c8.8,0,17.8-0.1,26.6-0.3l0.1,6C2489.1,3505.3,2480.1,3505.4,2471.2,3505.4z
		 M2443.8,3505c-9-0.2-18.1-0.6-27-1l0.3-6c8.9,0.5,18,0.8,26.9,1L2443.8,3505z M2525,3504l-0.3-6c8.9-0.4,18-1,26.9-1.7l0.5,6
		C2543,3503,2533.9,3503.6,2525,3504z M2389.7,3502.3c-9-0.7-18-1.5-27-2.4l0.6-6c8.9,0.9,17.9,1.7,26.8,2.4L2389.7,3502.3z
		 M2578.9,3499.9l-0.6-6c8.9-0.9,17.9-1.9,26.7-3.1l0.8,6C2596.9,3498,2587.9,3499,2578.9,3499.9z M2335.9,3496.8
		c-8.9-1.1-17.9-2.4-26.8-3.8l0.9-5.9c8.8,1.4,17.8,2.6,26.7,3.8L2335.9,3496.8z M2632.6,3493.1l-0.9-5.9c8.8-1.4,17.8-2.9,26.5-4.4
		l1.1,5.9C2650.5,3490.2,2641.5,3491.7,2632.6,3493.1z M2282.4,3488.5c-8.8-1.6-17.8-3.3-26.6-5.2l1.2-5.9
		c8.7,1.8,17.6,3.5,26.4,5.1L2282.4,3488.5z M2685.9,3483.4l-1.2-5.9c8.8-1.8,17.6-3.8,26.3-5.8l1.4,5.8
		C2703.6,3479.6,2694.7,3481.6,2685.9,3483.4z M2229.4,3477.4c-8.7-2.1-17.6-4.3-26.3-6.5l1.5-5.8c8.7,2.3,17.4,4.5,26.1,6.5
		L2229.4,3477.4z M2738.6,3471l-1.5-5.8c8.6-2.3,17.4-4.7,25.9-7.2l1.7,5.8C2756.1,3466.3,2747.3,3468.8,2738.6,3471z M2177,3463.7
		c-8.6-2.5-17.3-5.2-25.9-7.9l1.8-5.7c8.5,2.7,17.2,5.4,25.7,7.9L2177,3463.7z M2790.6,3456l-1.8-5.7c8.5-2.7,17.1-5.6,25.5-8.5
		l2,5.7C2807.8,3450.4,2799.2,3453.2,2790.6,3456z M2125.3,3447.2c-8.5-3-17.1-6.1-25.5-9.3l2.1-5.6c8.4,3.2,16.9,6.3,25.4,9.2
		L2125.3,3447.2z M2841.7,3438.2l-2.1-5.6c8.3-3.1,16.8-6.4,25.1-9.8l2.3,5.6C2858.6,3431.7,2850.1,3435,2841.7,3438.2z
		 M2074.5,3428c-8.3-3.4-16.8-7-25-10.6l2.4-5.5c8.2,3.6,16.6,7.1,24.9,10.5L2074.5,3428z M2891.8,3417.8l-2.4-5.5
		c8.1-3.6,16.4-7.3,24.4-11.1l2.5,5.4C2908.3,3410.5,2900,3414.2,2891.8,3417.8z M2024.8,3406.2c-8.2-3.8-16.4-7.8-24.4-11.9
		l2.7-5.4c8,4,16.2,8,24.3,11.8L2024.8,3406.2z M2940.7,3394.9l-2.7-5.4c8-4,16-8.1,23.9-12.3l2.8,5.3
		C2956.8,3386.8,2948.7,3390.9,2940.7,3394.9z M1976.3,3381.8c-7.9-4.2-15.9-8.6-23.7-13.1l3-5.2c7.8,4.4,15.7,8.8,23.6,13
		L1976.3,3381.8z M2988.4,3369.5l-3-5.2c7.8-4.4,15.6-8.9,23.2-13.5l3.1,5.1C3004,3360.5,2996.2,3365.1,2988.4,3369.5z M1929.2,3355
		c-7.7-4.6-15.4-9.5-23-14.3l3.2-5.1c7.5,4.8,15.2,9.6,22.9,14.2L1929.2,3355z M3034.7,3341.7l-3.2-5.1c7.5-4.8,15.1-9.7,22.5-14.7
		l3.3,5C3049.8,3331.9,3042.2,3336.9,3034.7,3341.7z M1883.5,3325.9c-7.5-5-14.9-10.2-22.3-15.5l3.5-4.9
		c7.3,5.2,14.7,10.4,22.1,15.4L1883.5,3325.9z M3079.5,3311.5l-3.5-4.9c7.3-5.2,14.6-10.5,21.7-15.9l3.6,4.8
		C3094.2,3301,3086.8,3306.3,3079.5,3311.5z M1839.4,3294.4c-7.2-5.4-14.4-11-21.4-16.6l3.7-4.7c7,5.6,14.2,11.1,21.3,16.5
		L1839.4,3294.4z M3122.8,3279.1l-3.7-4.7c7-5.5,14-11.2,20.9-17l3.8,4.6C3136.9,3267.8,3129.8,3273.5,3122.8,3279.1z M1797,3260.7
		c-6.9-5.8-13.8-11.7-20.5-17.6l4-4.5c6.7,5.9,13.6,11.8,20.4,17.5L1797,3260.7z M3164.3,3244.4l-4-4.5c6.7-5.9,13.4-12,20-18
		l4.1,4.4C3177.8,3232.4,3171.1,3238.5,3164.3,3244.4z M1756.3,3224.9c-6.6-6.1-13.2-12.4-19.6-18.7l4.2-4.3
		c6.4,6.3,13,12.5,19.5,18.6L1756.3,3224.9z M3204.1,3207.7l-4.2-4.3c6.4-6.2,12.8-12.6,19-19l4.3,4.2
		C3217,3195,3210.5,3201.4,3204.1,3207.7z M1717.6,3187c-6.2-6.4-12.5-13-18.6-19.6l4.4-4.1c6.1,6.6,12.3,13.1,18.5,19.5
		L1717.6,3187z M3241.9,3169l-4.4-4.1c6.1-6.5,12.2-13.3,18.1-20l4.5,4C3254.1,3155.6,3248,3162.4,3241.9,3169z M1680.9,3147.3
		c-5.9-6.7-11.8-13.7-17.6-20.6l4.6-3.8c5.7,6.9,11.6,13.7,17.5,20.4L1680.9,3147.3z M3277.7,3128.3l-4.6-3.8
		c5.7-6.9,11.5-13.9,17-20.9l4.7,3.7C3289.2,3114.4,3283.5,3121.4,3277.7,3128.3z M1646.3,3105.7c-5.6-7-11.1-14.2-16.5-21.4
		l4.8-3.6c5.3,7.1,10.9,14.3,16.4,21.3L1646.3,3105.7z M3311.4,3085.9l-4.8-3.6c5.4-7.1,10.7-14.4,15.9-21.7l4.9,3.5
		C3322.1,3071.4,3316.8,3078.7,3311.4,3085.9z M1613.8,3062.5c-5.2-7.3-10.4-14.8-15.4-22.2l5-3.3c5,7.4,10.1,14.9,15.3,22.1
		L1613.8,3062.5z M3342.8,3041.8l-5-3.4c5-7.4,10-15,14.8-22.5l5.1,3.2C3352.9,3026.7,3347.9,3034.3,3342.8,3041.8z M1583.7,3017.6
		c-4.8-7.6-9.6-15.3-14.2-23l5.1-3.1c4.6,7.6,9.3,15.3,14.1,22.9L1583.7,3017.6z M3372,2996.1l-5.1-3.1c4.6-7.7,9.2-15.5,13.6-23.3
		l5.2,3C3381.2,2980.5,3376.6,2988.4,3372,2996.1z M1555.9,2971.3c-4.4-7.8-8.8-15.8-13-23.7l5.3-2.8c4.2,7.9,8.5,15.8,12.9,23.5
		L1555.9,2971.3z M3398.8,2948.9l-5.3-2.8c4.2-7.9,8.4-15.9,12.4-24l5.4,2.7C3407.2,2932.9,3403,2941,3398.8,2948.9z M1530.5,2923.6
		c-4-8-8-16.2-11.8-24.3l5.4-2.5c3.8,8.1,7.7,16.2,11.7,24.2L1530.5,2923.6z M3423.1,2900.4l-5.4-2.5c3.8-8.1,7.6-16.4,11.1-24.6
		l5.5,2.4C3430.7,2883.9,3426.9,2892.3,3423.1,2900.4z M1507.6,2874.7c-3.6-8.2-7.1-16.6-10.5-24.9l5.6-2.3
		c3.4,8.3,6.9,16.6,10.4,24.7L1507.6,2874.7z M3444.9,2850.7l-5.6-2.3c3.4-8.3,6.7-16.8,9.9-25.1l5.6,2.1
		C3451.6,2833.9,3448.3,2842.4,3444.9,2850.7z M1487.2,2824.6c-3.2-8.4-6.3-17-9.2-25.5l5.7-2c2.9,8.4,6,17,9.2,25.3L1487.2,2824.6z
		 M3464.1,2799.9l-5.7-2c2.9-8.5,5.8-17.1,8.5-25.6l5.7,1.8C3469.9,2782.7,3467,2791.4,3464.1,2799.9z M1469.5,2773.5
		c-2.7-8.6-5.4-17.3-7.9-25.9l5.8-1.7c2.5,8.6,5.1,17.2,7.8,25.8L1469.5,2773.5z M3480.5,2748.2l-5.8-1.7c2.5-8.6,4.9-17.3,7.2-25.9
		l5.8,1.5C3485.5,2730.8,3483,2739.6,3480.5,2748.2z M1454.4,2721.5c-2.3-8.7-4.5-17.5-6.5-26.3l5.8-1.4c2,8.7,4.2,17.5,6.5,26.1
		L1454.4,2721.5z M3494.3,2695.9l-5.8-1.4c2-8.7,4-17.5,5.8-26.3l5.9,1.2C3498.3,2678.2,3496.3,2687.1,3494.3,2695.9z
		 M1442.1,2668.8c-1.8-8.8-3.6-17.7-5.2-26.6l5.9-1.1c1.6,8.8,3.3,17.7,5.1,26.4L1442.1,2668.8z M3505.3,2642.9l-5.9-1.1
		c1.6-8.8,3.1-17.7,4.5-26.5l5.9,0.9C3508.4,2625,3506.9,2634,3505.3,2642.9z M1432.4,2615.5c-1.4-8.9-2.6-17.9-3.8-26.8l6-0.8
		c1.1,8.9,2.4,17.8,3.8,26.7L1432.4,2615.5z M3513.6,2589.4l-6-0.8c1.1-8.9,2.2-17.9,3.1-26.7l6,0.6
		C3515.8,2571.4,3514.7,2580.5,3513.6,2589.4z M1425.6,2561.8c-0.9-8.9-1.7-18-2.4-27l6-0.5c0.7,8.9,1.5,17.9,2.4,26.8
		L1425.6,2561.8z M3519.1,2535.5l-6-0.5c0.7-8.9,1.3-17.9,1.7-26.9l6,0.3C3520.3,2517.5,3519.8,2526.6,3519.1,2535.5z
		 M1421.5,2507.8c-0.4-9-0.8-18.1-1-27.1l6-0.1c0.2,8.9,0.6,18,1,26.9L1421.5,2507.8z M3521.8,2481.4l-6-0.2
		c0.2-8.9,0.3-18,0.3-26.9h6C3522.2,2463.4,3522.1,2472.5,3521.8,2481.4z M1426.2,2453.7l-6,0c0-9,0.1-18.1,0.4-27.1l6,0.2
		C1426.3,2435.7,1426.2,2444.8,1426.2,2453.7z M3515.9,2428.8c-0.2-8.9-0.5-18-1-26.9l6-0.3c0.4,9,0.8,18.1,1,27.1L3515.9,2428.8z
		 M1427.6,2399.9l-6-0.3c0.5-9,1-18.1,1.7-27l6,0.5C1428.6,2381.9,1428,2391,1427.6,2399.9z M3513.2,2375c-0.7-8.9-1.5-18-2.4-26.8
		l6-0.6c0.9,8.9,1.7,18,2.4,27L3513.2,2375z M1431.7,2346.2l-6-0.6c0.9-8.9,2-18,3.1-26.9l6,0.8
		C1433.7,2328.4,1432.6,2337.4,1431.7,2346.2z M3507.8,2321.4c-1.1-8.8-2.4-17.8-3.7-26.7l5.9-0.9c1.4,8.9,2.6,17.9,3.8,26.8
		L3507.8,2321.4z M1438.6,2292.9l-5.9-0.9c1.4-8.9,2.9-17.9,4.5-26.7l5.9,1.1C1441.5,2275.1,1439.9,2284,1438.6,2292.9z
		 M3499.6,2268.2c-1.6-8.8-3.3-17.7-5.1-26.4l5.9-1.2c1.8,8.8,3.5,17.7,5.1,26.6L3499.6,2268.2z M1448.2,2239.9l-5.9-1.2
		c1.8-8.8,3.8-17.7,5.9-26.4l5.8,1.4C1452,2222.3,1450,2231.1,1448.2,2239.9z M3488.7,2215.5c-2-8.7-4.2-17.5-6.5-26.1l5.8-1.5
		c2.3,8.7,4.5,17.5,6.5,26.3L3488.7,2215.5z M1460.6,2187.5l-5.8-1.5c2.3-8.7,4.7-17.5,7.2-26.1l5.8,1.7
		C1465.2,2170.1,1462.8,2178.9,1460.6,2187.5z M3475.1,2163.5c-2.5-8.6-5.1-17.2-7.8-25.8l5.7-1.8c2.7,8.6,5.4,17.3,7.9,25.9
		L3475.1,2163.5z M1475.6,2135.8l-5.7-1.8c2.7-8.6,5.6-17.3,8.6-25.8l5.7,2C1481.2,2118.7,1478.3,2127.3,1475.6,2135.8z
		 M3458.8,2112.1c-2.9-8.4-6-16.9-9.1-25.3l5.6-2.1c3.2,8.4,6.3,17,9.2,25.5L3458.8,2112.1z M1493.4,2084.8l-5.6-2.1
		c3.2-8.4,6.5-16.9,9.9-25.3l5.6,2.3C1499.9,2068,1496.6,2076.4,1493.4,2084.8z M3439.9,2061.8c-3.3-8.2-6.8-16.6-10.4-24.7l5.5-2.4
		c3.6,8.2,7.1,16.6,10.5,24.9L3439.9,2061.8z M1513.8,2034.9l-5.5-2.4c3.6-8.2,7.4-16.6,11.2-24.7l5.4,2.6
		C1521.1,2018.4,1517.4,2026.7,1513.8,2034.9z M3418.5,2012.6c-3.8-8.1-7.7-16.2-11.7-24.2l5.4-2.7c4,8,7.9,16.2,11.7,24.3
		L3418.5,2012.6z M1536.7,1986l-5.4-2.7c4-8.1,8.2-16.2,12.5-24.1l5.3,2.8C1544.9,1970,1540.8,1978,1536.7,1986z M3394.5,1964.5
		c-4.2-7.9-8.5-15.8-12.9-23.5l5.2-3c4.4,7.8,8.8,15.8,13,23.7L3394.5,1964.5z M1562.2,1938.5l-5.2-3c4.4-7.8,9.1-15.7,13.7-23.4
		l5.1,3.1C1571.2,1922.9,1566.6,1930.7,1562.2,1938.5z M3368.1,1917.8c-4.6-7.6-9.3-15.3-14.1-22.9l5.1-3.2
		c4.8,7.6,9.6,15.3,14.2,23L3368.1,1917.8z M1590,1892.3l-5.1-3.2c4.8-7.6,9.9-15.2,14.9-22.6l5,3.4
		C1599.8,1877.2,1594.9,1884.8,1590,1892.3z M3339.3,1872.4c-5-7.4-10.1-14.8-15.3-22.1l4.9-3.5c5.2,7.3,10.4,14.8,15.4,22.2
		L3339.3,1872.4z M1620.2,1847.7l-4.9-3.5c5.2-7.3,10.6-14.7,16-21.8l4.8,3.6C1630.8,1833.1,1625.4,1840.4,1620.2,1847.7z
		 M3308.1,1828.6c-5.3-7.1-10.9-14.3-16.4-21.3l4.7-3.7c5.6,7,11.1,14.3,16.5,21.4L3308.1,1828.6z M1652.7,1804.6l-4.7-3.7
		c5.6-7,11.4-14.1,17.1-21l4.6,3.9C1663.9,1790.6,1658.2,1797.7,1652.7,1804.6z M3274.8,1786.4c-5.7-6.9-11.6-13.7-17.5-20.5l4.5-4
		c5.9,6.7,11.8,13.7,17.6,20.6L3274.8,1786.4z M1687.2,1763.4l-4.5-4c5.9-6.7,12.1-13.5,18.2-20.1l4.4,4.1
		C1699.2,1749.9,1693.2,1756.7,1687.2,1763.4z M3239.4,1745.9c-6-6.6-12.3-13.1-18.5-19.5l4.3-4.2c6.3,6.4,12.5,13.1,18.6,19.7
		L3239.4,1745.9z M1723.9,1723.9l-4.3-4.2c6.3-6.4,12.7-12.9,19.2-19.1l4.2,4.3C1736.5,1711.1,1730.1,1717.5,1723.9,1723.9z
		 M3201.9,1707.3c-6.4-6.2-12.9-12.5-19.5-18.6l4.1-4.4c6.6,6.1,13.2,12.4,19.6,18.7L3201.9,1707.3z M1762.5,1686.4l-4.1-4.4
		c6.6-6.1,13.4-12.2,20.1-18.1l4,4.5C1775.8,1674.3,1769,1680.3,1762.5,1686.4z M3162.4,1670.7c-6.7-5.9-13.6-11.8-20.4-17.6
		l3.9-4.6c6.9,5.8,13.8,11.7,20.5,17.7L3162.4,1670.7z M1802.9,1650.9l-3.8-4.6c6.9-5.8,14-11.5,21-17l3.7,4.7
		C1816.8,1639.5,1809.8,1645.2,1802.9,1650.9z M3121.2,1636.1c-7-5.6-14.1-11.1-21.3-16.5l3.6-4.8c7.2,5.4,14.4,11,21.4,16.6
		L3121.2,1636.1z M1845.1,1617.6l-3.6-4.8c7.2-5.4,14.5-10.7,21.8-15.9l3.5,4.9C1859.6,1606.9,1852.3,1612.2,1845.1,1617.6z
		 M3078.1,1603.6c-7.3-5.2-14.7-10.4-22.1-15.4l3.4-5c7.5,5,14.9,10.3,22.2,15.5L3078.1,1603.6z M1888.9,1586.5l-3.3-5
		c7.4-5,15.1-10,22.6-14.8l3.2,5.1C1903.9,1576.5,1896.3,1581.5,1888.9,1586.5z M3033.5,1573.4c-7.5-4.8-15.2-9.6-22.9-14.2l3.1-5.1
		c7.7,4.7,15.5,9.5,23,14.3L3033.5,1573.4z M1934.3,1557.6l-3.1-5.1c7.7-4.6,15.5-9.2,23.3-13.6l3,5.2
		C1949.8,1548.5,1941.9,1553.1,1934.3,1557.6z M2987.4,1545.6c-7.8-4.4-15.7-8.8-23.6-13l2.8-5.3c7.9,4.2,15.9,8.7,23.7,13.1
		L2987.4,1545.6z M1981.1,1531.2l-2.8-5.3c7.9-4.2,16-8.4,24-12.4l2.7,5.4C1996.9,1522.9,1988.9,1527,1981.1,1531.2z M2939.8,1520.1
		c-8-4-16.2-8-24.3-11.8l2.6-5.4c8.1,3.8,16.4,7.8,24.4,11.9L2939.8,1520.1z M2029.1,1507.2l-2.5-5.4c8.1-3.8,16.4-7.5,24.6-11.1
		l2.4,5.5C2045.4,1499.7,2037.1,1503.5,2029.1,1507.2z M2891,1497.1c-8.2-3.6-16.6-7.1-24.8-10.5l2.3-5.6c8.3,3.4,16.8,7,25,10.6
		L2891,1497.1z M2078.2,1485.8l-2.3-5.6c8.3-3.4,16.8-6.7,25.2-9.9l2.1,5.6C2095,1479.1,2086.5,1482.4,2078.2,1485.8z M2841,1476.7
		c-8.4-3.2-16.9-6.3-25.4-9.2l2-5.7c8.5,3,17.1,6.1,25.5,9.3L2841,1476.7z M2128.6,1466.8l-2-5.7c8.5-2.9,17.1-5.8,25.7-8.5l1.8,5.7
		C2145.7,1461,2137.1,1463.9,2128.6,1466.8z M2790,1458.9c-8.5-2.7-17.2-5.4-25.7-7.9l1.7-5.8c8.6,2.5,17.3,5.2,25.9,7.9
		L2790,1458.9z M2179.9,1450.5l-1.7-5.8c8.6-2.5,17.4-4.9,26.1-7.2l1.5,5.8C2197.2,1445.6,2188.5,1448,2179.9,1450.5z
		 M2738.4,1443.9c-8.6-2.3-17.4-4.5-26.1-6.5l1.4-5.8c8.8,2.1,17.6,4.3,26.3,6.6L2738.4,1443.9z M2232,1436.9l-1.4-5.8
		c8.7-2,17.6-4,26.4-5.8l1.2,5.9C2249.5,1432.9,2240.7,1434.8,2232,1436.9z M2686,1431.5c-8.7-1.8-17.6-3.6-26.4-5.2l1.1-5.9
		c8.8,1.6,17.8,3.4,26.6,5.2L2686,1431.5z M2284.7,1426l-1.1-5.9c8.8-1.6,17.8-3.1,26.7-4.5l0.9,5.9
		C2302.4,1422.9,2293.5,1424.4,2284.7,1426z M2633,1421.8c-8.8-1.4-17.8-2.6-26.6-3.8l0.8-6c8.9,1.2,17.9,2.4,26.8,3.8L2633,1421.8z
		 M2337.9,1417.8l-0.8-6c8.9-1.1,18-2.2,26.9-3.1l0.6,6C2355.8,1415.6,2346.8,1416.7,2337.9,1417.8z M2579.6,1414.9
		c-8.9-0.9-17.9-1.7-26.8-2.4l0.5-6c9,0.7,18,1.5,27,2.4L2579.6,1414.9z M2391.5,1412.4l-0.5-6c9-0.7,18-1.2,27-1.7l0.3,6
		C2409.4,1411.1,2400.4,1411.7,2391.5,1412.4z M2526,1410.8c-8.9-0.5-18-0.8-26.9-1l0.2-6c9,0.2,18.1,0.6,27,1.1L2526,1410.8z
		 M2445.2,1409.7l-0.1-6c8.6-0.2,17.4-0.3,26.1-0.3l1,0l0,6l-1,0C2462.6,1409.4,2453.8,1409.5,2445.2,1409.7z"/>
</g>
<g id="Layer_7">
	<path class="st0" d="M2606,3653.5h-162.7c-11.9,0-21.6-9.7-21.6-21.6v-320.3c0-11.9,9.7-21.6,21.6-21.6H2606
		c11.9,0,21.6,9.7,21.6,21.6v320.3C2627.6,3643.8,2617.9,3653.5,2606,3653.5z"/>
	<path class="st1" d="M2627.7,3311.5v320.3c0,11.9-9.7,21.6-21.7,21.6h-22.2L2510,3290l96,0
		C2617.9,3290,2627.7,3299.6,2627.7,3311.5z"/>
	<rect x="2427.6" y="3329.7" class="st2" width="194.2" height="283"/>
	<path class="st2" d="M2551.9,3313.5h-54.1c-1.7,0-3.1-1.4-3.1-3.1l0,0c0-1.7,1.4-3.1,3.1-3.1h54.1c1.7,0,3.1,1.4,3.1,3.1l0,0
		C2554.9,3312.1,2553.6,3313.5,2551.9,3313.5z"/>
	<path class="st2" d="M2545.7,3640.9h-41.9c-2.3,0-4.2-1.9-4.2-4.2v-6.9c0-2.3,1.9-4.2,4.2-4.2h41.9c2.3,0,4.2,1.9,4.2,4.2v6.9
		C2549.9,3639,2548,3640.9,2545.7,3640.9z"/>
</g>
<g id="Layer_8">
	<path class="st2" d="M2182.6,3427.1c0,32.9-20.1,61-48.6,73c-6.4,3.9-13.9,6.1-21.9,6.1h-236.8c-2,0-3.9-0.1-5.8-0.4
		c-17.2-1.7-32.8-9-45-20c0,0,0,0,0,0c-16-14.5-26.1-35.4-26.1-58.6c0-39.9,29.5-72.8,67.9-78.2c5.7-31.2,33.1-54.8,65.9-54.8
		c11,0,21.3,2.6,30.4,7.3c17.4-21.5,44.1-35.3,73.9-35.3c16,0,31,3.9,44.2,10.9c0,0,0,0,0,0c0,0,0,0,0,0
		c23.7,12.5,41.5,34.8,48,61.4c0,0.2,0.1,0.4,0.1,0.5c13.6,1.6,24.2,13,24.6,27c7.9,6.4,14.5,14.4,19.4,23.4
		C2179.1,3400.5,2182.6,3413.4,2182.6,3427.1z"/>
	<path class="st0" d="M2182.6,3427.1c0,32.9-20.1,61-48.6,73c-6.4,3.9-13.9,6.1-21.9,6.1h-236.8c-2,0-3.9-0.1-5.8-0.4
		c-17.2-1.7-32.8-9-45-20c0.9,0.5,56,29.6,93.6-24.3c0,0,13.5-15.4,6.9-33.7c0,0,61.8,16.2,65.5-39.4c0,0,55.4,50.9,99.8-10
		c0,0,29.3-43-9.5-101.4c0,0,0,0,0,0c1,0.5,39.2,19.1,48,61.4c3.6,17.1,2.3,38-8,63.2c0,0-5,27.5-52.5,49.2c0,0,4.4,58.7,74.4,25.4
		c0,0,55.6-26.7,29.8-86.7l0.5-0.2C2179.1,3400.5,2182.6,3413.4,2182.6,3427.1z"/>
</g>
<g id="Layer_1">
	<path class="st3" d="M2192.3,2482.9c-2.8,0.7-58.7,56.8-145.3,79.4l49.7-116.6L2192.3,2482.9z"/>
	<path class="st2" d="M1970.5,2551l76.6-109.8c0,0,6.4-8.2,16-15.8c10-7.9,22.5-11.9,35.2-11.4l167.8,6.6l-67,62.1l-83.5-7.3
		c0,0-11.3-0.9-19.3,22.4l-25.9,59.7c-9.1,21-3.9,45.6,13.2,60.7c3.1,2.7,6.5,5.1,10.2,6.8l-99.5,60.9l-27.4-71.4
		C1966.7,2614.6,1951,2579.4,1970.5,2551z"/>
	<path class="st4" d="M2809.4,2815.4h-669.5c-15,0-27.2-12.2-27.2-27.2v-1015c0-15,12.2-27.2,27.2-27.2h669.5
		c15,0,27.2,12.2,27.2,27.2v1015C2836.5,2803.2,2824.4,2815.4,2809.4,2815.4z"/>
	<rect x="2138.9" y="1826.6" class="st0" width="670.3" height="943.6"/>
	<rect x="2319.3" y="1753.5" class="st3" width="292.9" height="62.7"/>
	<path class="st2" d="M2622.3,1790.4c7.6,0,13.8,6.2,13.8,13.8v34.5c0,7.6-6.2,13.8-13.8,13.8h-312.9c-7.6,0-13.8-6.2-13.8-13.8
		v-34.5c0-7.6,6.2-13.8,13.8-13.8H2622.3 M2622.3,1781.6h-312.9c-12.5,0-22.6,10.2-22.6,22.6v34.5c0,12.5,10.2,22.6,22.6,22.6h312.9
		c12.5,0,22.6-10.2,22.6-22.6v-34.5C2644.9,1791.8,2634.8,1781.6,2622.3,1781.6L2622.3,1781.6z"/>
	<rect x="2311.9" y="1775.8" class="st0" width="307.1" height="18.7"/>
	<rect x="2311.9" y="1784.8" class="st0" width="307.1" height="9.7"/>
	<path class="st2" d="M2345.4,2519.5v98.2h-98.2v-98.2H2345.4 M2361.9,2503h-16.6h-98.2h-16.6v16.6v98.2v16.6h16.6h98.2h16.6v-16.6
		v-98.2V2503L2361.9,2503z"/>
	<path class="st2" d="M2339.1,2153.6l-10-10.3c-1-1-2.5-1-3.5-0.1l-39.9,38.8l-20.6-20.4c-1-1-2.5-1-3.5-0.1l-10.3,10
		c-1,1-1,2.5-0.1,3.5l32.6,32.3c1,1,2.5,1,3.5,0.1l7.4-7.2c0,0,0,0,0,0l1.1-1.1l1.8-1.7c0,0,0,0,0-0.1l41.4-40.2
		C2340.1,2156.2,2340.1,2154.6,2339.1,2153.6z"/>
	<rect x="2426.1" y="2140.2" class="st2" width="320" height="6.8"/>
	<rect x="2426.1" y="2534.8" class="st2" width="320" height="9.6"/>
	<rect x="2426.1" y="2568.3" class="st2" width="320" height="9.9"/>
	<rect x="2426.1" y="2602.7" class="st2" width="320" height="8.4"/>
	<rect x="2426.1" y="2173.6" class="st2" width="320" height="7.2"/>
	<rect x="2426.1" y="2206.8" class="st2" width="320" height="8"/>
	<rect x="2426.1" y="2338.4" class="st2" width="320" height="8.4"/>
	<rect x="2426.1" y="2372.1" class="st2" width="320" height="8.4"/>
	<rect x="2426.1" y="2405.1" class="st2" width="320" height="9.7"/>
	<path class="st2" d="M2150.1,2600.9c6.2-6.3,28.8-33.2,39.1-62.5l22.1-59.7c0,0,8.3-19.7,30.2-21c1-0.1,2,0,3,0.1
		c5.8,0.9,25.6,5.1,34.6,23.9c1,2.1,1.5,4.4,1.5,6.7c-0.1,5.2-1.5,16-9,34.7l-58.7,163c0,0-16.7,40.4-35.8,64.5
		c-0.3,0.4-0.6,0.8-0.8,1.1c-2.5,3.9-17.1,25.9-26.6,35c-1.5,1.5-2.8,3.3-3.6,5.3l-9.9,24.2c-0.2,0.4-0.6,0.6-1,0.4l-128.9-52.3
		l5.8-14.2c1.4-3.4,1.5-7.2,0.3-10.7l-18.2-53.5l92.6-56.6c2.1-1.3,4.8-3,6.9-4.3C2095.3,2624,2108,2643.9,2150.1,2600.9z"/>
	<path class="st5" d="M2254.1,2519.4l-32.4-13.9c-2.8-1.2-4-4.4-2.8-7.1l7.9-17.5c0,0,7.1-13.5,25.8-8.2c0,0,15.5,5.1,16.6,21
		c0,0,0,6.4-5.7,17.2l-2.4,5.7C2260,2519.3,2256.8,2520.6,2254.1,2519.4z"/>
	<path class="st3" d="M2562.7,2287.4c5.2,1,123,99.8,286.8,129.4l-124.2-216L2562.7,2287.4z"/>
	<path class="st2" d="M2864.2,2288.1l-89.2-99.9c0,0-7.3-7.3-17.7-13.7c-10.9-6.6-23.7-9.1-36.3-7.1l-165.8,26.7l74,53.6l82-17.3
		c0,0,11.1-2.2,21.9,19.9l32.9,56.2c11.5,19.7,9.4,44.8-5.8,61.9c-2.7,3.1-5.8,5.8-9.3,8l106.1,48.5l18.7-74.1
		C2875.5,2350.7,2886.9,2313.9,2864.2,2288.1z"/>
	<polygon class="st0" points="3174,2993.9 2936.5,2993.9 2715.9,2595.3 2815.6,2539.6 2897.6,2493.2 	"/>
	<polygon class="st4" points="3063.3,2993.9 2936.2,2993.9 2716.6,2596.3 2813.1,2540.9 	"/>
	<polygon class="st0" points="2166.4,2825.9 2064.3,3079.4 1839.6,3079.4 1973.7,2747.7 2068.9,2787.3 2166.4,2825.9 	"/>
	<polygon class="st4" points="2166.4,2825.9 2064,3079.4 1944,3079.4 2062,2787.3 	"/>
	<path class="st2" d="M2345.4,2123.5v98.2h-98.2v-98.2H2345.4 M2361.9,2106.9h-16.6h-98.2h-16.6v16.6v98.2v16.6h16.6h98.2h16.6
		v-16.6v-98.2V2106.9L2361.9,2106.9z"/>
	<path class="st2" d="M2339.1,2352.6l-10-10.3c-1-1-2.5-1-3.5-0.1l-39.9,38.8l-20.6-20.4c-1-1-2.5-1-3.5-0.1l-10.3,10
		c-1,1-1,2.5-0.1,3.5l32.6,32.3c1,1,2.5,1,3.5,0.1l7.4-7.2c0,0,0,0,0,0l1.1-1.1l1.8-1.7c0,0,0,0,0-0.1l41.4-40.2
		C2340.1,2355.2,2340.1,2353.6,2339.1,2352.6z"/>
	<path class="st2" d="M2345.4,2322.5v98.2h-98.2v-98.2H2345.4 M2361.9,2305.9h-16.6h-98.2h-16.6v16.6v98.2v16.6h16.6h98.2h16.6
		v-16.6v-98.2V2305.9L2361.9,2305.9z"/>
	<path class="st2" d="M2546.4,2189.6c0,0-70.1-8.3-71.7-5.5c-1.6,2.8,49.3,57.7,49.3,57.7l16.8-21.5L2546.4,2189.6z"/>
	<path class="st6" d="M2501.5,2185.4c0,0-26.7-3.2-27.3-1.7c-0.7,2,17,21.3,17,21.3L2501.5,2185.4z"/>
	<path class="st0" d="M2546,2189.4l305.2,131.9l-22.1,50.8l-305.4-130.4c0,0-2.8-8.4,4.8-9.9c0,0-4.6-7.3,4.8-10.1
		c0,0-4.3-7,4.7-11.7c0,0-4.3-6.9,3.6-9.8C2541.6,2200.2,2537.8,2195.2,2546,2189.4z"/>
	<path class="st2" d="M2691.9,2359.1c-6.9-5.5-32.6-29.5-46.3-57.4l-29.1-56.6c0,0-10.6-18.6-32.5-17.2c-1,0.1-2,0.2-3,0.5
		c-5.6,1.5-24.8,8.1-31.5,27.8c-0.7,2.2-1,4.6-0.7,6.9c0.7,5.2,3.4,15.7,13.1,33.4l77.9,154.8c0,0,21.4,38.1,43.3,59.8
		c0.3,0.3,0.7,0.7,1,1c3,3.5,20,23.6,30.6,31.5c1.7,1.3,3.1,2.9,4.2,4.8l12.7,22.8c0.2,0.4,0.7,0.5,1.1,0.3l121.7-67.3l-7.4-13.4
		c-1.8-3.2-2.3-7-1.6-10.6l11.6-55.3l-98.7-45.1c-2.3-1-5.1-2.4-7.4-3.4C2749,2375.5,2738.8,2396.8,2691.9,2359.1z"/>
	<path class="st2" d="M2578.8,2290.7l30.5-17.6c2.6-1.5,3.5-4.9,1.9-7.4l-10-16.5c0,0-8.7-12.6-26.6-5c0,0-14.7,6.9-13.9,22.8
		c0,0,0.8,6.4,7.7,16.4l3.1,5.4C2572.9,2291.3,2576.2,2292.2,2578.8,2290.7z"/>
	<path class="st4" d="M2884.6,2335.4l-42.8-18.3l-21.8,51l42.8,18.3c15.4,6.6,32.9,0.5,38.9-13.5l0,0
		C2907.7,2358.9,2900,2342,2884.6,2335.4z"/>
	
		<rect x="1962.8" y="2784.7" transform="matrix(0.9299 0.3679 -0.3679 0.9299 1172.7811 -564.6727)" class="st2" width="209.2" height="17.8"/>
	
		<rect x="2699" y="2529.6" transform="matrix(0.8741 -0.4858 0.4858 0.8741 -880.1102 1681.6107)" class="st2" width="209.3" height="17.8"/>
</g>
<g id="Layer_3">
	<path class="st0" d="M1621,2551.4h-244.3l-36,32.1l2.6-32.1h-17.3c-7.4,0-13.5-6-13.5-13.5v-176.8c0-7.4,6-13.5,13.5-13.5H1621
		c7.4,0,13.5,6,13.5,13.5v176.8C1634.5,2545.4,1628.5,2551.4,1621,2551.4z"/>
	<path class="st3" d="M1513.4,2611h198.2l29.2,25.7l-2.1-25.7h14c6,0,10.9-4.8,10.9-10.8v-141.4c0-5.9-4.9-10.8-10.9-10.8h-239.3
		c-6,0-10.9,4.8-10.9,10.8v141.4C1502.5,2606.1,1507.4,2611,1513.4,2611z"/>
	<g>
		<path class="st2" d="M1502.3,2599.9c0,5.9,4.9,10.8,10.9,10.8h198.2l29.2,25.7l-2.1-25.7h14c6,0,10.9-4.8,10.9-10.8v-68.6h-261.2
			V2599.9z"/>
	</g>
	<circle class="st4" cx="1586.6" cy="2531.5" r="12.1"/>
	<circle class="st4" cx="1633.6" cy="2531.5" r="12.1"/>
	<circle class="st4" cx="1677.6" cy="2531.5" r="12.1"/>
	<polygon class="st4" points="1510.6,1804.2 1680.1,1650.2 1849.7,1802.7 1848.3,2012.8 1515,2012.8 	"/>
	<rect x="1540.5" y="1725.6" class="st2" width="281.6" height="273.8"/>
	<polygon class="st4" points="1510.6,2043.9 1849.7,2043.9 1729.8,1931.1 1631.1,1931.1 	"/>
	<polygon class="st0" points="1510.8,2043.8 1510.8,1810.5 1631.3,1931.1 	"/>
	<polygon class="st0" points="1849.9,2043.8 1849.9,1810.5 1729.8,1931.1 	"/>
	<circle class="st2" cx="2245.4" cy="1417.1" r="148.4"/>
	<circle class="st0" cx="3347.6" cy="1858.1" r="162.8"/>
	<path class="st4" d="M2321.8,1410.6c-1,0.6-2,1.1-3.1,1.4c-1.2,0.3-1.5,2.3-0.5,3.2c1.7,1.6,2.6,3.5,3,5.8c0.7,4-0.8,7.3-3.8,9.9
		c-1.2,1.1-2.6,1.9-4.1,2.6c-1.6,0.7-1.9,2.8-0.6,3.9c3,2.5,3.8,6.1,2.3,9.9c-1.3,3.1-3.3,5.5-6.2,7.2c-0.4,0.2-0.8,0.4-1.2,0.5
		c-1,0.3-1.5,0.8-1.6,1.9c-0.1,0.8,0.2,1.5,0.8,2c1.6,1.4,2.8,3.1,3,5.3c0.2,1.7-0.1,3.2-0.8,4.7c-1.1,2.3-2.7,4.1-4.6,5.7
		c-0.9,0.8-3.2,1.9-5,2.7c-1,0.4-4,1.1-4.9,1.2c-43.7,8.9-74.5-2.6-78.4-4c-0.8-0.3-3.5-2.1-4.3-2.1c-0.1,0-1-0.2-1-0.3v-65.5
		c1.6-1.1,3.3-2.3,4.9-3.4c0.2-0.1,0.3-0.2,0.4-0.4c0.1-0.1,0.1-0.1,0.1-0.2c8.7-10.9,14.3-22.5,20.7-34.9
		c4.3-8.3,5.4-25.9,5.4-32.5c0-2.7,2-7,7.2-7c1.3,0,4.1,0.1,5.7,0.7c2,0.7,3.6,3.3,5.3,6.6c2.3,4.5,3.7,9.3,5.1,14.2
		c0.5,1.8,0.9,3.7,1.2,5.5c0.2,1.4,0.2,2.8,0.1,4.1c-0.1,1.6-0.2,3.2-0.4,4.7c-0.3,3.1-0.7,6.2-1.3,9.2c-0.6,3.3-1.2,6.6-1.9,9.9
		c0,0,0,0.1,0,0.1c0,0.2,0,0.5-0.1,0.8c-1.1,4.2,3.2,6.7,5.8,7.8c0.7,0.3,3.5,0.6,4.2,0.6c14,0,37.4-0.1,40.3-0.1
		c1.9,0,3.8,0,5.7,0.1c3.1,0.2,6.5,2.2,7.5,6.3C2328,1403.2,2325.9,1408,2321.8,1410.6z"/>
	<path class="st4" d="M2212.9,1476.1c0,3.4-2.7,6.1-6.1,6.1h-22.5c-3.4,0-6.1-2.7-6.1-6.1v-74.9c0-3.4,2.7-6.1,6.1-6.1h22.5
		c3.4,0,6.1,2.7,6.1,6.1V1476.1z"/>
	<path class="st7" d="M3336.8,1829.1l-0.1-56.5h65v168.1h-121.4v-111.7L3336.8,1829.1z M3271.8,1826.3v114.6v8.6h8.6h121.4h8.6v-8.6
		v-168.1v-8.6h-8.6h-67.3L3271.8,1826.3z"/>
	
		<rect x="3292.6" y="1848.6" transform="matrix(-1 -1.224647e-16 1.224647e-16 -1 6679.0122 3704.6843)" class="st7" width="93.9" height="7.5"/>
	
		<rect x="3292.6" y="1878.3" transform="matrix(-1 -1.224647e-16 1.224647e-16 -1 6679.0122 3764.1382)" class="st7" width="93.9" height="7.5"/>
	
		<rect x="3292.6" y="1908.2" transform="matrix(-1 -1.224647e-16 1.224647e-16 -1 6679.0122 3823.865)" class="st7" width="93.9" height="7.5"/>
	<path class="st0" d="M3601.8,2445.7l-15.3-12c5.5-11.3,7.9-21.3,9.1-32.1l0.3-0.2l19.4-2.4c4.3-0.5,7.4-4.5,6.9-8.8l-4-33.6
		c-0.5-4.3-4.4-7.4-8.7-6.9l-20.5,1.3c-3.9-10.5-6-17.3-17.4-29.5l0.1-0.1l13.4-14.2c2.7-3.4,2.1-7.7-1.3-10.4l-26.3-20.6
		c-3.4-2.7-6.4-1.1-9.1,2.3l-11.9,15.4c-11.3-5.5-21.6-8.1-32.4-9.3l-0.4-0.4l-2.5-19.5c-0.5-4.3-4.5-7.4-8.8-6.9l-33.6,4
		c-4.3,0.5-7.4,4.4-6.9,8.7l1.4,20.4c-10.5,3.9-17.2,5.9-29.5,17.3l-0.1-0.1l-14.7-12.7c-3.4-2.7-6.5-2.5-9.2,0.9l-20.8,26.4
		c-2.7,3.4-2.6,7.2,0.8,9.9l15.3,12c-5.5,11.3-7.6,21-8.8,31.8l-0.1,0.1l-19.3,2.4c-4.3,0.5-7.4,4.4-6.9,8.7l4,33.6
		c0.5,4.3,4.4,7.4,8.7,6.8l20-1.8c3.9,10.5,8.7,19.5,16.9,29.1l-0.1,0.1l-12,15.3c-2.7,3.4-3.7,7.5-0.3,10.2l26.6,20.9
		c3.4,2.7,8.8,2,11.4-1.4l11.1-16c11.3,5.5,20.5,7.2,30.6,7.9l0,0l3.2,20c0.5,4.3,4.9,7.7,9.1,7.2l33.8-3.8c4.3-0.5,7.5-4.3,7-8.6
		l-1.6-20c10.5-3.9,17-5.6,29.2-16.9l0.1,0.1l14.8,12.7c3.4,2.7,8.7,3.3,11.4-0.1l20.8-26.4
		C3607.5,2452.9,3605.2,2448.4,3601.8,2445.7z M3448.1,2411.9c-0.2-0.5-0.5-0.9-0.7-1.4c-0.7-1.4-1.3-2.9-1.9-4.3
		c-0.3-0.7-0.5-1.5-0.8-2.2c-0.2-0.7-0.5-1.5-0.7-2.2c-0.1-0.4-0.2-0.8-0.3-1.1c-0.5-2.2-0.9-4.4-1.1-6.7s-0.3-4.5-0.2-6.8
		c0-0.9,0.1-1.8,0.2-2.7c0.3-2.7,0.7-5.4,1.4-8c1.7-6.2,4.6-12.1,8.8-17.5c8.8-11.2,21.6-17.5,34.8-18.5c1.2-0.1,2.3-0.1,3.5-0.1
		c0.4,0,0.8,0,1.2,0c0.8,0,1.6,0.1,2.3,0.1c2.3,0.2,4.7,0.5,7,1c0.8,0.2,1.5,0.4,2.3,0.6c6.1,1.7,12,4.6,17.3,8.7
		c6.3,4.9,11,11.1,14.1,17.9c0.3,0.7,0.6,1.4,0.9,2.2c0.4,1.1,0.8,2.2,1.2,3.3c0.2,0.7,0.5,1.5,0.7,2.2c0.1,0.4,0.2,0.8,0.3,1.1
		c0.2,0.8,0.4,1.5,0.5,2.3c0.2,1.1,0.4,2.3,0.5,3.5c0.1,0.8,0.2,1.5,0.2,2.3c0.1,1.9,0.2,3.9,0.1,5.8c0,0.8-0.1,1.6-0.2,2.3
		c-0.1,0.8-0.2,1.6-0.3,2.3c-0.2,1.2-0.4,2.3-0.6,3.5c-1.5,6.9-4.6,13.6-9.3,19.6c-2.6,3.3-5.5,6.2-8.7,8.6c-0.6,0.5-1.3,1-1.9,1.4
		c-1,0.7-2,1.3-3,1.9c-0.7,0.4-1.4,0.8-2.1,1.1c-0.5,0.2-0.9,0.5-1.4,0.7c-0.9,0.5-1.9,0.9-2.9,1.3c-0.7,0.3-1.5,0.6-2.2,0.8
		c-0.6,0.2-1.2,0.4-1.8,0.6c-0.5,0.2-1.1,0.3-1.6,0.5c-0.4,0.1-0.8,0.2-1.1,0.3c-0.8,0.2-1.5,0.4-2.3,0.5c-0.4,0.1-0.8,0.1-1.2,0.2
		c-0.8,0.1-1.5,0.2-2.3,0.3c-0.4,0-0.8,0.1-1.2,0.1c-1.6,0.1-3.1,0.2-4.7,0.2c-0.4,0-0.8,0-1.2,0c-0.8,0-1.6-0.1-2.3-0.1
		c-0.8-0.1-1.6-0.1-2.3-0.2c-0.4,0-0.8-0.1-1.2-0.2c-0.8-0.1-1.6-0.2-2.3-0.4c-7.3-1.4-14.5-4.6-20.7-9.5c-5.1-4-9.1-8.7-12.1-14
		C3448.6,2412.9,3448.3,2412.4,3448.1,2411.9z"/>
	<path class="st4" d="M3493.4,2257.8c3.9,0,7.4,3,7.9,7l2.5,19.5l0.4,0.4c10.8,1.2,21.1,3.8,32.4,9.3l11.9-15.4
		c1.7-2.2,3.6-3.7,5.7-3.7c1.1,0,2.2,0.4,3.4,1.3l26.3,20.6c3.4,2.7,3.9,7,1.3,10.4l-13.4,14.2l-0.1,0.1
		c11.4,12.2,13.5,19.1,17.4,29.5l20.5-1.3c0.3,0,0.6-0.1,0.9-0.1c3.9,0,7.3,2.9,7.8,6.9l4,33.6c0.5,4.3-2.6,8.3-6.9,8.8l-19.4,2.4
		l-0.3,0.2c-1.2,10.8-3.6,20.9-9.1,32.1l15.3,12c3.4,2.7,5.7,7.2,3,10.6l-20.8,26.4c-1.3,1.6-3.2,2.3-5.2,2.3
		c-2.2,0-4.5-0.8-6.2-2.2l-14.8-12.7l-0.1-0.1c-12.3,11.3-18.8,13-29.2,16.9l1.6,20c0.5,4.3-2.7,8.1-7,8.6l-33.8,3.8
		c-0.3,0-0.6,0.1-0.9,0.1c-4,0-7.8-3.3-8.3-7.3l-3.2-20l0,0c-10.2-0.7-19.4-2.4-30.6-7.9l-11.1,16c-1.6,2-4.1,3.1-6.5,3.1
		c-1.7,0-3.5-0.5-4.9-1.6l-26.6-20.9c-3.4-2.7-2.4-6.8,0.3-10.2l12-15.3l0.1-0.1c-8.2-9.6-13-18.6-16.9-29.1l-20,1.8
		c-0.3,0-0.6,0.1-0.9,0.1c-3.9,0-7.3-2.9-7.8-6.9l-4-33.6c-0.5-4.3,2.6-8.2,6.9-8.7l19.3-2.4l0.1-0.1c1.2-10.8,3.3-20.5,8.8-31.8
		l-15.3-12c-3.4-2.7-3.5-6.5-0.8-9.9l20.8-26.4c1.4-1.8,3-2.7,4.7-2.7c1.4,0,2.9,0.6,4.5,1.9l14.7,12.7l0.1,0.1
		c12.2-11.4,19-13.4,29.5-17.3l-1.4-20.4c-0.5-4.3,2.6-8.2,6.9-8.7l33.6-4C3492.8,2257.8,3493.1,2257.8,3493.4,2257.8
		 M3491.1,2340.4C3491.1,2340.4,3491.1,2340.4,3491.1,2340.4c-1.2,0-2.3,0-3.5,0.1c-13.2,0.9-26,7.2-34.8,18.5
		c-4.2,5.4-7.1,11.3-8.8,17.5c-0.7,2.6-1.2,5.3-1.4,8c-0.1,0.9-0.1,1.8-0.2,2.7c-0.1,2.3,0,4.5,0.2,6.8c0.2,2.2,0.6,4.5,1.1,6.7
		c0.1,0.4,0.2,0.8,0.3,1.1c0.2,0.8,0.4,1.5,0.7,2.2c0.2,0.7,0.5,1.5,0.8,2.2c0.6,1.5,1.2,2.9,1.9,4.3c0.2,0.5,0.5,0.9,0.7,1.4
		c0.3,0.5,0.5,1,0.8,1.5c3,5.3,7.1,10,12.1,14c6.3,4.9,13.4,8.1,20.7,9.5c0.8,0.2,1.5,0.3,2.3,0.4c0.4,0.1,0.8,0.1,1.2,0.2
		c0.8,0.1,1.6,0.2,2.3,0.2c0.8,0.1,1.6,0.1,2.3,0.1c0.4,0,0.8,0,1.2,0c0,0,0,0,0,0c1.6,0,3.1-0.1,4.7-0.2c0.4,0,0.8-0.1,1.2-0.1
		c0.8-0.1,1.5-0.2,2.3-0.3c0.4-0.1,0.8-0.1,1.2-0.2c0.8-0.1,1.5-0.3,2.3-0.5c0.4-0.1,0.8-0.2,1.1-0.3c0.5-0.1,1.1-0.3,1.6-0.5
		c0.6-0.2,1.2-0.4,1.8-0.6c0.7-0.3,1.5-0.5,2.2-0.8c1-0.4,1.9-0.8,2.9-1.3c0.5-0.2,0.9-0.5,1.4-0.7c0.7-0.4,1.4-0.7,2.1-1.1
		c1-0.6,2-1.2,3-1.9c0.7-0.5,1.3-0.9,1.9-1.4c3.2-2.4,6.1-5.3,8.7-8.6c4.7-5.9,7.7-12.6,9.3-19.6c0.3-1.2,0.5-2.3,0.6-3.5
		c0.1-0.8,0.2-1.6,0.3-2.3c0.1-0.8,0.1-1.6,0.2-2.3c0.1-2,0.1-3.9-0.1-5.8c-0.1-0.8-0.1-1.6-0.2-2.3c-0.1-1.2-0.3-2.3-0.5-3.5
		c-0.1-0.8-0.3-1.5-0.5-2.3c-0.1-0.4-0.2-0.8-0.3-1.1c-0.2-0.8-0.4-1.5-0.7-2.2c-0.4-1.1-0.8-2.2-1.2-3.3c-0.3-0.7-0.6-1.4-0.9-2.2
		c-3.1-6.8-7.9-13-14.1-17.9c-5.3-4.2-11.2-7-17.3-8.7c-0.8-0.2-1.5-0.4-2.3-0.6c-2.3-0.5-4.6-0.8-7-1c-0.8-0.1-1.6-0.1-2.3-0.1
		C3491.9,2340.4,3491.5,2340.4,3491.1,2340.4C3491.2,2340.4,3491.1,2340.4,3491.1,2340.4 M3493.4,2250.8c-0.6,0-1.2,0-1.8,0.1
		l-33.6,4c-8.1,1-13.9,8.2-13,16.3l1,15c-7.2,2.7-13.5,5.5-22.2,12.7l-10.2-8.8l-0.1-0.1l-0.1-0.1c-2.8-2.2-5.8-3.4-8.8-3.4
		c-2.7,0-6.7,0.9-10.2,5.4l-20.8,26.4c-2.4,3.1-3.6,6.5-3.4,10c0.2,3.8,2.1,7.2,5.3,9.7l11,8.6c-3.7,8.7-5.4,16.6-6.4,23.5
		l-14.1,1.7c-8.1,1-13.9,8.4-13,16.5l4,33.6c0.9,7.5,7.2,13.1,14.7,13.1c0.5,0,1.1,0,1.6-0.1l14.7-1.3c3.4,8.2,7.4,15,12.5,21.7
		l-8.6,11c-5.5,7-5.2,15.3,0.9,20l26.6,20.9c2.6,2,5.8,3.1,9.2,3.1c4.7,0,9.2-2.1,12-5.7l0.1-0.2l0.1-0.2l7.8-11.3
		c8.3,3.4,15.5,4.9,22.1,5.6l2.3,14.6c1,7.5,7.6,13.3,15.2,13.3c0.6,0,1.1,0,1.7-0.1l33.8-3.8c3.9-0.5,7.4-2.4,9.9-5.4
		c2.5-3.1,3.6-6.9,3.2-10.8l-1.2-14.6c7.1-2.6,13.3-5.3,21.9-12.4l10.2,8.8l0.1,0.1l0.1,0.1c3,2.4,6.8,3.7,10.5,3.7
		c4.4,0,8.2-1.8,10.7-5l20.8-26.4c2.7-3.4,3.4-7.9,1.9-12.2c-1.1-3-3.2-5.9-6.1-8.2l-11-8.6c3.2-7.6,5.4-15.3,6.7-24l14.3-1.8
		c3.9-0.5,7.4-2.5,9.9-5.6c2.5-3.1,3.6-7,3.1-11l-4-33.6c-0.9-7.5-7.2-13.1-14.7-13.1c-0.5,0-1,0-1.6,0.1l-15.1,1
		c-2.7-7.1-5.5-13.5-12.6-22l9-9.6l0.2-0.2l0.2-0.2c2.5-3.1,3.5-6.9,3.1-10.6c-0.5-3.7-2.4-7.1-5.5-9.6l-26.3-20.6
		c-3-2.3-5.9-2.8-7.7-2.8c-4.1,0-7.9,2.1-11.2,6.3l-8.6,11c-7.8-3.3-15.7-5.5-24.3-6.9l-1.8-14.4
		C3507.3,2256.4,3501,2250.8,3493.4,2250.8L3493.4,2250.8C3493.4,2250.8,3493.4,2250.8,3493.4,2250.8L3493.4,2250.8z M3491.1,2430.8
		c-0.3,0-0.7,0-1,0c-0.7,0-1.3,0-2-0.1c-0.7,0-1.3-0.1-2-0.2c-0.3,0-0.7-0.1-1-0.1c-0.7-0.1-1.3-0.2-2-0.3c-6.5-1.3-12.5-4-17.7-8.2
		c-4.2-3.3-7.7-7.4-10.4-12c-0.2-0.4-0.5-0.8-0.7-1.2c-0.2-0.4-0.4-0.8-0.6-1.2c-0.6-1.2-1.1-2.4-1.6-3.7c-0.2-0.6-0.5-1.3-0.7-1.9
		c-0.2-0.6-0.4-1.3-0.6-1.9c-0.1-0.3-0.2-0.6-0.2-1c-0.5-1.9-0.8-3.8-1-5.7c-0.2-1.9-0.3-3.9-0.2-5.8c0-0.8,0.1-1.5,0.2-2.3
		c0.2-2.3,0.6-4.6,1.2-6.9c1.5-5.5,4-10.5,7.5-15c7.3-9.2,18.1-15,29.8-15.8c1-0.1,2-0.1,3-0.1c0.4,0,0.7,0,1,0c0.7,0,1.3,0,2,0.1
		c2,0.1,4,0.4,6,0.9c0.7,0.1,1.3,0.3,2,0.5c5.4,1.5,10.4,4,14.8,7.5c5.3,4.1,9.3,9.3,12.1,15.3c0.3,0.6,0.6,1.2,0.8,1.9
		c0.4,0.9,0.7,1.9,1,2.8c0.2,0.6,0.4,1.3,0.6,1.9c0.1,0.3,0.2,0.6,0.2,1c0.2,0.6,0.3,1.3,0.4,2c0.2,1,0.3,2,0.5,3
		c0.1,0.7,0.1,1.3,0.2,2c0.1,1.7,0.1,3.3,0.1,5c0,0.7-0.1,1.3-0.1,2c-0.1,0.7-0.1,1.3-0.2,2c-0.1,1-0.3,2-0.5,3
		c-1.4,6.1-4,11.8-7.9,16.8c-2.2,2.8-4.7,5.3-7.5,7.4c-0.5,0.4-1.1,0.8-1.7,1.2c-0.8,0.6-1.7,1.1-2.6,1.6c-0.6,0.3-1.2,0.7-1.8,1
		c-0.4,0.2-0.8,0.4-1.2,0.6c-0.8,0.4-1.7,0.8-2.5,1.1c-0.6,0.2-1.3,0.5-1.9,0.7c-0.5,0.2-1,0.3-1.5,0.5c-0.5,0.1-0.9,0.3-1.4,0.4
		c-0.3,0.1-0.7,0.2-1,0.2c-0.6,0.2-1.3,0.3-2,0.4c-0.3,0.1-0.7,0.1-1,0.2c-0.7,0.1-1.3,0.2-2,0.3c-0.3,0-0.7,0.1-1,0.1
		C3493.7,2430.7,3492.4,2430.8,3491.1,2430.8L3491.1,2430.8L3491.1,2430.8z"/>
	<path class="st4" d="M3365.6,2491.2l-8.6-3.7c1.2-5.9,1-10.9,0.2-16.1l0.1-0.1l8.7-3.5c1.9-0.8,2.9-3,2.1-4.9l-6-15.1
		c-0.8-1.9-3-2.9-4.9-2.1l-9.4,3.2c-3.1-4.4-4.9-7.3-11.7-11.6l0,0l4.5-8.3c0.8-1.9,0-3.9-1.9-4.7l-14.8-6.3
		c-1.9-0.8-3.1,0.3-3.9,2.2l-3.6,8.6c-5.9-1.2-11-1.1-16.2-0.3l-0.2-0.1l-3.6-8.7c-0.8-1.9-3-2.9-4.9-2.1l-15.2,6
		c-1.9,0.8-2.9,3-2.1,4.9l3.2,9.3c-4.4,3.1-7.3,4.9-11.6,11.7l0,0l-8.4-4.1c-1.9-0.8-3.4-0.4-4.2,1.5l-6.4,14.9
		c-0.8,1.9-0.3,3.7,1.6,4.5l8.6,3.7c-1.2,5.9-0.9,10.7-0.2,15.9l-0.1,0.1l-8.7,3.5c-1.9,0.8-2.9,3-2.1,4.9l6,15.1
		c0.8,1.9,3,2.9,4.9,2.1l9.1-3.3c3.1,4.4,6.5,8,11.5,11.4l0,0l-3.7,8.6c-0.8,1.9-0.8,4,1.1,4.8l15,6.4c1.9,0.8,4.3-0.2,5.1-2.1
		l3.2-8.8c5.9,1.2,10.4,0.8,15.2-0.1l0,0l4,8.9c0.8,1.9,3.2,3,5.1,2.2l15.3-6c1.9-0.8,2.9-2.9,2.2-4.9l-3.2-9.1
		c4.4-3.1,7.2-4.7,11.5-11.5l0,0l8.4,4.1c1.9,0.8,4.5,0.4,5.3-1.5l6.4-14.9C3369.1,2493.9,3367.5,2492.1,3365.6,2491.2z
		 M3289.9,2494.6c-0.2-0.2-0.3-0.4-0.5-0.6c-0.5-0.6-1-1.2-1.4-1.8c-0.2-0.3-0.4-0.6-0.6-0.9s-0.4-0.6-0.6-1
		c-0.1-0.2-0.2-0.3-0.3-0.5c-0.5-1-1-1.9-1.4-3c-0.4-1-0.7-2.1-0.9-3.1c-0.1-0.4-0.2-0.9-0.3-1.3c-0.2-1.3-0.3-2.6-0.3-3.9
		c0-3.1,0.6-6.2,1.9-9.2c2.7-6.3,7.9-10.8,13.9-12.9c0.5-0.2,1.1-0.3,1.6-0.5c0.2,0,0.4-0.1,0.5-0.1c0.4-0.1,0.7-0.2,1.1-0.2
		c1.1-0.2,2.2-0.3,3.4-0.4c0.4,0,0.8,0,1.1,0c3,0,6.1,0.6,9.1,1.9c3.5,1.5,6.5,3.8,8.8,6.6c0.2,0.3,0.5,0.6,0.7,0.9
		c0.3,0.5,0.7,0.9,1,1.4c0.2,0.3,0.4,0.6,0.6,1c0.1,0.2,0.2,0.3,0.3,0.5c0.2,0.3,0.4,0.7,0.5,1c0.2,0.5,0.5,1,0.7,1.5
		c0.1,0.3,0.3,0.7,0.4,1.1c0.3,0.9,0.6,1.8,0.8,2.7c0.1,0.4,0.1,0.7,0.2,1.1c0.1,0.4,0.1,0.7,0.2,1.1c0.1,0.6,0.1,1.1,0.1,1.7
		c0.1,3.4-0.4,6.9-1.9,10.3c-0.8,1.9-1.8,3.6-3,5.1c-0.2,0.3-0.5,0.6-0.7,0.9c-0.4,0.4-0.8,0.9-1.2,1.3c-0.3,0.3-0.5,0.5-0.8,0.8
		c-0.2,0.2-0.4,0.3-0.6,0.5c-0.4,0.3-0.8,0.6-1.2,0.9c-0.3,0.2-0.6,0.4-0.9,0.7c-0.2,0.2-0.5,0.3-0.8,0.5c-0.2,0.1-0.5,0.3-0.7,0.4
		c-0.2,0.1-0.3,0.2-0.5,0.3c-0.3,0.2-0.7,0.4-1,0.5c-0.2,0.1-0.3,0.2-0.5,0.2c-0.3,0.2-0.7,0.3-1,0.4c-0.2,0.1-0.3,0.1-0.5,0.2
		c-0.7,0.3-1.4,0.5-2.1,0.7c-0.2,0-0.4,0.1-0.5,0.1c-0.4,0.1-0.7,0.2-1.1,0.2c-0.4,0.1-0.7,0.1-1.1,0.2c-0.2,0-0.4,0.1-0.6,0.1
		c-0.4,0-0.8,0.1-1.1,0.1c-3.6,0.2-7.3-0.3-10.8-1.9c-2.8-1.2-5.3-2.9-7.4-5C3290.3,2495,3290.1,2494.8,3289.9,2494.6z"/>
	
		<ellipse transform="matrix(0.7071 -0.7071 0.7071 0.7071 -1107.7777 3199.2544)" class="st2" cx="3308" cy="2936.8" rx="175.4" ry="175.4"/>
	<path class="st4" d="M3308,3120c-24.7,0-48.7-4.8-71.3-14.4c-21.8-9.2-41.4-22.4-58.2-39.3c-16.8-16.8-30-36.4-39.3-58.2
		c-9.6-22.6-14.4-46.6-14.4-71.3s4.8-48.7,14.4-71.3c9.2-21.8,22.4-41.4,39.3-58.2c16.8-16.8,36.4-30,58.2-39.3
		c22.6-9.6,46.6-14.4,71.3-14.4s48.7,4.8,71.3,14.4c21.8,9.2,41.4,22.4,58.2,39.3c16.8,16.8,30,36.4,39.3,58.2
		c9.6,22.6,14.4,46.6,14.4,71.3s-4.8,48.7-14.4,71.3c-9.2,21.8-22.4,41.4-39.3,58.2c-16.8,16.8-36.4,30-58.2,39.3
		C3356.7,3115.2,3332.7,3120,3308,3120z M3308,2769.3c-92.4,0-167.5,75.1-167.5,167.5s75.1,167.5,167.5,167.5
		c92.4,0,167.5-75.1,167.5-167.5S3400.3,2769.3,3308,2769.3z"/>
	<g>
		<g>
			<path class="st4" d="M3308,2801.9c-0.8,0-1.5-0.6-1.5-1.5v-25.3c0-0.8,0.7-1.5,1.5-1.5c0.8,0,1.5,0.7,1.5,1.5v25.3
				C3309.4,2801.3,3308.8,2801.9,3308,2801.9z"/>
			<g>
				<g>
					<path class="st4" d="M3321.8,2797.6C3321.8,2797.6,3321.8,2797.6,3321.8,2797.6c-0.3,0-0.4-0.2-0.4-0.4c0,0,0,0,0,0l1.2-12.6
						c0-0.2,0.2-0.4,0.4-0.4c0.2,0,0.4,0.2,0.4,0.4c0,0,0,0,0,0l-1.2,12.6C3322.2,2797.4,3322,2797.6,3321.8,2797.6z"/>
					<path class="st4" d="M3332.2,2799C3332.2,2799,3332.1,2799,3332.2,2799c-0.3,0-0.4-0.2-0.4-0.4c0,0,0,0,0-0.1l2.2-12.5
						c0-0.2,0.3-0.4,0.5-0.3c0.2,0,0.3,0.2,0.3,0.4c0,0,0,0,0,0.1l-1.1,6.2l0,0l-1.1,6.2C3332.5,2798.9,3332.4,2799,3332.2,2799z"/>
					<path class="st4" d="M3342.4,2801.2c0,0-0.1,0-0.1,0c-0.2,0-0.3-0.2-0.3-0.4c0,0,0-0.1,0-0.1l3.1-12.3c0.1-0.2,0.3-0.4,0.5-0.3
						c0.2,0,0.3,0.2,0.3,0.4c0,0,0,0.1,0,0.1l-1.5,6.1l0,0l-1.5,6.1C3342.8,2801.1,3342.6,2801.2,3342.4,2801.2z"/>
					<path class="st4" d="M3352.5,2804.2c0,0-0.1,0-0.1,0c-0.2-0.1-0.3-0.2-0.3-0.4c0,0,0-0.1,0-0.1l4-12c0.1-0.2,0.3-0.3,0.5-0.3
						c0.2,0.1,0.3,0.2,0.3,0.4c0,0,0,0.1,0,0.1l-4,12C3352.8,2804,3352.6,2804.2,3352.5,2804.2z"/>
					<path class="st4" d="M3362.3,2807.8c-0.1,0-0.1,0-0.2,0c-0.2-0.1-0.3-0.2-0.3-0.4c0-0.1,0-0.1,0-0.2l2.4-5.9l0,0l2.4-5.9
						c0.1-0.2,0.3-0.3,0.5-0.2c0.2,0.1,0.3,0.2,0.3,0.4c0,0.1,0,0.1,0,0.2l-4.9,11.7C3362.6,2807.7,3362.4,2807.8,3362.3,2807.8z"/>
				</g>
				<g>
					<path class="st4" d="M3391.2,2824.3c-0.1,0-0.2,0-0.2-0.1c-0.1-0.1-0.2-0.2-0.2-0.3c0-0.1,0-0.2,0.1-0.2l7.5-10.2
						c0.1-0.2,0.4-0.2,0.6-0.1c0.1,0.1,0.2,0.2,0.2,0.3c0,0.1,0,0.2-0.1,0.2l-7.5,10.2C3391.5,2824.2,3391.4,2824.3,3391.2,2824.3z"
						/>
					<path class="st4" d="M3399.4,2830.8c-0.1,0-0.2,0-0.3-0.1c-0.1-0.1-0.1-0.2-0.1-0.3c0-0.1,0-0.2,0.1-0.3l4.1-4.8l0,0l4.1-4.8
						c0.1-0.2,0.4-0.2,0.6,0c0.1,0.1,0.1,0.2,0.1,0.3c0,0.1,0,0.2-0.1,0.3l-8.3,9.6C3399.7,2830.8,3399.5,2830.8,3399.4,2830.8z"/>
					<path class="st4" d="M3407.1,2837.9c-0.1,0-0.2,0-0.3-0.1c-0.1-0.1-0.1-0.2-0.1-0.3c0-0.1,0-0.2,0.1-0.3l8.9-9
						c0.2-0.2,0.4-0.2,0.6,0c0.1,0.1,0.1,0.2,0.1,0.3c0,0.1,0,0.2-0.1,0.3l-8.9,9C3407.3,2837.9,3407.2,2837.9,3407.1,2837.9z"/>
					<path class="st4" d="M3414.2,2845.6c-0.1,0-0.2,0-0.3-0.1c-0.1-0.1-0.1-0.2-0.1-0.3c0-0.1,0-0.2,0.1-0.3l4.8-4.1l0,0l4.8-4.1
						c0.2-0.1,0.4-0.1,0.6,0c0.1,0.1,0.1,0.2,0.1,0.3c0,0.1,0,0.2-0.1,0.3l-9.6,8.3C3414.4,2845.6,3414.3,2845.6,3414.2,2845.6z"/>
					
						<rect x="3419.5" y="2849.2" transform="matrix(0.8031 -0.5959 0.5959 0.8031 -1023.3828 2602.7351)" class="st4" width="12.7" height="0.8"/>
				</g>
				<g>
					<path class="st4" d="M3437.3,2882.7c-0.2,0-0.3-0.1-0.4-0.3c0-0.1,0-0.1,0-0.2c0-0.2,0.1-0.3,0.3-0.4l11.7-4.9l0.3,0.8
						l-11.7,4.9C3437.4,2882.7,3437.3,2882.7,3437.3,2882.7z"/>
					<path class="st4" d="M3441,2892.5c-0.2,0-0.3-0.1-0.4-0.3c0,0,0-0.1,0-0.1c0-0.2,0.1-0.3,0.3-0.4l12-4.1c0.2-0.1,0.4,0,0.5,0.3
						c0,0,0,0.1,0,0.1c0,0.2-0.1,0.3-0.3,0.4l-12,4.1C3441.1,2892.5,3441,2892.5,3441,2892.5z"/>
					<path class="st4" d="M3443.9,2902.6c-0.2,0-0.4-0.1-0.4-0.3c0,0,0-0.1,0-0.1c0-0.2,0.1-0.4,0.3-0.4l6.1-1.6l0,0l6.1-1.6
						c0.2-0.1,0.4,0.1,0.5,0.3c0,0,0,0.1,0,0.1c0,0.2-0.1,0.4-0.3,0.4l-12.3,3.2C3444,2902.6,3444,2902.6,3443.9,2902.6z"/>
					<path class="st4" d="M3446.1,2912.8c-0.2,0-0.4-0.1-0.4-0.3c0,0,0,0,0-0.1c0-0.2,0.1-0.4,0.3-0.4l12.5-2.2
						c0.2,0,0.4,0.1,0.5,0.3c0,0,0,0,0,0.1c0,0.2-0.1,0.4-0.3,0.4l-6.2,1.1l0,0L3446.1,2912.8
						C3446.2,2912.8,3446.2,2912.8,3446.1,2912.8z"/>
					<path class="st4" d="M3447.6,2923.2c-0.2,0-0.4-0.2-0.4-0.4c0,0,0,0,0,0c0-0.2,0.2-0.4,0.4-0.4l12.6-1.3c0.2,0,0.4,0.1,0.5,0.4
						c0,0,0,0,0,0c0,0.2-0.2,0.4-0.4,0.4L3447.6,2923.2C3447.6,2923.2,3447.6,2923.2,3447.6,2923.2z"/>
				</g>
				<g>
					<path class="st4" d="M3459.5,2958.2C3459.5,2958.2,3459.5,2958.2,3459.5,2958.2l-12.6-1.7c-0.2,0-0.4-0.2-0.4-0.4
						c0,0,0,0,0-0.1c0-0.2,0.2-0.4,0.5-0.4l12.6,1.7c0.2,0,0.4,0.2,0.4,0.4c0,0,0,0,0,0.1
						C3459.9,2958.1,3459.7,2958.2,3459.5,2958.2z"/>
					<path class="st4" d="M3457.5,2969.5C3457.5,2969.5,3457.5,2969.5,3457.5,2969.5l-12.5-2.7c-0.2,0-0.3-0.2-0.3-0.4
						c0,0,0-0.1,0-0.1c0-0.2,0.3-0.4,0.5-0.3l12.4,2.7c0.2,0,0.3,0.2,0.3,0.4c0,0,0,0.1,0,0.1
						C3457.9,2969.3,3457.7,2969.5,3457.5,2969.5z"/>
					<path class="st4" d="M3454.7,2980.5c0,0-0.1,0-0.1,0l-12.2-3.6c-0.2-0.1-0.3-0.2-0.3-0.4c0,0,0-0.1,0-0.1
						c0.1-0.2,0.3-0.3,0.5-0.3l12.2,3.6c0.2,0.1,0.3,0.2,0.3,0.4c0,0,0,0.1,0,0.1C3455.1,2980.4,3454.9,2980.5,3454.7,2980.5z"/>
					<path class="st4" d="M3451.1,2991.4c0,0-0.1,0-0.1,0l-11.9-4.5c-0.2-0.1-0.3-0.2-0.3-0.4c0,0,0-0.1,0-0.1
						c0.1-0.2,0.3-0.3,0.5-0.2l11.9,4.5c0.2,0.1,0.3,0.2,0.3,0.4c0,0,0,0.1,0,0.1C3451.4,2991.3,3451.3,2991.4,3451.1,2991.4z"/>
					<path class="st4" d="M3446.7,3001.9c-0.1,0-0.1,0-0.2,0l-11.5-5.3c-0.2-0.1-0.2-0.2-0.2-0.4c0-0.1,0-0.1,0-0.2
						c0.1-0.2,0.3-0.3,0.5-0.2l11.5,5.3c0.2,0.1,0.2,0.2,0.2,0.4c0,0.1,0,0.1,0,0.2C3447,3001.8,3446.8,3001.9,3446.7,3001.9z"/>
				</g>
				<g>
					
						<rect x="3422.1" y="3022" transform="matrix(0.6231 -0.7822 0.7822 0.6231 -1078.6516 3818.4324)" class="st4" width="0.8" height="12.7"/>
					<path class="st4" d="M3420.1,3041.4c-0.1,0-0.2,0-0.3-0.1l-9.3-8.6c-0.1-0.1-0.1-0.2-0.1-0.3c0-0.1,0-0.2,0.1-0.3
						c0.2-0.2,0.4-0.2,0.6,0l9.3,8.6c0.1,0.1,0.1,0.2,0.1,0.3c0,0.1,0,0.2-0.1,0.3C3420.3,3041.4,3420.2,3041.4,3420.1,3041.4z"/>
					<path class="st4" d="M3412,3049.5c-0.1,0-0.2,0-0.3-0.1l-8.6-9.3c-0.1-0.1-0.1-0.2-0.1-0.3c0-0.1,0-0.2,0.1-0.3
						c0.2-0.2,0.4-0.1,0.6,0l8.6,9.3c0.1,0.1,0.1,0.2,0.1,0.3c0,0.1,0,0.2-0.1,0.3C3412.2,3049.4,3412.1,3049.5,3412,3049.5z"/>
					<path class="st4" d="M3403.3,3056.9c-0.1,0-0.2-0.1-0.3-0.2l-4-5l0,0l-4-5c-0.1-0.1-0.1-0.2-0.1-0.3c0-0.1,0.1-0.2,0.2-0.3
						c0.2-0.1,0.4-0.1,0.6,0.1l7.9,9.9c0.1,0.1,0.1,0.2,0.1,0.3c0,0.1-0.1,0.2-0.2,0.3C3403.5,3056.9,3403.4,3056.9,3403.3,3056.9z"
						/>
					<path class="st4" d="M3394.1,3063.7c-0.1,0-0.3-0.1-0.3-0.2l-7.2-10.5c0-0.1-0.1-0.2-0.1-0.2c0-0.1,0.1-0.3,0.2-0.3
						c0.2-0.1,0.4-0.1,0.6,0.1l7.2,10.5c0,0.1,0.1,0.2,0.1,0.2c0,0.1-0.1,0.3-0.2,0.3C3394.3,3063.7,3394.2,3063.7,3394.1,3063.7z"
						/>
				</g>
				<g>
					<path class="st4" d="M3361.9,3080.4c-0.2,0-0.3-0.1-0.4-0.3l-4.5-11.9c0,0,0-0.1,0-0.1c0-0.2,0.1-0.3,0.3-0.4
						c0.2-0.1,0.5,0,0.5,0.2l4.5,11.9c0,0,0,0.1,0,0.1c0,0.2-0.1,0.3-0.3,0.4C3362,3080.4,3361.9,3080.4,3361.9,3080.4z"/>
					<path class="st4" d="M3351.1,3084.1c-0.2,0-0.3-0.1-0.4-0.3l-3.6-12.2c0,0,0-0.1,0-0.1c0-0.2,0.1-0.3,0.3-0.4
						c0.2-0.1,0.4,0.1,0.5,0.3l3.6,12.2c0,0,0,0.1,0,0.1c0,0.2-0.1,0.3-0.3,0.4C3351.1,3084.1,3351.1,3084.1,3351.1,3084.1z"/>
					<path class="st4" d="M3340,3086.9c-0.2,0-0.4-0.1-0.4-0.3l-1.3-6.2l0,0l0,0l0,0l-1.3-6.2c0,0,0-0.1,0-0.1
						c0-0.2,0.1-0.4,0.3-0.4c0.2,0,0.4,0.1,0.5,0.3l2.7,12.4c0,0,0,0.1,0,0.1C3340.4,3086.7,3340.3,3086.8,3340,3086.9
						C3340.1,3086.9,3340,3086.9,3340,3086.9z"/>
					<path class="st4" d="M3328.7,3088.8c-0.2,0-0.4-0.1-0.4-0.4l-0.9-6.3l0,0l-0.9-6.3c0,0,0,0,0-0.1c0-0.2,0.1-0.4,0.4-0.4
						c0.2,0,0.4,0.1,0.5,0.4l1.7,12.6c0,0,0,0,0,0.1C3329.2,3088.6,3329,3088.8,3328.7,3088.8
						C3328.8,3088.8,3328.8,3088.8,3328.7,3088.8z"/>
					<path class="st4" d="M3317.4,3090c-0.2,0-0.4-0.2-0.4-0.4l-0.8-12.7c0,0,0,0,0,0c0-0.2,0.2-0.4,0.4-0.4c0.2,0,0.4,0.2,0.4,0.4
						l0.8,12.7c0,0,0,0,0,0C3317.8,3089.8,3317.6,3090,3317.4,3090C3317.4,3090,3317.4,3090,3317.4,3090z"/>
				</g>
				<g>
					<path class="st4" d="M3287.2,3088.8C3287.2,3088.8,3287.1,3088.8,3287.2,3088.8c-0.3,0-0.4-0.2-0.4-0.4c0,0,0,0,0-0.1l1.7-12.6
						c0-0.2,0.2-0.4,0.5-0.4c0.2,0,0.4,0.2,0.4,0.4c0,0,0,0,0,0.1l-0.9,6.3l0,0l-0.9,6.3C3287.6,3088.7,3287.4,3088.8,3287.2,3088.8
						z"/>
					<path class="st4" d="M3275.9,3086.9C3275.9,3086.9,3275.9,3086.9,3275.9,3086.9c-0.3-0.1-0.4-0.2-0.4-0.4c0,0,0-0.1,0-0.1
						l2.6-12.4c0-0.2,0.3-0.4,0.5-0.3c0.2,0,0.3,0.2,0.3,0.4c0,0,0,0.1,0,0.1l-2.6,12.4C3276.3,3086.7,3276.1,3086.9,3275.9,3086.9z
						"/>
					<path class="st4" d="M3264.9,3084.1c0,0-0.1,0-0.1,0c-0.2-0.1-0.3-0.2-0.3-0.4c0,0,0-0.1,0-0.1l3.6-12.2
						c0.1-0.2,0.3-0.3,0.5-0.3c0.2,0.1,0.3,0.2,0.3,0.4c0,0,0,0.1,0,0.1l-1.8,6.1l0,0l-1.8,6.1
						C3265.2,3084,3265,3084.1,3264.9,3084.1z"/>
					<path class="st4" d="M3254.4,3080.2l-0.8-0.3l2.2-5.9l0,0l2.2-5.9c0.1-0.2,0.3-0.3,0.5-0.2c0.2,0.1,0.3,0.2,0.3,0.4
						c0,0,0,0.1,0,0.1L3254.4,3080.2z"/>
					<path class="st4" d="M3243.5,3076c-0.1,0-0.1,0-0.2,0c-0.2-0.1-0.2-0.2-0.2-0.4c0-0.1,0-0.1,0-0.2l5.3-11.5
						c0.1-0.2,0.3-0.3,0.5-0.2c0.2,0.1,0.2,0.2,0.2,0.4c0,0.1,0,0.1,0,0.2l-5.3,11.5C3243.8,3075.9,3243.7,3076,3243.5,3076z"/>
				</g>
				<g>
					<path class="st4" d="M3214.2,3058.2c-0.1,0-0.2,0-0.3-0.1c-0.1-0.1-0.2-0.2-0.2-0.3c0-0.1,0-0.2,0.1-0.3l7.8-10l0.7,0.5
						l-7.8,10C3214.4,3058.1,3214.3,3058.2,3214.2,3058.2z"/>
					<path class="st4" d="M3205.4,3050.8c-0.1,0-0.2,0-0.3-0.1c-0.1-0.1-0.1-0.2-0.1-0.3c0-0.1,0-0.2,0.1-0.3l8.5-9.4
						c0.2-0.2,0.4-0.2,0.6,0c0.1,0.1,0.1,0.2,0.1,0.3c0,0.1,0,0.2-0.1,0.3l-8.5,9.4C3205.6,3050.8,3205.5,3050.8,3205.4,3050.8z"/>
					<path class="st4" d="M3197.2,3042.9c-0.1,0-0.2,0-0.3-0.1c-0.1-0.1-0.1-0.2-0.1-0.3c0-0.1,0-0.2,0.1-0.3l9.2-8.8l0.6,0.6
						l-4.6,4.4l0,0l-4.6,4.4C3197.4,3042.8,3197.3,3042.9,3197.2,3042.9z"/>
					<path class="st4" d="M3189.7,3034.3c-0.1,0-0.2-0.1-0.3-0.1c-0.1-0.1-0.1-0.2-0.1-0.3c0-0.1,0.1-0.2,0.2-0.3l9.8-8.1
						c0.2-0.1,0.4-0.1,0.6,0.1c0.1,0.1,0.1,0.2,0.1,0.3c0,0.1-0.1,0.2-0.1,0.3l-9.8,8.1C3189.9,3034.3,3189.8,3034.3,3189.7,3034.3z
						"/>
					<path class="st4" d="M3182.8,3025.2c-0.1,0-0.3-0.1-0.3-0.2c-0.1-0.1-0.1-0.2-0.1-0.2c0-0.1,0.1-0.3,0.2-0.3l5.2-3.7l0,0
						l5.2-3.7c0.2-0.1,0.4-0.1,0.6,0.1c0.1,0.1,0.1,0.2,0.1,0.2c0,0.1-0.1,0.3-0.2,0.3l-10.4,7.3
						C3182.9,3025.2,3182.8,3025.2,3182.8,3025.2z"/>
				</g>
				<g>
					<path class="st4" d="M3166.3,2995.1c-0.2,0-0.3-0.1-0.4-0.3c0-0.1,0-0.1,0-0.2c0-0.2,0.1-0.3,0.3-0.4l5.9-2.4l0,0l5.9-2.4
						c0.2-0.1,0.5,0,0.5,0.2c0,0.1,0,0.1,0,0.2c0,0.2-0.1,0.3-0.3,0.4l-11.7,4.8C3166.4,2995.1,3166.3,2995.1,3166.3,2995.1z"/>
					<path class="st4" d="M3162.4,2984.4c-0.2,0-0.3-0.1-0.4-0.3c0,0,0-0.1,0-0.1c0-0.2,0.1-0.3,0.3-0.4l6-2l0,0l6-2
						c0.2-0.1,0.4,0,0.5,0.3c0,0,0,0.1,0,0.1c0,0.2-0.1,0.3-0.3,0.4l-12.1,3.9C3162.5,2984.4,3162.4,2984.4,3162.4,2984.4z"/>
					<path class="st4" d="M3159.3,2973.4c-0.2,0-0.4-0.1-0.4-0.3c0,0,0-0.1,0-0.1c0-0.2,0.1-0.4,0.3-0.4l6.2-1.5v0l6.2-1.5
						c0.2-0.1,0.4,0.1,0.5,0.3c0,0,0,0.1,0,0.1c0,0.2-0.1,0.4-0.3,0.4L3159.3,2973.4C3159.3,2973.4,3159.3,2973.4,3159.3,2973.4z"/>
					<path class="st4" d="M3157,2962.2c-0.2,0-0.4-0.1-0.4-0.3c0,0,0,0,0-0.1c0-0.2,0.1-0.4,0.3-0.4l12.5-2.1c0.2,0,0.4,0.1,0.5,0.3
						c0,0,0,0,0,0.1c0,0.2-0.1,0.4-0.3,0.4l-6.3,1l0,0L3157,2962.2C3157,2962.2,3157,2962.2,3157,2962.2z"/>
					<path class="st4" d="M3155.5,2950.9c-0.2,0-0.4-0.2-0.4-0.4c0,0,0,0,0,0c0-0.2,0.2-0.4,0.4-0.4l12.6-1.1c0.2,0,0.4,0.1,0.4,0.4
						c0,0,0,0,0,0c0,0.2-0.2,0.4-0.4,0.4L3155.5,2950.9C3155.6,2950.9,3155.6,2950.9,3155.5,2950.9z"/>
				</g>
				<g>
					<path class="st4" d="M3168.9,2918.2C3168.9,2918.2,3168.9,2918.2,3168.9,2918.2l-12.6-1.7c-0.2,0-0.4-0.2-0.4-0.4
						c0,0,0,0,0-0.1c0-0.2,0.2-0.4,0.5-0.4l12.6,1.7c0.2,0,0.4,0.2,0.4,0.4c0,0,0,0,0,0.1
						C3169.3,2918.1,3169.1,2918.2,3168.9,2918.2z"/>
					<path class="st4" d="M3170.6,2907.9l-6.2-1.3l0,0l-6.2-1.3c-0.2,0-0.3-0.2-0.3-0.4c0,0,0-0.1,0-0.1c0-0.2,0.3-0.4,0.5-0.3
						l12.4,2.6L3170.6,2907.9z"/>
					<path class="st4" d="M3173.2,2897.8l-6.1-1.8l0,0l-6.1-1.8c-0.2-0.1-0.3-0.2-0.3-0.4c0,0,0-0.1,0-0.1c0.1-0.2,0.3-0.3,0.5-0.3
						l12.2,3.5L3173.2,2897.8z"/>
					<path class="st4" d="M3176.6,2887.8c0,0-0.1,0-0.1,0l-11.9-4.4c-0.2-0.1-0.3-0.2-0.3-0.4c0,0,0-0.1,0-0.1
						c0.1-0.2,0.3-0.3,0.5-0.2l5.9,2.2l0,0l5.9,2.2c0.2,0.1,0.3,0.2,0.3,0.4c0,0,0,0.1,0,0.1
						C3176.9,2887.7,3176.8,2887.8,3176.6,2887.8z"/>
					<path class="st4" d="M3180.6,2878.2c-0.1,0-0.1,0-0.2,0l-5.8-2.7v0l-5.8-2.7l0.3-0.7l11.5,5.3c0.1,0.1,0.2,0.2,0.2,0.4
						c0,0.1,0,0.1,0,0.2C3181,2878.1,3180.8,2878.2,3180.6,2878.2z"/>
				</g>
				<g>
					<path class="st4" d="M3197,2851.3c-0.1,0-0.2,0-0.3-0.1l-10-7.8c-0.1-0.1-0.2-0.2-0.2-0.3c0-0.1,0-0.2,0.1-0.3
						c0.1-0.2,0.4-0.2,0.6-0.1l10,7.8c0.1,0.1,0.2,0.2,0.2,0.3c0,0.1,0,0.2-0.1,0.3C3197.3,2851.2,3197.1,2851.3,3197,2851.3z"/>
					<path class="st4" d="M3203.7,2843.3c-0.1,0-0.2,0-0.3-0.1l-9.4-8.5c-0.1-0.1-0.1-0.2-0.1-0.3c0-0.1,0-0.2,0.1-0.3
						c0.2-0.2,0.4-0.2,0.6,0l4.7,4.2h0l4.7,4.2c0.1,0.1,0.1,0.2,0.1,0.3c0,0.1,0,0.2-0.1,0.3
						C3204,2843.2,3203.9,2843.3,3203.7,2843.3z"/>
					<path class="st4" d="M3211,2835.7c-0.1,0-0.2,0-0.3-0.1l-4.4-4.6l0,0l-4.4-4.6c-0.1-0.1-0.1-0.2-0.1-0.3c0-0.1,0-0.2,0.1-0.3
						c0.2-0.2,0.4-0.2,0.6,0l8.8,9.2c0.1,0.1,0.1,0.2,0.1,0.3c0,0.1,0,0.2-0.1,0.3C3211.2,2835.7,3211.1,2835.7,3211,2835.7z"/>
					<path class="st4" d="M3218.9,2828.8c-0.1,0-0.2-0.1-0.3-0.2l-8.1-9.8c-0.1-0.1-0.1-0.2-0.1-0.3c0-0.1,0.1-0.2,0.1-0.3
						c0.2-0.1,0.4-0.1,0.6,0.1l8.1,9.8c0.1,0.1,0.1,0.2,0.1,0.3c0,0.1-0.1,0.2-0.1,0.3C3219.1,2828.8,3219,2828.8,3218.9,2828.8z"/>
					<path class="st4" d="M3227.2,2822.5c-0.1,0-0.3-0.1-0.3-0.2l-3.7-5.2l0,0l-3.7-5.2c-0.1-0.1-0.1-0.2-0.1-0.2
						c0-0.1,0.1-0.3,0.2-0.3c0.2-0.1,0.4-0.1,0.6,0.1l7.3,10.4c0.1,0.1,0.1,0.2,0.1,0.2c0,0.1-0.1,0.3-0.2,0.3
						C3227.4,2822.4,3227.3,2822.5,3227.2,2822.5z"/>
				</g>
				<g>
					<path class="st4" d="M3254.8,2807.3c-0.2,0-0.3-0.1-0.4-0.3l-4.8-11.7c0-0.1,0-0.1,0-0.2c0-0.2,0.1-0.3,0.3-0.4
						c0.2-0.1,0.5,0,0.5,0.2l2.4,5.9l0,0l2.4,5.9c0,0.1,0,0.1,0,0.2c0,0.2-0.1,0.3-0.3,0.4C3255,2807.3,3254.9,2807.3,3254.8,2807.3
						z"/>
					<path class="st4" d="M3264.7,2803.7c-0.2,0-0.3-0.1-0.4-0.3l-3.9-12.1c0,0,0-0.1,0-0.1c0-0.2,0.1-0.3,0.3-0.4
						c0.2-0.1,0.4,0,0.5,0.3l2,6v0l2,6c0,0,0,0.1,0,0.1c0,0.2-0.1,0.3-0.3,0.4C3264.8,2803.7,3264.7,2803.7,3264.7,2803.7z"/>
					
						<rect x="3272.8" y="2788" transform="matrix(0.9713 -0.238 0.238 0.9713 -570.9381 859.2206)" class="st4" width="0.8" height="12.7"/>
					<path class="st4" d="M3285,2798.8c-0.2,0-0.4-0.1-0.4-0.3l-1-6.3l0,0l-1-6.3c0,0,0,0,0-0.1c0-0.2,0.1-0.4,0.3-0.4
						c0.2,0,0.4,0.1,0.5,0.3l2.1,12.5c0,0,0,0,0,0.1C3285.4,2798.6,3285.3,2798.8,3285,2798.8
						C3285.1,2798.8,3285,2798.8,3285,2798.8z"/>
					<path class="st4" d="M3295.4,2797.5c-0.2,0-0.4-0.2-0.4-0.4l-0.6-6.3v0l-0.6-6.3c0,0,0,0,0,0c0-0.2,0.2-0.4,0.4-0.4
						c0.2,0,0.4,0.1,0.4,0.4l0.6,6.3v0l0.6,6.3c0,0,0,0,0,0C3295.8,2797.3,3295.7,2797.4,3295.4,2797.5
						C3295.4,2797.5,3295.4,2797.5,3295.4,2797.5z"/>
				</g>
			</g>
			<path class="st4" d="M3376.4,2820.4c-0.2,0-0.5-0.1-0.7-0.2c-0.5-0.3-0.7-0.8-0.7-1.3c0-0.2,0.1-0.5,0.2-0.7l6.3-10.9v0l6.3-10.9
				c0.4-0.7,1.3-0.9,2-0.5c0.5,0.3,0.7,0.8,0.7,1.3c0,0.2-0.1,0.5-0.2,0.7l-12.7,21.8C3377.4,2820.1,3376.9,2820.4,3376.4,2820.4z"
				/>
			
				<rect x="3424.7" y="2861.5" transform="matrix(0.8683 -0.496 0.496 0.8683 -967.403 2081.9104)" class="st4" width="25.3" height="2.9"/>
			<path class="st4" d="M3469.6,2939.4C3469.6,2939.4,3469.6,2939.4,3469.6,2939.4l-25.3-0.2c-0.8,0-1.4-0.7-1.4-1.5c0,0,0,0,0,0
				c0-0.8,0.7-1.4,1.5-1.4c0,0,0,0,0,0l25.3,0.2c0.8,0,1.4,0.7,1.4,1.5c0,0,0,0,0,0C3471,2938.8,3470.4,2939.4,3469.6,2939.4z"/>
			<path class="st4" d="M3447.2,3020.4c-0.3,0-0.5-0.1-0.7-0.2l-21.8-12.8c-0.5-0.3-0.7-0.8-0.7-1.3c0-0.3,0.1-0.5,0.2-0.7
				c0.4-0.7,1.3-0.9,2-0.5l21.8,12.8c0.5,0.3,0.7,0.8,0.7,1.3c0,0.3-0.1,0.5-0.2,0.7C3448.1,3020.2,3447.6,3020.4,3447.2,3020.4z"/>
			<path class="st4" d="M3385.8,3078.5l-12.4-22c-0.1-0.2-0.2-0.5-0.2-0.7c0-0.5,0.3-1,0.7-1.3c0.7-0.4,1.6-0.1,2,0.6l12.4,22
				L3385.8,3078.5z"/>
			<path class="st4" d="M3305.7,3099.9C3305.7,3099.9,3305.7,3099.9,3305.7,3099.9c-0.8,0-1.5-0.7-1.5-1.5c0,0,0,0,0,0l0.4-25.3
				c0-0.8,0.7-1.4,1.5-1.4c0,0,0,0,0,0c0.8,0,1.4,0.7,1.4,1.5c0,0,0,0,0,0l-0.4,25.3C3307.1,3099.3,3306.5,3099.9,3305.7,3099.9z"/>
			<path class="st4" d="M3224.9,3076.9c-0.3,0-0.5-0.1-0.7-0.2c-0.5-0.3-0.7-0.8-0.7-1.2c0-0.3,0.1-0.5,0.2-0.7l13-21.7l2.5,1.5
				l-13,21.7C3225.8,3076.7,3225.3,3076.9,3224.9,3076.9z"/>
			<path class="st4" d="M3166.5,3016.4c-0.5,0-1-0.3-1.3-0.7c-0.1-0.2-0.2-0.5-0.2-0.7c0-0.5,0.3-1,0.7-1.3l22.1-12.2
				c0.7-0.4,1.6-0.1,2,0.6c0.1,0.2,0.2,0.5,0.2,0.7c0,0.5-0.3,1-0.8,1.3l-22.1,12.2C3167,3016.4,3166.7,3016.4,3166.5,3016.4z"/>
			<path class="st4" d="M3171.6,2935.4C3171.6,2935.4,3171.6,2935.4,3171.6,2935.4l-25.3-0.5c-0.8,0-1.4-0.7-1.4-1.5c0,0,0,0,0,0
				c0-0.8,0.7-1.4,1.5-1.4l25.3,0.5c0.8,0,1.4,0.7,1.4,1.5c0,0,0,0,0,0C3173.1,2934.8,3172.4,2935.4,3171.6,2935.4z"/>
			
				<rect x="3179.3" y="2846.7" transform="matrix(0.5202 -0.854 0.854 0.5202 -915.9049 4088.3142)" class="st4" width="2.9" height="25.3"/>
			<path class="st4" d="M3242.8,2818.5c-0.5,0-1-0.3-1.3-0.8l-12.1-22.2c-0.1-0.2-0.2-0.5-0.2-0.7c0-0.5,0.3-1,0.8-1.3
				c0.7-0.4,1.6-0.1,2,0.6l6,11.1l0,0l6,11.1c0.1,0.2,0.2,0.5,0.2,0.7c0,0.5-0.3,1-0.8,1.3
				C3243.3,2818.4,3243.1,2818.5,3242.8,2818.5z"/>
		</g>
	</g>
	<path class="st4" d="M3383.6,2989.2c-1,0-2-0.3-2.8-0.8l-71.1-43c-2.6-1.6-3.4-5-1.9-7.6c1.6-2.6,5-3.4,7.6-1.9l71.1,43
		c2.6,1.6,3.4,5,1.9,7.6C3387.2,2988.3,3385.4,2989.2,3383.6,2989.2z"/>
	<path class="st4" d="M3204.8,3000.3c-1.4,0-2.8-0.7-3.5-2c-1.1-1.9-0.4-4.4,1.5-5.5l99.7-57c2-1.1,4.4-0.4,5.5,1.5
		c1.1,1.9,0.4,4.4-1.5,5.5l-99.7,57C3206.1,3000.1,3205.4,3000.3,3204.8,3000.3z"/>
	<path class="st4" d="M3307.8,2937.8c-0.7-0.2-1.2-0.7-1.4-1.5l-29-124.1c-0.3-1.1,0.4-2.2,1.5-2.4c1.1-0.3,2.2,0.4,2.4,1.5
		l29,124.1c0.3,1.1-0.4,2.2-1.5,2.4C3308.4,2937.9,3308.1,2937.9,3307.8,2937.8z"/>
	<path class="st0" d="M3317,2936.8c0,5-4.1,9.1-9.1,9.1c-5,0-9.1-4.1-9.1-9.1s4.1-9.1,9.1-9.1C3313,2927.8,3317,2931.8,3317,2936.8z
		"/>
	<path class="st2" d="M3186.3,3289.5l0,154.9c0,11.3-9.3,20.5-20.6,20.5l-143.3,0l-100.4,0c-7.1,0-13.3-3.6-17-9.1
		c-2.2-3.3-3.5-7.2-3.5-11.5l0-154.9c0-11.3,9.3-20.5,20.6-20.5l243.7,0.1C3177.1,3268.9,3186.3,3278.2,3186.3,3289.5z"/>
	<rect x="2945" y="3366.9" class="st0" width="121.6" height="17.5"/>
	<rect x="2944.9" y="3399.4" class="st0" width="121.6" height="4.7"/>
	<rect x="2944.9" y="3412.7" class="st0" width="121.6" height="4.7"/>
	<rect x="2901.5" y="3302.6" class="st0" width="284.8" height="48.8"/>
	<rect x="2732.4" y="1332.5" class="st4" width="285.7" height="231.1"/>
	<circle class="st2" cx="2875.2" cy="1445.9" r="81.5"/>
	<polygon class="st0" points="2926.8,1448.1 2850.6,1492.1 2850.6,1404 	"/>
	<path class="st0" d="M1706,3128.5c-68.4,75.5-185,81.3-260.5,12.9c-75.5-68.4-81.3-185-12.9-260.5c68.4-75.5,185-81.2,260.5-12.9
		C1768.6,2936.4,1774.4,3053,1706,3128.5"/>
	<g>
		<path class="st2" d="M1513,3068.4c0.3-1.6,2.1-8.6,0.8-9.6c-2.5-1.9-3.6-4-8-3.9c-3.2,0.1-5.9,0.4-9.1,0
			c2.9-5.8,1.9-10.7,5.3-16.3c2.7-4.5-8.6-2.4-10.1-2c-2.6,0.8-2,2-2.4,4.4c-0.3,1.6-2.6,3.4-2.3,4.8c-1.1-0.3-2.4-0.1-3.7,0
			c-1.9,0.2-3.8,0.4-5-0.6c-2.2-1.8-3.8,0.9-5.4-2c-1-1.8-0.8-4.6-1.9-6.3c-2.4-3.8-3.3-11.4-0.8-15.2c2.2-3.3-1.5-6.8,2.1-9.5
			c1.6-1.2,3.4-6,3.4-8.5c3-0.2,8.6,3,11.2,3.2c0.7,1.7,4.7,3.5,5,0.9c0.9,0.8,1.8,2.2,3.2,1.2c-0.1-0.9-0.6-1.5-1.5-1.8
			c0.5-0.8,0.6-1.7,0.3-2.7c1.9-1.1,3.8,0.5,5,0.6c1.4-0.7,2.7-0.4,3.9-0.1c1,0.2,3.4-1.3,4.3-1.6c-0.3,2.3,0.8,3.9,2.1,2.9
			c2.3-1.7,2.7,0.8,4.4,2.4c2.4,2.3-0.7,7.3,3.9,9.9c-0.3,2,2.6,7.2,3.7,7.1c8-1-2.7-19.1-1.3-23.9c0.9-3.3,2.2-4.7,5-6.2
			c2.4-1.3-0.2-6.8,2.2-7.6c2.5-0.8,6.3,0.4,8.7-0.5c1.4-0.5,2.2-1.4,0.6-2.2c0.4-0.5,3.4-2.4,3.5-2.4c-0.1-1.9-3-4.9-2.7-6.2
			c0.3,0.2,1.3-0.6,1.2-0.2c0.4,1.1,2.4-2.8,2.5-3c1.4-2.4-2.2-3.9-1.7-5.9c1.2,0.3,4.5,1.4,5.3-0.5c0.7-1.8-1.4-10.9-2.4-10.8
			c3.1-3.5,10.7,6,13.6,3.2c2.4,0.2,3.5,0.4,3.5-2.1c-1-1.1-2.6,0-3.2-1.5c0.4-2.6,2.4-3.7,5-4.6c1.1-0.4,1.2-2,1.7-3
			c1.6-0.1,2.7-1.2,4.2-1.7c4.1-1.6,1.3-1.2,2.6-1.8c0.2-0.1,6.8-0.6,6.5-1.2c0.6,1.2-4.7,2.7-4.4,5.2c0.5,3.7,4.8-0.9,7.1-1.4
			c2-4.2,7.1-2,11.5-2.9c0.4-1.2-1.1-0.6-0.9-1.8c1.9,0.4,3.7-0.5,4.3-1.4c0.6-0.9,0.3-1.7-1.7-1.5c0-1-2-9.1-4.9-5.5
			c-1.5,1.8,1.1,5.5,1.1,7.6c-1.2-0.4-2.5-0.3-3.8-0.3c-0.9,0-1.8,0.1-2.7,0c-0.9-1.3-1.4-1.2-2.8-1.8c-1.1-0.5-2.3-3.6-2.8-3.5
			c0.6-0.8,1.1-1.7,1.5-2.7c-0.2-0.2-3.5-0.8-4.5-0.9c2.2,0.1,8.3-1.3,5.2-4c-2.2-2-5.5,0.3-8,1.1c-2.4,0.8-4.7,2.1-6.7,3.5
			c-0.6,0.5-3.3,0.2-4.6,0.6c0-1.6,4.4-4.5,5.6-5.2c2.1-1.2,3.6-0.3,4.9-2.8c0.4-1.9,1.4-2.7,3.3-2.3c2.4-0.1,6.1-1.5,8.7-1.4
			c4.6,0.3,8.2,2.2,12.1,1c2-0.6,3.1-2.4,4.4-3.8c1.8,0,3.5-0.1,5.3-0.3c2.5-0.2,4.4-2.3,3.7-4.1c-0.7-1.7,0.2-7.4-4.3-5
			c-0.8-0.2-0.5-2.9-3.5-2.3c0.9-0.4,1.6-0.9,2.4-1.5c-0.9-1.7-8.8-2.3-10.6-1.5c-0.4-1,1-3-1.1-4.7c-1.1-0.8-4.5-0.8-4.2-2.9
			c2,2,4.6-1.3,0.3-2.7c-0.1-0.9,3-0.3-0.2-2.2c-0.7-0.4-3.1-2-2.6-2.8c0.9-1.7-6.2-8.2-8.1-1.1c-0.3,1-8.2,3.8-8.8,2.5
			c-1-2.1-1.5-1-2.6-0.6c-0.7,0.2-1.9-0.3-3.1-1c-0.4-1.2,2-0.8,1.3-3.9c-0.6-2.9-0.9-1.8,0.5-4c1.2-1.8-8-0.3-7.2-3.4
			c-2.4-1.3-4.7-3.8-7.5-2.7c-2.3,0.8-4,2.5-6.5,1.9c-1.8-0.5-4.1-2.6-5.5-1c-1.1,1.2-1.2,2.8,0.7,3.4c-0.9,1-1.7,2.1-2.4,3.2
			c0.6,0.4,1.3,0.5,2.1,0.3c-0.2,1,0,1.9,0.6,2.7c-0.4,0.7-0.6,2-1.3,2.3c-0.6,2.8-4.6,2.7-0.6,4.8c3,1.6,8,5,6.2,8.7
			c-1.3,2.7-9.6,4.6-12.8,5.2c-0.3,2.8,1.5,2.7,1.6,5.4c0,1.5,0.9,3.2,0.8,4.6c-0.2,3.4-1.6,1.8-3.2,3.4c-1.8,1.8-3-1.6-4.6-2.4
			c-2.5-1.2-3-2.9-2.8-5.3c0.3-2.3,0.9-6.3-1.6-6.8c-4.5-0.9-10.1,0.6-14.1-2.3c-2-1.4-3.4-4.1-6.2-4.6c-1.4-0.3-3.3,1.4-4.4,1.8
			c-0.9,0.3-2.4-0.3-3,0.6c0.9-1.3-0.4-6.6-3.3-6.5c-2.9,0.1-3.4-3.6-2.7-5c0.8-1.7,6.1-3.4,6.3-5c0.1-0.6,5.6-4.9,3.8-4.7
			c5.5-1.9,4.4-2-0.6-3.2c0.5-0.5,2.1-1.6,3.6-1.5c2.5,0.2,5,1.5,3.8-1.2c3.5,1.2,7.4-1.4,8.5-4.7c-0.8-0.3-8.2-0.3-7.7-1.7
			c3,1,6,1.9,8.7-0.1c2.2-1.7,3.8-2.3,1.1-3.2c2.6-0.7,5.5-0.9,8.2-0.6c-0.5-1.2-1.4-1.8-2.7-1.8c1.3-1.2,2.6,0.4,3.8,0.5
			c2.3,0.3,3.9-0.5,5.3-2.1c3.4-3.7-4-2.1-2.7-5.4c0.4-0.4,1.9-0.3,2.5-0.1c0.8,0.3,1.6,0.6,1.8-0.8c0.3-2.1-1.7-1.5-3.3-1.9
			c-2.7-0.7-11.4,1.7-5.9,2.8c-0.8,0.6-1.7,1-2.7,1.2c-0.6,1.3-1.4,2.5-2.4,3.5c-2,2.1-3.7,2.7-5.5,0c0.3-0.5,3.9-5.2-0.5-3.7
			c-1.7,0.6-2.7,2.5-4.3,3.4c0.8-1.1-1-2.6,0.6-3.2c-0.7-0.7-1.8-0.4-2.8-0.1c-0.6,0.2-1.2,0.4-1.7,0.4c-0.2-1.7,1.9-0.9,2.4-2.1
			c-1-1.5-2.8-0.4-2.4-2.4c0.4-2.1-3.9-0.5-4.6-0.2c-2,0.8-3.2,2.8-5.1,4.1c0.3,0.3,0.7,0.4,1.2,0.3c-0.2,0.8-2.7,2.2,0.1,2.5
			c1.1,0.1,2.2-0.1,3.3-0.3c0.9-0.2,1.9-0.4,2.8-0.4c0,0.5-3.9,1.9-4.1,2.1c0.1,0.8,0.7,0.6,1.4,0.4c0.4-0.1,0.8-0.2,1-0.1
			c-0.9,1.7-3.7,2.3-5,3.2c-2.1,1.5-0.1,1.5-1.2,3c-2.4,0.3-0.9-1.7-0.6-2.7c-1.5-0.5-6-0.4-5.6,2.1c-1.7,0.8-8.6,4.1-10.3,3.3
			c-3.7-2-8.4,3.2-10.6,5.8c0,0,0-0.1,0-0.1c-4.8-0.2-7.3,4-11.8,4.7c0.9-0.8,1.7-1.6,2.6-2.4c-1.8-1.3-9.6,5.4-10.9,6.8
			c-5.6,6.2-1.7-1.1-7.7-1.7c-0.8,0.7,1.2,1.3,0.9,2.4c-1,0-3.8,1.4-4.7,1.8c-1.1,0.5-3.6,1.1-5.2,2.2c-0.4,0.5-0.8,1-1.2,1.5
			c-0.1,0.1-0.2,0.3-0.2,0.3c-7.9,9.9-14.6,20.4-20.1,31.4c2.4,0,5,0.1,5.6,0.6c-1,2.8,6.4,2,6.2,3.7c0.7-0.3-0.5,3.4-0.4,3.3
			c-0.5,1.3-0.8,2.7-1,3.8c1.5-0.6,0.3-2.9,1.8-3.5c0.2,0.6-0.2,5-0.3,5.1c0.4,2.2-1.8,8.5-1,9.4c0.5,0.7,2.8,3.5,2.2,4.3
			c-0.9,1.3-0.2,5.8-0.5,7.6c-0.4,2.5-1,4.9-1.2,7.5c-0.7,3.8-1.5,8.1-1,12.1c0.7,4.9,2.3,9.3,3.7,14.1c0.9,3.3,2.6,1.2,3.9,4
			c1.5,3.4,2.5,8,4.1,11.6c0.6,1.4,5.3,7.7,1.5,7.1c-0.3,3.9,5.5,4.1,5.9,7.6c0.5,4.2,3.9,5.5,5,9.4c3.2,0.1-0.3-4.5-0.3-5.3
			c-1.9-0.1-3-5.4-3.3-7.7c-1.9-0.8-2.8-4.9-3.8-6.6c-1.8-3-3.3-5.7-3-9.3c3.8,1,4.7,4.6,6,8.4c0.6,1.7,1.6,4.7,2.5,5.7
			c2.3,1.7,2.4,2.9,2.7,5.3c4.3,2.4,7.1,9.1,9.1,13.3c1.2,2.4-0.6,3.9,0.8,6.2c1.3,2.1,3.9,3.1,4.9,5.5c4.3,1.3,8.4,4.3,12.1,6.4
			c2.2,1.2,4.2,2.7,6.7,3.3c2,0.4,3.5-1.3,5.4-1.4c3.7,0,7.2,6.1,10,8.1c1.3,0,11.1,4.2,11.2,2.6c0.5,0,5.1,7.2,6.5,7.9
			c0.4,1.7-1.2,1.9,0.8,3.4c-0.3-0.2,0.3,0.3,1,0.7c2-0.9,4-1.6,6.1-2.5C1513.4,3072,1512.6,3070.3,1513,3068.4"/>
		<path class="st2" d="M1654.5,3130.1c-0.9-3.3-6.6-0.3-8.8-1.8c-1.9-1.3-4.1-3.8-6.7-3.6c-3.2,0.3-5.5-0.5-8.8-1.1
			c-2.3-0.4-3,2.3-5,2.3c0.4-3.1-2.9-4.2-6.5-3.6c-1.2-1.6-3.5-1.4-5.5-0.2c0.3-0.5,0.4-1.1,0.5-1.8c-1.6-1.4-3.3,0.2-5.1,0
			c-1.6,1.5-3.2,3.1-6.1,3.3c1.2-3.5,4.9-4.3,6.7-7.3c0.9-1.5-2.4-3.3-2.9-4.6c-1.6-4.4-1.3-3.8-5.1-6.5c-2.4-1.7-5.7-2.8-8.8-3
			c-2.7-0.2-3,1.1-5.5,0.1c-1.6-0.6-5.1-1.8-7.4-1.5c1-5.2-5.2-6.3-8.3-5.9c0.7-0.9,1.4-1.7,2.4-2.4c-0.6-0.8-1.4-1.2-2.4-1.5
			c1.4-0.3,0.7-2.7,1.2-3.5c-2.5-0.4-3.8,3.6-5.3,1.8c0.4-0.6,1.9,0,1.8-1.2c-2.2-1.3-6.4-0.6-8.4,0.8c-2.7,1.9-5.2-1.5-8-1.2
			c-2.4,0.3-3.3,0.8-4.5-1.2c-0.9-1.5-2.5-1.8-4.2-1.6c-0.8-0.6-1-3.5-2.6-2.4c-0.9,0.6-1,2.1,0.5,2.1c-1.3,1.2-3.6,0.6-4.7,1.8
			c-0.6-0.1-1.4-1.9-0.3-2.2c4.8-1.2-1.7-2.6-2.6-4.2c-0.7-1.2-1.6-1.9-2.7-2.4c-3.7-1.6-9.2,0.2-12.8,0.6c-1.1-1.5-2.9-3.1-4.2-4.9
			c-2.1,0.9-4.1,1.6-6.1,2.5c0.9,0.5,1.9,0.9,1.5-0.2c1.1,2.6,3.5,0.8,3.5,4.1c0.4,1,3.2,1.5,3.8,1.5c0.7,0,1.3,0.1,1.9,0.3
			c1.1,0.4,2,1.1,3,1.8c1.6,1.2,1.5,0.8,3.9,0.8c-0.3-1-0.7-2-1.2-2.9c2.5,0,2.5-1.5,5.3-0.9c-0.1,1.1,1.8,3.7,1.2,4.4
			c-2.4,0.6-5.1-0.1-6.8,1.9c-0.7,0.8-0.7,4-1.8,4.1c-1.4,0.2-2.7,1.7-2.9,3.2c-0.4-0.6-1-1-1.8-1.2c-1.1,0.8,1.5,1.6,0.6,2.4
			c-0.8,0.2-1.4,0.7-1.8,1.5c-0.1,1.6,1.9,3,2.1,4.7c0.2,1.8,1,6,0.2,7.4c-0.4,0.7-4.4,3-3.1,3.2c-2,0.1-0.5,2.2-2.7,2.3
			c-1.6-0.4-2.1,0.3-1.6,2.1c-0.3,1.3-4,6.4-1,7.5c0.2,0.1,2.7,0.4,2.9,0.1c0,2.6-3,2.2-4.1,4c-0.2,1.8,3.6,3.8,0.9,3.8
			c0.7,1.4,2.5,1.8,3.8,2.3c0.8,1.4,1.7,2.6,2.8,3.8c2.1,2.4,4.4,4.6,5.5,7.7c3.1,2.2,4,5.8,6.6,8c2.3,2,5.2,3.3,8,4.4
			c3.2,1.2,5.8,2.6,8.7,4.3c0.5,1.5,2.1,6.4,0.9,7.7c-0.4,0.5-0.8,9.7-0.3,9.7c-0.3,2.2-2.3-1.1-0.4,2.4c0.4,0.5,0.6,1,0.3,1.5
			c0,0.2-1.7,3.2-3.1,2.4c0.2,0.6,0.6,1,1.1,1.3c13.2,1.8,26.6,2.2,39.9,1.1c-1.1-0.5-1.2-1.5-3-1.3c4.8-0.8,9,1.6,13.6-0.8
			c1-0.5,2.7-2.5,4-3.3c-0.1,0.1-0.1,0.1-0.2,0.2c2.6,0.1,8.8-4.7,9-6.9c0.5-5.4,8.6-6.1,10.9-9.8c5.7-0.7,8.4,1.2,12.3-2.2
			c3.2-2.8,4.1-5.7,6.2-8.7c1.4-2-2.2-6.6-1-8.8c2.7-0.7,6.9-1.2,8.1-3.5C1649.5,3140.9,1656,3135.8,1654.5,3130.1z"/>
		<path class="st2" d="M1441.7,2877c2.8,0.3,2.6,1.5,4.4,3.3c0.3-0.7,6.7-7.9,7.3-7.1c-0.6,0.4-1.1,0.9-1.5,1.5
			c0.3-0.2,0.6-0.2,0.9,0c-0.9,0.6-1.6,1.4-2.1,2.4c1.9,0,4.9-1.3,6-1.9c2.7-1.3,5.2-3,7.5-5c1.9,0.3,3.8-2.4,6.1-2.6
			c2.7-0.2,5.8-1.4,7.4-3.7c-1-1-2.3,1.3-2.9,0.6c1.3-1.2,6.2-1.6,5.6-3.6c-2-0.7-4,1.2-5.9,0c1.3-1.1,0.7-2.4,0.6-3.8
			c-3.7-0.3-4.5,2.5-5.9,5c-1.1,0-0.1-1.5-0.6-1.5c-2,0.3-2.9,2.1-4.4,3.3c0,0.3-7,3.4-9.2,3.1c-2.7-0.3-2.9-1.8-5.8-1.5
			c-0.5,0.1-0.9,0.1-1.4,0.2c-1.2,1.1-2.5,2.2-3.7,3.3c0,0.3-0.1,0.8-0.5,1.4c-1.5,2.4-1.6,1.4-1.8,4.2
			C1441.6,2875.7,1438.7,2876.7,1441.7,2877z"/>
		<path class="st2" d="M1433,2880.5c-0.6,0.7-1.4,1.5-2,2.3c1.6-0.7,3.1-1.2,3.7-1.8C1434.4,2880.6,1433.8,2880.4,1433,2880.5z"/>
		<path class="st2" d="M1744.5,2953.2c0.1-2.1-0.2-3.7-0.9-5C1742.7,2949.7,1743.2,2952.3,1744.5,2953.2z"/>
		<path class="st2" d="M1714,2902c-0.4-0.4-0.1-2.3,0.6-1.5c-2.2,2.3,5.3,5.9,5,8.8c-0.7-0.4-1.4-0.4-2.1,0c0.4,0.8,0.8,1.6,1.2,2.4
			c-0.5,0.2-1,0.3-1.5,0.3c0.2,2.4,3.1,2,4.1,3.8c-0.7-0.2-1.4-0.5-2.1-0.9c-1.5,5.4-1.7,1.3,2.4,4.1c-0.1-0.5,0-0.8,0.3-1.2
			c2.2,0.8,3.5,1.9,6.2,2.3c0.2-0.3-0.2-3.6-0.3-4.1c-1-2.4-3.6-5.1-5.1-7.3c-1.6-2.5-3.6-4.8-5.3-7.1c-0.3-4.5-2-2.9-3.8-6.2
			c0.6,0,1-0.3,1.2-0.9c-1.2-0.8-2.5-1.6-3.8-2.3c0,0.7,0.2,1.4,0.6,2.1c-0.2-0.1-0.4-0.2-0.6-0.3
			C1711.2,2895.5,1712.4,2901.7,1714,2902z"/>
		<path class="st2" d="M1752.3,2979.5c-1-2.1-2.2-3.8-3.2-4c-2.3-0.4,1.6-10.6-2.8-11.1c-1.2,1.1-4-0.2-5.5-0.6
			c-2.6-0.6-4.4,0.2-6,1.8c0.2,0.7-7.2,2.1-8.9-1.2c-1-2,3-1.9,3.8-1.9c3.4,0.2,2.9-2.7,4.3-4.8c1-1.4,0.1-1.8-0.8-3.3
			c0.6-1.3,1.1-2.7,1.5-4.1c4.7,0.5,0.6-4.7,2.6-5.9c0.9,1,2,1.8,3.2,2.4c0.4-0.9,1-1.7,1.8-2.4c2.3,3.1,3,7,4.7,10.3
			c0,0.1,0.1,0.1,0.1,0.2c-3.6-13.1-8.7-25.8-15.2-37.9c-0.7,0.6-1.4,1.9-1.1,3.3c-2.3-1.1-1.9,1.7-3,2.5c-1.1,0.8-1.4,0.1-1.9-0.5
			c-0.3-0.4-0.6-0.9-1.4-0.8c0.5,1,0.8,2.1,0.9,3.2c-2-1.6-2.4-1.3-5-1.8c-0.3,2.6,5.3,6.9,6.9,9.2c1,1.5,2.6,7.1,1.4,9
			c-2.7-2-11.3-5.2-13.6-2.9c-0.3,1.4,1.6,6.9,2,8.6c0.3,1.5-0.2,5.6-0.7,7c4.1,2.3-1.1,7.2,5.9,5.9c3,3.6,2.9,8.2-0.7,10.8
			c-3.2,2.3-1.8,3.9-3.6,6.4c-2,2.6,1.3,5.4-1.3,8.4c-1.8,2.1-4.5,3.1-5.3,5.5c-1.2,3.5-4.5,4.9-4.5,9c-3.3,1.5-2.5,4.3-4.7,6.5
			c-1.7,1.7-0.3,4.3-0.6,6.5c0.5-0.1,0.8,0,1.2,0.3c0.7,1.2,1.1,6.7,0.9,8c-0.2,2.1-0.7,7.2-2,8.8c-2.5,3.1,0.4,4-0.3,6.9
			c-0.6,2.3,0.6,5.4,3.5,4.9c-1.7,3.5,5.1,5.7,4.1,10.3c0.9,2.8,5.8,5.8,8.2,8c2.6,2.3,4.5,0.8,6.4-0.8c1.8-1.4,3.7-2.8,6.2-1.2
			c0.9,0.6,8.9-6.1,10.4-7c1.1,1.2,0.8,3.3,1.2,4.7c1.3-0.3,2.4-1,3.2-2.1c1,5.7-3.1,10.2-2.7,15.6c0,0.2,0,0.4,0,0.6
			C1753,3040.8,1756.4,3009.7,1752.3,2979.5"/>
		<path class="st2" d="M1706.9,2908.2c3,4.9,11.7,4.1,7.1-2.4c2.4-0.2-3-6.2-4.4-5.9c-0.6,0.4-1.1,0.9-1.5,1.5c0.6,0,1,0.3,1.2,0.9
			c-1.1,0-1.8-0.8-2.9-0.9C1705.6,2902.9,1710.5,2908.8,1706.9,2908.2"/>
		<path class="st2" d="M1582.9,2820.5c-1.6,0.2-3.3,0.2-4.9,0.2c-3-0.1-6-0.1-8.5,1.2c1.4-0.1,2.6,0.2,3.8,0.9c-0.3,0-0.8,0-1.3,0
			c-1.2-0.1-2.6-0.2-3.1,0.6c0.8,0.2,1.3,0.2,1.5,0.1c0.3-0.1,2.7,1.6,2.3,2.6c7.7,1,12.9-3,19.5,2c0,0.4-3,2.5-2.5,2.8
			c2.2-0.5,2.8-0.8,4.6-0.4c-0.4,0.1-0.8,0.3-1.2,0.6c1.1,0.1,2.1,0.5,3,1.2c-0.1,0-3,0-2.6,0.3c0.6-0.2,1.1-0.1,1.5,0.3
			c-0.6,0.1-1.1,0.4-1.5,0.9c0.4-0.1,0.7,0,0.9,0.3c-0.5,0-0.9,0-1.4,0c-1.4,0.7,3.7,1,5.8,0.8c0.1-0.3,0.4-0.4,0.8-0.3
			c0.1,0.1-0.2,0.2-0.8,0.3c0,0.1-0.1,0.2-0.1,0.3c2,0.7,5.4,0.5,6.5,2c-0.7-0.1-0.5,0.1-0.4,0.4c0.2,0.4,0.5,0.7-1.8,0
			c-2-0.6-5.3-1.8-7.2-0.3c0.5,0.1,0.9,0.4,1.2,0.9c-1.9-0.3-3,4-2.9,4.1c1.4,1.4,8.8,0.6,10-2.1c-0.9-0.4-1.7-0.8-2.7-1.2
			c1.4,0.2,2.8,0.5,4.1,0.9c-0.4-0.1-0.7,0-0.9,0.3c0.1,0.6,0.6,0.5,1.1,0.5c0.3,0,0.6-0.1,0.7,0.1c1,3.7-4.9,2.7-6.8,3.8
			c1.6,0.3-1,1.3-1.3,2.1c-0.6,1-0.3,1.5,0.7,1.2c-0.3,0.2-0.6,0.4-0.9,0.5c1.1,1.2,3.5,0.2,4.4,1.2c-5.3,0-1.9,3,2.3,3.7
			c0,2.2-1.2,2.9,1,3.4c-1.8-0.1-1.5,1-0.6,2c0.8,1,2,2.1,2,2c0.5,1.5-0.1,0.7,1.5,1.8c0.5,0.4,2.7,0.3,3.1,0.9
			c-0.5,1.8-0.4,3.4-0.1,5.6c2.4,0.8,3.9-1.7,5,0c0.2,0.3,1.2,1,1.5,1l0.1-0.1c0,0.1,0,0.1-0.1,0.1c-2,1.9,3.7,1.9,4.5,2
			c0.1,0.8,0.5,1.2,1.3,1.3c1.1,0,1.1,0.4-0.1,1.1c2.2,0.2,4.1-0.1,6.2-0.6c-0.5,0.3-0.6,0.7-0.3,1.2c1.9,0.4,1.5-1.4,1.8-1.5
			c0.2,0,3.2,0.3,3.2,0.6c-0.8,0.3-1.4,0.7-1.8,1.5c1.5,0.3,3,0.6,4.4,0.9c-1.8,2.1,0.8,1.2,2.7,2.1c1-0.4,1.9-0.4,2.9-0.3
			c0.9,0,1.8,0.1,2.7-0.3c0.6-1.8-0.1-1.5-0.4-1.2c-0.4,0.4-0.2,0.2,0,0c0.2-0.2,0.6-0.7,1.3-1.5c-0.5-1.5-1.9-0.7-0.9-3.7
			c1.1-3.3-1.1-2.5-2.4-5.2c0.6,0,1.2-0.1,1.8-0.3c0-0.7-0.3-1.2-0.9-1.5c1.5-0.2,3,0.2,3.8-2.4c-1.1-0.6-2.1-1.3-3-2.1
			c0.7,0.2,1.4,0.1,2.1-0.3c-0.6-0.7-1.3-1.4-2.1-2.1c0.7,0.1,1.4,0,2.1-0.3c-0.1-0.8-0.5-1.4-1.2-1.8c3.8,1.3,6.5,3.4,10.1,3.3
			c-0.2-0.5-0.4-5.2-0.3-5.7c0.8,0.6,1.7,0.9,2.7,0.9c0.6-1.9-1-3.8,0.9-5.3c1.3,0.5,3.2,1.4,4.6,0.6c0,0,3-0.3,4.3-1
			C1641.8,2831.9,1612.5,2822.7,1582.9,2820.5"/>
		<path class="st2" d="M1749.4,2963.7c-0.1-0.1-0.3-0.2-0.5,0.1c0.1,1.4,0.6,2.4,1.3,3.5C1750,2966.1,1749.7,2964.9,1749.4,2963.7z"
			/>
		<path class="st2" d="M1746,2959.7c-0.2-3.2-0.6-4.7-2.4-6.2c0.5,2.1,0.5,4.6,1.8,6.5C1745.4,2959.5,1745.6,2959.4,1746,2959.7z"/>
		<path class="st2" d="M1531.4,2826.4c1.8-0.5,3.5-0.9,5.3-0.9C1535.4,2825.9,1533.4,2826.1,1531.4,2826.4c-1.1,0.3-2.2,0.6-3.4,0.8
			c-1,0.3-1.8,0.7-2.4,1.2c0.4-0.2,0.2,0.6-0.1,0.9c0.6-0.1,2-0.2,0.9-0.8c1-0.3,5.7-0.7,6.5,0c-1.5-0.1-10.4,0.7-10.6,3
			c1.7-0.1,6.1-1.4,7.4-0.3c-1.6,0.5-15.7,1.4-15,5.3c2.4,0,5.6-1.5,8.1-1.9c2.8-0.4,5.9-1.2,8.6-2c3.1-0.9,9.8,0.6,11.9-2.9
			c-3.1-0.1-6.7,1.5-9.7,0.6c2.4-0.7,5-0.3,7.5-1c1.8-0.5,2-1.5,3.8-1.6c1.6-0.1,6.2-1.4,7-3c-1.7-0.2-3.7,0.8-5.3,0.3
			c3-1,6.5-0.1,9.4-1.5c-0.6,0.2-1.2,0.1-1.8-0.3c1.9,0.1,13.2-2.4,18.8-3c-0.4,0-0.7,0-1-0.1c-5.3-0.1-10.6,0.1-15.9,0.5
			c-4.8,0.7-9.6,1.6-14.3,2.7c-4.6,1.1-11.1,1.4-15,4.1c0.4,0,0.9-0.1,1.3-0.2C1529,2826.9,1530.2,2826.6,1531.4,2826.4z"/>
		<path class="st2" d="M1524.9,2827.9c0.3-0.1,0.7-0.3,0.9-0.6C1525.4,2827.3,1524.2,2827.8,1524.9,2827.9z"/>
		<path class="st2" d="M1507.6,2834.9c0.3,0,0.5-0.2,0.7-0.2h0c0.2,0,0.3,0,0.4-0.2c3-0.9,6.8-1.7,8.6-1.7c1.9-1.6,5.1-2.6,7.2-3.6
			c-0.4,0.2-1.6-0.4-1.7-0.5c0.1-0.1,0.2-0.3,0.4-0.3c-0.3,0.1-0.7,0.2-1.1,0.4c-0.9,0-2.4,0.8-3.2,0.9c0,0,0.1,0,0.1,0
			c0.1,0-0.3,0.3-0.2,0.3l0.4-0.3c0.4,0-1.1,0.4-0.6,0.4c-0.5,0,1-0.4,0.6-0.4c-5.6,1.7-14.1,4.3-13.7,6.2
			C1506,2835.6,1506.8,2835.2,1507.6,2834.9z"/>
		<path class="st2" d="M1685.6,2865.3c-0.1-1.1-3-3.3-4-3.9c-0.7-0.4-0.7-0.2-0.8,0c-0.1,0.3-0.4,0.5-2.1-0.3
			c-0.7-0.3-5.7-2.1-5.8-1.7c0.5,0.3,0.6,0.7,0.3,1.2c0-0.6-4.6-3.8-6.2-4.1c-0.4,0.7,1.1,1,0.6,1.2c-1-0.4-2.8-1.2-2.9,0.3
			c1,2.1,4.9,0.3,5.6,2.6c-0.3,0.1-0.8,0-1.4-0.2c-0.9-0.2-1.9-0.5-2.2,0.5c1.5,0.9,3.9,0.7,5,2.3c-0.9-0.3-1.4,0-1.5,0.9
			c1.7,0.5,18.5,6.9,18.3,3.8c0,0-0.3-0.7-0.8-1.3C1687.3,2865.9,1686.5,2865.2,1685.6,2865.3"/>
		<path class="st2" d="M1544,3042.4c0-2.7-3-2.7-5-2.6c-0.1-0.7,0.9-0.9,0.3-1.5c-1.9-0.9-4.1-1.3-6.2-1.8c-0.5-1.5-2.1-2.1-3.4-2.5
			c-2.5-0.7-4.8-3-7.1-2.9c-3.2,0.1-5.7-1.4-9.2-0.4c-1.6,0.4-6.1,2.9-4.7,5.3c1.7,0.4,6.5-2.6,8.2-3.6c0.5,2.8,4,2.2,6.8,3.5
			c2.4,1.1,4.2,0,5.2,2.3c0.9,2,2.8,1.3,4.5,2.4c-0.6,1-2,0.8-1.8,2.4C1535.7,3042.4,1539.9,3043,1544,3042.4z"/>
		<path class="st2" d="M1531.4,3049.5c0.3,0.2,5.9,1.3,5.5-0.3C1535.5,3046.5,1526.2,3046.5,1531.4,3049.5z"/>
		<path class="st2" d="M1547.7,3049c1.2,0.3,2.5,0.4,3.7,0.2c0.6,1,1.5,1.6,2.7,1.8c0.7-5.7,10.2,0.7,10.3-3.6
			c-2.4-2.8-7.3-5-10.4-4.7c-1.6,0.2-7.6-1.4-8.1,0.6c0,0,3.8,3.9,3.5,3.8c-2.2,1-4.3-1.2-6.5-0.3
			C1542.3,3050.3,1546.2,3048.7,1547.7,3049z"/>
		<path class="st2" d="M1567.8,3048.6c0.1,2.9,6.4,1.3,6-0.4C1573,3048.2,1567.7,3045.7,1567.8,3048.6z"/>
		<path class="st2" d="M1461.5,2860.1c-1.2,0-4.3-0.6-4.4,1.5c2.2,1.8,9.8-0.7,9.1-3.9c-0.9-0.1-1.7-0.5-2.4-1.2
			c-1.6,0-3.1,0.4-4.4,1.2C1458.7,2857.8,1461.2,2859.9,1461.5,2860.1z"/>
		<path class="st2" d="M1506.1,2842.1c5.6-0.6,10.8-3.6,16.4-3.7c1.6,0,4.1-0.4,5.1-2c1.3,1.7,3.9,0.5,5.4,0.2
			c2.1-0.5,2.8-1.4,4.9-2.6c-5-1.5-11,0.2-15.8,2c-2.2,0.8-3.5,0.6-5.7,1.4c-1.4,0.5-5.2,0-6.2,1c0.7-1.2,2.4-0.7,3.2-1.8
			c-2.7,0.1-5.2,1-7.7,2.1c-0.1,1.3,1.1,0.3,1.2,0.9C1506.3,2840.8,1505.7,2840.6,1506.1,2842.1z"/>
		<path class="st2" d="M1546.5,2854.1c-3.1-1-7.1-0.2-7.1,3.6C1542.2,2858.8,1546.8,2857.9,1546.5,2854.1z"/>
		<path class="st2" d="M1567.2,2846.1c-1.3,0.2-2.9,0.9-4.2,0.6c1.1-0.3,2.2-0.7,3.2-1.2c-0.3-1.4-2.5-1.2-4.6-1.1
			c-1.9,0.1-4.9,1.7-5.1,0.8c1.7-0.1-2.5-4.8-4.1-1.5c-0.2-1.8-1.5-1.5-2.8-1.1c-0.7,0.2-1.4,0.4-1.9,0.2c1-0.3,1.9-0.8,2.7-1.5
			c-2.1-1.5-12.9-2.7-13,1.5c-1.3-0.9-2.2-0.5-3.1-0.1c-0.8,0.3-1.5,0.7-2.5,0.1c0.8-0.8,1.5-1.7,2.1-2.7c-3.1-3-8.8-0.4-11.8,1.5
			c0.6-0.2,1.1-0.1,1.5,0.3c-1.3,0-3.5,0-3.8,1.8c0.5,0.2,0.9,0.5,1.2,0.9c-0.9,0-1.5,0.3-1.8,1.2c0.4,1,2.1,0.1,2.4,1.2
			c-0.9,0.9-2,1.2-3.2,0.9c0.7,0,1.3-0.3,1.8-0.9c-0.9-1.5-2.7-1.6-3-3.2c1.4-1.6,3.7-1.9,5-3.6c-3.7,0.5-14.2,3.2-12.7,7.4
			c-1.1,0.1-1.8,0.7-2.1,1.8c0.8,0.1,1.6,0,2.3-0.1c1.2-0.2,2.4-0.3,3.6,0.1c-1.1,0.9-4,0-4.4,1.8c1.2,1.3,3.6,0.7,5,0.3
			c1.6-0.5,1.6-0.3,1.9,0c0.3,0.2,0.8,0.4,2.8,0.2c4.2-0.5,8.1-0.9,12.2-0.7c0.3-1.7,1.2-1.4,2.4-1.1c0.8,0.2,1.8,0.4,2.8,0
			c3.1-1.2-0.6-1.7-0.8-2.1c1.3-0.8,8.6,2.6,9.7,3.2c-1,0.5-2.1,0.7-3.2,0.6c-0.4,2.6,2.7,1,4,0.7c2.7-0.8,2.2,0.8,4.7,1.3
			c6.5,1.4,1.1,6.5-2.8,7.4c0,1.1,2.6,1.8,2.1,2.6c-3.4,0.3-5.9,0.8-9.2,1c-1.6,0.1-5.1,1.6-4.6,4.1c2,0.1,10.2-1.3,10.3-2.9
			c0.1-0.9,8.9,3.9,10,4.9c-0.7,0.1-1.1,0.5-1.2,1.2c2.5,1.9,6.3,1.6,8.3,4.4c3.5-0.4,6.9,0.6,10.3,0.8c0-4.7-3.3-4.7-9.4-6.1
			c3.8,0.8,9-0.2,9.7,0.2c1.7,1.1,1.6,3.2,3.5,3.2c0.1-0.4,0.2-3,0-3.2c0.4,0.2,0.8,0.3,1.2,0.3c0.5-2.8-1.7-2.7-3-4.4
			c0.5,0.1,0.8-0.1,0.9-0.6c-1.5,0-9.7-4.9-9.1-5.6c0.8,0.7,1.6,0.9,2.7,0.6c0.3-1.5-1.3-0.9-1.5-2.1c2.8-1,6.3-1.3,8.5,0.4
			c1.8,1.4,2.5,4.9,4.7,4.8c0.3-0.9-1.1-2-0.3-2.7c1.2-0.1,2.9-0.6,4.1-0.6c0.9-0.5-1-1,0-1.5c2.2,0.2,3.9-1.5,1-2.5
			c-2.4-0.8-2.7,0.2-3.9-1.3c-1.4,0.1-3.4,0.9-4.7,0c0.9,0.3,1.5,0.1,2.1-0.6c-2.1-3.3-10.1-2.3-13.6-4.4c0.4-0.4,0.9-0.5,1.5-0.3
			c0.3-0.8-1.5-1.1-0.9-1.5c1.5,0.6,3.1,0.8,4.7,0.6c0.2-1.4-0.9-1.4-2-1.4c-0.9,0-1.8,0-2.1-0.7
			C1573.2,2847.9,1569.2,2845.8,1567.2,2846.1"/>
		<path class="st2" d="M1519.1,2873.1c1.2,0,9.2,4.6,9.1,0c-1.5-0.6-3.1-0.8-4.7-0.6c0.8-2.7-3.3-0.9-5.2-1.7
			c-4.2-1.7-0.4-1.2-3.4-1.5c0.1-1.1-0.4-1.8-1.5-2.1c-0.8,1.6-2.2,2.8-2.7,4.6c-0.9,3.1-2.1,2.1-3.4,4.9c1.6,0.2,3.2-1.2,4.7-0.9
			c-0.2,0.6-0.2,1.2,0,1.8c2.5-0.1,4-2.5,6.5-2.7C1519.2,2874.3,1518,2873.2,1519.1,2873.1z"/>
		<path class="st2" d="M1491.7,2860.7c-1,0.1-3.6-1.3-5-1.5c-0.9,0.9-3.8,3.1-4.1,4.1C1485.9,2863,1489.5,2863.9,1491.7,2860.7z"/>
		<path class="st2" d="M1523.2,2828.5c0.3-0.1,0.5-0.2,0.7-0.3C1523.6,2828.2,1523.4,2828.3,1523.2,2828.5z"/>
		<path class="st2" d="M1504.5,2843c-2.2-0.8-19.4,2.1-19.7,4.1C1489.6,2846.4,1503.1,2850.9,1504.5,2843z"/>
		<path class="st2" d="M1607.4,2920.4c-0.4,0-0.7,0-1,0.1c-2.2,0.5-3.5,2.4-4.5,4.5c-1,2.1-1.7,4.3-2.8,5.4
			c-0.1,0.1-0.2,0.2-0.3,0.3c-0.8,0.7-0.9,1.5-0.3,2.4c-1.1,0.1-1.9,0.7-2.5,1.7c-0.1,0.3-0.2,0.6-0.1,0.9c0.1,0.7,1,1,2,1.1
			c0.3,0,0.7,0,1,0c0.3,0,0.7,0,1,0c0.3,0,0.6,0,0.8,0c0.1,0,0.2,0,0.3,0c0.2,0,0.4,0,0.8,0c0.7,0,1.6,0,2.6,0c1,0,2.1,0,3.1,0
			c0.7,0,1.4,0,1.9,0c0.6,0,1,0.1,1,0.2c-0.2,0.1-0.3,0.1-0.4,0.2c-1,0.5-1.8,1.2-2.5,2.2c0.5,0.3,0.9,0.4,1.4,0.4
			c1,0,1.7-0.6,2.5-1.2c0.1-0.1,0.1-0.1,0.2-0.2c0.7-0.6,1.4-1.1,2.2-1.1c0.2,0,0.3,0,0.5,0.1c-0.3,2.5-0.8,2.5,2.1,3.4
			c0.4,0.1,0.7,0.2,1,0.2c1.1,0,1.2-1.1,1.6-2.4c0.8-2.8-2.9-2.3-3.5-3c-0.1-0.8,0.4-1.1,1-1.3c0.7-0.3,1.4-0.5,1.1-1.7
			c-0.2-0.1-0.4-0.2-0.6-0.2c-0.3,0-0.6,0.1-0.9,0.3c-0.3,0.1-0.6,0.3-0.9,0.3c-0.1,0-0.2,0-0.2,0c0-1.4,2.3-3.2-0.4-3.8
			c-0.4-0.1-0.8-0.1-1.2-0.1c-0.5,0-1,0.1-1.4,0.2c-0.4,0.1-0.8,0.2-1.3,0.2c-0.7,0-1.5-0.2-2.5-1.1c3.4-1-0.9-1.2-2.2-1.2
			c-0.2,0-0.4,0-0.4,0c0.8-1.2,2.7-3.3,3.6-4.9c0.3-0.5,0.5-0.9,0.5-1.3C1608.7,2920.5,1608,2920.4,1607.4,2920.4"/>
	</g>
</g>
</svg>
