<?xml version="1.0" encoding="utf-8"?>
<!-- Generator: Adobe Illustrator 22.1.0, SVG Export Plug-In . SVG Version: 6.00 Build 0)  -->
<svg version="1.1" xmlns="http://www.w3.org/2000/svg" xmlns:xlink="http://www.w3.org/1999/xlink" x="0px" y="0px"
	 viewBox="0 0 800 800" style="enable-background:new 0 0 800 800;" xml:space="preserve">
<style type="text/css">
	.st0{fill:#BCA054;}
	.st1{fill:#5E4915;}
</style>
<g id="Capa_1">
	<g>
		<path class="st0" d="M482,499.5c-0.3,0-0.6-0.1-0.8-0.2l-142-91c-0.7-0.4-0.9-1.4-0.5-2.1c0.4-0.7,1.4-0.9,2.1-0.5l142,91
			c0.7,0.4,0.9,1.4,0.5,2.1C483,499.3,482.5,499.5,482,499.5z"/>
	</g>
	<g>
		<path class="st0" d="M261,339.5c-0.4,0-0.7-0.1-1-0.4l-81-74c-0.6-0.6-0.7-1.5-0.1-2.1c0.6-0.6,1.5-0.7,2.1-0.1l81,74
			c0.6,0.6,0.7,1.5,0.1,2.1C261.8,339.3,261.4,339.5,261,339.5z"/>
	</g>
	<g>
		<path class="st0" d="M171,209.5c-0.3,0-0.5-0.1-0.8-0.2c-0.7-0.4-0.9-1.4-0.5-2.1l46-74c0.4-0.7,1.4-0.9,2.1-0.5
			c0.7,0.4,0.9,1.4,0.5,2.1l-46,74C172,209.2,171.5,209.5,171,209.5z"/>
	</g>
	<g>
		<path class="st0" d="M132.9,204.5c-0.7,0-1.3-0.4-1.5-1.1l-27-98.9c-0.2-0.8,0.3-1.6,1.1-1.9c0.8-0.2,1.7,0.3,1.9,1.1l27,98.9
			c0.2,0.8-0.3,1.6-1.1,1.9C133.2,204.5,133.1,204.5,132.9,204.5z"/>
	</g>
	<g>
		<path class="st0" d="M331,333.5c-0.4,0-0.9-0.2-1.2-0.5c-0.5-0.6-0.4-1.6,0.2-2.1l68-56c0.6-0.5,1.6-0.4,2.1,0.2
			c0.5,0.6,0.4,1.6-0.2,2.1l-68,56C331.7,333.4,331.3,333.5,331,333.5z"/>
	</g>
	<g>
		<path class="st0" d="M413,262.5c-0.3,0-0.7-0.1-0.9-0.3c-0.6-0.5-0.7-1.5-0.2-2.1l70-86c0.5-0.6,1.5-0.7,2.1-0.2
			c0.6,0.5,0.7,1.5,0.2,2.1l-70,86C413.9,262.3,413.4,262.5,413,262.5z"/>
	</g>
	<g>
		
			<rect x="385.3" y="338.1" transform="matrix(0.1017 -0.9948 0.9948 0.1017 -23.5865 718.8804)" class="st0" width="2" height="68.9"/>
	</g>
	<g>
		<polygon class="st0" points="435.9,351.6 409.1,278.3 411.1,277.7 437.9,350.9 		"/>
	</g>
	<g>
		
			<rect x="467.3" y="334.5" transform="matrix(0.8338 -0.552 0.552 0.8338 -99.8749 339.2115)" class="st0" width="92.4" height="2"/>
	</g>
	<g>
		<rect x="399" y="162.5" transform="matrix(0.9411 -0.3382 0.3382 0.9411 -29.781 156.0804)" class="st0" width="68" height="2"/>
	</g>
	<g>
		<rect x="516.1" y="86" transform="matrix(0.669 -0.7433 0.7433 0.669 115.0804 432.4024)" class="st0" width="53.8" height="2"/>
	</g>
	<g>
		<polygon class="st0" points="542.2,137 541.8,135 631.9,116 632.4,118 		"/>
	</g>
	<g>
		
			<rect x="301.6" y="428.8" transform="matrix(0.9987 -5.081849e-02 5.081849e-02 0.9987 -24.7624 16.0192)" class="st0" width="2" height="132.2"/>
	</g>
	<g>
		
			<rect x="239.5" y="529.2" transform="matrix(0.4418 -0.8971 0.8971 0.4418 -373.9658 531.942)" class="st0" width="2" height="74.7"/>
	</g>
	<g>
		
			<rect x="126.5" y="462.7" transform="matrix(0.536 -0.8442 0.8442 0.536 -362.9475 339.6331)" class="st0" width="2" height="74.6"/>
	</g>
	<g>
		
			<rect x="212.6" y="660" transform="matrix(0.6833 -0.7302 0.7302 0.6833 -401.8701 395.5425)" class="st0" width="84.9" height="2"/>
	</g>
	<g>
		<polygon class="st0" points="129,666.7 127.1,665.9 174.1,565.6 175.9,566.4 		"/>
	</g>
	<g>
		
			<rect x="156.5" y="670.4" transform="matrix(0.3534 -0.9355 0.9355 0.3534 -547.8459 596.4001)" class="st0" width="2" height="48.1"/>
	</g>
	<g>
		
			<rect x="554" y="576.9" transform="matrix(0.9487 -0.3162 0.3162 0.9487 -166.948 207.2201)" class="st0" width="2" height="82.2"/>
	</g>
	<g>
		
			<rect x="605.7" y="672.9" transform="matrix(0.9914 -0.1308 0.1308 0.9914 -82.6478 90.066)" class="st0" width="76.8" height="2"/>
	</g>
	<g>
		
			<rect x="627.6" y="685.5" transform="matrix(0.5892 -0.808 0.808 0.5892 -320.2469 802.0713)" class="st0" width="2" height="60.9"/>
	</g>
	<g>
		
			<rect x="481.6" y="692" transform="matrix(0.9896 -0.1436 0.1436 0.9896 -94.1912 81.3812)" class="st0" width="69.7" height="2"/>
	</g>
	<g>
		
			<rect x="570.1" y="489" transform="matrix(0.9582 -0.2862 0.2862 0.9582 -115.1367 192.1565)" class="st0" width="59.5" height="2"/>
	</g>
	<g>
		
			<rect x="626.9" y="279.5" transform="matrix(0.9971 -7.619943e-02 7.619943e-02 0.9971 -19.4558 51.0881)" class="st0" width="65.7" height="2"/>
	</g>
	<g>
		
			<rect x="484.2" y="403.5" transform="matrix(0.2938 -0.9559 0.9559 0.2938 8.1064 819.9725)" class="st0" width="149.6" height="2"/>
	</g>
	<g>
		
			<rect x="75.5" y="284" transform="matrix(0.7071 -0.7071 0.7071 0.7071 -171.9432 154.8923)" class="st0" width="50.9" height="2"/>
	</g>
	<g>
		<polygon class="st0" points="655,560.2 644,492.5 646,492.2 657,559.8 		"/>
	</g>
	<g>
		
			<rect x="573.7" y="618" transform="matrix(0.5594 -0.8289 0.8289 0.5594 -239.0435 788.2605)" class="st0" width="96.5" height="2"/>
	</g>
	<g>
		<path class="st0" d="M607,185.5c-0.3,0-0.6-0.1-0.8-0.2c-0.7-0.5-0.9-1.4-0.4-2.1l37-56c0.5-0.7,1.4-0.9,2.1-0.4
			c0.7,0.5,0.9,1.4,0.4,2.1l-37,56C608,185.3,607.5,185.5,607,185.5z"/>
	</g>
	<g>
		<path class="st0" d="M590,189.5c-0.2,0-0.4,0-0.6-0.1l-53-24c-0.8-0.3-1.1-1.2-0.7-2c0.3-0.8,1.2-1.1,2-0.7l53,24
			c0.8,0.3,1.1,1.2,0.7,2C591.1,189.2,590.6,189.5,590,189.5z"/>
	</g>
	<g>
		<path class="st0" d="M592,255.5c-0.1,0-0.2,0-0.3,0c-0.8-0.1-1.4-0.9-1.2-1.7l9-51c0.1-0.8,0.9-1.4,1.7-1.2
			c0.8,0.1,1.4,0.9,1.2,1.7l-9,51C593.3,255,592.7,255.5,592,255.5z"/>
	</g>
	<g>
		<path class="st0" d="M734,172.5c-0.4,0-0.8-0.1-1.1-0.4l-53-53c-0.6-0.6-0.6-1.5,0-2.1c0.6-0.6,1.5-0.6,2.1,0l53,53
			c0.6,0.6,0.6,1.5,0,2.1C734.8,172.4,734.4,172.5,734,172.5z"/>
	</g>
	<g>
		<path class="st0" d="M673,79.5c-0.3,0-0.7-0.1-0.9-0.3c-0.7-0.5-0.8-1.5-0.3-2.1l22-28c0.5-0.7,1.5-0.8,2.1-0.3
			c0.7,0.5,0.8,1.5,0.3,2.1l-22,28C673.9,79.3,673.4,79.5,673,79.5z"/>
	</g>
	<g>
		<path class="st0" d="M234,83c-0.1,0-0.2,0-0.3,0c-0.8-0.1-1.4-0.9-1.2-1.7l7-39.5c0.1-0.8,0.9-1.4,1.7-1.2
			c0.8,0.1,1.4,0.9,1.2,1.7l-7,39.5C235.3,82.5,234.7,83,234,83z"/>
	</g>
	<g>
		<path class="st0" d="M261,102.5c-0.7,0-1.3-0.5-1.5-1.2c-0.2-0.8,0.3-1.6,1.1-1.8l40-9c0.8-0.2,1.6,0.3,1.8,1.1
			c0.2,0.8-0.3,1.6-1.1,1.8l-40,9C261.2,102.5,261.1,102.5,261,102.5z"/>
	</g>
	<g>
		<path class="st0" d="M169,379.5c-0.7,0-1.3-0.5-1.5-1.2L148,281.8c-0.2-0.8,0.4-1.6,1.2-1.8c0.8-0.2,1.6,0.4,1.8,1.2l19.5,96.5
			c0.2,0.8-0.4,1.6-1.2,1.8C169.2,379.5,169.1,379.5,169,379.5z"/>
	</g>
	<g>
		<path class="st0" d="M179,389.5c-0.8,0-1.4-0.6-1.5-1.4c0-0.8,0.6-1.5,1.4-1.6l69-4c0.8,0,1.5,0.6,1.6,1.4c0,0.8-0.6,1.5-1.4,1.6
			L179,389.5C179.1,389.5,179,389.5,179,389.5z"/>
	</g>
	<g>
		<path class="st0" d="M178,510.5c-0.8,0-1.4-0.6-1.5-1.4l-9-111c-0.1-0.8,0.5-1.5,1.4-1.6c0.8-0.1,1.5,0.5,1.6,1.4l9,111
			c0.1,0.8-0.5,1.5-1.4,1.6C178.1,510.5,178,510.5,178,510.5z"/>
	</g>
	<g>
		<path class="st0" d="M91.9,457.7c-0.4,0-0.8-0.2-1.1-0.5c-0.5-0.6-0.5-1.5,0.1-2.1l68.1-61.2c0.6-0.5,1.5-0.5,2.1,0.1
			c0.5,0.6,0.5,1.5-0.1,2.1l-68.2,61.2C92.6,457.6,92.2,457.7,91.9,457.7z"/>
	</g>
	<g>
		<path class="st0" d="M445.8,591.7c-0.4,0-0.8-0.2-1.1-0.5c-0.5-0.6-0.5-1.5,0.1-2.1l36.2-33.3c0.6-0.5,1.5-0.5,2.1,0.1
			c0.5,0.6,0.5,1.5-0.1,2.1l-36.2,33.3C446.5,591.6,446.2,591.7,445.8,591.7z"/>
	</g>
	<g>
		<path class="st0" d="M417,607c0,0-0.1,0-0.1,0l-66.5-5c-0.8-0.1-1.4-0.8-1.4-1.6c0.1-0.8,0.8-1.5,1.6-1.4l66.5,5
			c0.8,0.1,1.4,0.8,1.4,1.6C418.5,606.4,417.8,607,417,607z"/>
	</g>
	<g>
		<path class="st0" d="M200,516.5c-0.3,0-0.6-0.1-0.9-0.3c-0.7-0.5-0.8-1.4-0.4-2.1l68-97c0.5-0.7,1.4-0.8,2.1-0.4
			c0.7,0.5,0.8,1.4,0.4,2.1l-68,97C200.9,516.3,200.5,516.5,200,516.5z"/>
	</g>
	<g>
		<path class="st0" d="M294,323.5c-0.7,0-1.3-0.4-1.4-1.1l-52-183c-0.2-0.8,0.2-1.6,1-1.9c0.8-0.2,1.6,0.2,1.9,1l52,183
			c0.2,0.8-0.2,1.6-1,1.9C294.3,323.5,294.1,323.5,294,323.5z"/>
	</g>
	<g>
		<path class="st0" d="M657,463.5c-0.3,0-0.7-0.1-0.9-0.3c-0.6-0.5-0.7-1.5-0.2-2.1l72-89c0.5-0.6,1.5-0.7,2.1-0.2
			c0.6,0.5,0.7,1.5,0.2,2.1l-72,89C657.9,463.3,657.4,463.5,657,463.5z"/>
	</g>
	<g>
		<path class="st0" d="M722,510.5c-0.2,0-0.4,0-0.6-0.1l-60.8-27.2c-0.8-0.3-1.1-1.2-0.8-2c0.3-0.8,1.2-1.1,2-0.8l60.8,27.2
			c0.8,0.3,1.1,1.2,0.8,2C723.1,510.2,722.6,510.5,722,510.5z"/>
	</g>
	<g>
		<path class="st0" d="M665,565.5c-0.5,0-0.9-0.2-1.2-0.7c-0.4-0.7-0.3-1.6,0.4-2l56.7-37.3c0.7-0.4,1.6-0.3,2,0.4
			c0.4,0.7,0.3,1.6-0.4,2l-56.7,37.3C665.5,565.4,665.2,565.5,665,565.5z"/>
	</g>
	<g>
		<path class="st0" d="M449,698.5c-0.3,0-0.6-0.1-0.8-0.2l-109-71c-0.7-0.5-0.9-1.4-0.4-2.1c0.5-0.7,1.4-0.9,2.1-0.4l109,71
			c0.7,0.5,0.9,1.4,0.4,2.1C450,698.3,449.5,698.5,449,698.5z"/>
	</g>
	<g>
		<path class="st0" d="M206,102.5c-0.1,0-0.2,0-0.2,0l-88.5-14c-0.8-0.1-1.4-0.9-1.2-1.7c0.1-0.8,0.9-1.4,1.7-1.2l88.5,14
			c0.8,0.1,1.4,0.9,1.2,1.7C207.4,102,206.7,102.5,206,102.5z"/>
	</g>
	<g>
		<rect x="680.1" y="75" transform="matrix(0.912 -0.4102 0.4102 0.912 32.5302 303.6435)" class="st0" width="87.7" height="2"/>
	</g>
	<g>
		<rect x="485" y="53.7" transform="matrix(0.9466 -0.3223 0.3223 0.9466 0.6304 160.8082)" class="st0" width="2" height="49.6"/>
	</g>
	<g>
		<rect x="442.5" y="75" transform="matrix(0.4671 -0.8842 0.8842 0.4671 143.4915 448.092)" class="st0" width="2" height="59.9"/>
	</g>
	<g>
		
			<rect x="288.4" y="292.5" transform="matrix(0.2617 -0.9652 0.9652 0.2617 -47.7445 524.5881)" class="st0" width="61.1" height="2"/>
	</g>
	<g>
		
			<rect x="68.5" y="44.2" transform="matrix(0.5547 -0.8321 0.8321 0.5547 -22.3029 86.3267)" class="st0" width="2" height="39.7"/>
	</g>
	<g>
		<rect x="88" y="163.5" transform="matrix(0.6705 -0.7419 0.7419 0.6705 -117.94 131.4246)" class="st0" width="2" height="70.1"/>
	</g>
	<g>
		
			<rect x="66.6" y="324" transform="matrix(0.2705 -0.9627 0.9627 0.2705 -227.8961 349.2611)" class="st0" width="99.7" height="2"/>
	</g>
	<g>
		<polygon class="st0" points="107.3,666.7 75.1,632.8 76.6,631.4 108.7,665.3 		"/>
	</g>
	<g>
		<polygon class="st0" points="61.8,745.6 60.2,744.4 102.8,691.1 104.4,692.3 		"/>
	</g>
	<g>
		<polygon class="st0" points="321,682.1 317,638.8 319,638.6 323,681.9 		"/>
	</g>
	<g>
		<rect x="527" y="722" transform="matrix(0.7718 -0.6359 0.6359 0.7718 -334.462 514.1345)" class="st0" width="44" height="2"/>
	</g>
	<g>
		
			<rect x="746.5" y="535.3" transform="matrix(0.9688 -0.2478 0.2478 0.9688 -114.8471 202.6478)" class="st0" width="2" height="44.4"/>
	</g>
	<g>
		
			<rect x="718" y="682.9" transform="matrix(0.8944 -0.4472 0.4472 0.8944 -238.4843 395.7643)" class="st0" width="2" height="40.2"/>
	</g>
	<g>
		
			<rect x="617.5" y="324.8" transform="matrix(0.9162 -0.4008 0.4008 0.9162 -88.8307 277.3352)" class="st0" width="2" height="52.4"/>
	</g>
	<g>
		<rect x="600" y="228.5" transform="matrix(0.667 -0.7451 0.7451 0.667 43.8035 557.0027)" class="st0" width="89.9" height="2"/>
	</g>
	<g>
		
			<rect x="543.5" y="171.7" transform="matrix(0.8649 -0.5019 0.5019 0.8649 -36.1193 302.7834)" class="st0" width="2" height="93.6"/>
	</g>
	<g>
		
			<rect x="482" y="398.3" transform="matrix(0.8944 -0.4472 0.4472 0.8944 -147.124 262.7729)" class="st0" width="2" height="89.4"/>
	</g>
	<g>
		
			<rect x="312" y="90.4" transform="matrix(0.4608 -0.8875 0.8875 0.4608 36.5279 358.1248)" class="st0" width="2" height="117.2"/>
	</g>
	<g>
		<path class="st0" d="M661,470c-0.5,0-0.9-0.4-1-0.9c-0.1-0.5,0.3-1,0.9-1.1l93-9c0.6,0,1,0.3,1.1,0.9c0.1,0.5-0.3,1-0.9,1.1
			L661,470C661.1,470,661,470,661,470z"/>
	</g>
	<g>
		<path class="st0" d="M747,504c-0.1,0-0.2,0-0.4-0.1c-0.5-0.2-0.8-0.8-0.6-1.3l12-32c0.2-0.5,0.8-0.8,1.3-0.6
			c0.5,0.2,0.8,0.8,0.6,1.3l-12,32C747.8,503.8,747.4,504,747,504z"/>
	</g>
	<g>
		<path class="st0" d="M728,274c-0.3,0-0.7-0.2-0.9-0.5c-0.3-0.5-0.1-1.1,0.4-1.4l22-13c0.5-0.3,1.1-0.1,1.4,0.4
			c0.3,0.5,0.1,1.1-0.4,1.4l-22,13C728.3,274,728.2,274,728,274z"/>
	</g>
	<g>
		<path class="st0" d="M107,72c-0.1,0-0.3,0-0.4-0.1c-0.5-0.2-0.7-0.8-0.5-1.3l8-19c0.2-0.5,0.8-0.7,1.3-0.5
			c0.5,0.2,0.7,0.8,0.5,1.3l-8,19C107.8,71.8,107.4,72,107,72z"/>
	</g>
	<g>
		<path class="st0" d="M56,301c-0.3,0-0.7-0.2-0.9-0.5l-17-30c-0.3-0.5-0.1-1.1,0.4-1.4c0.5-0.3,1.1-0.1,1.4,0.4l17,30
			c0.3,0.5,0.1,1.1-0.4,1.4C56.3,301,56.2,301,56,301z"/>
	</g>
	<g>
		<path class="st0" d="M54,519c-0.2,0-0.4,0-0.5-0.2c-0.5-0.3-0.6-0.9-0.3-1.4l19-30c0.3-0.5,0.9-0.6,1.4-0.3
			c0.5,0.3,0.6,0.9,0.3,1.4l-19,30C54.7,518.8,54.3,519,54,519z"/>
	</g>
	<g>
		<path class="st0" d="M330,568c-0.2,0-0.3,0-0.5-0.1c-0.5-0.3-0.7-0.9-0.4-1.4l35-63c0.3-0.5,0.9-0.7,1.4-0.4
			c0.5,0.3,0.7,0.9,0.4,1.4l-35,63C330.7,567.8,330.4,568,330,568z"/>
	</g>
	<g>
		<path class="st0" d="M472.5,528.5c-0.1,0-0.2,0-0.3,0L379.7,499c-0.5-0.2-0.8-0.7-0.6-1.3c0.2-0.5,0.7-0.8,1.3-0.6l92.5,29.5
			c0.5,0.2,0.8,0.7,0.6,1.3C473.3,528.2,472.9,528.5,472.5,528.5z"/>
	</g>
	<g>
		<path class="st0" d="M363,485c-0.3,0-0.6-0.2-0.8-0.5l-42-64c-0.3-0.5-0.2-1.1,0.3-1.4c0.5-0.3,1.1-0.2,1.4,0.3l42,64
			c0.3,0.5,0.2,1.1-0.3,1.4C363.4,484.9,363.2,485,363,485z"/>
	</g>
	<g>
		<path class="st0" d="M553,672c-0.2,0-0.3,0-0.5-0.1l-102-55c-0.5-0.3-0.7-0.9-0.4-1.4c0.3-0.5,0.9-0.7,1.4-0.4l102,55
			c0.5,0.3,0.7,0.9,0.4,1.4C553.7,671.8,553.4,672,553,672z"/>
	</g>
	<g>
		<path class="st0" d="M334,246c-0.2,0-0.4-0.1-0.6-0.2c-0.5-0.3-0.6-0.9-0.3-1.4l36-53c0.3-0.5,0.9-0.6,1.4-0.3
			c0.5,0.3,0.6,0.9,0.3,1.4l-36,53C334.6,245.8,334.3,246,334,246z"/>
	</g>
	<g>
		<path class="st0" d="M133,673c-0.4,0-0.7-0.2-0.9-0.6c-0.2-0.5,0-1.1,0.5-1.3l137-62c0.5-0.2,1.1,0,1.3,0.5c0.2,0.5,0,1.1-0.5,1.3
			l-137,62C133.3,673,133.1,673,133,673z"/>
	</g>
	<g>
		<path class="st0" d="M553,274c-0.2,0-0.3,0-0.5-0.1l-154-85c-0.5-0.3-0.7-0.9-0.4-1.4c0.3-0.5,0.9-0.7,1.4-0.4l154,85
			c0.5,0.3,0.7,0.9,0.4,1.4C553.7,273.8,553.4,274,553,274z"/>
	</g>
	<g>
		<path class="st0" d="M630,464c-0.2,0-0.3,0-0.4-0.1l-153-77c-0.5-0.2-0.7-0.8-0.4-1.3c0.2-0.5,0.9-0.7,1.3-0.4l153,77
			c0.5,0.2,0.7,0.8,0.4,1.3C630.7,463.8,630.4,464,630,464z"/>
	</g>
	<g>
		<path class="st0" d="M645.7,567.7c-0.1,0-0.2,0-0.3-0.1L576.7,543c-0.5-0.2-0.8-0.8-0.6-1.3c0.2-0.5,0.8-0.8,1.3-0.6l68.7,24.6
			c0.5,0.2,0.8,0.8,0.6,1.3C646.5,567.4,646.1,567.7,645.7,567.7z"/>
	</g>
	<g>
		<path class="st0" d="M117.4,663.9c-0.5,0-0.9-0.3-1-0.8L80.6,490.2c-0.1-0.5,0.2-1.1,0.8-1.2c0.5-0.1,1.1,0.2,1.2,0.8l35.9,172.9
			c0.1,0.5-0.2,1.1-0.8,1.2C117.5,663.9,117.5,663.9,117.4,663.9z"/>
	</g>
	<g>
		<path class="st0" d="M674,730c-0.1,0-0.3,0-0.4-0.1c-0.5-0.2-0.8-0.8-0.5-1.3l18-43c0.2-0.5,0.8-0.8,1.3-0.5
			c0.5,0.2,0.8,0.8,0.5,1.3l-18,43C674.8,729.8,674.4,730,674,730z"/>
	</g>
	<g>
		<path class="st0" d="M691,653c-0.4,0-0.8-0.2-0.9-0.6l-29-73c-0.2-0.5,0-1.1,0.6-1.3c0.5-0.2,1.1,0,1.3,0.6l29,73
			c0.2,0.5,0,1.1-0.6,1.3C691.2,653,691.1,653,691,653z"/>
	</g>
	<g>
		<path class="st0" d="M641,458c-0.5,0-0.9-0.4-1-0.9l-11-78c-0.1-0.5,0.3-1.1,0.9-1.1c0.5-0.1,1.1,0.3,1.1,0.9l11,78
			c0.1,0.5-0.3,1.1-0.9,1.1C641.1,458,641,458,641,458z"/>
	</g>
	<g>
		<path class="st0" d="M634,378c-0.2,0-0.4-0.1-0.6-0.2c-0.4-0.3-0.5-1-0.2-1.4l65-85c0.3-0.4,1-0.5,1.4-0.2c0.4,0.3,0.5,1,0.2,1.4
			l-65,85C634.6,377.9,634.3,378,634,378z"/>
	</g>
	<g>
		<path class="st0" d="M730,356c-0.5,0-0.9-0.3-1-0.8l-14-58c-0.1-0.5,0.2-1.1,0.7-1.2c0.5-0.1,1.1,0.2,1.2,0.7l14,58
			c0.1,0.5-0.2,1.1-0.7,1.2C730.2,356,730.1,356,730,356z"/>
	</g>
	<g>
		<path class="st0" d="M683,197c-0.4,0-0.8-0.3-1-0.7c-0.1-0.5,0.2-1.1,0.7-1.2l46-12.5c0.5-0.1,1.1,0.2,1.2,0.7
			c0.1,0.5-0.2,1.1-0.7,1.2l-46,12.5C683.2,197,683.1,197,683,197z"/>
	</g>
	<g>
		<path class="st0" d="M675,193c-0.4,0-0.8-0.3-1-0.7l-18-59.5c-0.2-0.5,0.1-1.1,0.7-1.2c0.5-0.2,1.1,0.1,1.2,0.7l18,59.5
			c0.2,0.5-0.1,1.1-0.7,1.2C675.2,193,675.1,193,675,193z"/>
	</g>
	<g>
		<path class="st0" d="M633,87c-0.2,0-0.4-0.1-0.6-0.2l-42-28c-0.5-0.3-0.6-0.9-0.3-1.4c0.3-0.5,0.9-0.6,1.4-0.3l42,28
			c0.5,0.3,0.6,0.9,0.3,1.4C633.6,86.8,633.3,87,633,87z"/>
	</g>
</g>
<g id="Layer_3">
	<g>
		<g>
			<g>
				<path class="st1" d="M465.4,723.6c-10.4,0-18.9-8.5-18.9-18.9c0-10.4,8.5-18.9,18.9-18.9c10.4,0,18.9,8.5,18.9,18.9
					C484.3,715.1,475.8,723.6,465.4,723.6z M465.4,688c-9.2,0-16.7,7.5-16.7,16.7c0,9.2,7.5,16.7,16.7,16.7
					c9.2,0,16.7-7.5,16.7-16.7C482.1,695.5,474.6,688,465.4,688z"/>
			</g>
		</g>
	</g>
	<g>
		<g>
			<g>
				<path class="st1" d="M206.5,739.4c-15.9,0-28.8-12.9-28.8-28.8c0-15.9,12.9-28.8,28.8-28.8c15.9,0,28.8,12.9,28.8,28.8
					C235.3,726.5,222.4,739.4,206.5,739.4z M206.5,685.2c-14,0-25.4,11.4-25.4,25.4c0,14,11.4,25.4,25.4,25.4
					c14,0,25.4-11.4,25.4-25.4C231.9,696.6,220.5,685.2,206.5,685.2z"/>
			</g>
		</g>
	</g>
	<g>
		<circle class="st1" cx="415" cy="87" r="8"/>
	</g>
	<g>
		<circle class="st1" cx="630" cy="379" r="8"/>
	</g>
	<g>
		<circle class="st1" cx="61" cy="745" r="8"/>
	</g>
	<g>
		<circle class="st1" cx="407" cy="451" r="8"/>
	</g>
	<g>
		<circle class="st1" cx="47" cy="49" r="8"/>
	</g>
	<g>
		<circle class="st1" cx="259" cy="193" r="8"/>
	</g>
	<g>
		<circle class="st1" cx="103" cy="373" r="8"/>
	</g>
	<g>
		<circle class="st1" cx="753" cy="579" r="8"/>
	</g>
	<g>
		<circle class="st1" cx="728" cy="721" r="8"/>
	</g>
	<g>
		<circle class="st1" cx="675" cy="196" r="8"/>
	</g>
	<g>
		<circle class="st1" cx="764" cy="58" r="8"/>
	</g>
	<g>
		<path class="st1" d="M405,279.5c-6.3,0-11.5-5.2-11.5-11.5s5.2-11.5,11.5-11.5c6.3,0,11.5,5.2,11.5,11.5S411.3,279.5,405,279.5z
			 M405,259.5c-4.7,0-8.5,3.8-8.5,8.5s3.8,8.5,8.5,8.5c4.7,0,8.5-3.8,8.5-8.5S409.7,259.5,405,259.5z"/>
	</g>
	<g>
		<path class="st1" d="M656,581.5c-6.3,0-11.5-5.2-11.5-11.5s5.2-11.5,11.5-11.5c6.3,0,11.5,5.2,11.5,11.5S662.3,581.5,656,581.5z
			 M656,561.5c-4.7,0-8.5,3.8-8.5,8.5s3.8,8.5,8.5,8.5c4.7,0,8.5-3.8,8.5-8.5S660.7,561.5,656,561.5z"/>
	</g>
	<g>
		<path class="st1" d="M169,399.5c-6.3,0-11.5-5.2-11.5-11.5s5.2-11.5,11.5-11.5c6.3,0,11.5,5.2,11.5,11.5S175.3,399.5,169,399.5z
			 M169,379.5c-4.7,0-8.5,3.8-8.5,8.5s3.8,8.5,8.5,8.5s8.5-3.8,8.5-8.5S173.7,379.5,169,379.5z"/>
	</g>
	<g>
		<path class="st1" d="M311,103.5c-6.3,0-11.5-5.2-11.5-11.5s5.2-11.5,11.5-11.5c6.3,0,11.5,5.2,11.5,11.5S317.3,103.5,311,103.5z
			 M311,83.5c-4.7,0-8.5,3.8-8.5,8.5s3.8,8.5,8.5,8.5s8.5-3.8,8.5-8.5S315.7,83.5,311,83.5z"/>
	</g>
	<g>
		<path class="st1" d="M39,271.5c-6.3,0-11.5-5.2-11.5-11.5c0-6.3,5.2-11.5,11.5-11.5s11.5,5.2,11.5,11.5
			C50.5,266.3,45.3,271.5,39,271.5z M39,251.5c-4.7,0-8.5,3.8-8.5,8.5c0,4.7,3.8,8.5,8.5,8.5s8.5-3.8,8.5-8.5
			C47.5,255.3,43.7,251.5,39,251.5z"/>
	</g>
	<g>
		<path class="st1" d="M49,539.5c-6.3,0-11.5-5.2-11.5-11.5s5.2-11.5,11.5-11.5s11.5,5.2,11.5,11.5S55.3,539.5,49,539.5z M49,519.5
			c-4.7,0-8.5,3.8-8.5,8.5s3.8,8.5,8.5,8.5s8.5-3.8,8.5-8.5S53.7,519.5,49,519.5z"/>
	</g>
	<g>
		<path class="st1" d="M369,505.5c-6.3,0-11.5-5.2-11.5-11.5s5.2-11.5,11.5-11.5c6.3,0,11.5,5.2,11.5,11.5S375.3,505.5,369,505.5z
			 M369,485.5c-4.7,0-8.5,3.8-8.5,8.5s3.8,8.5,8.5,8.5s8.5-3.8,8.5-8.5S373.7,485.5,369,485.5z"/>
	</g>
	<g>
		<path class="st1" d="M330,266.5c-6.3,0-11.5-5.2-11.5-11.5c0-6.3,5.2-11.5,11.5-11.5c6.3,0,11.5,5.2,11.5,11.5
			C341.5,261.3,336.3,266.5,330,266.5z M330,246.5c-4.7,0-8.5,3.8-8.5,8.5c0,4.7,3.8,8.5,8.5,8.5s8.5-3.8,8.5-8.5
			C338.5,250.3,334.7,246.5,330,246.5z"/>
	</g>
	<g>
		<path class="st1" d="M119,53.5c-6.3,0-11.5-5.2-11.5-11.5s5.2-11.5,11.5-11.5c6.3,0,11.5,5.2,11.5,11.5S125.3,53.5,119,53.5z
			 M119,33.5c-4.7,0-8.5,3.8-8.5,8.5s3.8,8.5,8.5,8.5s8.5-3.8,8.5-8.5S123.7,33.5,119,33.5z"/>
	</g>
	<g>
		<path class="st1" d="M764,471.5c-6.3,0-11.5-5.2-11.5-11.5s5.2-11.5,11.5-11.5c6.3,0,11.5,5.2,11.5,11.5S770.3,471.5,764,471.5z
			 M764,451.5c-4.7,0-8.5,3.8-8.5,8.5s3.8,8.5,8.5,8.5c4.7,0,8.5-3.8,8.5-8.5S768.7,451.5,764,451.5z"/>
	</g>
	<g>
		<path class="st1" d="M759,267.5c-6.3,0-11.5-5.2-11.5-11.5c0-6.3,5.2-11.5,11.5-11.5c6.3,0,11.5,5.2,11.5,11.5
			C770.5,262.3,765.3,267.5,759,267.5z M759,247.5c-4.7,0-8.5,3.8-8.5,8.5c0,4.7,3.8,8.5,8.5,8.5c4.7,0,8.5-3.8,8.5-8.5
			C767.5,251.3,763.7,247.5,759,247.5z"/>
	</g>
	<g>
		<path class="st1" d="M57,180.5c-6.3,0-11.5-5.2-11.5-11.5s5.2-11.5,11.5-11.5s11.5,5.2,11.5,11.5S63.3,180.5,57,180.5z M57,160.5
			c-4.7,0-8.5,3.8-8.5,8.5s3.8,8.5,8.5,8.5s8.5-3.8,8.5-8.5S61.7,160.5,57,160.5z"/>
	</g>
	<g>
		<path class="st1" d="M478,56.5c-6.3,0-11.5-5.2-11.5-11.5s5.2-11.5,11.5-11.5c6.3,0,11.5,5.2,11.5,11.5S484.3,56.5,478,56.5z
			 M478,36.5c-4.7,0-8.5,3.8-8.5,8.5s3.8,8.5,8.5,8.5c4.7,0,8.5-3.8,8.5-8.5S482.7,36.5,478,36.5z"/>
	</g>
	<g>
		<path class="st1" d="M525,755.5c-6.3,0-11.5-5.2-11.5-11.5s5.2-11.5,11.5-11.5c6.3,0,11.5,5.2,11.5,11.5S531.3,755.5,525,755.5z
			 M525,735.5c-4.7,0-8.5,3.8-8.5,8.5s3.8,8.5,8.5,8.5c4.7,0,8.5-3.8,8.5-8.5S529.7,735.5,525,735.5z"/>
	</g>
	<g>
		<path class="st1" d="M323,704.5c-6.3,0-11.5-5.2-11.5-11.5s5.2-11.5,11.5-11.5c6.3,0,11.5,5.2,11.5,11.5S329.3,704.5,323,704.5z
			 M323,684.5c-4.7,0-8.5,3.8-8.5,8.5s3.8,8.5,8.5,8.5s8.5-3.8,8.5-8.5S327.7,684.5,323,684.5z"/>
	</g>
	<g>
		<path class="st1" d="M70,636.5c-6.3,0-11.5-5.2-11.5-11.5s5.2-11.5,11.5-11.5s11.5,5.2,11.5,11.5S76.3,636.5,70,636.5z M70,616.5
			c-4.7,0-8.5,3.8-8.5,8.5s3.8,8.5,8.5,8.5s8.5-3.8,8.5-8.5S74.7,616.5,70,616.5z"/>
	</g>
	<g>
		<path class="st1" d="M241,43.5c-6.3,0-11.5-5.2-11.5-11.5s5.2-11.5,11.5-11.5c6.3,0,11.5,5.2,11.5,11.5S247.3,43.5,241,43.5z
			 M241,23.5c-4.7,0-8.5,3.8-8.5,8.5s3.8,8.5,8.5,8.5s8.5-3.8,8.5-8.5S245.7,23.5,241,23.5z"/>
	</g>
	<g>
		<path class="st1" d="M702,52.5c-6.3,0-11.5-5.2-11.5-11.5s5.2-11.5,11.5-11.5c6.3,0,11.5,5.2,11.5,11.5S708.3,52.5,702,52.5z
			 M702,32.5c-4.7,0-8.5,3.8-8.5,8.5s3.8,8.5,8.5,8.5c4.7,0,8.5-3.8,8.5-8.5S706.7,32.5,702,32.5z"/>
	</g>
	<g>
		<path class="st1" d="M601,204.5c-6.3,0-11.5-5.2-11.5-11.5s5.2-11.5,11.5-11.5c6.3,0,11.5,5.2,11.5,11.5S607.3,204.5,601,204.5z
			 M601,184.5c-4.7,0-8.5,3.8-8.5,8.5s3.8,8.5,8.5,8.5c4.7,0,8.5-3.8,8.5-8.5S605.7,184.5,601,184.5z"/>
	</g>
	<g>
		<path class="st1" d="M735,376.5c-6.3,0-11.5-5.2-11.5-11.5s5.2-11.5,11.5-11.5c6.3,0,11.5,5.2,11.5,11.5S741.3,376.5,735,376.5z
			 M735,356.5c-4.7,0-8.5,3.8-8.5,8.5s3.8,8.5,8.5,8.5c4.7,0,8.5-3.8,8.5-8.5S739.7,356.5,735,356.5z"/>
	</g>
	<g>
		<g>
			<g>
				<path class="st1" d="M299.9,427.7c-29.8,0-54-24.2-54-54c0-29.8,24.2-54,54-54c29.8,0,54,24.2,54,54
					C353.9,403.5,329.6,427.7,299.9,427.7z M299.9,326.1c-26.3,0-47.6,21.4-47.6,47.6c0,26.3,21.4,47.6,47.6,47.6
					c26.3,0,47.6-21.4,47.6-47.6C347.5,347.4,326.1,326.1,299.9,326.1z"/>
			</g>
		</g>
	</g>
	<g>
		<g>
			<g>
				<path class="st1" d="M527,580.9c-29.8,0-54-24.2-54-54s24.2-54,54-54c29.8,0,54,24.2,54,54S556.8,580.9,527,580.9z M527,479.2
					c-26.3,0-47.6,21.4-47.6,47.6c0,26.3,21.4,47.6,47.6,47.6c26.3,0,47.6-21.4,47.6-47.6C574.6,500.6,553.3,479.2,527,479.2z"/>
			</g>
		</g>
	</g>
	<g>
		<g>
			<g>
				<path class="st1" d="M309.5,641.5c-22.6,0-41-18.4-41-41s18.4-41,41-41c22.6,0,41,18.4,41,41S332.1,641.5,309.5,641.5z
					 M309.5,564.3c-19.9,0-36.2,16.2-36.2,36.2c0,19.9,16.2,36.2,36.2,36.2c19.9,0,36.2-16.2,36.2-36.2
					C345.7,580.6,329.4,564.3,309.5,564.3z"/>
			</g>
		</g>
	</g>
	<g>
		<g>
			<g>
				<path class="st1" d="M149.5,281.5c-22.6,0-41-18.4-41-41c0-22.6,18.4-41,41-41c22.6,0,41,18.4,41,41
					C190.5,263.1,172.1,281.5,149.5,281.5z M149.5,204.3c-19.9,0-36.2,16.2-36.2,36.2s16.2,36.2,36.2,36.2s36.2-16.2,36.2-36.2
					S169.4,204.3,149.5,204.3z"/>
			</g>
		</g>
	</g>
	<g>
		<g>
			<g>
				<path class="st1" d="M503.5,182.5c-22.6,0-41-18.4-41-41c0-22.6,18.4-41,41-41c22.6,0,41,18.4,41,41
					C544.5,164.1,526.1,182.5,503.5,182.5z M503.5,105.3c-19.9,0-36.2,16.2-36.2,36.2s16.2,36.2,36.2,36.2
					c19.9,0,36.2-16.2,36.2-36.2S523.4,105.3,503.5,105.3z"/>
			</g>
		</g>
	</g>
	<g>
		<g>
			<g>
				<path class="st1" d="M588.5,333.5c-22.6,0-41-18.4-41-41c0-22.6,18.4-41,41-41c22.6,0,41,18.4,41,41
					C629.5,315.1,611.1,333.5,588.5,333.5z M588.5,256.3c-19.9,0-36.2,16.2-36.2,36.2s16.2,36.2,36.2,36.2
					c19.9,0,36.2-16.2,36.2-36.2S608.4,256.3,588.5,256.3z"/>
			</g>
		</g>
	</g>
	<g>
		<g>
			<g>
				<path class="st1" d="M450,405.5c-16.3,0-29.5-13.2-29.5-29.5c0-16.3,13.2-29.5,29.5-29.5s29.5,13.2,29.5,29.5
					C479.5,392.3,466.3,405.5,450,405.5z M450,350c-14.4,0-26,11.7-26,26s11.7,26,26,26c14.4,0,26-11.7,26-26S464.4,350,450,350z"/>
			</g>
		</g>
	</g>
	<g>
		<g>
			<g>
				<path class="st1" d="M657,132.5c-16.3,0-29.5-13.2-29.5-29.5c0-16.3,13.2-29.5,29.5-29.5s29.5,13.2,29.5,29.5
					C686.5,119.3,673.3,132.5,657,132.5z M657,77c-14.4,0-26,11.7-26,26s11.7,26,26,26c14.4,0,26-11.7,26-26S671.4,77,657,77z"/>
			</g>
		</g>
	</g>
	<g>
		<g>
			<g>
				<path class="st1" d="M234,140.5c-16.3,0-29.5-13.2-29.5-29.5c0-16.3,13.2-29.5,29.5-29.5c16.3,0,29.5,13.2,29.5,29.5
					C263.5,127.3,250.3,140.5,234,140.5z M234,85c-14.4,0-26,11.7-26,26s11.7,26,26,26c14.4,0,26-11.7,26-26S248.4,85,234,85z"/>
			</g>
		</g>
	</g>
	<g>
		<g>
			<g>
				<path class="st1" d="M182,567.5c-16.3,0-29.5-13.2-29.5-29.5s13.2-29.5,29.5-29.5c16.3,0,29.5,13.2,29.5,29.5
					S198.3,567.5,182,567.5z M182,512c-14.4,0-26,11.7-26,26s11.7,26,26,26c14.4,0,26-11.7,26-26S196.4,512,182,512z"/>
			</g>
		</g>
	</g>
	<g>
		<g>
			<g>
				<path class="st1" d="M580,713.5c-16.3,0-29.5-13.2-29.5-29.5s13.2-29.5,29.5-29.5s29.5,13.2,29.5,29.5S596.3,713.5,580,713.5z
					 M580,658c-14.4,0-26,11.7-26,26s11.7,26,26,26c14.4,0,26-11.7,26-26S594.4,658,580,658z"/>
			</g>
		</g>
	</g>
	<g>
		<g>
			<g>
				<path class="st1" d="M667,763.5c-10.2,0-18.5-8.3-18.5-18.5s8.3-18.5,18.5-18.5c10.2,0,18.5,8.3,18.5,18.5
					S677.2,763.5,667,763.5z M667,728.7c-9,0-16.3,7.3-16.3,16.3s7.3,16.3,16.3,16.3s16.3-7.3,16.3-16.3S676,728.7,667,728.7z"/>
			</g>
		</g>
	</g>
	<g>
		<g>
			<g>
				<path class="st1" d="M700,687.5c-10.2,0-18.5-8.3-18.5-18.5s8.3-18.5,18.5-18.5c10.2,0,18.5,8.3,18.5,18.5
					S710.2,687.5,700,687.5z M700,652.7c-9,0-16.3,7.3-16.3,16.3s7.3,16.3,16.3,16.3s16.3-7.3,16.3-16.3S709,652.7,700,652.7z"/>
			</g>
		</g>
	</g>
	<g>
		<g>
			<g>
				<path class="st1" d="M118,699.5c-10.2,0-18.5-8.3-18.5-18.5s8.3-18.5,18.5-18.5c10.2,0,18.5,8.3,18.5,18.5
					S128.2,699.5,118,699.5z M118,664.7c-9,0-16.3,7.3-16.3,16.3s7.3,16.3,16.3,16.3s16.3-7.3,16.3-16.3S127,664.7,118,664.7z"/>
			</g>
		</g>
	</g>
	<g>
		<g>
			<g>
				<path class="st1" d="M68.5,332c-10.2,0-18.5-8.3-18.5-18.5c0-10.2,8.3-18.5,18.5-18.5c10.2,0,18.5,8.3,18.5,18.5
					C87,323.7,78.7,332,68.5,332z M68.5,297.2c-9,0-16.3,7.3-16.3,16.3c0,9,7.3,16.3,16.3,16.3c9,0,16.3-7.3,16.3-16.3
					C84.9,304.5,77.5,297.2,68.5,297.2z"/>
			</g>
		</g>
	</g>
	<g>
		<g>
			<g>
				<path class="st1" d="M81.5,490c-10.2,0-18.5-8.3-18.5-18.5c0-10.2,8.3-18.5,18.5-18.5c10.2,0,18.5,8.3,18.5,18.5
					C100,481.7,91.7,490,81.5,490z M81.5,455.2c-9,0-16.3,7.3-16.3,16.3c0,9,7.3,16.3,16.3,16.3c9,0,16.3-7.3,16.3-16.3
					C97.9,462.5,90.5,455.2,81.5,455.2z"/>
			</g>
		</g>
	</g>
	<g>
		<g>
			<g>
				<path class="st1" d="M99,105.5c-10.2,0-18.5-8.3-18.5-18.5c0-10.2,8.3-18.5,18.5-18.5c10.2,0,18.5,8.3,18.5,18.5
					C117.5,97.2,109.2,105.5,99,105.5z M99,70.7c-9,0-16.3,7.3-16.3,16.3S90,103.3,99,103.3S115.3,96,115.3,87S108,70.7,99,70.7z"/>
			</g>
		</g>
	</g>
	<g>
		<g>
			<g>
				<path class="st1" d="M383,198.5c-10.2,0-18.5-8.3-18.5-18.5c0-10.2,8.3-18.5,18.5-18.5c10.2,0,18.5,8.3,18.5,18.5
					C401.5,190.2,393.2,198.5,383,198.5z M383,163.7c-9,0-16.3,7.3-16.3,16.3s7.3,16.3,16.3,16.3s16.3-7.3,16.3-16.3
					S392,163.7,383,163.7z"/>
			</g>
		</g>
	</g>
	<g>
		<g>
			<g>
				<path class="st1" d="M644,493.5c-10.2,0-18.5-8.3-18.5-18.5s8.3-18.5,18.5-18.5c10.2,0,18.5,8.3,18.5,18.5
					S654.2,493.5,644,493.5z M644,458.7c-9,0-16.3,7.3-16.3,16.3s7.3,16.3,16.3,16.3s16.3-7.3,16.3-16.3S653,458.7,644,458.7z"/>
			</g>
		</g>
	</g>
	<g>
		<g>
			<g>
				<path class="st1" d="M747.5,202c-10.2,0-18.5-8.3-18.5-18.5c0-10.2,8.3-18.5,18.5-18.5c10.2,0,18.5,8.3,18.5,18.5
					C766,193.7,757.7,202,747.5,202z M747.5,167.2c-9,0-16.3,7.3-16.3,16.3c0,9,7.3,16.3,16.3,16.3c9,0,16.3-7.3,16.3-16.3
					C763.9,174.5,756.5,167.2,747.5,167.2z"/>
			</g>
		</g>
	</g>
	<g>
		<g>
			<g>
				<path class="st1" d="M435.5,624c-10.2,0-18.5-8.3-18.5-18.5c0-10.2,8.3-18.5,18.5-18.5c10.2,0,18.5,8.3,18.5,18.5
					C454,615.7,445.7,624,435.5,624z M435.5,589.2c-9,0-16.3,7.3-16.3,16.3c0,9,7.3,16.3,16.3,16.3c9,0,16.3-7.3,16.3-16.3
					C451.9,596.5,444.5,589.2,435.5,589.2z"/>
			</g>
		</g>
	</g>
	<g>
		<g>
			<g>
				<path class="st1" d="M737.5,536c-10.2,0-18.5-8.3-18.5-18.5c0-10.2,8.3-18.5,18.5-18.5c10.2,0,18.5,8.3,18.5,18.5
					C756,527.7,747.7,536,737.5,536z M737.5,501.2c-9,0-16.3,7.3-16.3,16.3c0,9,7.3,16.3,16.3,16.3c9,0,16.3-7.3,16.3-16.3
					C753.9,508.5,746.5,501.2,737.5,501.2z"/>
			</g>
		</g>
	</g>
	<g>
		<g>
			<g>
				<path class="st1" d="M711,296.5c-10.2,0-18.5-8.3-18.5-18.5c0-10.2,8.3-18.5,18.5-18.5c10.2,0,18.5,8.3,18.5,18.5
					C729.5,288.2,721.2,296.5,711,296.5z M711,261.7c-9,0-16.3,7.3-16.3,16.3s7.3,16.3,16.3,16.3s16.3-7.3,16.3-16.3
					S720,261.7,711,261.7z"/>
			</g>
		</g>
	</g>
	<g>
		<g>
			<g>
				<path class="st1" d="M573.8,72.7c-10.2,0-18.5-8.3-18.5-18.5c0-10.2,8.3-18.5,18.5-18.5c10.2,0,18.5,8.3,18.5,18.5
					C592.3,64.4,584,72.7,573.8,72.7z M573.8,37.8c-9,0-16.3,7.3-16.3,16.3c0,9,7.3,16.3,16.3,16.3c9,0,16.3-7.3,16.3-16.3
					C590.1,45.2,582.8,37.8,573.8,37.8z"/>
			</g>
		</g>
	</g>
</g>
<g id="Layer_2">
	<g>
		<path class="st0" d="M214.1,702.7c0-4.2-3.4-7.7-7.7-7.7c-4.2,0-7.7,3.4-7.7,7.7c0,4.2,3.4,7.7,7.7,7.7
			C210.7,710.3,214.1,706.9,214.1,702.7z M200.7,702.8c0,0-0.2-2.2,1.3-3.8c1.1,1.1,4.4,3.8,10.1,3.8c0,3.2-2.6,5.7-5.7,5.7
			C203.3,708.6,200.7,706,200.7,702.8z"/>
		<path class="st0" d="M193.3,716.2v3.4v4.4c0,1.2,1,2.2,2.2,2.2h21.9c1.2,0,2.2-1,2.2-2.2v-4.4v-3.4c0-2.4-2-4.4-4.4-4.4h-3.9
			c-0.3,0-0.6,0.2-0.8,0.4l-3.8,5.4c-0.2,0.2-0.4,0.2-0.6,0l-3.8-5.4c-0.2-0.2-0.5-0.4-0.8-0.4h-3.9
			C195.3,711.8,193.3,713.8,193.3,716.2z"/>
	</g>
	<g>
		<path class="st0" d="M299.9,344.3c-8.1,0-14.7,6.6-14.7,14.7v4.7c-0.1,1.5-0.6,5.1-3,4.8c-3-0.3,0.8,5.1,6.6,5.2c0,0,0,0,0,0h22.1
			c5.9,0,9.7-5.5,6.7-5.2c-3,0.3-3-5.5-3-5.5v-4C314.6,350.9,308,344.3,299.9,344.3z M299.9,347.6c5.1,0,9.9,3.5,9.9,7.9
			c0,0.2,0,0.4,0,0.6c0,0.3-0.1,0.2-0.3-0.3c-1.2-3.3-5.3-5.8-9.5-5.8c-4.3,0-8.6,2.5-9.8,5.8c-0.2,0.5-0.3,0.6-0.3,0.3
			c0-0.2,0-0.4,0-0.6C289.7,351.1,294.8,347.6,299.9,347.6z M299.9,370c-6.1,0-11-4.6-11-10.7c0,0,4.9-4.3,11.1-4.3
			c6.3,0,10.9,4.3,10.9,4.3C310.9,365.4,306,370,299.9,370z"/>
		<path class="st0" d="M277.8,384.8v14.7c0,2,1.6,3.7,3.7,3.7h3.7h29.4h3.7c2,0,3.7-1.6,3.7-3.7v-14.7c0-4.1-3.3-7.4-7.4-7.4h-3.4
			c-0.5,0-1.3,0.2-1.7,0.5l-3.8,2.6c-0.4,0.3-0.9,0.9-1,1.4l-4.4,14.8c-0.1,0.5-0.4,0.5-0.5,0l-4.6-14.6c-0.2-0.5-0.6-1.1-1.1-1.4
			l-4.2-2.8c-0.4-0.3-1.2-0.5-1.7-0.5h-3.1C281.1,377.4,277.8,380.7,277.8,384.8z M294.1,391.5c0.9,0,1.6,0.7,1.6,1.6
			c0,0.9-0.7,1.6-1.6,1.6s-1.6-0.7-1.6-1.6C292.6,392.2,293.3,391.5,294.1,391.5z M294.1,397.1c0.9,0,1.6,0.7,1.6,1.6
			s-0.7,1.6-1.6,1.6s-1.6-0.7-1.6-1.6S293.3,397.1,294.1,397.1z"/>
	</g>
	<g>
		<path class="st0" d="M68.5,302.7c-2.8,0-5.2,2.3-5.2,5.2v1.7c0,0.5-0.2,1.8-1,1.7c-1-0.1,0.3,1.8,2.3,1.8c0,0,0,0,0,0h7.7
			c2,0,3.4-1.9,2.3-1.8c-1.1,0.1-1.1-1.9-1.1-1.9v-1.4C73.7,305,71.4,302.7,68.5,302.7z M68.5,303.9c1.8,0,3.5,1.2,3.5,2.8
			c0,0.1,0,0.1,0,0.2c0,0.1-0.1,0.1-0.1-0.1c-0.4-1.2-1.8-2-3.3-2c-1.5,0-3,0.9-3.4,2c-0.1,0.2-0.1,0.2-0.1,0.1c0-0.1,0-0.1,0-0.2
			C65,305.1,66.7,303.9,68.5,303.9z M68.5,311.8c-2.1,0-3.9-1.6-3.9-3.8c0,0,1.7-1.5,3.9-1.5c2.2,0,3.8,1.5,3.8,1.5
			C72.4,310.1,70.7,311.8,68.5,311.8z"/>
		<path class="st0" d="M60.8,316.9v5.2c0,0.7,0.6,1.3,1.3,1.3h1.3h10.3H75c0.7,0,1.3-0.6,1.3-1.3v-5.2c0-1.4-1.2-2.6-2.6-2.6h-1.2
			c-0.2,0-0.4,0.1-0.6,0.2l-1.3,0.9c-0.1,0.1-0.3,0.3-0.4,0.5l-1.5,5.2c-0.1,0.2-0.1,0.2-0.2,0l-1.6-5.1c-0.1-0.2-0.2-0.4-0.4-0.5
			l-1.5-1c-0.1-0.1-0.4-0.2-0.6-0.2h-1.1C62,314.3,60.8,315.5,60.8,316.9z M66.5,319.3c0.3,0,0.5,0.2,0.5,0.5c0,0.3-0.2,0.5-0.5,0.5
			c-0.3,0-0.5-0.2-0.5-0.5C66,319.5,66.2,319.3,66.5,319.3z M66.5,321.2c0.3,0,0.5,0.2,0.5,0.5c0,0.3-0.2,0.5-0.5,0.5
			c-0.3,0-0.5-0.2-0.5-0.5C66,321.5,66.2,321.2,66.5,321.2z"/>
	</g>
	<g>
		<path class="st0" d="M588.5,268.7c-6.2,0-11.2,5-11.2,11.2v3.6c-0.1,1.2-0.5,3.8-2.3,3.7c-2.3-0.2,0.6,3.9,5,3.9c0,0,0,0,0,0h16.8
			c4.4,0,7.4-4.2,5.1-3.9c-2.3,0.2-2.3-4.2-2.3-4.2v-3.1C599.7,273.7,594.7,268.7,588.5,268.7z M588.5,271.2c3.9,0,7.5,2.7,7.5,6
			c0,0.2,0,0.3,0,0.5c0,0.3-0.1,0.1-0.2-0.2c-0.9-2.5-4-4.4-7.2-4.4c-3.2,0-6.5,1.9-7.5,4.4c-0.1,0.4-0.2,0.5-0.2,0.2
			c0-0.2,0-0.3,0-0.5C580.8,273.8,584.6,271.2,588.5,271.2z M588.5,288.2c-4.6,0-8.4-3.5-8.4-8.1c0,0,3.7-3.3,8.5-3.3
			c4.8,0,8.3,3.3,8.3,3.3C596.9,284.7,593.1,288.2,588.5,288.2z"/>
		<path class="st0" d="M571.7,299.4v11.2c0,1.5,1.2,2.8,2.8,2.8h2.8h22.3h2.8c1.5,0,2.8-1.2,2.8-2.8v-11.2c0-3.1-2.5-5.6-5.6-5.6
			h-2.6c-0.4,0-1,0.2-1.3,0.4l-2.9,1.9c-0.3,0.2-0.7,0.7-0.8,1.1l-3.3,11.3c-0.1,0.4-0.3,0.4-0.4,0l-3.5-11.1
			c-0.1-0.4-0.5-0.9-0.8-1.1l-3.2-2.2c-0.3-0.2-0.9-0.4-1.3-0.4h-2.3C574.2,293.8,571.7,296.3,571.7,299.4z M584.1,304.5
			c0.7,0,1.2,0.5,1.2,1.2c0,0.7-0.5,1.2-1.2,1.2c-0.7,0-1.2-0.5-1.2-1.2C583,305.1,583.5,304.5,584.1,304.5z M584.1,308.8
			c0.7,0,1.2,0.5,1.2,1.2c0,0.7-0.5,1.2-1.2,1.2c-0.7,0-1.2-0.5-1.2-1.2C583,309.3,583.5,308.8,584.1,308.8z"/>
	</g>
	<g>
		<path class="st0" d="M657,85.6c-4.8,0-8.7,3.9-8.7,8.7v2.8c-0.1,0.9-0.4,3-1.8,2.8c-1.8-0.2,0.5,3,3.9,3.1c0,0,0,0,0,0h13
			c3.5,0,5.7-3.2,4-3.1c-1.8,0.2-1.8-3.2-1.8-3.2v-2.4C665.7,89.5,661.8,85.6,657,85.6z M657,87.6c3,0,5.8,2.1,5.8,4.7
			c0,0.1,0,0.2,0,0.4c0,0.2-0.1,0.1-0.2-0.2c-0.7-2-3.1-3.4-5.6-3.4c-2.5,0-5.1,1.5-5.8,3.4c-0.1,0.3-0.2,0.4-0.2,0.2
			c0-0.1,0-0.2,0-0.4C651,89.6,654,87.6,657,87.6z M657,100.8c-3.6,0-6.5-2.7-6.5-6.3c0,0,2.9-2.5,6.6-2.5c3.7,0,6.5,2.5,6.5,2.5
			C663.5,98.1,660.6,100.8,657,100.8z"/>
		<path class="st0" d="M644,109.5v8.7c0,1.2,1,2.2,2.2,2.2h2.2h17.4h2.2c1.2,0,2.2-1,2.2-2.2v-8.7c0-2.4-1.9-4.3-4.3-4.3h-2
			c-0.3,0-0.8,0.1-1,0.3l-2.2,1.5c-0.3,0.2-0.5,0.5-0.6,0.8l-2.6,8.8c-0.1,0.3-0.2,0.3-0.3,0l-2.7-8.6c-0.1-0.3-0.4-0.7-0.6-0.8
			l-2.5-1.7c-0.3-0.2-0.7-0.3-1-0.3h-1.8C645.9,105.2,644,107.1,644,109.5z M653.6,113.5c0.5,0,0.9,0.4,0.9,0.9
			c0,0.5-0.4,0.9-0.9,0.9c-0.5,0-0.9-0.4-0.9-0.9C652.7,113.9,653.1,113.5,653.6,113.5z M653.6,116.8c0.5,0,0.9,0.4,0.9,0.9
			c0,0.5-0.4,0.9-0.9,0.9c-0.5,0-0.9-0.4-0.9-0.9C652.7,117.2,653.1,116.8,653.6,116.8z"/>
	</g>
	<g>
		<path class="st0" d="M573.7,43.1c-2.8,0-5.1,2.3-5.1,5.1v1.6c0,0.5-0.2,1.8-1,1.7c-1-0.1,0.3,1.8,2.3,1.8c0,0,0,0,0,0h7.7
			c2,0,3.4-1.9,2.3-1.8c-1,0.1-1-1.9-1-1.9v-1.4C578.9,45.4,576.6,43.1,573.7,43.1z M573.7,44.3c1.8,0,3.4,1.2,3.4,2.8
			c0,0.1,0,0.1,0,0.2c0,0.1-0.1,0.1-0.1-0.1c-0.4-1.2-1.8-2-3.3-2c-1.5,0-3,0.9-3.4,2c-0.1,0.2-0.1,0.2-0.1,0.1c0-0.1,0-0.1,0-0.2
			C570.2,45.5,572,44.3,573.7,44.3z M573.7,52.1c-2.1,0-3.8-1.6-3.8-3.7c0,0,1.7-1.5,3.9-1.5c2.2,0,3.8,1.5,3.8,1.5
			C577.6,50.5,575.9,52.1,573.7,52.1z"/>
		<path class="st0" d="M566,57.2v5.1c0,0.7,0.6,1.3,1.3,1.3h1.3h10.2h1.3c0.7,0,1.3-0.6,1.3-1.3v-5.1c0-1.4-1.1-2.6-2.6-2.6h-1.2
			c-0.2,0-0.4,0.1-0.6,0.2l-1.3,0.9c-0.1,0.1-0.3,0.3-0.4,0.5l-1.5,5.2c0,0.2-0.1,0.2-0.2,0l-1.6-5.1c-0.1-0.2-0.2-0.4-0.4-0.5
			l-1.5-1c-0.1-0.1-0.4-0.2-0.6-0.2h-1.1C567.2,54.6,566,55.8,566,57.2z M571.7,59.6c0.3,0,0.5,0.2,0.5,0.5c0,0.3-0.2,0.5-0.5,0.5
			c-0.3,0-0.5-0.2-0.5-0.5C571.2,59.8,571.4,59.6,571.7,59.6z M571.7,61.5c0.3,0,0.5,0.2,0.5,0.5c0,0.3-0.2,0.5-0.5,0.5
			c-0.3,0-0.5-0.2-0.5-0.5C571.2,61.8,571.4,61.5,571.7,61.5z"/>
	</g>
	<g>
		<path class="st0" d="M234,95.3c-4.3,0-7.9,3.5-7.9,7.9v2.5c-0.1,0.8-0.3,2.7-1.6,2.6c-1.6-0.2,0.4,2.7,3.5,2.8c0,0,0,0,0,0h11.8
			c3.1,0,5.2-2.9,3.6-2.8c-1.6,0.2-1.6-2.9-1.6-2.9v-2.2C241.9,98.8,238.3,95.3,234,95.3z M234,97.1c2.7,0,5.3,1.9,5.3,4.2
			c0,0.1,0,0.2,0,0.3c0,0.2-0.1,0.1-0.2-0.2c-0.6-1.8-2.8-3.1-5.1-3.1s-4.6,1.3-5.2,3.1c-0.1,0.3-0.2,0.3-0.2,0.2c0-0.1,0-0.2,0-0.3
			C228.6,98.9,231.3,97.1,234,97.1z M234,109c-3.3,0-5.9-2.5-5.9-5.7c0,0,2.6-2.3,5.9-2.3c3.4,0,5.8,2.3,5.8,2.3
			C239.9,106.6,237.3,109,234,109z"/>
		<path class="st0" d="M222.2,116.9v7.9c0,1.1,0.9,2,2,2h2h15.7h2c1.1,0,2-0.9,2-2v-7.9c0-2.2-1.8-3.9-3.9-3.9h-1.8
			c-0.3,0-0.7,0.1-0.9,0.3l-2,1.4c-0.2,0.2-0.5,0.5-0.6,0.8l-2.3,7.9c-0.1,0.3-0.2,0.3-0.3,0l-2.5-7.8c-0.1-0.3-0.3-0.6-0.6-0.8
			l-2.3-1.5c-0.2-0.2-0.6-0.3-0.9-0.3h-1.6C224,113,222.2,114.7,222.2,116.9z M230.9,120.5c0.5,0,0.8,0.4,0.8,0.8
			c0,0.5-0.4,0.8-0.8,0.8c-0.5,0-0.8-0.4-0.8-0.8C230.1,120.9,230.5,120.5,230.9,120.5z M230.9,123.5c0.5,0,0.8,0.4,0.8,0.8
			c0,0.5-0.4,0.8-0.8,0.8c-0.5,0-0.8-0.4-0.8-0.8C230.1,123.9,230.5,123.5,230.9,123.5z"/>
	</g>
	<g>
		<path class="st0" d="M99,76.2c-2.9,0-5.3,2.4-5.3,5.3v1.7c0,0.6-0.2,1.8-1.1,1.7c-1.1-0.1,0.3,1.9,2.4,1.9c0,0,0,0,0,0h8
			c2.1,0,3.5-2,2.4-1.9c-1.1,0.1-1.1-2-1.1-2v-1.5C104.3,78.6,101.9,76.2,99,76.2z M99,77.4c1.8,0,3.6,1.3,3.6,2.9
			c0,0.1,0,0.1,0,0.2c0,0.1-0.1,0.1-0.1-0.1c-0.4-1.2-1.9-2.1-3.4-2.1c-1.5,0-3.1,0.9-3.6,2.1c-0.1,0.2-0.1,0.2-0.1,0.1
			c0-0.1,0-0.1,0-0.2C95.3,78.7,97.2,77.4,99,77.4z M99,85.5c-2.2,0-4-1.7-4-3.9c0,0,1.8-1.6,4-1.6c2.3,0,4,1.6,4,1.6
			C103,83.8,101.2,85.5,99,85.5z"/>
		<path class="st0" d="M91,90.8v5.3c0,0.7,0.6,1.3,1.3,1.3h1.3h10.6h1.3c0.7,0,1.3-0.6,1.3-1.3v-5.3c0-1.5-1.2-2.7-2.7-2.7h-1.2
			c-0.2,0-0.5,0.1-0.6,0.2l-1.4,0.9c-0.2,0.1-0.3,0.3-0.4,0.5l-1.6,5.4c-0.1,0.2-0.1,0.2-0.2,0l-1.7-5.3c-0.1-0.2-0.2-0.4-0.4-0.5
			l-1.5-1c-0.2-0.1-0.4-0.2-0.6-0.2h-1.1C92.2,88.2,91,89.4,91,90.8z M96.9,93.3c0.3,0,0.6,0.3,0.6,0.6c0,0.3-0.3,0.6-0.6,0.6
			c-0.3,0-0.6-0.3-0.6-0.6C96.4,93.5,96.6,93.3,96.9,93.3z M96.9,95.3c0.3,0,0.6,0.3,0.6,0.6c0,0.3-0.3,0.6-0.6,0.6
			c-0.3,0-0.6-0.3-0.6-0.6C96.4,95.6,96.6,95.3,96.9,95.3z"/>
	</g>
	<g>
		<path class="st0" d="M435.3,593.8c-3,0-5.5,2.5-5.5,5.5v1.8c0,0.6-0.2,1.9-1.1,1.8c-1.1-0.1,0.3,1.9,2.5,1.9c0,0,0,0,0,0h8.2
			c2.2,0,3.6-2,2.5-1.9c-1.1,0.1-1.1-2-1.1-2v-1.5C440.8,596.2,438.3,593.8,435.3,593.8z M435.3,595c1.9,0,3.7,1.3,3.7,2.9
			c0,0.1,0,0.2,0,0.2c0,0.1-0.1,0.1-0.1-0.1c-0.4-1.2-2-2.2-3.5-2.2c-1.6,0-3.2,0.9-3.7,2.2c-0.1,0.2-0.1,0.2-0.1,0.1
			c0-0.1,0-0.2,0-0.2C431.5,596.3,433.4,595,435.3,595z M435.3,603.4c-2.3,0-4.1-1.7-4.1-4c0,0,1.8-1.6,4.2-1.6
			c2.4,0,4.1,1.6,4.1,1.6C439.4,601.6,437.5,603.4,435.3,603.4z"/>
		<path class="st0" d="M427.1,608.8v5.5c0,0.8,0.6,1.4,1.4,1.4h1.4h11h1.4c0.8,0,1.4-0.6,1.4-1.4v-5.5c0-1.5-1.2-2.7-2.7-2.7h-1.3
			c-0.2,0-0.5,0.1-0.6,0.2l-1.4,1c-0.2,0.1-0.3,0.3-0.4,0.5l-1.6,5.5c-0.1,0.2-0.1,0.2-0.2,0l-1.7-5.4c-0.1-0.2-0.2-0.4-0.4-0.5
			l-1.6-1.1c-0.2-0.1-0.4-0.2-0.6-0.2h-1.1C428.3,606.1,427.1,607.3,427.1,608.8z M433.1,611.4c0.3,0,0.6,0.3,0.6,0.6
			c0,0.3-0.3,0.6-0.6,0.6c-0.3,0-0.6-0.3-0.6-0.6C432.6,611.6,432.8,611.4,433.1,611.4z M433.1,613.5c0.3,0,0.6,0.3,0.6,0.6
			s-0.3,0.6-0.6,0.6c-0.3,0-0.6-0.3-0.6-0.6S432.8,613.5,433.1,613.5z"/>
	</g>
	<g>
		<path class="st0" d="M369,488.3c-1.4,0-2.6,1.2-2.6,2.6v0.8c0,0.3-0.1,0.9-0.5,0.9c-0.5-0.1,0.1,0.9,1.2,0.9c0,0,0,0,0,0h3.9
			c1,0,1.7-1,1.2-0.9c-0.5,0.1-0.5-1-0.5-1V491C371.6,489.5,370.4,488.3,369,488.3z M369,488.9c0.9,0,1.8,0.6,1.8,1.4
			c0,0,0,0.1,0,0.1c0,0.1,0,0-0.1-0.1c-0.2-0.6-0.9-1-1.7-1c-0.8,0-1.5,0.4-1.7,1c0,0.1-0.1,0.1-0.1,0.1c0,0,0-0.1,0-0.1
			C367.2,489.6,368.1,488.9,369,488.9z M369,492.9c-1.1,0-2-0.8-2-1.9c0,0,0.9-0.8,2-0.8c1.1,0,1.9,0.8,1.9,0.8
			C371,492.1,370.1,492.9,369,492.9z"/>
		<path class="st0" d="M365.1,495.5v2.6c0,0.4,0.3,0.7,0.7,0.7h0.7h5.2h0.7c0.4,0,0.7-0.3,0.7-0.7v-2.6c0-0.7-0.6-1.3-1.3-1.3H371
			c-0.1,0-0.2,0-0.3,0.1l-0.7,0.5c-0.1,0.1-0.2,0.2-0.2,0.3l-0.8,2.6c0,0.1-0.1,0.1-0.1,0l-0.8-2.6c0-0.1-0.1-0.2-0.2-0.2l-0.8-0.5
			c-0.1-0.1-0.2-0.1-0.3-0.1h-0.5C365.7,494.2,365.1,494.8,365.1,495.5z M368,496.7c0.2,0,0.3,0.1,0.3,0.3c0,0.2-0.1,0.3-0.3,0.3
			c-0.2,0-0.3-0.1-0.3-0.3C367.7,496.9,367.8,496.7,368,496.7z M368,497.7c0.2,0,0.3,0.1,0.3,0.3c0,0.2-0.1,0.3-0.3,0.3
			c-0.2,0-0.3-0.1-0.3-0.3C367.7,497.9,367.8,497.7,368,497.7z"/>
	</g>
	<g>
		<path class="st0" d="M759,250.8c-1.4,0-2.6,1.2-2.6,2.6v0.8c0,0.3-0.1,0.9-0.5,0.9c-0.5-0.1,0.1,0.9,1.2,0.9c0,0,0,0,0,0h3.9
			c1,0,1.7-1,1.2-0.9c-0.5,0.1-0.5-1-0.5-1v-0.7C761.6,251.9,760.4,250.8,759,250.8z M759,251.4c0.9,0,1.8,0.6,1.8,1.4
			c0,0,0,0.1,0,0.1c0,0.1,0,0-0.1-0.1c-0.2-0.6-0.9-1-1.7-1c-0.8,0-1.5,0.4-1.7,1c0,0.1-0.1,0.1-0.1,0.1c0,0,0-0.1,0-0.1
			C757.2,252,758.1,251.4,759,251.4z M759,255.3c-1.1,0-2-0.8-2-1.9c0,0,0.9-0.8,2-0.8c1.1,0,1.9,0.8,1.9,0.8
			C761,254.5,760.1,255.3,759,255.3z"/>
		<path class="st0" d="M755.1,258v2.6c0,0.4,0.3,0.7,0.7,0.7h0.7h5.2h0.7c0.4,0,0.7-0.3,0.7-0.7V258c0-0.7-0.6-1.3-1.3-1.3H761
			c-0.1,0-0.2,0-0.3,0.1l-0.7,0.5c-0.1,0.1-0.2,0.2-0.2,0.3l-0.8,2.6c0,0.1-0.1,0.1-0.1,0l-0.8-2.6c0-0.1-0.1-0.2-0.2-0.2l-0.8-0.5
			c-0.1-0.1-0.2-0.1-0.3-0.1h-0.5C755.7,256.7,755.1,257.2,755.1,258z M758,259.2c0.2,0,0.3,0.1,0.3,0.3c0,0.2-0.1,0.3-0.3,0.3
			c-0.2,0-0.3-0.1-0.3-0.3C757.7,259.3,757.8,259.2,758,259.2z M758,260.2c0.2,0,0.3,0.1,0.3,0.3c0,0.2-0.1,0.3-0.3,0.3
			c-0.2,0-0.3-0.1-0.3-0.3C757.7,260.3,757.8,260.2,758,260.2z"/>
	</g>
	<g>
		<path class="st0" d="M405,262.9c-1.4,0-2.6,1.2-2.6,2.6v0.8c0,0.3-0.1,0.9-0.5,0.9c-0.5-0.1,0.1,0.9,1.2,0.9c0,0,0,0,0,0h3.9
			c1,0,1.7-1,1.2-0.9c-0.5,0.1-0.5-1-0.5-1v-0.7C407.6,264.1,406.4,262.9,405,262.9z M405,263.5c0.9,0,1.8,0.6,1.8,1.4
			c0,0,0,0.1,0,0.1c0,0.1,0,0-0.1-0.1c-0.2-0.6-0.9-1-1.7-1c-0.8,0-1.5,0.4-1.7,1c0,0.1-0.1,0.1-0.1,0.1c0,0,0-0.1,0-0.1
			C403.2,264.1,404.1,263.5,405,263.5z M405,267.5c-1.1,0-2-0.8-2-1.9c0,0,0.9-0.8,2-0.8c1.1,0,1.9,0.8,1.9,0.8
			C407,266.6,406.1,267.5,405,267.5z"/>
		<path class="st0" d="M401.1,270.1v2.6c0,0.4,0.3,0.7,0.7,0.7h0.7h5.2h0.7c0.4,0,0.7-0.3,0.7-0.7v-2.6c0-0.7-0.6-1.3-1.3-1.3H407
			c-0.1,0-0.2,0-0.3,0.1l-0.7,0.5c-0.1,0.1-0.2,0.2-0.2,0.3l-0.8,2.6c0,0.1-0.1,0.1-0.1,0l-0.8-2.6c0-0.1-0.1-0.2-0.2-0.2l-0.8-0.5
			c-0.1-0.1-0.2-0.1-0.3-0.1h-0.5C401.7,268.8,401.1,269.4,401.1,270.1z M404,271.3c0.2,0,0.3,0.1,0.3,0.3c0,0.2-0.1,0.3-0.3,0.3
			c-0.2,0-0.3-0.1-0.3-0.3C403.7,271.4,403.8,271.3,404,271.3z M404,272.3c0.2,0,0.3,0.1,0.3,0.3c0,0.2-0.1,0.3-0.3,0.3
			c-0.2,0-0.3-0.1-0.3-0.3C403.7,272.4,403.8,272.3,404,272.3z"/>
	</g>
	<g>
		<path class="st0" d="M478,39.8c-1.4,0-2.6,1.2-2.6,2.6v0.8c0,0.3-0.1,0.9-0.5,0.9C474.3,44,475,45,476,45c0,0,0,0,0,0h3.9
			c1,0,1.7-1,1.2-0.9c-0.5,0.1-0.5-1-0.5-1v-0.7C480.6,40.9,479.4,39.8,478,39.8z M478,40.4c0.9,0,1.8,0.6,1.8,1.4c0,0,0,0.1,0,0.1
			c0,0.1,0,0-0.1-0.1c-0.2-0.6-0.9-1-1.7-1c-0.8,0-1.5,0.4-1.7,1c0,0.1-0.1,0.1-0.1,0.1c0,0,0-0.1,0-0.1
			C476.2,41,477.1,40.4,478,40.4z M478,44.3c-1.1,0-2-0.8-2-1.9c0,0,0.9-0.8,2-0.8c1.1,0,1.9,0.8,1.9,0.8
			C480,43.5,479.1,44.3,478,44.3z"/>
		<path class="st0" d="M474.1,47v2.6c0,0.4,0.3,0.7,0.7,0.7h0.7h5.2h0.7c0.4,0,0.7-0.3,0.7-0.7V47c0-0.7-0.6-1.3-1.3-1.3H480
			c-0.1,0-0.2,0-0.3,0.1l-0.7,0.5c-0.1,0.1-0.2,0.2-0.2,0.3l-0.8,2.6c0,0.1-0.1,0.1-0.1,0l-0.8-2.6c0-0.1-0.1-0.2-0.2-0.2l-0.8-0.5
			c-0.1-0.1-0.2-0.1-0.3-0.1h-0.5C474.7,45.7,474.1,46.2,474.1,47z M477,48.2c0.2,0,0.3,0.1,0.3,0.3c0,0.2-0.1,0.3-0.3,0.3
			c-0.2,0-0.3-0.1-0.3-0.3C476.7,48.3,476.8,48.2,477,48.2z M477,49.2c0.2,0,0.3,0.1,0.3,0.3c0,0.2-0.1,0.3-0.3,0.3
			c-0.2,0-0.3-0.1-0.3-0.3C476.7,49.3,476.8,49.2,477,49.2z"/>
	</g>
	<g>
		<path class="st0" d="M70,619.8c-1.4,0-2.6,1.2-2.6,2.6v0.8c0,0.3-0.1,0.9-0.5,0.9C66.3,624,67,625,68,625c0,0,0,0,0,0H72
			c1,0,1.7-1,1.2-0.9c-0.5,0.1-0.5-1-0.5-1v-0.7C72.6,620.9,71.4,619.8,70,619.8z M70,620.4c0.9,0,1.8,0.6,1.8,1.4c0,0,0,0.1,0,0.1
			c0,0.1,0,0-0.1-0.1c-0.2-0.6-0.9-1-1.7-1c-0.8,0-1.5,0.4-1.7,1c0,0.1-0.1,0.1-0.1,0.1c0,0,0-0.1,0-0.1
			C68.2,621,69.1,620.4,70,620.4z M70,624.3c-1.1,0-2-0.8-2-1.9c0,0,0.9-0.8,2-0.8c1.1,0,1.9,0.8,1.9,0.8
			C72,623.5,71.1,624.3,70,624.3z"/>
		<path class="st0" d="M66.1,627v2.6c0,0.4,0.3,0.7,0.7,0.7h0.7h5.2h0.7c0.4,0,0.7-0.3,0.7-0.7V627c0-0.7-0.6-1.3-1.3-1.3H72
			c-0.1,0-0.2,0-0.3,0.1l-0.7,0.5c-0.1,0.1-0.2,0.2-0.2,0.3l-0.8,2.6c0,0.1-0.1,0.1-0.1,0l-0.8-2.6c0-0.1-0.1-0.2-0.2-0.2l-0.8-0.5
			c-0.1-0.1-0.2-0.1-0.3-0.1h-0.5C66.7,625.7,66.1,626.2,66.1,627z M69,628.2c0.2,0,0.3,0.1,0.3,0.3c0,0.2-0.1,0.3-0.3,0.3
			c-0.2,0-0.3-0.1-0.3-0.3C68.7,628.3,68.8,628.2,69,628.2z M69,629.2c0.2,0,0.3,0.1,0.3,0.3c0,0.2-0.1,0.3-0.3,0.3
			c-0.2,0-0.3-0.1-0.3-0.3C68.7,629.3,68.8,629.2,69,629.2z"/>
	</g>
	<g>
		<path class="st0" d="M323,687.5c-1.4,0-2.6,1.2-2.6,2.6v0.8c0,0.3-0.1,0.9-0.5,0.9c-0.5-0.1,0.1,0.9,1.2,0.9c0,0,0,0,0,0h3.9
			c1,0,1.7-1,1.2-0.9c-0.5,0.1-0.5-1-0.5-1v-0.7C325.6,688.6,324.4,687.5,323,687.5z M323,688c0.9,0,1.8,0.6,1.8,1.4
			c0,0,0,0.1,0,0.1c0,0.1,0,0-0.1-0.1c-0.2-0.6-0.9-1-1.7-1c-0.8,0-1.5,0.4-1.7,1c0,0.1-0.1,0.1-0.1,0.1c0,0,0-0.1,0-0.1
			C321.2,688.7,322.1,688,323,688z M323,692c-1.1,0-2-0.8-2-1.9c0,0,0.9-0.8,2-0.8c1.1,0,1.9,0.8,1.9,0.8
			C325,691.2,324.1,692,323,692z"/>
		<path class="st0" d="M319.1,694.6v2.6c0,0.4,0.3,0.7,0.7,0.7h0.7h5.2h0.7c0.4,0,0.7-0.3,0.7-0.7v-2.6c0-0.7-0.6-1.3-1.3-1.3H325
			c-0.1,0-0.2,0-0.3,0.1l-0.7,0.5c-0.1,0.1-0.2,0.2-0.2,0.3l-0.8,2.6c0,0.1-0.1,0.1-0.1,0l-0.8-2.6c0-0.1-0.1-0.2-0.2-0.2l-0.8-0.5
			c-0.1-0.1-0.2-0.1-0.3-0.1h-0.5C319.7,693.3,319.1,693.9,319.1,694.6z M322,695.9c0.2,0,0.3,0.1,0.3,0.3c0,0.2-0.1,0.3-0.3,0.3
			c-0.2,0-0.3-0.1-0.3-0.3C321.7,696,321.8,695.9,322,695.9z M322,696.8c0.2,0,0.3,0.1,0.3,0.3c0,0.2-0.1,0.3-0.3,0.3
			c-0.2,0-0.3-0.1-0.3-0.3C321.7,697,321.8,696.8,322,696.8z"/>
	</g>
	<g>
		<path class="st0" d="M49,522.8c-1.4,0-2.6,1.2-2.6,2.6v0.8c0,0.3-0.1,0.9-0.5,0.9C45.3,527,46,528,47,528c0,0,0,0,0,0H51
			c1,0,1.7-1,1.2-0.9c-0.5,0.1-0.5-1-0.5-1v-0.7C51.6,523.9,50.4,522.8,49,522.8z M49,523.4c0.9,0,1.8,0.6,1.8,1.4c0,0,0,0.1,0,0.1
			c0,0.1,0,0-0.1-0.1c-0.2-0.6-0.9-1-1.7-1c-0.8,0-1.5,0.4-1.7,1c0,0.1-0.1,0.1-0.1,0.1c0,0,0-0.1,0-0.1
			C47.2,524,48.1,523.4,49,523.4z M49,527.3c-1.1,0-2-0.8-2-1.9c0,0,0.9-0.8,2-0.8c1.1,0,1.9,0.8,1.9,0.8
			C51,526.5,50.1,527.3,49,527.3z"/>
		<path class="st0" d="M45.1,530v2.6c0,0.4,0.3,0.7,0.7,0.7h0.7h5.2h0.7c0.4,0,0.7-0.3,0.7-0.7V530c0-0.7-0.6-1.3-1.3-1.3H51
			c-0.1,0-0.2,0-0.3,0.1l-0.7,0.5c-0.1,0.1-0.2,0.2-0.2,0.3l-0.8,2.6c0,0.1-0.1,0.1-0.1,0l-0.8-2.6c0-0.1-0.1-0.2-0.2-0.2l-0.8-0.5
			c-0.1-0.1-0.2-0.1-0.3-0.1h-0.5C45.7,528.7,45.1,529.2,45.1,530z M48,531.2c0.2,0,0.3,0.1,0.3,0.3c0,0.2-0.1,0.3-0.3,0.3
			c-0.2,0-0.3-0.1-0.3-0.3C47.7,531.3,47.8,531.2,48,531.2z M48,532.2c0.2,0,0.3,0.1,0.3,0.3c0,0.2-0.1,0.3-0.3,0.3
			c-0.2,0-0.3-0.1-0.3-0.3C47.7,532.3,47.8,532.2,48,532.2z"/>
	</g>
	<g>
		<path class="st0" d="M57,163.8c-1.4,0-2.6,1.2-2.6,2.6v0.8c0,0.3-0.1,0.9-0.5,0.9C53.3,168,54,169,55,169c0,0,0,0,0,0H59
			c1,0,1.7-1,1.2-0.9c-0.5,0.1-0.5-1-0.5-1v-0.7C59.6,164.9,58.4,163.8,57,163.8z M57,164.4c0.9,0,1.8,0.6,1.8,1.4c0,0,0,0.1,0,0.1
			c0,0.1,0,0-0.1-0.1c-0.2-0.6-0.9-1-1.7-1c-0.8,0-1.5,0.4-1.7,1c0,0.1-0.1,0.1-0.1,0.1c0,0,0-0.1,0-0.1
			C55.2,165,56.1,164.4,57,164.4z M57,168.3c-1.1,0-2-0.8-2-1.9c0,0,0.9-0.8,2-0.8c1.1,0,1.9,0.8,1.9,0.8
			C59,167.5,58.1,168.3,57,168.3z"/>
		<path class="st0" d="M53.1,171v2.6c0,0.4,0.3,0.7,0.7,0.7h0.7h5.2h0.7c0.4,0,0.7-0.3,0.7-0.7V171c0-0.7-0.6-1.3-1.3-1.3H59
			c-0.1,0-0.2,0-0.3,0.1l-0.7,0.5c-0.1,0.1-0.2,0.2-0.2,0.3l-0.8,2.6c0,0.1-0.1,0.1-0.1,0l-0.8-2.6c0-0.1-0.1-0.2-0.2-0.2l-0.8-0.5
			c-0.1-0.1-0.2-0.1-0.3-0.1h-0.5C53.7,169.7,53.1,170.2,53.1,171z M56,172.2c0.2,0,0.3,0.1,0.3,0.3c0,0.2-0.1,0.3-0.3,0.3
			c-0.2,0-0.3-0.1-0.3-0.3C55.7,172.3,55.8,172.2,56,172.2z M56,173.2c0.2,0,0.3,0.1,0.3,0.3c0,0.2-0.1,0.3-0.3,0.3
			c-0.2,0-0.3-0.1-0.3-0.3C55.7,173.3,55.8,173.2,56,173.2z"/>
	</g>
	<g>
		<path class="st0" d="M182.1,520.2c-4.6,0-8.3,3.7-8.3,8.3v2.7c-0.1,0.9-0.3,2.9-1.7,2.7c-1.7-0.2,0.5,2.9,3.7,2.9c0,0,0,0,0,0
			h12.5c3.3,0,5.5-3.1,3.8-2.9c-1.7,0.2-1.7-3.1-1.7-3.1v-2.3C190.4,523.9,186.7,520.2,182.1,520.2z M182.1,522c2.9,0,5.6,2,5.6,4.5
			c0,0.1,0,0.2,0,0.3c0,0.2-0.1,0.1-0.2-0.2c-0.7-1.9-3-3.3-5.4-3.3c-2.4,0-4.9,1.4-5.6,3.3c-0.1,0.3-0.2,0.4-0.2,0.2
			c0-0.1,0-0.2,0-0.3C176.3,524,179.2,522,182.1,522z M182.1,534.7c-3.4,0-6.2-2.6-6.2-6.1c0,0,2.8-2.4,6.3-2.4
			c3.6,0,6.2,2.4,6.2,2.4C188.3,532.1,185.5,534.7,182.1,534.7z"/>
		<path class="st0" d="M169.6,543.1v8.3c0,1.2,0.9,2.1,2.1,2.1h2.1h16.7h2.1c1.2,0,2.1-0.9,2.1-2.1v-8.3c0-2.3-1.9-4.2-4.2-4.2h-1.9
			c-0.3,0-0.7,0.1-1,0.3l-2.1,1.5c-0.2,0.2-0.5,0.5-0.6,0.8l-2.5,8.4c-0.1,0.3-0.2,0.3-0.3,0l-2.6-8.3c-0.1-0.3-0.4-0.6-0.6-0.8
			l-2.4-1.6c-0.2-0.2-0.7-0.3-1-0.3h-1.7C171.4,538.9,169.6,540.8,169.6,543.1z M178.8,546.9c0.5,0,0.9,0.4,0.9,0.9
			c0,0.5-0.4,0.9-0.9,0.9c-0.5,0-0.9-0.4-0.9-0.9C177.9,547.3,178.3,546.9,178.8,546.9z M178.8,550.1c0.5,0,0.9,0.4,0.9,0.9
			c0,0.5-0.4,0.9-0.9,0.9c-0.5,0-0.9-0.4-0.9-0.9C177.9,550.5,178.3,550.1,178.8,550.1z"/>
	</g>
	<g>
		<path class="st0" d="M580,668.3c-4.3,0-7.8,3.5-7.8,7.8v2.5c-0.1,0.8-0.3,2.7-1.6,2.6c-1.6-0.2,0.4,2.7,3.5,2.8c0,0,0,0,0,0h11.7
			c3.1,0,5.1-2.9,3.6-2.8c-1.6,0.2-1.6-2.9-1.6-2.9v-2.1C587.8,671.8,584.3,668.3,580,668.3z M580,670c2.7,0,5.2,1.9,5.2,4.2
			c0,0.1,0,0.2,0,0.3c0,0.2-0.1,0.1-0.2-0.2c-0.6-1.8-2.8-3.1-5.1-3.1s-4.6,1.3-5.2,3.1c-0.1,0.3-0.2,0.3-0.2,0.2c0-0.1,0-0.2,0-0.3
			C574.6,671.9,577.3,670,580,670z M580,681.9c-3.2,0-5.9-2.5-5.9-5.7c0,0,2.6-2.3,5.9-2.3c3.4,0,5.8,2.3,5.8,2.3
			C585.9,679.5,583.2,681.9,580,681.9z"/>
		<path class="st0" d="M568.3,689.8v7.8c0,1.1,0.9,2,2,2h2h15.6h2c1.1,0,2-0.9,2-2v-7.8c0-2.2-1.8-3.9-3.9-3.9H586
			c-0.3,0-0.7,0.1-0.9,0.3l-2,1.4c-0.2,0.2-0.5,0.5-0.5,0.8l-2.3,7.9c-0.1,0.3-0.2,0.3-0.3,0l-2.4-7.8c-0.1-0.3-0.3-0.6-0.6-0.7
			l-2.2-1.5c-0.2-0.2-0.6-0.3-0.9-0.3h-1.6C570,685.9,568.3,687.6,568.3,689.8z M576.9,693.4c0.5,0,0.8,0.4,0.8,0.8
			c0,0.5-0.4,0.8-0.8,0.8c-0.5,0-0.8-0.4-0.8-0.8C576.1,693.7,576.5,693.4,576.9,693.4z M576.9,696.3c0.5,0,0.8,0.4,0.8,0.8
			c0,0.5-0.4,0.8-0.8,0.8c-0.5,0-0.8-0.4-0.8-0.8C576.1,696.7,576.5,696.3,576.9,696.3z"/>
	</g>
	<g>
		<path class="st0" d="M666.7,733.7c-3,0-5.5,2.5-5.5,5.5v1.8c0,0.6-0.2,1.9-1.1,1.8c-1.1-0.1,0.3,1.9,2.5,1.9c0,0,0,0,0,0h8.3
			c2.2,0,3.6-2.1,2.5-1.9c-1.1,0.1-1.1-2.1-1.1-2.1v-1.5C672.2,736.2,669.7,733.7,666.7,733.7z M666.7,735c1.9,0,3.7,1.3,3.7,3
			c0,0.1,0,0.2,0,0.2c0,0.1-0.1,0.1-0.1-0.1c-0.4-1.2-2-2.2-3.6-2.2c-1.6,0-3.2,0.9-3.7,2.2c-0.1,0.2-0.1,0.2-0.1,0.1
			c0-0.1,0-0.2,0-0.2C662.9,736.3,664.8,735,666.7,735z M666.7,743.4c-2.3,0-4.1-1.7-4.1-4c0,0,1.8-1.6,4.2-1.6
			c2.4,0,4.1,1.6,4.1,1.6C670.8,741.6,669,743.4,666.7,743.4z"/>
		<path class="st0" d="M658.4,748.9v5.5c0,0.8,0.6,1.4,1.4,1.4h1.4h11h1.4c0.8,0,1.4-0.6,1.4-1.4v-5.5c0-1.5-1.2-2.8-2.8-2.8h-1.3
			c-0.2,0-0.5,0.1-0.6,0.2l-1.4,1c-0.2,0.1-0.3,0.3-0.4,0.5l-1.6,5.6c-0.1,0.2-0.1,0.2-0.2,0l-1.7-5.5c-0.1-0.2-0.2-0.4-0.4-0.5
			l-1.6-1.1c-0.2-0.1-0.4-0.2-0.6-0.2h-1.1C659.7,746.1,658.4,747.3,658.4,748.9z M664.5,751.4c0.3,0,0.6,0.3,0.6,0.6
			c0,0.3-0.3,0.6-0.6,0.6c-0.3,0-0.6-0.3-0.6-0.6C664,751.7,664.2,751.4,664.5,751.4z M664.5,753.5c0.3,0,0.6,0.3,0.6,0.6
			c0,0.3-0.3,0.6-0.6,0.6c-0.3,0-0.6-0.3-0.6-0.6C664,753.7,664.2,753.5,664.5,753.5z"/>
	</g>
	<g>
		<path class="st0" d="M644,464.1c-2.9,0-5.3,2.4-5.3,5.3v1.7c0,0.5-0.2,1.8-1.1,1.7c-1.1-0.1,0.3,1.9,2.4,1.9c0,0,0,0,0,0h8
			c2.1,0,3.5-2,2.4-1.9c-1.1,0.1-1.1-2-1.1-2v-1.5C649.3,466.5,646.9,464.1,644,464.1z M644,465.3c1.8,0,3.6,1.3,3.6,2.9
			c0,0.1,0,0.1,0,0.2c0,0.1-0.1,0.1-0.1-0.1c-0.4-1.2-1.9-2.1-3.4-2.1c-1.5,0-3.1,0.9-3.5,2.1c-0.1,0.2-0.1,0.2-0.1,0.1
			c0-0.1,0-0.1,0-0.2C640.3,466.6,642.2,465.3,644,465.3z M644,473.4c-2.2,0-4-1.7-4-3.9c0,0,1.8-1.6,4-1.6c2.3,0,3.9,1.6,3.9,1.6
			C648,471.7,646.2,473.4,644,473.4z"/>
		<path class="st0" d="M636.1,478.7v5.3c0,0.7,0.6,1.3,1.3,1.3h1.3h10.6h1.3c0.7,0,1.3-0.6,1.3-1.3v-5.3c0-1.5-1.2-2.7-2.7-2.7h-1.2
			c-0.2,0-0.5,0.1-0.6,0.2l-1.4,0.9c-0.2,0.1-0.3,0.3-0.4,0.5l-1.6,5.4c-0.1,0.2-0.1,0.2-0.2,0l-1.7-5.3c-0.1-0.2-0.2-0.4-0.4-0.5
			l-1.5-1c-0.2-0.1-0.4-0.2-0.6-0.2h-1.1C637.2,476,636.1,477.2,636.1,478.7z M641.9,481.1c0.3,0,0.6,0.3,0.6,0.6
			c0,0.3-0.2,0.6-0.6,0.6c-0.3,0-0.6-0.3-0.6-0.6C641.4,481.4,641.6,481.1,641.9,481.1z M641.9,483.2c0.3,0,0.6,0.3,0.6,0.6
			c0,0.3-0.2,0.6-0.6,0.6c-0.3,0-0.6-0.3-0.6-0.6C641.4,483.4,641.6,483.2,641.9,483.2z"/>
	</g>
	<g>
		<path class="st0" d="M383,169.4c-2.9,0-5.3,2.4-5.3,5.3v1.7c0,0.5-0.2,1.8-1.1,1.7c-1.1-0.1,0.3,1.9,2.4,1.9c0,0,0,0,0,0h8
			c2.1,0,3.5-2,2.4-1.9c-1.1,0.1-1.1-2-1.1-2v-1.5C388.3,171.8,385.9,169.4,383,169.4z M383,170.6c1.8,0,3.6,1.3,3.6,2.9
			c0,0.1,0,0.1,0,0.2c0,0.1-0.1,0.1-0.1-0.1c-0.4-1.2-1.9-2.1-3.4-2.1c-1.5,0-3.1,0.9-3.5,2.1c-0.1,0.2-0.1,0.2-0.1,0.1
			c0-0.1,0-0.1,0-0.2C379.3,171.9,381.2,170.6,383,170.6z M383,178.7c-2.2,0-4-1.7-4-3.9c0,0,1.8-1.6,4-1.6c2.3,0,3.9,1.6,3.9,1.6
			C387,177,385.2,178.7,383,178.7z"/>
		<path class="st0" d="M375,184v5.3c0,0.7,0.6,1.3,1.3,1.3h1.3h10.6h1.3c0.7,0,1.3-0.6,1.3-1.3V184c0-1.5-1.2-2.7-2.7-2.7h-1.2
			c-0.2,0-0.5,0.1-0.6,0.2l-1.4,0.9c-0.2,0.1-0.3,0.3-0.4,0.5l-1.6,5.4c-0.1,0.2-0.1,0.2-0.2,0l-1.7-5.3c-0.1-0.2-0.2-0.4-0.4-0.5
			l-1.5-1c-0.2-0.1-0.4-0.2-0.6-0.2h-1.1C376.2,181.3,375,182.5,375,184z M380.9,186.4c0.3,0,0.6,0.3,0.6,0.6c0,0.3-0.2,0.6-0.6,0.6
			c-0.3,0-0.6-0.3-0.6-0.6C380.4,186.7,380.6,186.4,380.9,186.4z M380.9,188.4c0.3,0,0.6,0.3,0.6,0.6c0,0.3-0.2,0.6-0.6,0.6
			c-0.3,0-0.6-0.3-0.6-0.6C380.4,188.7,380.6,188.4,380.9,188.4z"/>
	</g>
	<g>
		<path class="st0" d="M541.4,512c0-7.9-6.4-14.4-14.4-14.4c-7.9,0-14.4,6.4-14.4,14.4c0,7.9,6.4,14.4,14.4,14.4
			C534.9,526.4,541.4,519.9,541.4,512z M516.2,512.3c0,0-0.4-4.1,2.5-7.2c2.1,2.1,8.3,7.2,19,7.2c0,5.9-4.8,10.8-10.8,10.8
			S516.2,518.3,516.2,512.3z"/>
		<path class="st0" d="M502.3,537.4v6.4v8.2c0,2.3,1.8,4.1,4.1,4.1h41.1c2.3,0,4.1-1.8,4.1-4.1v-8.2v-6.4c0-4.5-3.7-8.2-8.2-8.2
			h-7.3c-0.5,0-1.2,0.3-1.5,0.8l-7.2,10.2c-0.3,0.4-0.7,0.4-1,0l-7.2-10.2c-0.3-0.4-0.9-0.8-1.5-0.8h-7.3
			C506,529.2,502.3,532.9,502.3,537.4z"/>
	</g>
	<g>
		<path class="st0" d="M160.5,229.1c0-6.1-4.9-11-11-11c-6.1,0-11,4.9-11,11c0,6.1,4.9,11,11,11
			C155.6,240.1,160.5,235.2,160.5,229.1z M141.3,229.4c0,0-0.3-3.1,1.9-5.5c1.6,1.6,6.3,5.5,14.5,5.5c0,4.5-3.7,8.2-8.2,8.2
			S141.3,233.9,141.3,229.4z"/>
		<path class="st0" d="M130.7,248.6v4.9v6.3c0,1.7,1.4,3.1,3.1,3.1h31.4c1.7,0,3.1-1.4,3.1-3.1v-6.3v-4.9c0-3.5-2.8-6.3-6.3-6.3
			h-5.6c-0.4,0-0.9,0.3-1.1,0.6l-5.5,7.8c-0.2,0.3-0.6,0.3-0.8,0l-5.5-7.8c-0.2-0.3-0.7-0.6-1.1-0.6h-5.6
			C133.5,242.3,130.7,245.1,130.7,248.6z"/>
	</g>
	<g>
		<path class="st0" d="M320.1,589.2c0-6-4.9-10.9-10.9-10.9c-6,0-10.9,4.9-10.9,10.9c0,6,4.9,10.9,10.9,10.9
			C315.2,600.1,320.1,595.2,320.1,589.2z M301,589.4c0,0-0.3-3.1,1.9-5.4c1.6,1.6,6.3,5.4,14.4,5.4c0,4.5-3.7,8.2-8.2,8.2
			C304.7,597.6,301,593.9,301,589.4z"/>
		<path class="st0" d="M290.5,608.4v4.8v6.2c0,1.7,1.4,3.1,3.1,3.1h31.2c1.7,0,3.1-1.4,3.1-3.1v-6.2v-4.8c0-3.4-2.8-6.2-6.2-6.2
			h-5.5c-0.4,0-0.9,0.3-1.1,0.6l-5.4,7.7c-0.2,0.3-0.6,0.3-0.8,0l-5.4-7.7c-0.2-0.3-0.7-0.6-1.1-0.6h-5.5
			C293.3,602.2,290.5,605,290.5,608.4z"/>
	</g>
	<g>
		<path class="st0" d="M457.8,366.3c0-4.3-3.5-7.8-7.8-7.8c-4.3,0-7.8,3.5-7.8,7.8c0,4.3,3.5,7.8,7.8,7.8
			C454.3,374.1,457.8,370.6,457.8,366.3z M444.2,366.5c0,0-0.2-2.2,1.4-3.9c1.1,1.1,4.5,3.9,10.3,3.9c0,3.2-2.6,5.8-5.8,5.8
			C446.8,372.3,444.2,369.7,444.2,366.5z"/>
		<path class="st0" d="M436.6,380.1v3.4v4.5c0,1.2,1,2.2,2.2,2.2h22.3c1.2,0,2.2-1,2.2-2.2v-4.5v-3.4c0-2.5-2-4.5-4.5-4.5h-4
			c-0.3,0-0.6,0.2-0.8,0.4l-3.9,5.5c-0.2,0.2-0.4,0.2-0.6,0l-3.9-5.5c-0.2-0.2-0.5-0.4-0.8-0.4h-4
			C438.6,375.6,436.6,377.6,436.6,380.1z"/>
	</g>
	<g>
		<path class="st0" d="M470.4,699.5c0-2.8-2.2-5-5-5c-2.8,0-5,2.3-5,5c0,2.8,2.3,5,5,5C468.2,704.5,470.4,702.3,470.4,699.5z
			 M461.6,699.6c0,0-0.1-1.4,0.9-2.5c0.7,0.7,2.9,2.5,6.7,2.5c0,2.1-1.7,3.8-3.8,3.8C463.3,703.4,461.6,701.7,461.6,699.6z"/>
		<path class="st0" d="M456.8,708.4v2.2v2.9c0,0.8,0.6,1.4,1.4,1.4h14.4c0.8,0,1.4-0.6,1.4-1.4v-2.9v-2.2c0-1.6-1.3-2.9-2.9-2.9
			h-2.5c-0.2,0-0.4,0.1-0.5,0.3l-2.5,3.6c-0.1,0.1-0.3,0.1-0.4,0l-2.5-3.6c-0.1-0.1-0.3-0.3-0.5-0.3h-2.5
			C458.1,705.5,456.8,706.8,456.8,708.4z"/>
	</g>
	<g>
		<path class="st0" d="M705,663.8c0-2.8-2.2-5-5-5c-2.8,0-5,2.3-5,5c0,2.8,2.3,5,5,5C702.8,668.8,705,666.6,705,663.8z M696.2,663.9
			c0,0-0.1-1.4,0.9-2.5c0.7,0.7,2.9,2.5,6.7,2.5c0,2.1-1.7,3.8-3.8,3.8C697.9,667.7,696.2,666,696.2,663.9z"/>
		<path class="st0" d="M691.4,672.7v2.2v2.9c0,0.8,0.6,1.4,1.4,1.4h14.4c0.8,0,1.4-0.6,1.4-1.4v-2.9v-2.2c0-1.6-1.3-2.9-2.9-2.9
			h-2.5c-0.2,0-0.4,0.1-0.5,0.3l-2.5,3.6c-0.1,0.1-0.3,0.1-0.4,0l-2.5-3.6c-0.1-0.1-0.3-0.3-0.5-0.3h-2.5
			C692.7,669.8,691.4,671.1,691.4,672.7z"/>
	</g>
	<g>
		<path class="st0" d="M527.6,740.9c0-1.4-1.2-2.6-2.6-2.6c-1.4,0-2.6,1.2-2.6,2.6c0,1.4,1.2,2.6,2.6,2.6
			C526.4,743.5,527.6,742.3,527.6,740.9z M523,741c0,0-0.1-0.7,0.5-1.3c0.4,0.4,1.5,1.3,3.5,1.3c0,1.1-0.9,2-2,2
			C523.9,742.9,523,742,523,741z"/>
		<path class="st0" d="M520.5,745.5v1.2v1.5c0,0.4,0.3,0.7,0.7,0.7h7.5c0.4,0,0.7-0.3,0.7-0.7v-1.5v-1.2c0-0.8-0.7-1.5-1.5-1.5h-1.3
			c-0.1,0-0.2,0.1-0.3,0.1l-1.3,1.8c-0.1,0.1-0.1,0.1-0.2,0l-1.3-1.8c-0.1-0.1-0.2-0.1-0.3-0.1H522
			C521.2,744,520.5,744.7,520.5,745.5z"/>
	</g>
	<g>
		<path class="st0" d="M658.6,567.3c0-1.4-1.2-2.6-2.6-2.6c-1.4,0-2.6,1.2-2.6,2.6c0,1.4,1.2,2.6,2.6,2.6
			C657.4,569.9,658.6,568.7,658.6,567.3z M654,567.4c0,0-0.1-0.7,0.5-1.3c0.4,0.4,1.5,1.3,3.5,1.3c0,1.1-0.9,2-2,2
			C654.9,569.3,654,568.4,654,567.4z"/>
		<path class="st0" d="M651.5,571.9v1.2v1.5c0,0.4,0.3,0.7,0.7,0.7h7.5c0.4,0,0.7-0.3,0.7-0.7v-1.5v-1.2c0-0.8-0.7-1.5-1.5-1.5h-1.3
			c-0.1,0-0.2,0.1-0.3,0.1l-1.3,1.8c-0.1,0.1-0.1,0.1-0.2,0l-1.3-1.8c-0.1-0.1-0.2-0.1-0.3-0.1H653
			C652.2,570.4,651.5,571.1,651.5,571.9z"/>
	</g>
	<g>
		<path class="st0" d="M766.6,456.3c0-1.4-1.2-2.6-2.6-2.6c-1.4,0-2.6,1.2-2.6,2.6c0,1.4,1.2,2.6,2.6,2.6
			C765.4,458.9,766.6,457.7,766.6,456.3z M762,456.4c0,0-0.1-0.7,0.5-1.3c0.4,0.4,1.5,1.3,3.5,1.3c0,1.1-0.9,2-2,2
			C762.9,458.3,762,457.4,762,456.4z"/>
		<path class="st0" d="M759.5,460.9v1.2v1.5c0,0.4,0.3,0.7,0.7,0.7h7.5c0.4,0,0.7-0.3,0.7-0.7v-1.5v-1.2c0-0.8-0.7-1.5-1.5-1.5h-1.3
			c-0.1,0-0.2,0.1-0.3,0.1l-1.3,1.8c-0.1,0.1-0.1,0.1-0.2,0l-1.3-1.8c-0.1-0.1-0.2-0.1-0.3-0.1H761
			C760.2,459.4,759.5,460.1,759.5,460.9z"/>
	</g>
	<g>
		<path class="st0" d="M737.6,362.3c0-1.4-1.2-2.6-2.6-2.6c-1.4,0-2.6,1.2-2.6,2.6c0,1.4,1.2,2.6,2.6,2.6
			C736.4,364.9,737.6,363.7,737.6,362.3z M733,362.4c0,0-0.1-0.7,0.5-1.3c0.4,0.4,1.5,1.3,3.5,1.3c0,1.1-0.9,2-2,2
			C733.9,364.3,733,363.4,733,362.4z"/>
		<path class="st0" d="M730.5,366.9v1.2v1.5c0,0.4,0.3,0.7,0.7,0.7h7.5c0.4,0,0.7-0.3,0.7-0.7v-1.5v-1.2c0-0.8-0.7-1.5-1.5-1.5h-1.3
			c-0.1,0-0.2,0.1-0.3,0.1l-1.3,1.8c-0.1,0.1-0.1,0.1-0.2,0l-1.3-1.8c-0.1-0.1-0.2-0.1-0.3-0.1H732
			C731.2,365.4,730.5,366.1,730.5,366.9z"/>
	</g>
	<g>
		<path class="st0" d="M603.6,190.3c0-1.4-1.2-2.6-2.6-2.6c-1.4,0-2.6,1.2-2.6,2.6c0,1.4,1.2,2.6,2.6,2.6
			C602.4,192.9,603.6,191.7,603.6,190.3z M599,190.4c0,0-0.1-0.7,0.5-1.3c0.4,0.4,1.5,1.3,3.5,1.3c0,1.1-0.9,2-2,2
			C599.9,192.3,599,191.4,599,190.4z"/>
		<path class="st0" d="M596.5,194.9v1.2v1.5c0,0.4,0.3,0.7,0.7,0.7h7.5c0.4,0,0.7-0.3,0.7-0.7v-1.5v-1.2c0-0.8-0.7-1.5-1.5-1.5h-1.3
			c-0.1,0-0.2,0.1-0.3,0.1l-1.3,1.8c-0.1,0.1-0.1,0.1-0.2,0l-1.3-1.8c-0.1-0.1-0.2-0.1-0.3-0.1H598
			C597.2,193.4,596.5,194.1,596.5,194.9z"/>
	</g>
	<g>
		<path class="st0" d="M742.6,512.7c0-2.8-2.2-5-5-5c-2.8,0-5,2.3-5,5c0,2.8,2.3,5,5,5C740.3,517.7,742.6,515.5,742.6,512.7z
			 M733.8,512.8c0,0-0.1-1.4,0.9-2.5c0.7,0.7,2.9,2.5,6.7,2.5c0,2.1-1.7,3.8-3.8,3.8C735.5,516.6,733.8,514.9,733.8,512.8z"/>
		<path class="st0" d="M728.9,521.6v2.2v2.9c0,0.8,0.6,1.4,1.4,1.4h14.4c0.8,0,1.4-0.6,1.4-1.4v-2.9v-2.2c0-1.6-1.3-2.9-2.9-2.9
			h-2.5c-0.2,0-0.4,0.1-0.5,0.3l-2.5,3.6c-0.1,0.1-0.3,0.1-0.4,0l-2.5-3.6c-0.1-0.1-0.3-0.3-0.5-0.3h-2.5
			C730.2,518.7,728.9,520,728.9,521.6z"/>
	</g>
	<g>
		<path class="st0" d="M514.4,130.2c0-6-4.9-10.9-10.9-10.9c-6,0-10.9,4.9-10.9,10.9c0,6,4.9,10.9,10.9,10.9
			C509.5,141.1,514.4,136.2,514.4,130.2z M495.3,130.4c0,0-0.3-3.1,1.9-5.5c1.6,1.6,6.3,5.5,14.4,5.5c0,4.5-3.7,8.2-8.2,8.2
			C499,138.6,495.3,135,495.3,130.4z"/>
		<path class="st0" d="M484.8,149.5v4.8v6.2c0,1.7,1.4,3.1,3.1,3.1h31.2c1.7,0,3.1-1.4,3.1-3.1v-6.2v-4.8c0-3.4-2.8-6.2-6.2-6.2
			h-5.5c-0.4,0-0.9,0.3-1.1,0.6l-5.5,7.7c-0.2,0.3-0.6,0.3-0.8,0l-5.5-7.7c-0.2-0.3-0.7-0.6-1.1-0.6H491
			C487.6,143.3,484.8,146.1,484.8,149.5z"/>
	</g>
	<g>
		<path class="st0" d="M752.1,178.4c0-2.7-2.2-4.9-4.9-4.9c-2.7,0-4.9,2.2-4.9,4.9c0,2.7,2.2,4.9,4.9,4.9
			C749.9,183.2,752.1,181.1,752.1,178.4z M743.6,178.5c0,0-0.1-1.4,0.9-2.4c0.7,0.7,2.8,2.4,6.4,2.4c0,2-1.6,3.6-3.6,3.6
			C745.2,182.1,743.6,180.5,743.6,178.5z"/>
		<path class="st0" d="M738.9,187v2.1v2.8c0,0.8,0.6,1.4,1.4,1.4h13.9c0.8,0,1.4-0.6,1.4-1.4v-2.8V187c0-1.5-1.2-2.8-2.8-2.8h-2.5
			c-0.2,0-0.4,0.1-0.5,0.3l-2.4,3.4c-0.1,0.1-0.3,0.1-0.3,0l-2.4-3.4c-0.1-0.1-0.3-0.3-0.5-0.3h-2.5
			C740.2,184.2,738.9,185.4,738.9,187z"/>
	</g>
	<g>
		<path class="st0" d="M715.9,273c0-2.7-2.2-4.9-4.9-4.9c-2.7,0-4.9,2.2-4.9,4.9c0,2.7,2.2,4.9,4.9,4.9
			C713.7,277.8,715.9,275.7,715.9,273z M707.4,273.1c0,0-0.1-1.4,0.9-2.4c0.7,0.7,2.8,2.4,6.4,2.4c0,2-1.6,3.6-3.6,3.6
			C709,276.7,707.4,275.1,707.4,273.1z"/>
		<path class="st0" d="M702.7,281.6v2.1v2.8c0,0.8,0.6,1.4,1.4,1.4h13.9c0.8,0,1.4-0.6,1.4-1.4v-2.8v-2.1c0-1.5-1.2-2.8-2.8-2.8
			h-2.5c-0.2,0-0.4,0.1-0.5,0.3l-2.4,3.4c-0.1,0.1-0.3,0.1-0.3,0l-2.4-3.4c-0.1-0.1-0.3-0.3-0.5-0.3h-2.5
			C703.9,278.8,702.7,280,702.7,281.6z"/>
	</g>
	<g>
		<path class="st0" d="M313.6,89.4c0-1.4-1.2-2.6-2.6-2.6c-1.4,0-2.6,1.2-2.6,2.6s1.2,2.6,2.6,2.6C312.4,92,313.6,90.9,313.6,89.4z
			 M309.1,89.5c0,0-0.1-0.7,0.5-1.3c0.4,0.4,1.5,1.3,3.4,1.3c0,1.1-0.9,1.9-1.9,1.9C309.9,91.4,309.1,90.5,309.1,89.5z"/>
		<path class="st0" d="M306.5,94v1.1v1.5c0,0.4,0.3,0.7,0.7,0.7h7.4c0.4,0,0.7-0.3,0.7-0.7v-1.5V94c0-0.8-0.7-1.5-1.5-1.5h-1.3
			c-0.1,0-0.2,0.1-0.3,0.1l-1.3,1.8c-0.1,0.1-0.1,0.1-0.2,0l-1.3-1.8c-0.1-0.1-0.2-0.1-0.3-0.1H308C307.2,92.5,306.5,93.2,306.5,94z
			"/>
	</g>
	<g>
		<path class="st0" d="M121.6,39.3c0-1.4-1.2-2.6-2.6-2.6c-1.4,0-2.6,1.2-2.6,2.6c0,1.4,1.2,2.6,2.6,2.6
			C120.4,41.9,121.6,40.7,121.6,39.3z M117.1,39.4c0,0-0.1-0.7,0.5-1.3c0.4,0.4,1.5,1.3,3.4,1.3c0,1.1-0.9,1.9-1.9,1.9
			C117.9,41.3,117.1,40.4,117.1,39.4z"/>
		<path class="st0" d="M114.5,43.9v1.1v1.5c0,0.4,0.3,0.7,0.7,0.7h7.4c0.4,0,0.7-0.3,0.7-0.7v-1.5v-1.1c0-0.8-0.7-1.5-1.5-1.5h-1.3
			c-0.1,0-0.2,0.1-0.3,0.1l-1.3,1.8c-0.1,0.1-0.1,0.1-0.2,0l-1.3-1.8c-0.1-0.1-0.2-0.1-0.3-0.1H116
			C115.2,42.4,114.5,43.1,114.5,43.9z"/>
	</g>
	<g>
		<path class="st0" d="M243.6,29.3c0-1.4-1.2-2.6-2.6-2.6c-1.4,0-2.6,1.2-2.6,2.6s1.2,2.6,2.6,2.6C242.4,31.9,243.6,30.7,243.6,29.3
			z M239.1,29.4c0,0-0.1-0.7,0.5-1.3c0.4,0.4,1.5,1.3,3.4,1.3c0,1.1-0.9,1.9-1.9,1.9C239.9,31.3,239.1,30.4,239.1,29.4z"/>
		<path class="st0" d="M236.5,33.9v1.1v1.5c0,0.4,0.3,0.7,0.7,0.7h7.4c0.4,0,0.7-0.3,0.7-0.7v-1.5v-1.1c0-0.8-0.7-1.5-1.5-1.5h-1.3
			c-0.1,0-0.2,0.1-0.3,0.1l-1.3,1.8c-0.1,0.1-0.1,0.1-0.2,0l-1.3-1.8c-0.1-0.1-0.2-0.1-0.3-0.1H238
			C237.2,32.4,236.5,33.1,236.5,33.9z"/>
	</g>
	<g>
		<path class="st0" d="M704.6,37.9c0-1.4-1.1-2.6-2.6-2.6c-1.4,0-2.6,1.1-2.6,2.6c0,1.4,1.1,2.6,2.6,2.6
			C703.4,40.4,704.6,39.3,704.6,37.9z M700.1,37.9c0,0-0.1-0.7,0.4-1.3c0.4,0.4,1.5,1.3,3.4,1.3c0,1.1-0.9,1.9-1.9,1.9
			C700.9,39.9,700.1,39,700.1,37.9z"/>
		<path class="st0" d="M697.6,42.4v1.1V45c0,0.4,0.3,0.7,0.7,0.7h7.3c0.4,0,0.7-0.3,0.7-0.7v-1.5v-1.1c0-0.8-0.7-1.5-1.5-1.5h-1.3
			c-0.1,0-0.2,0.1-0.3,0.1l-1.3,1.8c-0.1,0.1-0.1,0.1-0.2,0l-1.3-1.8c-0.1-0.1-0.2-0.1-0.3-0.1h-1.3
			C698.3,40.9,697.6,41.6,697.6,42.4z"/>
	</g>
	<g>
		<path class="st0" d="M332.6,252.3c0-1.4-1.1-2.6-2.6-2.6c-1.4,0-2.6,1.1-2.6,2.6c0,1.4,1.1,2.6,2.6,2.6
			C331.4,254.8,332.6,253.7,332.6,252.3z M328.1,252.3c0,0-0.1-0.7,0.4-1.3c0.4,0.4,1.5,1.3,3.4,1.3c0,1.1-0.9,1.9-1.9,1.9
			C328.9,254.2,328.1,253.4,328.1,252.3z"/>
		<path class="st0" d="M325.6,256.8v1.1v1.5c0,0.4,0.3,0.7,0.7,0.7h7.3c0.4,0,0.7-0.3,0.7-0.7v-1.5v-1.1c0-0.8-0.7-1.5-1.5-1.5h-1.3
			c-0.1,0-0.2,0.1-0.3,0.1l-1.3,1.8c-0.1,0.1-0.1,0.1-0.2,0l-1.3-1.8c-0.1-0.1-0.2-0.1-0.3-0.1h-1.3
			C326.3,255.3,325.6,256,325.6,256.8z"/>
	</g>
	<g>
		<path class="st0" d="M86.4,466.1c0-2.7-2.2-5-5-5c-2.7,0-5,2.2-5,5c0,2.7,2.2,5,5,5C84.2,471.1,86.4,468.8,86.4,466.1z
			 M77.7,466.2c0,0-0.1-1.4,0.9-2.5c0.7,0.7,2.8,2.5,6.6,2.5c0,2-1.7,3.7-3.7,3.7C79.4,469.9,77.7,468.3,77.7,466.2z"/>
		<path class="st0" d="M72.9,474.9v2.2v2.8c0,0.8,0.6,1.4,1.4,1.4h14.2c0.8,0,1.4-0.6,1.4-1.4v-2.8v-2.2c0-1.6-1.3-2.8-2.8-2.8h-2.5
			c-0.2,0-0.4,0.1-0.5,0.3l-2.5,3.5c-0.1,0.1-0.3,0.1-0.4,0l-2.5-3.5c-0.1-0.1-0.3-0.3-0.5-0.3h-2.5C74.2,472,72.9,473.3,72.9,474.9
			z"/>
	</g>
	<g>
		<path class="st0" d="M171.7,385.1c0-1.4-1.1-2.6-2.6-2.6c-1.4,0-2.6,1.1-2.6,2.6c0,1.4,1.1,2.6,2.6,2.6
			C170.5,387.7,171.7,386.5,171.7,385.1z M167.2,385.2c0,0-0.1-0.7,0.4-1.3c0.4,0.4,1.5,1.3,3.4,1.3c0,1.1-0.9,1.9-1.9,1.9
			C168.1,387.1,167.2,386.2,167.2,385.2z"/>
		<path class="st0" d="M164.7,389.6v1.1v1.5c0,0.4,0.3,0.7,0.7,0.7h7.3c0.4,0,0.7-0.3,0.7-0.7v-1.5v-1.1c0-0.8-0.7-1.5-1.5-1.5h-1.3
			c-0.1,0-0.2,0.1-0.3,0.1l-1.3,1.8c-0.1,0.1-0.1,0.1-0.2,0l-1.3-1.8c-0.1-0.1-0.2-0.1-0.3-0.1h-1.3
			C165.4,388.2,164.7,388.8,164.7,389.6z"/>
	</g>
	<g>
		<path class="st0" d="M41.6,257.4c0-1.4-1.1-2.6-2.6-2.6c-1.4,0-2.6,1.1-2.6,2.6c0,1.4,1.1,2.6,2.6,2.6
			C40.4,259.9,41.6,258.8,41.6,257.4z M37.1,257.4c0,0-0.1-0.7,0.4-1.3c0.4,0.4,1.5,1.3,3.4,1.3c0,1.1-0.9,1.9-1.9,1.9
			C37.9,259.3,37.1,258.5,37.1,257.4z"/>
		<path class="st0" d="M34.6,261.9v1.1v1.5c0,0.4,0.3,0.7,0.7,0.7h7.3c0.4,0,0.7-0.3,0.7-0.7V263v-1.1c0-0.8-0.7-1.5-1.5-1.5h-1.3
			c-0.1,0-0.2,0.1-0.3,0.1l-1.3,1.8c-0.1,0.1-0.1,0.1-0.2,0l-1.3-1.8c-0.1-0.1-0.2-0.1-0.3-0.1h-1.3
			C35.3,260.4,34.6,261.1,34.6,261.9z"/>
	</g>
	<g>
		<path class="st0" d="M123,675.9c0-2.7-2.2-5-5-5c-2.7,0-5,2.2-5,5s2.2,5,5,5C120.7,680.8,123,678.6,123,675.9z M114.3,676
			c0,0-0.1-1.4,0.9-2.5c0.7,0.7,2.8,2.5,6.6,2.5c0,2-1.7,3.7-3.7,3.7C116,679.7,114.3,678,114.3,676z"/>
		<path class="st0" d="M109.5,684.6v2.2v2.8c0,0.8,0.6,1.4,1.4,1.4h14.2c0.8,0,1.4-0.6,1.4-1.4v-2.8v-2.2c0-1.6-1.3-2.8-2.8-2.8
			h-2.5c-0.2,0-0.4,0.1-0.5,0.3l-2.5,3.5c-0.1,0.1-0.3,0.1-0.4,0l-2.5-3.5c-0.1-0.1-0.3-0.3-0.5-0.3h-2.5
			C110.8,681.8,109.5,683.1,109.5,684.6z"/>
	</g>
</g>
</svg>
